<?xml version="1.0" standalone="no"?>
<!DOCTYPE svg PUBLIC "-//W3C//DTD SVG 20010904//EN"
 "http://www.w3.org/TR/2001/REC-SVG-20010904/DTD/svg10.dtd">
<svg version="1.0" xmlns="http://www.w3.org/2000/svg"
 width="260.000000pt" height="260.000000pt" viewBox="0 0 260.000000 260.000000"
 preserveAspectRatio="xMidYMid meet">
<metadata>
Created by potrace 1.11, written by Peter Selinger 2001-2013
</metadata>
<g transform="translate(0.000000,260.000000) scale(0.100000,-0.100000)"
fill="#000000" stroke="none">
<path d="M1188 2385 c-2 -2 -23 -5 -48 -8 -359 -40 -699 -299 -844 -643 -95
-228 -106 -501 -30 -740 89 -280 299 -518 567 -642 57 -27 190 -71 232 -77
269 -42 463 -17 677 84 343 163 581 518 602 899 l3 62 -107 0 -107 0 -7 -87
c-10 -134 -73 -302 -155 -413 -103 -139 -269 -261 -426 -311 -46 -15 -43 -14
-115 -29 -52 -10 -254 -15 -268 -6 -4 2 -25 7 -47 11 -53 9 -54 9 -100 24
-227 75 -427 258 -517 472 -26 62 -50 144 -63 214 -7 39 -7 213 0 245 3 14 8
41 11 60 24 142 124 320 242 431 136 128 277 199 467 234 56 10 220 5 290 -9
l70 -14 82 81 83 81 -25 14 c-31 16 -151 47 -220 57 -51 7 -242 15 -247 10z"/>
<path d="M1633 1656 c-250 -251 -457 -456 -460 -456 -2 0 -76 72 -165 160 -88
88 -163 160 -165 160 -8 0 -143 -140 -143 -148 0 -9 463 -472 473 -472 11 0
1057 1049 1057 1060 0 6 -32 43 -70 82 l-71 70 -456 -456z"/>
</g>
</svg>
