<?xml version="1.0" encoding="utf-8"?>
<!-- Generator: Adobe Illustrator 22.0.1, SVG Export Plug-In . SVG Version: 6.00 Build 0)  -->
<svg version="1.0" id="Lager_1" xmlns="http://www.w3.org/2000/svg" xmlns:xlink="http://www.w3.org/1999/xlink" x="0px" y="0px"
	 viewBox="0 0 302.2 360.6" style="enable-background:new 0 0 302.2 360.6;" xml:space="preserve">
<style type="text/css">
	.st0{fill:#E3E2E2;}
</style>
<path class="st0" d="M298.2,145.4c-2.6-5.6-6.9-10-11.3-14.4c-12.4-12.3-24.8-24.7-37.2-37.1c-17.6-17.6-35.2-35.2-52.8-52.8
	C184.3,28.5,171.7,15.9,159,3.3c-2.3-2.3-5.1-3.3-8-3.3c-2.8,0-5.7,1-8,3.3c-12.6,12.6-25.3,25.2-37.9,37.8
	C87.6,58.7,70.1,76.3,52.4,93.9c-12.4,12.4-24.8,24.8-37.2,37.1c-4.4,4.3-8.6,8.7-11.3,14.4c-5,10.5-5.3,21.3-0.7,32
	c11,25.6,44,31.4,63.6,11.4c14.5-14.8,29.2-29.3,43.8-43.9c0.4-0.4,0.9-0.7,1.7-1.3c0,1.2,0,2,0,2.7c0,58.1,0,116.1,0,174.2
	c0,2,0.1,4,0.3,6c2.2,19.2,18.5,34.1,38.4,33.9c19.9,0.2,36.3-14.8,38.4-33.9c0.2-2,0.3-4,0.3-6c0-58.1,0-116.1,0-174.2
	c0-0.7,0-1.5,0-2.7c0.8,0.6,1.3,0.9,1.7,1.3c14.6,14.6,29.3,29.1,43.8,43.9c19.5,20,52.6,14.2,63.6-11.4
	C303.5,166.8,303.2,156,298.2,145.4z"/>
</svg>
