<?xml version="1.0" encoding="utf-8"?>
<!-- Generator: Adobe Illustrator 22.0.1, SVG Export Plug-In . SVG Version: 6.00 Build 0)  -->
<svg version="1.0" id="Lager_1" xmlns="http://www.w3.org/2000/svg" xmlns:xlink="http://www.w3.org/1999/xlink" x="0px" y="0px"
	 viewBox="0 0 281.7 236.1" style="enable-background:new 0 0 281.7 236.1;" xml:space="preserve">
<style type="text/css">
	.st0{fill:#E3E2E2;}
</style>
<path class="st0" d="M113.6,3.1c-4.4,2.1-7.9,5.4-11.2,8.8c-9.6,9.7-19.3,19.4-29,29.1C59.6,54.7,45.9,68.5,32.1,82.2
	c-9.9,9.9-19.7,19.7-29.6,29.6c-1.8,1.8-2.6,4-2.6,6.2c0,2.2,0.8,4.4,2.6,6.2c9.8,9.9,19.7,19.7,29.6,29.6
	c13.8,13.8,27.5,27.5,41.3,41.3c9.7,9.7,19.4,19.4,29,29.1c3.4,3.4,6.8,6.7,11.2,8.8c8.2,3.9,16.7,4.1,25,0.6
	c20-8.6,24.5-34.4,8.9-49.7c-11.5-11.3-22.9-22.8-34.3-34.2c-0.3-0.3-0.5-0.7-1-1.3c1,0,1.5,0,2.1,0c45.4,0,90.7,0,136.1,0
	c1.6,0,3.1-0.1,4.7-0.3c15-1.7,26.7-14.5,26.5-30c0.2-15.5-11.5-28.3-26.5-30c-1.6-0.2-3.1-0.3-4.7-0.3c-45.4,0-90.7,0-136.1,0
	c-0.6,0-1.2,0-2.1,0c0.5-0.6,0.7-1,1-1.3C124.7,75,136,63.5,147.6,52.2c15.6-15.3,11.1-41.1-8.9-49.7C130.3-1.1,121.9-0.8,113.6,3.1
	z"/>
</svg>
