<?xml version="1.0" encoding="utf-8"?>
<!-- Generator: Adobe Illustrator 22.0.1, SVG Export Plug-In . SVG Version: 6.00 Build 0)  -->
<svg version="1.0" id="Lager_1" xmlns="http://www.w3.org/2000/svg" xmlns:xlink="http://www.w3.org/1999/xlink" x="0px" y="0px"
	 viewBox="0 0 281.7 236.1" style="enable-background:new 0 0 281.7 236.1;" xml:space="preserve">
<style type="text/css">
	.st0{fill:#E3E2E2;}
</style>
<path class="st0" d="M168.1,233c4.4-2.1,7.9-5.4,11.2-8.8c9.6-9.7,19.3-19.4,29-29.1c13.8-13.8,27.5-27.5,41.3-41.3
	c9.9-9.9,19.7-19.7,29.6-29.6c1.8-1.8,2.6-4,2.6-6.2c0-2.2-0.8-4.4-2.6-6.2c-9.8-9.9-19.7-19.7-29.6-29.6
	c-13.8-13.8-27.5-27.5-41.3-41.3c-9.7-9.7-19.4-19.4-29-29.1c-3.4-3.4-6.8-6.7-11.2-8.8c-8.2-3.9-16.7-4.1-25-0.6
	c-20,8.6-24.5,34.4-8.9,49.7C145.7,63.5,157,75,168.4,86.4c0.3,0.3,0.5,0.7,1,1.3c-1,0-1.5,0-2.1,0c-45.4,0-90.7,0-136.1,0
	c-1.6,0-3.1,0.1-4.7,0.3c-15,1.7-26.7,14.5-26.5,30c-0.2,15.5,11.5,28.3,26.5,30c1.6,0.2,3.1,0.3,4.7,0.3c45.4,0,90.7,0,136.1,0
	c0.6,0,1.2,0,2.1,0c-0.5,0.6-0.7,1-1,1.3c-11.4,11.4-22.7,22.9-34.3,34.2c-15.6,15.3-11.1,41.1,8.9,49.7
	C151.4,237.1,159.9,236.8,168.1,233z"/>
</svg>
