<?xml version="1.0" encoding="utf-8"?>
<!-- Generator: Adobe Illustrator 22.0.1, SVG Export Plug-In . SVG Version: 6.00 Build 0)  -->
<svg version="1.0" id="Lager_1" xmlns="http://www.w3.org/2000/svg" xmlns:xlink="http://www.w3.org/1999/xlink" x="0px" y="0px"
	 viewBox="0 0 204.7 184.3" style="enable-background:new 0 0 204.7 184.3;" xml:space="preserve">
<style type="text/css">
	.st0{fill:#B4CCC8;}
	.st1{fill:#586665;}
	.st2{fill:#6C8281;}
	.st3{fill:#CC4831;}
	.st4{opacity:0.56;fill:#E6543A;}
	.st5{fill:#A03433;}
	.st6{opacity:0.5;fill:#882F23;}
</style>
<polygon class="st0" points="175.7,59.8 76.8,42 0,79.7 31.1,135.7 130.5,149.6 204.7,112 "/>
<polygon class="st1" points="204.7,112 130.5,149.6 31.1,135.7 0,79.7 0.2,111.4 28.6,167.7 129.7,184.3 202.2,144 "/>
<polygon class="st2" points="129.7,184.3 28.6,167.7 31.1,135.7 130.5,149.6 "/>
<polygon class="st3" points="156.8,10.8 83.6,0 27.1,28.4 50.5,66.5 124.1,75.4 178.6,49.1 "/>
<polygon class="st4" points="140.2,16.9 89.8,9.3 50.2,29.3 66.6,56 117.3,62.2 155.6,43.8 "/>
<polygon class="st5" points="178.6,49.1 124.1,75.4 50.5,66.5 27.1,28.4 27.5,80.3 48.9,115.7 123.7,126.3 177,98.3 "/>
<polygon class="st6" points="123.7,126.3 48.9,115.7 50.5,66.5 124.1,75.4 "/>
</svg>
