<?xml version="1.0" encoding="utf-8"?>
<!-- Generator: Adobe Illustrator 22.0.1, SVG Export Plug-In . SVG Version: 6.00 Build 0)  -->
<svg version="1.0" id="Lager_1" xmlns="http://www.w3.org/2000/svg" xmlns:xlink="http://www.w3.org/1999/xlink" x="0px" y="0px"
	 viewBox="0 0 15.6 15.6" style="enable-background:new 0 0 15.6 15.6;" xml:space="preserve">
<style type="text/css">
	.st0{fill:#020203;}
</style>
<path class="st0" d="M7.8,0C5.7,0,5.4,0,4.6,0c-0.8,0-1.4,0.2-1.9,0.4c-0.5,0.2-1,0.5-1.4,0.9S0.6,2.2,0.4,2.7
	C0.2,3.2,0.1,3.8,0,4.6c0,0.8,0,1.1,0,3.2s0,2.4,0,3.2c0,0.8,0.2,1.4,0.4,1.9c0.2,0.5,0.5,1,0.9,1.4c0.4,0.4,0.9,0.7,1.4,0.9
	c0.5,0.2,1.1,0.3,1.9,0.4c0.8,0,1.1,0,3.2,0s2.4,0,3.2,0c0.8,0,1.4-0.2,1.9-0.4c0.5-0.2,1-0.5,1.4-0.9c0.4-0.4,0.7-0.9,0.9-1.4
	c0.2-0.5,0.3-1.1,0.4-1.9c0-0.8,0-1.1,0-3.2s0-2.4,0-3.2c0-0.8-0.2-1.4-0.4-1.9c-0.2-0.5-0.5-1-0.9-1.4c-0.4-0.4-0.9-0.7-1.4-0.9
	C12.4,0.2,11.9,0.1,11,0C10.2,0,9.9,0,7.8,0z M7.8,1.4c2.1,0,2.3,0,3.2,0c0.8,0,1.2,0.2,1.5,0.3c0.4,0.1,0.6,0.3,0.9,0.6
	c0.3,0.3,0.4,0.5,0.6,0.9c0.1,0.3,0.2,0.7,0.3,1.5c0,0.8,0,1.1,0,3.2s0,2.3,0,3.2c0,0.8-0.2,1.2-0.3,1.5c-0.1,0.4-0.3,0.6-0.6,0.9
	c-0.3,0.3-0.5,0.4-0.9,0.6c-0.3,0.1-0.7,0.2-1.5,0.3c-0.8,0-1.1,0-3.2,0c-2.1,0-2.3,0-3.2,0c-0.8,0-1.2-0.2-1.5-0.3
	c-0.4-0.1-0.6-0.3-0.9-0.6C2,13,1.8,12.8,1.7,12.4c-0.1-0.3-0.2-0.7-0.3-1.5c0-0.8,0-1.1,0-3.2c0-2.1,0-2.3,0-3.2
	c0-0.8,0.2-1.2,0.3-1.5C1.8,2.8,2,2.6,2.3,2.3C2.6,2,2.8,1.8,3.2,1.7c0.3-0.1,0.7-0.2,1.4-0.3C5.5,1.4,5.7,1.4,7.8,1.4
	C7.8,1.4,7.8,1.4,7.8,1.4z M7.8,3.8c-2.2,0-4,1.8-4,4c0,2.2,1.8,4,4,4c2.2,0,4-1.8,4-4C11.8,5.6,10,3.8,7.8,3.8z M7.8,10.4
	c-1.4,0-2.6-1.2-2.6-2.6s1.2-2.6,2.6-2.6s2.6,1.2,2.6,2.6S9.3,10.4,7.8,10.4z M12.9,3.6c0,0.5-0.4,0.9-0.9,0.9
	c-0.5,0-0.9-0.4-0.9-0.9s0.4-0.9,0.9-0.9C12.5,2.7,12.9,3.1,12.9,3.6z"/>
</svg>
