<?xml version="1.0" encoding="utf-8"?>
<!-- Generator: Adobe Illustrator 22.0.1, SVG Export Plug-In . SVG Version: 6.00 Build 0)  -->
<svg version="1.0" id="Lager_1" xmlns="http://www.w3.org/2000/svg" xmlns:xlink="http://www.w3.org/1999/xlink" x="0px" y="0px"
	 viewBox="0 0 392.5 403.8" style="enable-background:new 0 0 392.5 403.8;" xml:space="preserve">
<style type="text/css">
	.st0{fill:#FADF37;}
	.st1{fill:#F7B633;}
	.st2{opacity:0.52;fill:#F7B633;}
</style>
<polygon class="st0" points="324.5,102.5 253.4,104.6 216.8,0 174.7,9.4 167.2,72.8 105.9,36.6 63.8,46 95.2,121.3 17.4,152.1 
	0,158 96.2,211.3 78.5,288.7 160.3,288.7 173.7,403.8 215.8,394.4 251.3,314.9 282.4,366.1 324.5,356.7 301.5,262.6 350.4,255 
	392.5,245.6 307.8,181 "/>
<polygon class="st1" points="282.4,111.9 211.3,114 174.7,9.4 136,88.9 63.8,46 80.5,130.8 0,158 81.6,220.7 63.8,298.1 
	132.9,298.1 173.7,403.8 211.3,324.3 282.4,366.1 261.5,272 350.4,255 265.7,190.4 "/>
<polygon class="st0" points="208.5,149 142.3,129.3 108,183.5 135.5,261.3 201.6,281 236.2,223.7 "/>
<polygon class="st2" points="261.5,272 301.5,264.7 324.5,356.7 282.4,366.1 "/>
<polygon class="st2" points="282.4,111.9 324.5,102.5 307.8,181 265.7,190.4 "/>
<polygon class="st2" points="174.7,9.4 216.8,0 253.4,104.6 211.3,114 "/>
<polygon class="st0" points="282.4,111.9 324.5,102.5 253.4,104.6 211.3,114 "/>
</svg>
