<?xml version="1.0" encoding="utf-8"?>
<!-- Generator: Adobe Illustrator 22.0.1, SVG Export Plug-In . SVG Version: 6.00 Build 0)  -->
<svg version="1.0" id="Lager_1" xmlns="http://www.w3.org/2000/svg" xmlns:xlink="http://www.w3.org/1999/xlink" x="0px" y="0px"
	 viewBox="0 0 197.2 360.1" style="enable-background:new 0 0 197.2 360.1;" xml:space="preserve">
<style type="text/css">
	.st0{fill:#CC9A38;}
	.st1{fill:#F7B533;}
	.st2{fill:#F8B635;}
</style>
<path class="st0" d="M103.1,271.3c1.3-2.9,5.7-2.9,7,0c0.1,0.2,0.2,0.4,0.2,0.6c0.6,2.6,0.2,5.4,0.2,8.1c0,19.1-0.1,38.1,0,57.2
	c0,10.6-7.2,22.7,3.7,22.9c14.8,0,31.6-10.8,31.8-21.9c0.4-20.7,0.4-41.4,0-62.1c-0.1-7.5,2.2-10.1,9.7-9.7c5.2,0.2,0.3,6.3,5.5,5.6
	c10.5-1.4,26.5-14,21.6-25.6c-12.1-28.4-24.4-54.1-36.9-81.3c0-0.1,0-0.2,0-0.4c0.4-1.7,2.9-1.8,3.7-0.3c1.5,2.9,2.7,5,3.7,7.2
	c8.4,18.3,16.7,36.6,25.1,54.9c3.7,8.2-5.9,16.1,0.6,13.4c6.2-2.6,21.7-13.3,17.4-22.9c-8.4-18.6-15.5-35.7-24-54.2
	c-2-4.4-3.9-8-6.1-13.4c-6.6-16.3-17.9-24.8-34.3-27.4c-8.5-1.4-16.9-3.2-25.3-3.3h-0.2c-8.4,0.1-16.9-0.1-25.3,1.3
	c-16.4,2.6-39.5,13.4-45,30.2c-1.5,4.6,6.6,8.2,4.5,12.6c-8.5,18.5-17.3,36.9-25.4,55.6c-3.4,7.8-12.9,19.6-6.7,22.2
	c6.5,2.7,22.3-5.9,26.1-14.1c8.4-18.3,16.7-36.6,25.1-54.9c1-2.2,2.2-4.3,3.7-7.2c0.8-1.6,3.3-1.4,3.7,0.3c0,0.1,0,0.3,0,0.4
	c-12.6,27.5-25.2,54.9-38.4,83.3c-3.9,8.5,2.3,18.2,11.6,18.2c5.7,0,11.4,0,17-0.3c7.5-0.3,9.9,2.2,9.7,9.7
	c-0.4,20.7-0.4,41.4,0,62.1c0.2,11.2-8.6,22.2,2.8,21.9c16.4,0,32.6-12.3,32.7-22.9c0.1-19.1,0-38.1,0-57.2c0-2.7-0.5-5.6,0.2-8.1
	C102.9,271.7,103,271.5,103.1,271.3z"/>
<path class="st1" d="M89.4,277c1.3-2.9,5.7-2.9,7,0c0.1,0.2,0.2,0.4,0.2,0.6c0.6,2.6,0.2,5.4,0.2,8.1c0,19.1-0.1,38.1,0,57.2
	c0,10.6,6.5,16.9,17.4,17.2c11.4,0.3,17.9-5,18.1-16.1c0.4-20.7,0.4-41.4,0-62.1c-0.1-7.5,2.2-10.1,9.7-9.7
	c5.2,0.2,10.4,0.3,15.7,0.3c9.9,0,16.5-10.3,12.4-19.3c-12.9-28-25.4-55.1-37.8-82.2c0-0.1,0-0.2,0-0.4c0.4-1.7,2.9-1.8,3.7-0.3
	c1.5,2.9,2.7,5,3.7,7.2c8.4,18.3,16.7,36.6,25.1,54.9c3.7,8.2,7.8,10.3,14.3,7.6c6.2-2.6,8.5-8,5.1-15.7
	c-8.2-18.7-16.9-37.1-25.4-55.6c-2-4.4-4.6-8.7-6.1-13.4c-5.5-16.8-17.9-24.8-34.3-27.4c-8.5-1.4-16.9-2.2-25.3-2.3h-0.2
	c-8.4,0.1-16.9,0.9-25.3,2.3c-16.4,2.6-28.9,10.6-34.3,27.4c-1.5,4.6-4,8.9-6.1,13.4c-8.5,18.5-17.3,36.9-25.4,55.6
	c-3.4,7.8-1.1,13.1,5.1,15.7c6.5,2.7,10.6,0.6,14.3-7.6c8.4-18.3,16.7-36.6,25.1-54.9c1-2.2,2.2-4.3,3.7-7.2
	c0.8-1.6,3.3-1.4,3.7,0.3c0,0.1,0,0.3,0,0.4c-12.6,27.5-25.2,54.9-38.4,83.3c-3.9,8.5,2.3,18.2,11.6,18.2c5.7,0,11.4,0,17-0.3
	c7.5-0.3,9.9,2.2,9.7,9.7c-0.4,20.7-0.4,41.4,0,62.1c0.2,11.2,6.7,16.4,18.1,16.1c10.8-0.3,17.3-6.6,17.4-17.2
	c0.1-19.1,0-38.1,0-57.2c0-2.7-0.5-5.6,0.2-8.1C89.2,277.4,89.3,277.2,89.4,277z"/>
<path class="st0" d="M107.9,111.8c7.6,0.2,0.2,7.2,6.9,4.6c3.4-1.3,19.7-9.4,22.8-11.3c15.8-9.8,26.5-27.2,27-47.3
	c0.8-31.2-23.8-56.9-55.4-57.8c-6.4-0.2-12.6,0.7-18.4,2.6c-11.2,3.7-28.9,11.5-37.6,21c-6.8,9.2,0.4,18,0,30.3
	C52.3,84.3,77.4,110.8,107.9,111.8z"/>
<path class="st2" d="M90.6,121c31.4,1,57.7-24,58.5-55.7c0.8-31.2-23.8-56.9-55.4-57.8C62.8,6.7,36.9,31.6,35.9,63.1
	C35,93.5,60.1,120,90.6,121z"/>
</svg>
