<?xml version="1.0" encoding="utf-8"?>
<!-- Generator: Adobe Illustrator 22.0.1, SVG Export Plug-In . SVG Version: 6.00 Build 0)  -->
<svg version="1.0" id="Lager_1" xmlns="http://www.w3.org/2000/svg" xmlns:xlink="http://www.w3.org/1999/xlink" x="0px" y="0px"
	 viewBox="0 0 157.2 365.8" style="enable-background:new 0 0 157.2 365.8;" xml:space="preserve">
<style type="text/css">
	.st0{fill:#CD9A39;}
	.st1{fill:#F7B533;}
</style>
<path class="st0" d="M143.8,135.6c-3.2-1.7-6.3-3.3-9.6-4.6c-21.1-8.4-41.5-12.5-63.8-9.4c-6.1,0.8-12.2,1.8-18.1,3.4
	c-10.5,2.7-35.1,14-43.6,21.5c-3,2.7,9,0.6,9,4.5c-0.5,27.1-0.3,54.2-0.2,81.4c0,7-7.2,21.4-0.2,21.3c7.1-0.1,23.8-10.8,25.2-15.5
	c0.3-0.8,0.4-1.7,0.4-2.6V168c0-1.2,1-2.1,2.1-2.1h0.7H46c1.2,0,2.1,1,2.1,2.1v69c0,31.8,0,63.7,0,95.5c0,3.3-0.1,6.6,0.5,9.9
	c1.4,8.4-8.7,22.4-0.5,22.9C62.3,366.1,85,350,85,335.4c0-26.4,0-52.7,0.1-79.1V240c0-1.5,1.5-2.7,3.4-2.7c1.8,0,3.4,1.2,3.4,2.7
	v97.9v0.2c0.5,12.5-8.6,27.9,2.8,27.7c12.3-0.2,32.4-15,32.4-28.4c0-53.6,1.8-169.1,1.8-169.1V168c0-0.9,0.6-1.7,1.5-2
	c0.2-0.1,0.4-0.1,0.7-0.1l0,0l0,0h1c1.2,0,2.1,1,2.1,2.1v68.7c0,2.3,1,4.6,2.9,5.9c2.3,1.6-8,11.3-3.4,11.2
	c8.7-0.2,23.3-9.9,23.3-18.7c0-25.6,0.4-76.7,0.4-76.7C157.7,146.8,152.9,140.4,143.8,135.6z"/>
<path class="st0" d="M86.2,111.8c7.6,0.2,0.2,7.2,6.9,4.6c3.4-1.3,19.7-9.4,22.8-11.3c15.8-9.8,26.5-27.2,27-47.3
	C143.7,26.6,119.1,0.9,87.5,0c-6.4-0.2-12.6,0.7-18.4,2.6c-11.2,3.7-28.9,11.5-37.6,21c-6.8,9.2,0.4,18,0,30.3
	C30.6,84.3,55.7,110.8,86.2,111.8z"/>
<path class="st1" d="M128.2,143.1c-3.2-1.7-6.3-3.3-9.6-4.6c-21.1-8.4-43.2-10.7-65.5-7.7c-16.9,2.3-33.7,6.1-47,17.9
	c-3,2.7-5.6,7.6-5.7,11.6c-0.5,27.1-0.3,54.2-0.2,81.4c0,7,5.7,12.5,12.7,12.4c7.1-0.1,10.8-2,12.3-6.7c0.3-0.8,0.4-1.7,0.4-2.6
	v-67.6c0-1.2,1-2.1,2.1-2.1h0.7h0.3c1.2,0,2.1,1,2.1,2.1v69c0,31.8,0,63.7,0,95.5c0,3.3-0.1,6.6,0.5,9.9c1.4,8.4,6.8,13.1,15.1,13.6
	c14.2,0.8,21.3-6,21.3-20.6c0-26.4,0-52.7,0.1-79.1v-16.3c0-1.5,1.5-2.7,3.4-2.7c1.8,0,3.4,1.2,3.4,2.7v97.9v0.2
	c0.5,12.5,6.6,18.6,18,18.5c12.3-0.2,18.8-7.4,18.8-20.8c0-53.6,0.1-167.4,0.1-167.4v-0.3c0-0.9,0.6-1.7,1.5-2
	c0.2-0.1,0.4-0.1,0.7-0.1l0,0l0,0h1c1.2,0,2.1,1,2.1,2.1V246c0,2.3,1,4.6,2.9,5.9c2.3,1.6,5.8,2.3,10.4,2.2
	c8.7-0.2,11.2-2.6,11.2-11.4c0-25.6-0.7-51.2,0.4-76.7C142.1,154.3,137.3,147.9,128.2,143.1z"/>
<path class="st1" d="M68.9,121c31.4,1,57.7-24,58.5-55.7C128.2,34.1,103.6,8.4,72,7.5C41.1,6.7,15.2,31.6,14.2,63.1
	C13.3,93.5,38.4,120,68.9,121z"/>
</svg>
