<?xml version="1.0" encoding="utf-8"?>
<!-- Generator: Adobe Illustrator 22.0.1, SVG Export Plug-In . SVG Version: 6.00 Build 0)  -->
<svg version="1.0" id="Lager_1" xmlns="http://www.w3.org/2000/svg" xmlns:xlink="http://www.w3.org/1999/xlink" x="0px" y="0px"
	 viewBox="0 0 392.5 403.8" style="enable-background:new 0 0 392.5 403.8;" xml:space="preserve">
<style type="text/css">
	.st0{fill:#FADF37;}
	.st1{fill:#F7B633;}
	.st2{opacity:0.52;fill:#F7B633;}
</style>
<polygon class="st0" points="68,102.5 139.1,104.6 175.7,0 217.8,9.4 225.3,72.8 286.6,36.6 328.7,46 297.3,121.3 375.1,152.1 
	392.5,158 296.3,211.3 314.1,288.7 232.2,288.7 218.9,403.8 176.8,394.4 141.2,314.9 110.1,366.1 68,356.7 91,262.6 42.1,255 
	0,245.6 84.7,181 "/>
<polygon class="st1" points="110.1,111.9 181.2,114 217.8,9.4 256.6,88.9 328.7,46 312,130.8 392.5,158 310.9,220.7 328.7,298.1 
	259.7,298.1 218.9,403.8 181.2,324.3 110.1,366.1 131,272 42.1,255 126.8,190.4 "/>
<polygon class="st0" points="184.1,149 250.2,129.3 284.6,183.5 257.1,261.3 190.9,281 156.4,223.7 "/>
<polygon class="st2" points="131,272 91,264.7 68,356.7 110.1,366.1 "/>
<polygon class="st2" points="110.1,111.9 68,102.5 84.7,181 126.8,190.4 "/>
<polygon class="st2" points="217.8,9.4 175.7,0 139.1,104.6 181.2,114 "/>
<polygon class="st0" points="110.1,111.9 68,102.5 139.1,104.6 181.2,114 "/>
</svg>
