<?xml version="1.0" encoding="utf-8"?>
<!-- Generator: Adobe Illustrator 22.0.1, SVG Export Plug-In . SVG Version: 6.00 Build 0)  -->
<svg version="1.0" id="Lager_1" xmlns="http://www.w3.org/2000/svg" xmlns:xlink="http://www.w3.org/1999/xlink" x="0px" y="0px"
	 viewBox="0 0 330 757.1" style="enable-background:new 0 0 330 757.1;" xml:space="preserve">
<style type="text/css">
	.st0{fill:#37495A;}
	.st1{fill:#3B5163;}
	.st2{fill:#C2E3E2;}
	.st3{fill:#558F96;}
	.st4{fill:#9A605C;}
	.st5{fill:none;}
	.st6{opacity:0.64;fill:#D4EBED;enable-background:new    ;}
	.st7{fill:none;stroke:#7DB654;stroke-width:8.8446;stroke-miterlimit:10;}
	.st8{opacity:0.18;}
	.st9{fill:#3B5162;stroke:#3B5162;stroke-width:4.7281;stroke-linecap:round;stroke-linejoin:round;stroke-miterlimit:10;}
	.st10{fill:none;stroke:#7DB654;stroke-width:8.4305;stroke-linecap:round;stroke-linejoin:round;stroke-miterlimit:10;}
	.st11{fill:none;stroke:#7DB654;stroke-width:8.2094;stroke-linecap:round;stroke-linejoin:round;stroke-miterlimit:10;}
	.st12{fill:none;stroke:#04B0AF;stroke-width:8.7173;stroke-linecap:round;stroke-linejoin:round;stroke-miterlimit:10;}
	.st13{fill:none;stroke:#04B0AF;stroke-width:8.859;stroke-linecap:round;stroke-linejoin:round;stroke-miterlimit:10;}
	.st14{fill:#FFFFFF;}
	.st15{fill:#EE7234;}
	.st16{fill:#F7B533;}
	.st17{fill:#D98747;}
	.st18{opacity:0.66;fill:#FFFFFF;}
</style>
<path class="st0" d="M330,710.2c0,0,0-467.5,0-514.7s-33.7-63.2-33.7-63.2L73,4.3c0,0-14.9-9.7-24.6,0c0,0-7,2.6-7,19.7
	s0,523.2,0,523.2s-2,33,31.3,54.1c33.2,21.1,230.2,132.1,230.2,132.1S330,740.7,330,710.2z"/>
<polygon class="st0" points="52,1.7 8,25.8 113.5,144.5 251.9,201.3 274,194.3 313.3,172.2 293.7,145 "/>
<polygon class="st0" points="319.1,732.3 277,755.4 263.4,689.1 326.6,673.2 "/>
<path class="st1" d="M288.6,733.1c0,0,0-467.5,0-514.7s-33.7-63.2-33.7-63.2L31.7,27.2c0,0-14.6-8.8-25.6,0c0,0-6.1,4.8-6.1,22
	s0,520.9,0,520.9s-2,33,31.3,54.1s230.2,132.1,230.2,132.1S288.6,763.6,288.6,733.1z"/>
<path class="st2" d="M276.5,647c0,0,0-337.4,0-376.2S248.9,219,248.9,219L38.1,93.2c0,0-12-7.2-21,0c0,0-5,4-5,18.1s0,383.8,0,383.8
	s-1.6,27.1,25.7,44.4l216.5,126.6C254.3,666.1,276.5,672,276.5,647z"/>
<path class="st3" d="M160,653.5c-0.5-3.4-0.7-7-1.7-10.3c-4.9-16.5-13.2-30.4-29.9-37c-10.7-4.3-19.3,1.1-21.5,12.5
	c-3.3,16.9,9,41.4,25.5,50.8C147.4,678.1,159.7,671,160,653.5z"/>
<path class="st4" d="M157,134.4c-0.2-1.5-0.3-3.1-0.7-4.5c-2.1-7.2-5.8-13.3-13.1-16.2c-4.7-1.9-8.4,0.5-9.4,5.5
	c-1.4,7.4,3.9,18.1,11.1,22.2C151.5,145.2,156.9,142.1,157,134.4z"/>
<rect x="139.8" y="53.7" class="st5" width="144.9" height="660.6"/>
<rect x="11.2" y="40.4" class="st5" width="132.9" height="205.2"/>
<polygon class="st5" points="142.9,95.8 275.8,95.8 275.8,693.9 142.9,647.1 "/>
<g>
	<path class="st6" d="M248.9,219l-106-63.2V601l111.4,65.1c0,0,17.8,4.7,21.6-12.3V260.6C271.6,229.8,248.9,219,248.9,219z"/>
</g>
<path class="st7" d="M237.6,520.4c-0.5-3.4-0.7-7-1.7-10.3c-4.9-16.5-13.2-30.4-29.9-37c-10.7-4.3-19.3,1.1-21.5,12.5
	c-3.3,16.9,9,41.4,25.5,50.8C224.9,545,237.2,537.9,237.6,520.4z"/>
<path class="st7" d="M237.6,601.8c-0.5-3.4-0.7-7-1.7-10.3c-4.9-16.5-13.2-30.4-29.9-37c-10.7-4.3-19.3,1.1-21.5,12.5
	c-3.3,16.9,9,41.4,25.5,50.8C224.9,626.4,237.2,619.2,237.6,601.8z"/>
<g id="BX6QQ9.tif_13_" class="st8">
	<g>
		<path class="st9" d="M119.8,174.4c0.5,0.3,1,0.6,1.5,1c1.1,0.8,2.3,1.5,1.6,3.1c-0.1,0.2,0.2,1,0.4,1.1c2.3,1.1,3.3,3.4,4.7,5.3
			c0.3,0.5,0.7,0.9,1.1,1.3c1.4,1.5,2.8,3,4.2,4.5c0.7,0.8,2,1.6,3,2c1.1,0.4,2.2,0.8,3.3,1.3c0.8,0.4,1.5,1.3,2.2,2
			c0.5,0.5,0.9,1,1.3,1.5c0.5,0.8,1,1.7,1.5,2.6c0.4,0.7,0.8,1.4,1.2,2c0.1,0.2,0.5,0.4,0.5,0.6c0.3,1.9,1.6,3.2,2.9,4.6
			c0.8,0.8,0.5,1.4-0.2,2c-0.4,0.3-1,0.8-1,1.4c0,2.3,0.1,4.6,0.1,7c0,1.3,0.7,2.7,1.9,3.3c0.9,0.5,1.2,1.2,1.2,2.5
			c0,0.6-0.3,1.5-0.8,1.7c-1.2,0.6-1.3,1.7-0.9,2.7c0.5,1.7,1.3,3.3,2.1,4.9c0.5,1.1,1.1,2.1,1.6,3.1c0.4,0.8,0.5,1.4-0.1,2.2
			c-0.5,0.7-0.3,2.1-0.3,3.2c0,1.1,0,2.1-1,2.8s-1.5,1.8-1.1,3.4c0.2,0.6,0.2,1.2,0.3,1.9c0.1,1.1,0.9,2.8,1.7,3.6
			c2.2,2.6,2.2,5.8,3.3,8.6c-0.9,0.4-1.5,0.7-2.2,0.9c-0.3,0.1-0.8,0-1.1-0.2c-1.2-0.9-2.3-1.3-3.5-0.4c-0.3,0.2-1.3-0.3-2.1-0.5
			c0.1,0-0.1,0-0.1,0c-1,2.3-1.2,2.3-2.8,0.1c-0.7-1-1.4-2-2.1-3.2c0,1.1-0.1,2-0.1,2.8c-0.1,0-0.3,0.1-0.4,0.1c-0.7-1-1.3-2-2-3
			c-0.2,0.1-0.4,0.1-0.6,0.2c-0.2,0.9-0.4,1.8-0.7,2.7c-0.3,0.9-0.3,1.6,0.6,2.5c0.5,0.5,0.6,1.6,1,2.7c-1.2-0.7-1.9-1.1-2.7-1.6
			c0.6,2.1-1.1,1.1-1.6,1.4c0.1,0.8,0.4,1.6,0.1,2.1c-0.7,1.3-2.1,0.4-3.2,0.4c-0.5,0-1,0-1.6,0c0.4,0.4,0.7,0.9,1.1,1.3
			c0.3,0.4,1,1.1,0.9,1.3c-0.2,0.5-0.7,0.9-1.2,1.4c0.6,1.4,1.4,3.1-0.7,3.8c-0.2,1.9-2.9,1.9-2.6,4.3c0,0.3-0.6,0.6-1.1,1.1
			c2.1,0.2,2.8,1.2,2.2,3.1c-0.5-0.5-1-0.9-1.5-1.3c-0.1,0.1-0.2,0.2-0.3,0.3c0.7,0.8,1.3,1.6,2.1,2.3c0.7,0.7,1.5,1.2,2.3,1.7
			c-0.1,0.2-0.1,0.3-0.2,0.5c-0.4,0-0.7,0.1-1.2,0.2c0.4,0.2,0.7,0.5,1,0.6c1.1,0.4,1.2,1.1,0.6,1.7c-1,0.9-2.2,1.5-3.1,2.5
			c-1,1.1-1.9,2.4-2.6,3.8c-0.6,1.2-0.5,2.7-1.1,3.9c-0.4,0.9-1.2,1.7-2,2c-1,0.3-1.4,0.8-1.6,1.8c-0.2,1.2-0.6,1.7-2,1.3
			c-1.9-0.6-3.9,1.2-4.1,3.2c0,0.4-0.5,0.7-0.8,1.1c-0.2-0.3-0.5-0.6-0.7-1c-0.5-0.7-0.9-1.4-1.4-2.2c-0.6,1,1.3,3.7-1.3,2.5
			c-0.8,1.8-1.5,3.6-2.3,5.6c-0.7-0.9-1.2-1.7-1.7-2.4c-0.1,0.1-0.2,0.2-0.3,0.2c0.2,0.4,0.5,0.8,0.8,1.3c-0.6,0.3-1,0.6-1.5,0.7
			c-2.2,0.5-2.4,1.3-1.9,3.7c0.2,0.9-0.9,2.1-1.6,3c-0.5,0.6-1.4,0.8-2.2,1.1c0.9,2.2-1,1.5-2,1.8c0.6,0.5,1,0.9,1.6,1.4
			c-1.1,1-1.5,2.7-3.5,2c-0.2,0.8-0.4,1.9-1.8,0.6c0.1,0.7,0.2,1.2,0.3,1.8c-1.4,0.2-1.5-0.8-1.6-2.2c-0.3,2.4,0,2.9,2.3,5
			c-0.4,1.1-0.8,1.9-1,2.9c-0.2,0.9-0.1,1.8-0.9,2.5s-0.4,3.8,0.6,4.5c1.2,0.9,1.1,1.6,0.5,2.8c-0.6-0.9-1.2-1.6-1.8-2.3
			c-0.3,0.5-0.4,1.2-0.7,1.3c-1.3,0.5-0.9,1.4-0.4,2.5c0.4,0.8,1.5,2.1-0.7,2.2c0.7,0.9,1.2,1.6,1.6,2.2c-0.2,2.2-0.5,4.4-0.7,6.6
			c0,0.4,0.4,1,0.6,1.5c0.8,1.5,0.9,2.9,0.2,4.3c0.7,0.8,1.4,1.7,2.7,1.3c0.3-0.1,0.9,0.5,1,0.6c0.1,0.9,0.1,1.6,0.2,2.3
			c0.2,0,0.3,0.1,0.5,0.1c0.1-0.2,0.1-0.5,0.2-0.6c0.5-0.4,1-0.9,1.7-1c0.3,0,0.8,0.7,1.1,1.2c0.5,0.8,0.9,1.7,1.2,2.6
			c0.4,1.1,1,1.9,2.2,1.5c0-0.8,0-1.7-0.1-2.6c0.1,0,0.2,0,0.4,0c0.4,1.3,0.9,2.6,1.3,3.9c-0.2,0.1-0.3,0.1-0.5,0.2
			c0.4,0.5,0.7,0.9,1.4,1.9c-1-0.3-1.6-0.5-2.2-0.7c-0.1,0.1-0.2,0.2-0.2,0.3c0.6,0.5,1.2,1.2,1.9,1.5c1.4,0.6,2.3,1.3,2.8,3
			c0.2,0.8,1,1.6,1.5,2.4c0.3,0.5,0.5,1,0.8,1.6c-0.1,0.1-0.2,0.1-0.4,0.2c-0.4-0.3-0.7-0.5-1.2-0.8c-0.1,0.3-0.3,0.6-0.4,0.9
			c0.7,0.3,1.3,0.6,2.3,1.1c-0.6,0.4-1,0.9-1.3,0.8c-1.3-0.2-2.4-0.1-2.5,1.6c0,0.3-0.4,0.4-0.6,0.7c0.3,0.2,0.6,0.4,0.9,0.6
			c-0.4,0.4-0.8,0.9-1.2,1.2c-0.3,0.2-0.6,0.3-0.8,0.4c0.3,0.9,1,2.1,1,3.2c0.1,1.6-0.6,1.7-1.9,0.5c-0.2-0.1-0.3-0.2-0.8-0.6
			c0.1,1,0.2,1.7,0.3,2.6c-2.4,0.3-3.9,1.9-4.3,4.9c-0.6-1.2-1.1-2-1.6-3c-0.1,0.6-0.1,1-0.2,1.6c-0.3-0.2-0.4-0.4-0.6-0.6
			c-0.1,2-2.8,3.9-4.9,3.3c0.2,1.7-0.9,2.3-3.2,1.7c0.3,0.5,0.6,0.9,0.9,1.3s0.6,0.8,1,1.4c-0.7,0.4-1.3,0.7-1.9,1.1
			c1,2.8,1.5,5.6-0.2,8c0.2,0.6,0.4,1.2,0.7,1.9c-0.1,0.1-0.3,0.2-0.4,0.3c-0.6-0.6-1.2-1.2-2.1-2.1c0.3,0.8,0.4,1.5,0.7,2.1
			c1.7,2.8,1.7,2.7,0.2,4.9c1.5,2.3,1.5,2.3-0.4,4.1c-0.8,0.8-0.8,3,0,4.1c0.3,0.4,0.5,0.9,0.3,1.2c-0.3,0.8-0.6,1.6-0.8,2.5
			c-0.4,1.8-0.6,3.5-1.8,5c-1.1,1.3-1.1,3.5-1.7,5.3c-0.4,1.3-1,2.5-1.6,4c-0.1-0.1-0.1-0.1-0.2-0.2c-1.2-1.2-2.7-1.9-4.2-1.7
			c-0.7,0.1-1.5,0-2.2-0.1c-1.5-0.2-3-0.7-4.3-1c0,1.2,0.1,2,0.1,2.8c-0.5-0.3-1.1-0.5-1.8-0.9c-0.6,0.6-1.5,1.3-2.1,2.2
			c-0.9,1.2-1.3,2.4-0.1,4.2c1.3,2,1.2,2.9-0.5,4.3c-0.3,0.3-1.2,0.4-1.6,0.1c-2-1.5-3.7-1.1-5.4-0.3c-2.3,1-5.3-0.9-5.5-3.7
			c0-0.3,0.2-0.7,0.4-0.9c1.1-0.7,0.9-1.7,0.3-2.8c-1.3-2.3-2.6-4.5-3.8-6.8c-0.5-1-0.9-2-1.5-3.4c1.4,0.7,2.4,1.1,3.4,1.6
			c0.1-0.2,0.2-0.3,0.2-0.5c-0.5-0.7-0.9-1.3-1.4-2c-0.3-0.4-0.4-0.8-0.7-1.3c0.5-0.1,1-0.2,1.5-0.3c0.2,0,0.5,0.2,0.7,0.3
			c1-0.9,0.4-1.9,0.1-2.9c-0.1-0.2-0.4-0.5-0.5-0.5c-1.8,0.3-1.7-1.3-2.1-2.3c-0.3-0.6-0.4-1.3-0.8-1.8c-2.6-2.6-3.8-5.7-4-9.2
			c-0.1-0.6-0.3-1.3-0.5-2.3c-0.3,0.8-0.5,1.3-0.7,1.9c-1-1-1.2-2-0.9-3.1c0.2-1.3-0.7-3.1-1.8-3.5c-0.6-1.2-0.4-2.3-0.1-3.3
			c0.5-1.9-0.9-4.1-2.9-4.3l0,0c0-0.4-0.1-1,0.2-1.4c0.7-1.1,0.8-1-0.5-1.8c-0.8-0.5-1.9-3-1.8-4c0.2-1.5,0.7-2.9-0.5-4.5
			c-0.2-0.3,0.1-0.9,0.1-1.3c0-0.9,0.1-1.8-0.3-2.6c-1-1.9-1-2.7,0.7-3.5c0.1-0.1,0.3-0.1,0.8-0.2c0.5,1.4,1,2.8,1.5,4.4
			c0.8,0.3,1.2-0.2,1.5-1c1.1-3.1,1.2-6.3,0.4-9.6c-0.3-1.3,0.1-3.1,0.9-4c0.8-0.9,0.7-1.4-0.3-3.6c0.8-0.1,1.6-0.1,2.4-0.2
			c0.4-0.1,0.9-0.1,1.2-0.3c1.8-1.4,3-3.2,2.8-5.9c-0.1-0.8,0-1.8,0.3-2.4c0.6-1.2,0.4-2.4-0.1-3.7c-1-2.7-2-5.4-3-8.1
			c-0.6-1.5-0.2-2.4,1.2-2c2.5,0.6,2.8-1.1,3.3-2.7c0.8-2.6,0.1-5.5-2.3-7.1c-0.4-0.3-0.7-0.5-1.1-0.8c-2-1.6-3-4.2-2.6-6.6
			c0.3-2.2,0.8-4.4,0.7-6.7c0-1.8-0.8-3.8-1.5-5.6c-0.7-1.8-1.1-3.5-0.7-5.2c0.1-0.3,0-0.7,0-1.1c-0.3-1.8-0.6-3.5,0.5-4.9
			c0.2-0.2,0-0.8-0.1-1.2c-0.2-0.6-0.4-1.3-0.7-1.9c-1.3-2.4-1.2-4.4,0.3-6.2c0.3-0.3,0.6-0.9,0.5-1.2c-0.9-3.2,1.3-4.8,2.5-7
			c0.9-1.7,2.3-3.1,3.7-4.3c1.4-1.2,3.1-1.4,5.1-0.5c0.8,0.4,1.7,0.7,2.6,0.9c1,0.3,2.6,1.1,2.9,0.7c0.8-1,1.1-2.5,1.5-3.8
			c0.2-0.6,0-1.4,0-2.1c-0.1-1.4-0.2-2.7-1.2-3.8c-1.9-2-2.7-5.2-1.6-7.3c1-1.9,2.1-3.8,3.1-5.7c0.3-0.6,0.5-1.4,0.8-2.1
			c1.5-3.4,1.5-7.2,1.5-11.1c0-0.5,0.2-1.3,0.4-1.8c1-2.5,0-5.3-0.6-8c-0.5-2.2-0.3-2.5,1.8-2.2c2.6,0.4,4.5-0.8,6.3-2.2
			c0.3-0.2,0.3-0.8,0.3-1.3c0-0.4-0.1-0.9-0.3-1.3c-0.8-1.9-0.4-3.1,0.9-4.4c1.2-1.2,1.8-3,2.7-4.5c1.1-1.6,2.1-3.3,3.4-4.6
			c1.7-1.8,2.2-5.2,0.7-7.8c-0.4-0.7-0.9-1.3-1.3-2c-1-1.4-0.8-3.5,0.6-3.8c2.2-0.5,2.3-2.6,3.1-4.1c0.2-0.3,0.2-0.7,0.2-1
			c0.2-3.4,1.8-5.7,4.6-7c0.1-0.1,0.2-0.1,0.4-0.2c1-0.8,2.4-0.9,3.5,0l0.7,0.6c1.5,1.1,3.4,0.8,4.1-0.7c0.3-0.7,0.6-1.3,0.7-2.1
			c0.3-1.3-0.3-2.9-0.5-4.4c-0.1-1-0.4-2-0.3-2.9c0.1-0.8,0.4-1.9,1-2.2c0.9-0.6,2-0.6,3.2,0.6c0.6,0.6,1.7,0.8,2.5,1.1
			c1.1,0.4,2.4,0.4,3.4,0.9c1.9,0.9,3.7,2,5.6,3c1.2,0.7,2.6,0.5,3.3-0.5l1.1-1.4c-0.8-0.8-1.6-1.4-2.3-2.2
			c3.2-3.8,5.2-7.8,0.9-13.3c1.1-0.1,1.9-0.2,2.7-0.3C118.3,174.3,119.1,174.3,119.8,174.4z M97,392.1c-0.7-3.9-3.7-5-6.9-6
			c-0.7,0.6-1.6,0.3-2.4-1c-0.2,0.9-0.3,1.6-0.5,2.4c1.1,0,2.2-0.3,3.2,0.1c0.9,0.4,1.6,1.6,2.4,2.4c0.1-0.1,0.1-0.1,0.2-0.2
			c-0.1-0.5-0.3-0.9-0.4-1.4c3.5,0,1.8,2.6,2.5,4.5c0.2-0.8,0.3-1.2,0.3-1.6C96,391.7,96.6,391.9,97,392.1z"/>
	</g>
</g>
<polyline class="st10" points="200,509.8 207.2,516.5 220.3,499.4 "/>
<polyline class="st11" points="200.2,590.6 207.3,597.1 220.1,580.4 "/>
<polygon class="st12" points="227.5,278.1 194.4,259.2 177.7,282.3 193.9,324.4 227,343.4 243.8,320.3 "/>
<line class="st13" x1="184.1" y1="344.1" x2="236" y2="373.8"/>
<path class="st14" d="M142.1,579.3L35.7,516.9c-2.8-1.7-5.1-5.7-5.1-8.9l0,0c0-3.3,2.4-4.5,5.2-2.9l106.5,62.3
	c2.8,1.7,5.1,5.7,5.1,8.9l0,0C147.3,579.6,145,580.9,142.1,579.3z"/>
<path class="st14" d="M142.1,539.7L35.7,477.4c-2.8-1.7-5.1-5.7-5.1-8.9l0,0c0-3.3,2.4-4.5,5.2-2.9l106.5,62.3
	c2.8,1.7,5.1,5.7,5.1,8.9l0,0C147.3,540.1,145,541.4,142.1,539.7z"/>
<path class="st15" d="M129.7,532.2l-94-54.8c-2.8-1.7-5.1-5.7-5.1-8.9l0,0c0-3.3,2.4-4.5,5.2-2.9l94,54.8c2.8,1.7,5.1,5.7,5.1,8.9
	l0,0C134.9,532.6,132.6,533.9,129.7,532.2z"/>
<path class="st15" d="M104.8,557.2l-69.1-40.3c-2.8-1.7-5.1-5.7-5.1-8.9l0,0c0-3.3,2.4-4.5,5.2-2.9l69.1,40.3
	c2.8,1.7,5.1,5.7,5.1,8.9l0,0C110,557.6,107.7,558.9,104.8,557.2z"/>
<path class="st16" d="M156.4,443.4c-0.8-0.9-1.7-1.8-2.5-2.6c-5.6-5.2-11.4-8.7-17.2-10.7c-4.5-1.5-8.9-2.5-12.4-0.8
	c-0.8,0.4-1.5,1.5-1.5,2.7c-0.2,7.9-0.2,16-0.2,24c0,2.1,1.5,4.4,3.3,5.3c1.9,0.9,2.9,0.8,3.2-0.4c0.1-0.2,0.1-0.5,0.1-0.7l0.1-19.9
	c0-0.3,0.3-0.5,0.6-0.4l0.2,0.1h0.1c0.3,0.2,0.6,0.6,0.6,0.9l-0.1,20.4c-0.1,9.4-0.1,18.8-0.2,28.2c0,1,0,1.9,0.1,3
	c0.3,2.6,1.8,4.7,3.9,5.9c3.7,2.1,5.6,1,5.7-3.3c0.1-7.8,0.1-15.5,0.2-23.3V467c0-0.4,0.4-0.6,0.9-0.4s0.9,0.8,0.9,1.2l-0.2,28.9
	c0,0,0,0,0,0.1c0.1,3.8,1.7,6.3,4.7,7.8c3.2,1.5,5,0.2,5-3.7c0.1-15.8,0.4-49.3,0.4-49.3v-0.1c0-0.3,0.2-0.4,0.4-0.4
	c0.1,0,0.1,0,0.2,0l0,0l0,0l0.3,0.1c0.3,0.2,0.6,0.6,0.6,0.9l-0.1,20.3c0,0.7,0.3,1.5,0.7,2.1c0.6,0.8,1.5,1.4,2.7,2
	c2.3,1.1,3,0.7,3-1.9c0.1-7.5-0.1-15.2,0.2-22.6C160,448.5,158.8,446,156.4,443.4z"/>
<path class="st16" d="M140.8,429.3c8.3,4.3,15.2,0.3,15.5-8.9c0.3-9.1-6.2-19.8-14.5-24.1c-8.1-4.2-15-0.2-15.3,9
	C126.2,414,132.8,425.1,140.8,429.3z"/>
<path class="st17" d="M97,386.4c-0.1-0.9-0.2-1.7-0.4-2.6c-1.2-4.1-3.3-7.6-7.5-9.2c-2.7-1.1-4.8,0.3-5.4,3.1
	c-0.8,4.2,2.2,10.3,6.4,12.7C93.9,392.5,97,390.7,97,386.4z"/>
<path class="st18" d="M237.1,398.9c-1-1.1-2.1-2-3.2-3c-16.6-9.7-33.2-19.4-49.8-29.1c-1-0.3-2.1-0.7-3.1-0.8
	c-3.2-0.2-5.2,1.5-5.9,5.1c0,0.1-0.1,0.2-0.1,0.3c-0.1,11.8-0.2,23.5-0.3,35.3c0,0.2,0.1,0.3,0.1,0.5c0.7,5.8,4.8,12.3,9.6,15.1
	c1.9,1.1,3.9,2.3,5.8,3.4c0.2,0.1,0.4,0.2,0.6,0.4c-0.1,0.2-0.2,0.4-0.2,0.6c-1.5,3.4-3,6.8-4.5,10.2c-0.1,0.3-0.2,0.7-0.2,1.2
	c0.1,1.1,1.2,2.5,2.4,2.2c6.2-1.5,12.4-2.9,18.7-4.3c0.4-0.1,0.9,0,1.4,0.3c8.1,4.7,16.1,9.5,24.2,14.2c5.4,3.2,9.9,0.7,9.9-5.5
	c0.1-10.8,0.2-21.6,0.2-32.4C242.8,407.8,240.8,403.2,237.1,398.9z"/>
</svg>
