<?xml version="1.0" encoding="utf-8"?>
<!-- Generator: Adobe Illustrator 22.0.1, SVG Export Plug-In . SVG Version: 6.00 Build 0)  -->
<svg version="1.0" id="Lager_1" xmlns="http://www.w3.org/2000/svg" xmlns:xlink="http://www.w3.org/1999/xlink" x="0px" y="0px"
	 viewBox="0 0 16.1 16.1" style="enable-background:new 0 0 16.1 16.1;" xml:space="preserve">
<style type="text/css">
	.st0{fill:#020203;}
</style>
<g>
	<path class="st0" d="M3.6,16.1H0.3V5.3h3.3V16.1z M1.9,3.9C0.9,3.9,0,3,0,1.9C0,0.9,0.9,0,1.9,0C3,0,3.9,0.9,3.9,1.9
		C3.9,3,3,3.9,1.9,3.9z M16.1,16.1L16.1,16.1h-3.3v-5.2c0-1.2,0-2.8-1.7-2.8c-1.7,0-2,1.4-2,2.8v5.3H5.7V5.3h3.2v1.5h0
		c0.4-0.8,1.5-1.7,3.2-1.7c3.4,0,4,2.2,4,5.1V16.1z"/>
</g>
</svg>
