<?xml version="1.0" encoding="utf-8"?>
<!-- Generator: Adobe Illustrator 22.0.1, SVG Export Plug-In . SVG Version: 6.00 Build 0)  -->
<svg version="1.0" id="Lager_1" xmlns="http://www.w3.org/2000/svg" xmlns:xlink="http://www.w3.org/1999/xlink" x="0px" y="0px"
	 viewBox="0 0 1764.6 569.7" style="enable-background:new 0 0 1764.6 569.7;" xml:space="preserve">
<style type="text/css">
	.st0{fill:none;stroke:#D5E3D2;stroke-width:0.8935;stroke-miterlimit:10;}
</style>
<g>
	<polygon class="st0" points="1349.1,297.3 1583.6,395.8 1506.7,296.4 	"/>
	<g>
		<polyline class="st0" points="1506.7,296.4 1762.2,396.5 1583.6,395.8 		"/>
		<polyline class="st0" points="1762.2,396.5 1676.2,324.9 1506.7,296.4 		"/>
	</g>
	<polygon class="st0" points="1405.7,395.8 1349.1,297.3 1187.8,296.7 	"/>
	<polygon class="st0" points="1229,363.2 1187.8,296.7 1032,352.8 	"/>
	<polygon class="st0" points="870.5,455.2 873.8,420.6 695.1,403.5 	"/>
	<polygon class="st0" points="870.5,455.2 873.8,420.6 1075.1,472.2 	"/>
	<polygon class="st0" points="1280.7,450 1229,363.2 1051.7,385.4 	"/>
	<polygon class="st0" points="873.8,420.6 873,352.5 1050.8,385.7 	"/>
	<polygon class="st0" points="1506.7,296.4 1443.9,244.4 1296.1,264.7 	"/>
	<polygon class="st0" points="1486.8,427.1 1229,363.2 1280.7,450 	"/>
	<g>
		<polygon class="st0" points="1443.9,244.4 1585.5,253.6 1676.2,324.9 		"/>
	</g>
	<polyline class="st0" points="1280.7,450 1075.1,472.2 1049.9,386.6 	"/>
	<g>
		<polygon class="st0" points="464.4,439.6 260.6,427.9 395.5,554.1 		"/>
	</g>
	<polygon class="st0" points="516.8,386 668.3,440.9 695.1,403.5 	"/>
	<polygon class="st0" points="556.1,324.4 695.1,403.5 715.8,351.5 	"/>
	<polygon class="st0" points="338.3,341.7 464.4,439.6 516.8,386 	"/>
	<polygon class="st0" points="338.3,341.7 262.8,427.9 157.1,340.9 	"/>
	<polygon class="st0" points="398.4,318.9 556.1,324.4 446.4,231.2 	"/>
	<polygon class="st0" points="160.4,254 240,319 304.1,231.1 	"/>
	<polyline class="st0" points="262.8,427.9 30.9,390.5 157.1,340.9 	"/>
	<polygon class="st0" points="94.6,148.3 160.4,254 226.9,148.2 	"/>
	<polygon class="st0" points="226.9,148.2 304.1,231.1 353.9,187.5 	"/>
	<line class="st0" x1="398.4" y1="318.9" x2="516.8" y2="386"/>
	<line class="st0" x1="556.1" y1="324.4" x2="516.8" y2="386"/>
	<g>
		<polyline class="st0" points="79.9,317.4 160.4,254 17.4,208.5 94.6,148.3 		"/>
		<line class="st0" x1="17.4" y1="208.5" x2="79.9" y2="317.4"/>
	</g>
	<polygon class="st0" points="107.6,19.1 164.4,67.1 219.7,34.6 	"/>
	<g>
		<polygon class="st0" points="18.7,75.3 164.4,67.1 107.6,19.1 		"/>
		<polyline class="st0" points="30.9,390.5 94.6,480.7 232.7,492.6 262,429.5 		"/>
		<path class="st0" d="M585.9,271.5c-3-2.3-99.4-82.3-99.4-82.3l127.2,63.5L585.9,271.5z"/>
	</g>
	<polygon class="st0" points="353.9,187.5 446.4,231.2 485,187.9 	"/>
	<polygon class="st0" points="398.4,318.9 304.1,231.1 446.4,231.2 	"/>
	<polygon class="st0" points="240,319 398.4,318.9 338.3,341.7 	"/>
	<polygon class="st0" points="81.1,317.4 157.1,340.9 240,319 	"/>
	<g>
		<polyline class="st0" points="157.1,340.9 18.1,346 79.9,317.4 17,296.6 		"/>
		<polygon class="st0" points="464.4,439.6 635.6,545.6 668.3,440.9 		"/>
		<polygon class="st0" points="670.2,440.2 870.5,455.2 864.5,568.9 		"/>
	</g>
	<line class="st0" x1="1032" y1="352.8" x2="1050.8" y2="385.7"/>
	<polygon class="st0" points="1189,296.5 1015.5,298.1 1156.7,264.7 	"/>
	<polyline class="st0" points="1131.8,243.4 991,217.6 1108.2,154.3 1132.2,243.9 	"/>
	<polygon class="st0" points="1310.4,87.6 1347.9,174.6 1199.9,125.6 	"/>
	<polyline class="st0" points="1347.9,174.6 1467.2,104.3 1310.4,87.6 	"/>
	<polyline class="st0" points="1310.4,87.6 1420.2,50.3 1467.2,104.3 	"/>
	<g>
		<polygon class="st0" points="1583.6,69.9 1467.2,104.3 1645.3,140.6 		"/>
	</g>
	<polygon class="st0" points="1583.6,69.9 1420.2,50.3 1532.4,49.9 	"/>
	<g>
		<polygon class="st0" points="1532.4,49.9 1639.9,0.5 1703.2,71.8 		"/>
	</g>
	<polygon class="st0" points="1386.5,199.5 1519,139.3 1347.9,174.6 	"/>
	<polygon class="st0" points="1260.9,244.5 1386.5,199.5 1443.9,244.4 	"/>
	<g>
		<polygon class="st0" points="1519,139.3 1585.5,253.6 1727.6,255.1 		"/>
	</g>
	<line class="st0" x1="1386.5" y1="199.5" x2="1585.5" y2="253.6"/>
	<line class="st0" x1="1467.2" y1="104.3" x2="1519" y2="139.3"/>
	<polyline class="st0" points="1386.5,199.5 1230.3,156.2 1260.9,244.5 	"/>
	<polygon class="st0" points="1092.8,124.8 1199.9,125.6 1230.3,156.2 	"/>
	<polyline class="st0" points="1092.8,124.8 1108.2,154.3 1227.8,155.3 	"/>
	<line class="st0" x1="873.8" y1="420.6" x2="715.8" y2="351.5"/>
	<polyline class="st0" points="991,217.6 754.9,216.4 634.3,205.4 544.3,141.7 436.3,141.7 326.1,63.6 219.7,34.6 281.1,109.6 
		164.4,67.1 226.9,148.2 281.6,109.6 	"/>
	<g>
		<polyline class="st0" points="18.3,76 94.6,148.3 164.4,67.1 		"/>
	</g>
	<polygon class="st0" points="730.4,299.2 585.9,271.5 715.8,351.5 	"/>
	<polyline class="st0" points="446,231.2 585.9,271.5 556.1,324.4 	"/>
	<polyline class="st0" points="742.7,254.9 613.7,252.7 636.8,208.1 516.7,173 544.3,141.7 	"/>
	<polyline class="st0" points="870.8,254.1 754.9,216.4 742.7,254.9 636.8,208.1 	"/>
	<line class="st0" x1="1003.1" y1="253" x2="872.2" y2="217.2"/>
	<line class="st0" x1="991.8" y1="217.2" x2="1003.1" y2="253"/>
	<polyline class="st0" points="1156.7,264.7 1003.1,253 1132.2,243.9 	"/>
	<polyline class="st0" points="1349.1,297.3 1156.7,264.7 1296.1,264.7 1131.8,243.4 1260.9,244.5 1108.2,154.3 	"/>
	<line class="st0" x1="763.1" y1="181.4" x2="873.2" y2="217.3"/>
	<polyline class="st0" points="900.5,192 992.6,217.9 988.9,198.8 	"/>
	<polyline class="st0" points="655.3,130.5 754.9,216.4 763.1,181.4 	"/>
	<line class="st0" x1="655.3" y1="130.5" x2="763.1" y2="181.4"/>
	<line class="st0" x1="544.3" y1="141.7" x2="655.3" y2="130.5"/>
	<polyline class="st0" points="355.1,187.5 281.6,109.6 397.3,171.1 325.4,63.1 281.6,109.6 	"/>
	<line class="st0" x1="353.9" y1="187.5" x2="397.3" y2="171.1"/>
	<polyline class="st0" points="516.7,173 436.3,141.7 395.5,172.4 	"/>
	<line class="st0" x1="613.7" y1="252.7" x2="516.7" y2="173"/>
	<line class="st0" x1="485" y1="187.9" x2="516.7" y2="173"/>
	<polyline class="st0" points="516.7,173 397.3,171.1 485,187.9 	"/>
	<line class="st0" x1="613.7" y1="252.7" x2="730.4" y2="299.2"/>
	<polygon class="st0" points="1032,352.8 715.8,351.5 742.7,254.9 1003.1,253 	"/>
	<g>
		<line class="st0" x1="1519" y1="139.3" x2="1643.5" y2="140"/>
		<path class="st0" d="M1705.5,118.2c-1.8-0.6-121.9-48.3-121.9-48.3l119.6,1.9"/>
	</g>
	<line class="st0" x1="21" y1="148.6" x2="94.6" y2="148.4"/>
	<line class="st0" x1="1132.2" y1="243.9" x2="1156.7" y2="264.7"/>
	<line class="st0" x1="30.9" y1="390.5" x2="0.4" y2="454.5"/>
	<line class="st0" x1="18.1" y1="346" x2="30.9" y2="390.5"/>
	<g>
		<line class="st0" x1="1280.3" y1="450" x2="1547.7" y2="496.8"/>
		<line class="st0" x1="1547.7" y1="496.8" x2="1486.8" y2="427.1"/>
	</g>
	<line class="st0" x1="1229" y1="363.2" x2="1405.7" y2="395.8"/>
	<line class="st0" x1="1405" y1="395.4" x2="1486.8" y2="427.1"/>
	<g>
		<line class="st0" x1="1706.1" y1="431" x2="1583.6" y2="395.8"/>
		<line class="st0" x1="1705.5" y1="465.2" x2="1583.6" y2="395.8"/>
		<polyline class="st0" points="1662.2,488.4 1485.4,427.1 1705.5,465.2 		"/>
	</g>
	<line class="st0" x1="1092.8" y1="124.8" x2="988.9" y2="198.8"/>
	<line class="st0" x1="1108.2" y1="154.3" x2="988.9" y2="198.8"/>
	<line class="st0" x1="1405" y1="395.4" x2="1583.6" y2="395.8"/>
	<g>
		<line class="st0" x1="983.2" y1="254.1" x2="1010.9" y2="281.3"/>
		<line class="st0" x1="965.7" y1="253.6" x2="1017.5" y2="303.9"/>
		<line class="st0" x1="1031.3" y1="352.9" x2="928.6" y2="253.3"/>
		<line class="st0" x1="1025.1" y1="329.4" x2="947.3" y2="253.4"/>
		<line class="st0" x1="1013.7" y1="352.9" x2="911.1" y2="253.3"/>
		<line class="st0" x1="995.7" y1="352.9" x2="893.1" y2="253.3"/>
		<line class="st0" x1="978.2" y1="352.9" x2="876" y2="253.8"/>
		<line class="st0" x1="960.2" y1="352.4" x2="858.5" y2="253.9"/>
		<line class="st0" x1="942.6" y1="352.4" x2="841.2" y2="254.2"/>
		<line class="st0" x1="924.6" y1="352.4" x2="823.2" y2="254.3"/>
		<line class="st0" x1="905.7" y1="352.4" x2="804.4" y2="254.2"/>
		<line class="st0" x1="887.7" y1="352.4" x2="786.3" y2="254"/>
		<line class="st0" x1="870.3" y1="352.2" x2="769.9" y2="254.6"/>
		<line class="st0" x1="851.7" y1="351.9" x2="751.9" y2="254.9"/>
		<line class="st0" x1="834.1" y1="351.9" x2="740.5" y2="261.3"/>
		<line class="st0" x1="817.1" y1="351.9" x2="737.1" y2="274.6"/>
		<line class="st0" x1="799" y1="351.9" x2="733.1" y2="288.4"/>
		<line class="st0" x1="781.2" y1="351.7" x2="729.4" y2="302"/>
		<line class="st0" x1="762.6" y1="351.7" x2="725.4" y2="315.8"/>
		<line class="st0" x1="743.9" y1="351.6" x2="721.9" y2="330.3"/>
		<line class="st0" x1="725.8" y1="351.6" x2="717.7" y2="343.7"/>
	</g>
	<line class="st0" x1="988.9" y1="198.8" x2="763.1" y2="181.4"/>
</g>
<line class="st0" x1="395.5" y1="554.1" x2="635.6" y2="545.6"/>
<line class="st0" x1="232.7" y1="492.6" x2="395.5" y2="554.1"/>
<line class="st0" x1="0.4" y1="454.5" x2="94.6" y2="480.7"/>
<line class="st0" x1="864.5" y1="568.9" x2="635.6" y2="545.6"/>
<line class="st0" x1="864.5" y1="568.9" x2="1075.1" y2="472.2"/>
<line class="st0" x1="1547.7" y1="496.8" x2="1662.2" y2="488.4"/>
<line class="st0" x1="1643.5" y1="140" x2="1727.6" y2="255.1"/>
<line class="st0" x1="1662.2" y1="488.4" x2="1705.5" y2="465.2"/>
<line class="st0" x1="1762.2" y1="396.5" x2="1706.1" y2="431"/>
<line class="st0" x1="1705.5" y1="465.2" x2="1706.1" y2="431"/>
<line class="st0" x1="1703.2" y1="71.8" x2="1705.5" y2="118.2"/>
<line class="st0" x1="1705.5" y1="118.2" x2="1727.6" y2="255.1"/>
<line class="st0" x1="1727.6" y1="255.1" x2="1762.2" y2="396.5"/>
<line class="st0" x1="17" y1="296.6" x2="18.1" y2="346"/>
<line class="st0" x1="17.4" y1="208.5" x2="17" y2="296.6"/>
<line class="st0" x1="21" y1="148.6" x2="17.4" y2="208.5"/>
<line class="st0" x1="18.3" y1="76" x2="21" y2="148.6"/>
</svg>
