<?xml version="1.0" encoding="utf-8"?>
<!-- Generator: Adobe Illustrator 22.0.1, SVG Export Plug-In . SVG Version: 6.00 Build 0)  -->
<svg version="1.0" id="Lager_1" xmlns="http://www.w3.org/2000/svg" xmlns:xlink="http://www.w3.org/1999/xlink" x="0px" y="0px"
	 viewBox="0 0 214.5 31.5" style="enable-background:new 0 0 214.5 31.5;" xml:space="preserve">
<style type="text/css">
	.st0{fill:#EE8563;}
	.st1{fill:#81BD5B;}
</style>
<path class="st0" d="M208.8,31.5H5.7C2.5,31.5,0,29,0,25.9l0-1.2C0,21.5,2.5,19,5.7,19h203.2c3.1,0,5.7,2.5,5.7,5.7v1.2
	C214.5,29,211.9,31.5,208.8,31.5z"/>
<path class="st1" d="M212.3,1.4c-1.9-1.9-5-1.8-6.8,0.2l-11.7,12.9l0,0l-5.5-5.4c-1.9-1.9-4.9-1.8-6.8,0.2v0c-1.8,2-1.7,5.1,0.2,7
	l8.9,8.7c1.9,1.9,4.9,1.8,6.8-0.2l3.3-3.6l11.7-12.9C214.3,6.4,214.2,3.2,212.3,1.4L212.3,1.4z"/>
</svg>
