<?xml version="1.0" encoding="utf-8"?>
<!-- Generator: Adobe Illustrator 22.0.1, SVG Export Plug-In . SVG Version: 6.00 Build 0)  -->
<svg version="1.0" xmlns="http://www.w3.org/2000/svg" xmlns:xlink="http://www.w3.org/1999/xlink" x="0px" y="0px"
	 viewBox="0 0 457 623.6" style="enable-background:new 0 0 457 623.6;" xml:space="preserve">
<style type="text/css">
	.st0{fill:#B04242;}
	.st1{fill:#BC5D4B;}
	.st2{fill:#DC613A;}
	.st3{fill:#E1795C;}
	.st4{fill:#A9493E;}
	.st5{fill:#5FBAC4;}
	.st6{fill:#50979B;}
	.st7{fill:#6EA0A6;}
	.st8{fill:#E45033;}
	.st9{fill:#EB6748;}
	.st10{fill:#B3DDE1;}
	.st11{fill:#EE6F42;}
	.st12{fill:#D84739;}
	.st13{fill:#C76A68;}
	.st14{opacity:0.3;fill:#A9493E;}
	.st15{fill:#853836;}
	.st16{fill:#B85048;}
	.st17{fill:#59B1B5;}
	.st18{opacity:0.48;fill:#3D7676;}
</style>
<g id="Lager_1">
</g>
<g id="Lager_2">
	<polyline class="st0" points="90.1,177.7 136.3,171.4 109.3,217.5 21.7,231.2 21.7,211.9 90.1,177.7 	"/>
	<rect x="194.5" y="159.8" class="st1" width="57" height="115.4"/>
	<rect x="257" y="254.8" class="st2" width="42.9" height="75.7"/>
	<polygon class="st2" points="146.3,179.6 146.3,220.9 175.7,223.6 175.7,174.7 	"/>
	<polyline class="st2" points="108,145.4 154.2,139.1 112.4,210.2 50.9,199.6 39.5,179.6 108,145.4 	"/>
	<polygon class="st3" points="434.9,294 391.9,293.8 332.5,309.1 375.6,309.2 	"/>
	<polygon class="st4" points="84.2,420.4 146.3,405.1 85.2,471.5 25.7,487 	"/>
	<polygon class="st5" points="71.1,91.1 139.6,57 185.8,50.7 166.8,107.2 	"/>
	<polygon class="st5" points="189.8,106.7 247.9,64.5 305.2,67.1 272,142.3 	"/>
	<polygon class="st6" points="247.9,5.1 179.5,39.3 188.6,107.2 257,73.1 	"/>
	<polygon class="st2" points="333.9,9.2 265.4,43.3 274.5,111.2 343,77.1 	"/>
	<polygon class="st7" points="439.5,135.9 436.1,193.1 397.2,172.1 372,191.3 336,194.6 286.4,197.1 316.2,166.6 332.2,148.7 
		322.3,135 326.1,132 	"/>
	<polygon class="st3" points="457,392.4 423.7,309.8 364.2,325.3 368.8,433.1 	"/>
	<polygon class="st4" points="299.9,623.6 359.4,608.1 420.5,541.7 457,392.4 397.5,407.9 345.4,503.9 	"/>
	<polygon class="st3" points="325.8,221.4 294.7,227.8 285.3,231.2 315.8,232.9 360.2,223.9 	"/>
	<polygon class="st8" points="0,451 25.7,487 71.1,454.9 52.8,379.1 28.3,426 	"/>
	<polygon class="st7" points="71.1,91.1 71.1,114.2 132.4,131 138.9,98.1 	"/>
	<polygon class="st7" points="180.2,103 222.2,119.3 211.6,143.2 181.3,155.8 166.8,123.3 	"/>
	<polygon class="st9" points="364.2,325.3 397.5,407.9 358.5,557 299.9,623.6 192.1,588 99.1,505.4 62.4,467.6 41.8,383.8 
		41.8,355.1 25.7,325.3 41.8,265.6 87.7,216.3 107.2,179.6 142.7,210.5 195.5,235.8 319,311.6 	"/>
	<polygon class="st10" points="133.2,45.6 179.5,39.3 188.6,107.2 178.3,145.7 166,160.3 163,191 150.8,207.3 115,192.1 
		107.2,179.6 133.9,109.3 	"/>
	<polygon class="st11" points="100.3,191.2 64,187.9 39.5,179.6 28.3,190.9 48,209.7 91.5,201.7 	"/>
	<polygon class="st2" points="21.7,211.9 21.7,231.2 68.6,231.2 91.5,201.7 	"/>
	<polygon class="st12" points="366.2,301.4 382.2,301.4 382.2,279 348.4,279 	"/>
	<polygon class="st12" points="324.9,249 372.1,238.3 385,240.6 388.5,252 343.8,264.5 	"/>
	<polygon class="st12" points="375.5,309.2 364.2,325.3 331.3,320.1 320.8,314.5 293.8,302.9 278.6,288.4 272.1,262.5 285.3,231.2 
		315.8,232.9 346,266.9 382.2,301.4 352.3,304 	"/>
	<polygon class="st13" points="103.8,188.2 111.1,185.8 114.2,190.7 152.6,203.2 155.3,211.6 163.3,207.9 187.4,217.1 203.3,237.8 
		202.3,245.4 192,259.5 165.6,268.9 141.5,273.1 127.7,273.1 93.3,284.3 78.4,301.9 62.3,301.9 52,330.5 33.7,330.5 42.9,303.4 
		37.2,292.1 41.8,265.6 69.2,222.7 	"/>
	<polygon class="st14" points="293.8,302.9 278.6,288.4 278.1,286.5 272.5,283.1 228,271.7 251.5,286.5 260.3,312.3 235.8,340 
		209.3,352.4 184.6,353.9 206.3,359 192.1,384.8 216.6,358.4 247.5,345.3 260.3,324.5 248.6,384.8 215.5,421.1 184.6,454.1 
		146.2,447.7 178.2,461.6 122.7,466.9 109.9,488.3 128.1,473.3 185.1,464.8 240.1,408.3 220.3,456.4 198.5,488.3 189.1,495.8 
		171.8,509.6 199.2,493.6 185.1,523.5 203.3,502.1 207,491.5 243.3,424.3 245.4,479.7 253.9,444.5 251.8,418.9 252.9,393.9 
		266.7,357.1 272.1,296.8 	"/>
	<line class="st4" x1="361" y1="557.2" x2="420.5" y2="541.7"/>
	<polygon class="st15" points="358.5,557 420.5,541.7 359.4,608.1 299.9,623.6 	"/>
	<polygon class="st4" points="385,240.6 432.8,228.4 436.4,239.8 388.5,252 	"/>
	<polygon class="st0" points="360.2,223.9 315.8,232.9 329.2,248 372,238.3 	"/>
	<polygon class="st0" points="397.6,249.6 343.8,264.5 354.4,278.9 407.3,264.3 	"/>
	<polygon class="st7" points="133.2,45.6 201.7,11.4 247.9,5.1 179.5,39.3 	"/>
	<polygon class="st16" points="239.4,44.8 307.9,10.7 333.9,9.2 265.4,43.3 	"/>
	<polygon class="st16" points="298.3,34.1 366.8,0 392,7.6 323.6,41.8 	"/>
	<polygon class="st16" points="323.6,60.9 392,26.8 404,39.3 335.6,73.5 	"/>
	<polygon class="st3" points="432.8,228.4 420,226.1 372.1,238.3 385,240.6 	"/>
	<polyline class="st3" points="434.6,264.4 382.2,279 354.4,278.9 406.8,264.3 434.6,264.4 	"/>
	<polygon class="st16" points="410.6,60.5 343,77.1 274.5,111.2 342.1,94.6 	"/>
	<polygon class="st17" points="406.5,151.1 406.5,151.1 403.1,218.1 315.8,232.9 283.7,237.8 274.9,273.5 278.1,286.5 228,271.7 
		199.7,237.8 207.3,228.4 228,207.3 234.4,189.7 234.1,175.7 277.7,154.2 	"/>
	<polygon class="st3" points="355.4,153.3 342.1,94.6 323.6,98.4 335.6,73.5 323.6,60.9 323.6,41.8 298.3,34.1 279.2,84.6 
		265.4,43.3 239.4,44.8 239.4,90 203.2,116 166,160.3 161.2,208.9 199.7,237.8 237.1,174.9 278.5,155.8 	"/>
	<polygon class="st4" points="375.5,309.2 364.2,325.3 423.7,310 434.9,294 	"/>
	<polygon class="st2" points="392,7.6 392,26.8 323.6,60.9 323.6,41.8 	"/>
	<polygon class="st2" points="403.1,39.9 391.1,64.9 323.6,98.4 335.6,73.5 	"/>
	<polygon class="st4" points="434.6,264.4 435.5,286 382.2,301.4 382.2,279 	"/>
	<polygon class="st6" points="406.5,151.1 390,188 403.1,218.1 433.6,204 452,163.1 439.5,135.9 	"/>
	<polygon class="st18" points="412.5,159.3 401.7,184.5 410.3,205 430.1,195.4 442.1,167.5 434,148.9 	"/>
	<polyline class="st16" points="342.1,94.6 355.4,153.3 421.8,118.7 410.6,60.5 342.1,94.6 	"/>
</g>
<g id="Lager_3">
</g>
</svg>
