<svg id="Lager_1" data-name="Lager 1" xmlns="http://www.w3.org/2000/svg" viewBox="0 0 23.9 16.11"><defs><style>.cls-1{fill:#020303;}</style></defs><title>soundcloud_icon</title><path class="cls-1" d="M1.2,8.07c-.1,0-.1,0-.1.1l-.3,2.1.2,2.1c0,.1,0,.1.1.1a.1.1,0,0,0,.1-.1l.3-2.1-.2-2.1a.1.1,0,0,0-.1-.1m-.9.8c-.1,0-.1,0-.1.1L0,10.27l.2,1.3c0,.1,0,.1.1.1s.1,0,.1-.1l.2-1.3L.3,8.87h0m1.8-1.3a.1.1,0,0,0-.1.1l-.2,2.6.2,2.5c0,.1,0,.1.1.1a.1.1,0,0,0,.1-.1l.3-2.5-.3-2.6a.1.1,0,0,0-.1-.1m1-.1a.22.22,0,0,0-.2.2l-.2,2.6.2,2.5a.1.1,0,0,0,.1.1c.1,0,.1-.1.2-.1l.2-2.5-.2-2.6c0-.1,0-.2-.1-.2Zm1.1.4c0-.1-.1-.1-.2-.1s-.1,0-.1.1l-.2,2.4.2,2.6a.22.22,0,0,0,.2.2c.1,0,.1-.1.1-.2l.2-2.6-.2-2.4ZM5,6.17a.22.22,0,0,0-.2.2l-.2,4L4.8,13a.2.2,0,1,0,.4,0l.2-2.6-.2-4c0-.2-.1-.3-.2-.2m1-1a.22.22,0,0,0-.2.2l-.2,4.9.2,2.5a.2.2,0,0,0,.4,0l.2-2.5-.3-4.9a.35.35,0,0,0-.1-.2m.9-.4a.22.22,0,0,0-.2.2l-.2,5.3.2,2.5a.2.2,0,1,0,.4,0l.2-2.5L7.1,5a.22.22,0,0,0-.2-.2m1.3,0c0-.1-.1-.2-.3-.2a.22.22,0,0,0-.2.2l-.2,5.5.1,2.5c0,.1.1.2.3.2a.22.22,0,0,0,.2-.2l.2-2.5-.1-5.5Zm.7-.1a.32.32,0,0,0-.3.3l-.1,5.3.1,2.5a.32.32,0,0,0,.3.3.27.27,0,0,0,.3-.3l.1-2.5-.1-5.4c0-.1-.2-.2-.3-.2m1,.1a.27.27,0,0,0-.3.3l-.1,5.2.1,2.5a.3.3,0,1,0,.6,0l.1-2.4-.1-5.1a.46.46,0,0,0-.3-.5m1.2-.9h-.4c-.1.1-.1.1-.1.3v.1l-.1,6,.1,2.4h0c0,.1,0,.1.1.2s.1.1.2.1.2,0,.2-.1.1-.1.1-.2v-.2l.1-2.2-.1-6.1a.37.37,0,0,0-.1-.3Zm1-.5-.1-.1c-.1,0-.1,0-.2.1a.31.31,0,0,0-.1.2h0l-.1,6.6.1,1.2.1,1.2a.3.3,0,0,0,.6,0l.1-2.4-.2-6.6a.22.22,0,0,0-.2-.2M21,7.07a3.59,3.59,0,0,0-1.1.2,5.22,5.22,0,0,0-5.2-4.7,4.06,4.06,0,0,0-1.9.4c-.2.1-.3.2-.3.4v9.4a.27.27,0,0,0,.3.3H21a2.9,2.9,0,0,0,2.9-2.9A3.08,3.08,0,0,0,21,7.07"/><circle class="cls-1" cx="13.58" cy="0.05" r="0.05"/><circle class="cls-1" cx="13.58" cy="16.05" r="0.05"/></svg>