<?xml version="1.0" encoding="utf-8"?>
<!-- Generator: Adobe Illustrator 22.0.1, SVG Export Plug-In . SVG Version: 6.00 Build 0)  -->
<svg version="1.0" id="Lager_1" xmlns="http://www.w3.org/2000/svg" xmlns:xlink="http://www.w3.org/1999/xlink" x="0px" y="0px"
	 viewBox="0 0 24 10.5" style="enable-background:new 0 0 24 10.5;" xml:space="preserve">
<style type="text/css">
	.st0{fill:#020203;}
</style>
<path class="st0" d="M1.2,5.5c-0.1,0-0.1,0-0.1,0.1L0.8,7.7l0.2,2.1c0,0.1,0,0.1,0.1,0.1c0,0,0.1,0,0.1-0.1l0.3-2.1L1.3,5.6
	C1.3,5.5,1.2,5.5,1.2,5.5 M0.3,6.3c-0.1,0-0.1,0-0.1,0.1L0,7.7L0.2,9c0,0.1,0,0.1,0.1,0.1s0.1,0,0.1-0.1l0.2-1.3L0.3,6.3
	C0.4,6.3,0.3,6.3,0.3,6.3 M2.1,5C2,5,2,5.1,2,5.1L1.8,7.7L2,10.2c0,0.1,0,0.1,0.1,0.1c0.1,0,0.1-0.1,0.1-0.1l0.3-2.5L2.2,5.1
	C2.2,5.1,2.2,5,2.1,5 M3.1,4.9C3,4.9,2.9,5,2.9,5.1L2.7,7.7l0.2,2.5c0,0.1,0.1,0.1,0.1,0.1c0.1,0,0.1-0.1,0.2-0.1l0.2-2.5L3.2,5.1
	C3.2,5,3.2,4.9,3.1,4.9C3.1,4.9,3.1,4.9,3.1,4.9z M4.2,5.3c0-0.1-0.1-0.1-0.2-0.1C4,5.1,3.9,5.2,3.9,5.3L3.7,7.7l0.2,2.6
	c0,0.1,0.1,0.2,0.2,0.2c0.1,0,0.1-0.1,0.1-0.2l0.2-2.6L4.2,5.3C4.2,5.3,4.2,5.3,4.2,5.3z M5,3.6c-0.1,0-0.2,0.1-0.2,0.2l-0.2,4
	l0.2,2.6c0,0.1,0.1,0.2,0.2,0.2c0.1,0,0.2-0.1,0.2-0.2l0.2-2.6l-0.2-4C5.2,3.6,5.1,3.5,5,3.6 M6,2.6c-0.1,0-0.2,0.1-0.2,0.2L5.6,7.7
	l0.2,2.5c0,0.1,0.1,0.2,0.2,0.2c0.1,0,0.2-0.1,0.2-0.2l0.2-2.5L6.1,2.8C6.1,2.7,6,2.6,6,2.6 M6.9,2.2c-0.1,0-0.2,0.1-0.2,0.2
	L6.5,7.7l0.2,2.5c0,0.1,0.1,0.2,0.2,0.2c0.1,0,0.2-0.1,0.2-0.2l0.2-2.5L7.1,2.4C7.1,2.3,7,2.2,6.9,2.2 M8.2,2.2C8.2,2.1,8.1,2,7.9,2
	C7.8,2,7.7,2.1,7.7,2.2L7.5,7.7l0.1,2.5c0,0.1,0.1,0.2,0.3,0.2c0.1,0,0.2-0.1,0.2-0.2l0.2-2.5L8.2,2.2C8.2,2.2,8.2,2.2,8.2,2.2z
	 M8.9,2.1c-0.1,0-0.3,0.1-0.3,0.3L8.5,7.7l0.1,2.5c0,0.1,0.1,0.3,0.3,0.3s0.3-0.1,0.3-0.3l0.1-2.5L9.2,2.3C9.2,2.2,9,2.1,8.9,2.1
	 M9.9,2.2c-0.2,0-0.3,0.1-0.3,0.3L9.5,7.7l0.1,2.5c0,0.1,0.1,0.3,0.3,0.3c0.1,0,0.3-0.1,0.3-0.3l0.1-2.4l-0.1-5.1
	C10.2,2.4,10.1,2.3,9.9,2.2 M11.1,1.3c0,0-0.1,0-0.2,0s-0.1,0-0.2,0c-0.1,0.1-0.1,0.1-0.1,0.3v0.1l-0.1,6l0.1,2.4v0
	c0,0.1,0,0.1,0.1,0.2c0.1,0.1,0.1,0.1,0.2,0.1c0.1,0,0.2,0,0.2-0.1c0.1-0.1,0.1-0.1,0.1-0.2l0-0.2l0.1-2.2l-0.1-6.1
	C11.2,1.5,11.2,1.4,11.1,1.3C11.1,1.4,11.1,1.3,11.1,1.3z M12.1,0.8c0,0-0.1-0.1-0.1-0.1c-0.1,0-0.1,0-0.2,0.1
	c-0.1,0.1-0.1,0.2-0.1,0.2v0l-0.1,6.6l0.1,1.2l0.1,1.2c0,0.2,0.1,0.3,0.3,0.3c0.2,0,0.3-0.1,0.3-0.3l0.1-2.4L12.3,1
	C12.3,0.9,12.2,0.8,12.1,0.8 M21,4.5c-0.4,0-0.8,0.1-1.1,0.2C19.7,2.1,17.4,0,14.7,0c-0.7,0-1.3,0.1-1.9,0.4
	c-0.2,0.1-0.3,0.2-0.3,0.4v9.4c0,0.2,0.1,0.3,0.3,0.3h8.2c1.6,0,2.9-1.3,2.9-2.9S22.7,4.6,21,4.5"/>
</svg>
