<?xml version="1.0" encoding="utf-8"?>
<!-- Generator: Adobe Illustrator 22.0.1, SVG Export Plug-In . SVG Version: 6.00 Build 0)  -->
<svg version="1.0" xmlns="http://www.w3.org/2000/svg" xmlns:xlink="http://www.w3.org/1999/xlink" x="0px" y="0px"
	 viewBox="0 0 436 352.7" style="enable-background:new 0 0 436 352.7;" xml:space="preserve">
<style type="text/css">
	.st0{opacity:0.2;fill:#141414;}
	.st1{fill:#FFFFFF;}
</style>
<g id="Lager_1">
</g>
<g id="Lager_2">
	<path class="st0" d="M379,0H87C55.5,0,4.6,27.9,4.6,59.3l25.4,167c0,31.5,25.5,57,57,57h17.3c0,19-30,69.3-30,69.3l110.1-69.3
		L355,297.7c31.5,0,81-26.9,81-71.4V57C436,25.5,410.5,0,379,0z"/>
	<path class="st1" d="M349,17H57C25.5,17,0,42.5,0,74v167c0,31.5,25.5,57,57,57h17.3c0,19,0,54.7,0,54.7l70.1-54.7H349
		c31.5,0,57-25.5,57-57V74C406,42.5,380.5,17,349,17z"/>
</g>
</svg>
