<?xml version="1.0" encoding="utf-8"?>
<!-- Generator: Adobe Illustrator 22.0.1, SVG Export Plug-In . SVG Version: 6.00 Build 0)  -->
<svg version="1.0" id="Lager_1" xmlns="http://www.w3.org/2000/svg" xmlns:xlink="http://www.w3.org/1999/xlink" x="0px" y="0px"
	 viewBox="0 0 563 312.1" style="enable-background:new 0 0 563 312.1;" xml:space="preserve">
<style type="text/css">
	.st0{fill:#FFFFFF;}
</style>
<g id="PADvwP.tif">
	<g>
		<path class="st0" d="M222.1,7.1c0-0.3,0.1-0.6,0.1-0.9c2.9-0.2,5.7-0.3,8.6-0.6c0.6-0.1,1.1-0.7,1.7-1.1c-0.4-0.4-0.8-1.1-1.3-1.3
			c-1.5-0.6-3.1-1-4.6-1.6c-4.5-1.9-9.1-1.8-13.8-1.2c-2,0.3-3.7,1.2-5.4,1.5c-3.3,0.6-6.8,0.2-10.5,0.2c0.4,0.8,0.9,1.3,1,1.9
			C198,5,198,6.2,198,7.3c-0.8-0.1-1.7,0-2.5-0.3c-2.3-0.7-4.6-1.4-6.8-2.2c-0.1,0.2-0.2,0.4-0.3,0.7c0.4,0.6,0.9,1.3,1.8,2.5
			c-2.1-0.8-3.6-1.4-5.2-2c-0.2,0.7-0.4,1.3-0.4,1.4c-1.1-0.6-2.2-1.8-3.1-1.7c-3.1,0.4-6.1,1.3-9.1,2c-0.3,0.1-0.8,0.6-0.8,0.8
			c0,1.9-1.3,1.8-2.7,2.2c-2,0.6-4,1.6-5.9,2.5c-0.4,0.2-0.5,0.8-0.9,1.4c1.5,0.1,2.6,0.2,3.8,0.2c-0.5,2.4-1.4,3.8-4.2,4.1
			c-2.8,0.4-5.4,2-8.1,3c0,0.3,0.1,0.6,0.1,0.9c1.5,0.5,3,1.2,4.6,1.4c1.6,0.3,3.3,0.1,5,0.1c0,0.2,0,0.4-0.1,0.6
			c-2.4,0.5-4.8,1-7.2,1.5c1.4,1,2.7,2,4,2.9c-0.1,0.2-0.1,0.4-0.2,0.7c2.3-0.2,4.7-0.6,7-0.7c1.5-0.1,3,0,4.5,0.4
			c4.7,1.1,7.1,4.8,9,8.8c0.9,1.9,2.4,3.9,0.8,6.3c0,0.1,0.9,1.2,1.4,1.2c0.6,0,1.3-0.6,1.8-0.8c1.4,1.2,2.6,2.3,3.8,3.4
			c-2.3,0.4-4.4-1-5.6,1.4c-0.3,0.5,0,1.9,0.4,2.1c0.8,0.4,1.9,0.2,2.9,0.3c0.2-0.4,0.4-0.8,0.6-1.2c-0.7-0.3-1.4-0.7-2.1-1
			c0.8-0.1,1.4,0.1,1.8,0.3c0.8,0.5,2.3,1.4,2.2,1.6c-0.5,1.3-1.3,2.5-2.1,3.6c-0.3,0.4-0.9,0.4-1.2,0.8c-1.3,1.5-1.3,5.2-0.3,7
			c2.3,4.1,4.5,8.2,6.9,12.2c0.5,0.8,1.6,1.4,2.5,1.8c0.9,0.4,2.2,0.3,3,0.9c2.4,1.9,3.1,1.7,4.1-1.3c1.4-3.9,2.7-7.7,4.2-11.5
			c0.3-0.7,1.3-1.5,2.1-1.7c3.9-0.8,7.3-2.1,9.4-5.8c0.9-1.6,2.5-1.9,4.3-1.9c4.6,0,8.1-2.3,12-5.6c-2.4-0.4-4.1-0.7-5.5-0.9
			c0.1-0.5,0.3-1.4,0.6-2.2c0.4-0.9,0.7-1.6,1.9-0.6c1.4,1,3.1,1.5,4.9,2.3c0.2-4.6-3.6-5.2-5.3-7.5c1.3,0.5,2.7,1.1,4.2,1.7
			c0.9-3.9-3-2.7-4-4.9c2.6,0.7,5,2,7.4-0.1c-1.2-0.4-2.2-0.8-3.2-1.2c0-0.2,0.1-0.4,0.1-0.6c1.5-0.1,2.9-0.2,4.4-0.3
			c0.1-0.2,0.2-0.5,0.3-0.7c-0.8-0.4-1.6-0.8-2.9-1.5c0.8-0.6,1.7-1.3,3.1-2.4c-1.8-1.3-3.3-2.5-5.5-4c2.4-0.5,4.3-0.8,6.2-1.2
			c-1.5-1.2-3-2.4-4.8-3.8c0.8-1,1.7-2,2.4-3.1c0.5-0.9,1-1.9,1.2-2.9c0.1-0.7-0.3-1.6-0.6-2.6c2.4-0.1,4.6,0.2,6.4-1.8
			c1.2-1.3,3.5-1.6,5.3-2.4c0.4-0.2,0.6-0.7,0.8-1.1c0-0.1-0.5-0.6-0.8-0.7c-2.1-0.5-4.1-1.3-6.3,0.1c-0.9,0.6-2.4,1.1-3.4,0.8
			c-1.5-0.5-2.4-0.7-3.5,0.6c-0.7,0.7-1.8,1-2.7,1.4c0.7-1.5,1.3-2.9,2-4.2c-0.2-0.3-0.4-0.6-0.6-0.8C230.8,9.4,226.5,6.4,222.1,7.1
			z M478.8,229.5c-0.5-0.2-0.7-0.4-0.9-0.4c-5.1-1.5-5.1-1.5-7.8,3.2c-0.2,0.3-0.6,0.7-0.7,0.7c-2.6-1.2-1.9,1.3-2.7,2.2
			c-1.1,1.3-2.3,2.6-3.8,3.4c-1.2,0.7-2.9,0.8-4.3,1.1c-3.6,0.9-5.9,4.2-5.3,7.4c0.2,0.8,1.1,1.7,0.8,2.3c-1.2,3.1,1,5.4,1.6,8.1
			c0.4,1.9,1,4.2,0.5,5.9c-0.8,2.3,0.2,3.2,1.9,3.6c1,0.2,2.4-0.1,3.3-0.6c1.8-1.1,3.4-2.4,5.8-1.3c0.5,0.2,1.5-0.3,1.9-0.8
			c2.9-2.9,7-2.8,10.5-4.2c0.2-0.1,0.5,0,0.8,0c4,0.7,7.2,2.4,8.5,6.7c1.1-1.2,2.1-2.3,3.2-3.5c0.5,1.5,0.9,2.8,1.5,4
			c0.5,1.1,1.3,2.2,2,3.1c0.9,1.1,1.7,2.4,2.9,3.2c2.5,1.9,5.5-0.2,8.3,0.7c0.4,0.1,1.4-0.8,1.8-1.4c0.9-1.1,1.6-2.4,2.5-3.5
			c1.8-2.2,3.8-4.2,5.5-6.3c2.2-2.8,1.4-6.2,2-9.4c0.3-1.8,0.2-3.8-0.1-5.6c-0.2-0.9-1.2-1.7-1.9-2.6c-1.7-2.3-3.2-4.7-5-6.9
			c-0.5-0.6-1.6-0.9-2.5-0.9c-1.8,0.1-2.7-0.6-3.4-2.3c-1.6-4-3.4-8-5.2-11.9c-0.2-0.4-0.7-0.6-1.1-0.9c-1.9,3.7,1.2,9-3.9,11.5
			c-1.6-1.2-3.1-2.4-4.8-3.4c-2.6-1.7-2.9-2.3-1.2-4.7c0.9-1.3,0.3-1.8-0.8-2c-1.2-0.3-2.5-0.4-3.7-0.5c-2.7-0.2-5.3,1.9-5.7,4.7
			C479.3,228.5,479,228.9,478.8,229.5z M131.6,12.6c4.6,0.8,8.7-0.5,12.9-3.1c-1.2,4.3-4.7,3.6-7.4,4.7c0.4,0.5,0.7,0.9,1,1.3
			c0.3,0.3,0.7,0.6,1.1,0.9c-4.8-1.9-5.5-2.2-7.5-0.7c1.4,1.3,2.7,2.7,4.1,4.1c-2.4,0.6-5.5-1-6.9,2.9c1.5-0.1,2.8-0.2,4.2-0.3
			c-1.9,2.7,1.6,1.7,2.3,3.6c-1.6-0.5-2.7-0.9-3.9-1.1c-0.7-0.1-1.5,0.1-2,0.5c-1.2,0.9-2.2,2-3.4,3.1c0.8,0.3,1.8,1,2.7,0.9
			c2.1-0.1,4.3-0.5,6.4-0.7c1.2-0.1,2.7-0.5,3.5,0.1c2.1,1.6,3.5,0.5,5.7-0.9c-2.2-0.7-3.9-1.3-6.2-2.1c5-0.1,8.7-1.6,10.6-4.9
			c-0.5-1.4-0.9-2-0.8-2.7c0-0.5,0.8-1.3,1.2-1.3c3,0,5.7-0.4,7.6-3c0.4-0.6,1.2-0.8,1.9-1.1c1.7-0.9,3.3-1.7,5.2-2.7
			c-0.8-0.5-1.4-0.8-1.7-1c2.8-1,5.7-2,8.6-3c-3-1.4-5.5-4-8.7-2c-0.1,0.1-0.6-0.2-0.9-0.4c-4.3-2.7-8.9,0-13.3-0.9
			c-1.5-0.3-3.2,0.8-4.9,0.8c-2.3,0-4,0.7-4.7,3.3c-4-2.9-7.7,0.4-11.6,0c-0.4,0-1.3,1.5-1.1,2.1c0.1,0.7,1.2,1.6,1.9,1.6
			c1.6,0.1,3.2-0.3,4.9-0.4C132.1,11.1,131.9,11.8,131.6,12.6z M132.1,38.5c-1.6,0.4-3.4,0.4-4.7,1.3c-1.9,1.3-2.5,3.7-1.8,5.9
			c0.3,0.9,2,1.3,3.2,2c-1.8,1-0.7,1.7,0.5,2.2c4.2,1.9,8.6,1.3,12.9,1c0.9-0.1,2.2-0.2,2.8,0.3c2.5,1.8,4.9,3.8,7,5.9
			c1.2,1.2,2.7,3-0.3,4.3c-0.4,0.2-0.7,0.9-0.8,1.4c-0.4,2.4-1.4,3-4,2.6c-1.7-0.3-3.1,0-2.4,2.4c1.1,0,2.4,0.3,3.3-0.1
			c2.2-0.9,3.8-0.2,5.1,1.4c2.1,2.5,4.5,4.3,8,4.6c-0.6-1.2-1.1-2.4-1.7-3.6c1.3,0.2,2.3,0.9,3.3,1.4c1.6,0.9,2.6,0.3,2.7-1.5
			c0.1-2.3-1.8-3-3.1-4.1c-0.8-0.6-1.3-1.5-1.8-2.4c-0.1-0.1,1-1.2,1.4-1.1c1,0.3,1.9,0.9,2.7,1.5c0.4,0.3,0.6,1.1,1,1.4
			c0.5,0.3,1.5,0.6,1.7,0.4c1.3-1.3,2.4-2.8,3.6-4.2c-4.1-2.3-7.6-4.2-11.4-6.3c0.9-0.7,1.5-1.2,2.3-1.8c-3.3-0.1-2.7-2.5-2.8-4.3
			c-3.5,0.4-5.5-3.7-9-2.9c-0.1,0-0.3-0.7-0.5-1.1c-1.2-2.6-2.6-3.1-5.2-2.1c-1.4,0.5-2.9,0.9-4.4,1.4c0.2-1.3,0.3-2.3,0.4-3.4
			c2,0.1,4.1,2.3,6.1-0.4c-2-0.6-4.1-0.9-6.2-1.1c-0.7-0.1-1.4,0.1-2.1-0.1c-1.9-0.7-3.6-0.3-4.9,1.1c-1.5,1.6-1.2,3.5-0.1,5.3
			c0.3,0.5,0.4,1.1,0.8,2.1C130,45,129.7,42.5,132.1,38.5z M96.9,45.1c-0.1,0.1-0.2,0.3-0.3,0.4c-0.4-0.3-1-0.5-1.2-0.9
			c-1.8-3.1-1.8-3.2-5-1.2c-0.8-2-2.1-2.7-4-0.9c-1.1-3.4-3.2-1.9-5.2-1.5c0.6-0.5,1.2-1,2.5-2c-1.5-0.7-2.5-1.5-3.7-1.8
			c-1.5-0.4-3.1-0.5-4.7-0.6c-2-0.1-3.9,0-5.2,0c-0.5,1.8-0.7,3-1.1,4.2c-0.3,1-1.4,2.4-1,2.9c0.9,1.3,2.2,2.6,3.6,3
			c1.7,0.5,3.6,0.1,4.5-2c0.8-1.9,2.1-3.2,4.3-3.3c-0.6,1.2-1.2,2.4-2,3.8c1.4,0.5,2.7,0.9,4,1.3c-1.1,0.6-2,1.2-2.9,1.7
			c0.1,0.2,0.2,0.4,0.2,0.6c1.2,0,2.3,0,3.5,0c1.1,0,2.2-0.1,3.3,0c0.9,0.1,1.8,0.5,2.7,0.7c-0.1,0.2-0.1,0.4-0.2,0.6
			c-2.5,0.2-4.9,0.4-7.4,0.6c0,0.3,0,0.5,0,0.8c0.9,0.4,1.8,0.9,2.6,1.3c4,2.3,8,3.4,12.5,1c1.1-0.6,2.8,0.1,4.2,0.1
			c1.5,0.1,3,0.2,4.4,0.3c0-0.3,0.1-0.5,0.1-0.8c-0.6-0.4-1.3-0.7-2.3-1.4c1.4-0.5,2.4-0.9,3.9-1.4c-5.7-1.6-6.7-6-7.2-10.2
			c-1.6,0-3,0-4.6,0C95.9,42.5,96.4,43.8,96.9,45.1z M483.2,206.8c0,0.3-0.1,0.6-0.1,1c2,0.8,3.9,1.6,5.9,2.4c4,1.5,4.9,3.1,3.9,6.4
			c1.5,0.5,2.9,1,4.3,1.6c1.4,0.6,2.6,1.4,3.7-0.7c1.3-2.4,3.5-2.1,5.4,0.3c1.2,1.6,3,1.6,4.6-0.1c-1.2-0.7-2.4-1.5-3.5-2.2
			c0.1-0.8,0.5-1.9,0.2-2.2c-2.3-1.8-4.7-3.6-7.3-5.2c-1.2-0.7-2.9-0.7-4.2-1.4c-3.7-1.9-4.9-1.8-7.2,1
			C486.9,207.4,485.1,207.1,483.2,206.8z M458.9,190.5c-2.7,2.3-5,4.4-7.4,6.4c-1.3,1-2.9,1.6-4.2,2.6c-0.7,0.5-1.5,1.6-1.4,2.3
			c0.7,4,3.1,6,7.1,6.4c0.6,0.1,1.2,0.4,1.8,0.7c1.5,0.5,2.4,0.4,2.6-1.5c0.1-0.8,0.3-1.8,0.8-2.4c1.7-1.8,2.5-5.6,1.5-8.2
			c-0.2-0.4-0.1-1.2,0.2-1.6C461.5,192.5,461.3,191.7,458.9,190.5z M350,223.5c-2.2,3.5-3.9,6.5-7.3,8c-0.9,0.4-1.1,2.7-1.5,4.2
			c-0.3,1.4-0.4,2.8-0.5,4.2c-0.1,2.2-0.4,4.5-0.1,6.6c0.1,0.8,2.2,1.9,3,1.7c1.2-0.4,2.5-1.7,2.9-3c1.2-3.4,1.9-7,2.9-10.5
			C350.5,231.2,350.6,227.7,350,223.5z M381,29c-0.5-2-1.3-2.1-2.9-1.6c-3.6,1.2-7.2,2.1-10.9,3.2c-3.5,1.1-6.5,2.9-8.3,6.3
			c-0.9,1.6-2.1,2.9-3.1,4.3c-0.8,1.1-1.6,2.1-2.2,3.3c-0.2,0.4,0.3,1.1,0.4,1.7c2.1-0.6,2.5,1.6,3.8,2.2c1,0.5,2.2,0.4,4.1,0.6
			c-1.1-1.6-1.8-2.5-2.3-3.4c-0.9-1.5-1.3-3,0.5-4.3c1.1-0.8,2-1.9,2.8-2.9c2.2-2.7,4.7-4.8,8.1-6C374.3,31.4,377.6,30.2,381,29z
			 M131.9,18.2c-1.1-1.2-2-2.2-3-3c-0.5-0.4-1.1-0.6-1.6-0.9c-1.4-0.8-2.9-1.4-4.1-2.5c-1.5-1.4-2.9-2.2-4.9-0.9
			c-0.7,0.4-1.4,1-2.1,1.3c-2.1,0.9-1.2,1.6,0,2.3c-0.6,0.3-1.3,0.6-2,0.8c0,0.3,0,0.5,0,0.8c2.1,0.6,4.1,1.3,6.5,2
			c-0.5,0.3-1.2,0.7-1.8,1.1c1.2,2.4,3.7,3.4,5.9,2.4C127.2,20.6,129.6,19.4,131.9,18.2z M264.8,101.6c-0.9,0.7-1.5,1.2-2.2,1.8
			c0.1,0.1,0.1,0.3,0.2,0.4c3-0.5,5.9-1,8.3-1.4c0.5-1.7,1-3,1.4-4.3c-0.2,0.2-0.3,0.3-0.5,0.5c-0.9-1-1.9-2-2.7-3
			c-0.9-1.3-1.6-2.7-2.6-3.9c-0.8-1.1-1.8-2.1-0.5-3.5c0.9-1,0.2-2.1-0.8-1.7c-1.9,0.7-2.3-0.4-2.6-1.7c-2.8,1.8-2.2,7.2,1,9
			c1.8,1,2,2.1,0.5,3.3C262.4,98.7,263,100.1,264.8,101.6z M439.3,213c0.4-0.2,0.8-0.3,1.2-0.5c0-1.6,0.5-3.5-0.1-4.8
			c-1.3-2.6-3.2-4.9-4.9-7.3c-0.5-0.7-1.3-1.2-2-1.8c-1.4-1.2-2.9-2.4-4.2-3.6c-1.6-1.4-3.1-2.7-5.1-2.2c3.3,5,6.4,10.1,9.9,15
			C435.5,209.8,437.5,211.3,439.3,213z M115.3,28c0,0.3,0,0.6,0,0.9c0.7,0.2,1.4,0.7,2.1,0.6c2.7-0.2,3.8,1.1,4.1,3.6
			c0.1,0.7,0.8,1.8,1.3,1.9c3,0.5,5.9,0.9,8.9,1.1c2.2,0.2,4.5,0.1,6.7-0.1c0.8-0.1,1.9-0.9,2.3-1.7c0.4-1.1,0-2.2-1.6-2.2
			c-1.5,0-3.1,0-4.6,0c-2.4,0-4.8,0.1-7.2,0.1c-0.7,0-1.8-0.3-2-0.7c-1.1-3.2-4-3.1-6.5-3.7C117.7,27.6,116.4,27.9,115.3,28z
			 M287.4,16.9c0.7,0.6,1.5,0.9,1.6,1.4c0.6,3,1.8,4.7,5,2.6c0.2-0.1,0.5-0.1,0.7,0c0.8,0.4,1.6,0.8,2.4,1.2c-0.5,0.8-1,1.7-1.7,2.3
			c-0.6,0.5-1.6,0.6-2.5,1c3.3,2.9,3.7,2.9,5.2-0.2c0.6-1.3,1.3-2.2,2.4-3.1c2.1-1.7,2.3-1.8,3.5,0.7c1,2.3,2.5,2.8,5,1.1
			c-4.7-2.4-8-6.7-13.4-8.6c0.2,1.6,0.3,2.5,0.4,3.7C294.3,17.1,289.2,15.8,287.4,16.9z M548.5,281.9c-1.7,1.6-3,3.1-4.5,4.1
			c-2.5,1.7-5.2,3-7.6,4.7c-0.8,0.6-1.9,2-1.7,2.7c0.3,1.2,1.3,2.7,2.4,3.1c0.9,0.3,2.6-0.4,3.4-1.2c3.6-3.7,7.1-7.7,10.7-11.7
			C550.2,283,549.1,282.3,548.5,281.9z M235.9,64.1c-0.7-0.6-1.4-1.7-2.2-1.7c-0.8,0-1.7,1-2,1.2c1.1,1.6,1.9,2.5,2.4,3.6
			c1,1.9,2.3,3.6,4.6,3.1c2.4-0.5,4.7-1.4,7-2.3c1.4-0.5,2-1.8,1.4-3c-0.5-1-1.9-2.2-2.9-2.2C241.5,63,238.7,63.7,235.9,64.1z
			 M94.3,32.4c-1.9,0.3-3.4,0-4.7-1.1c-2-1.6-4.3-2.1-6.7-1.5c-0.3,1.3-0.6,2.5-0.9,4c2.4,0,4.8,0,7.3,0c0,0.1,0,0.2,0.1,0.3
			c-1.1,0.5-2.2,0.9-3.4,1.4c4.7,1.2,8.7-2.3,13.6-2.1c-0.4-1.1-1.2-2.6-1.5-2.5c-1.7,0.6-2.2-0.4-2.8-1.6c-0.3-0.5-1.2-0.7-1.8-1.1
			c-0.1,0.7-0.3,1.5-0.2,2.1C93.4,31,93.9,31.5,94.3,32.4z M488.7,139.6c1.7-0.8,3.3-1.9,5-2.4c2.1-0.6,2.9-1.9,3.4-3.8
			c0.4-1.6,0.9-3.2,1.5-4.7c0.8-2,0-3.3-2.4-3.7c-0.1,4-1.5,7.1-5.6,8.6c-0.3,0.1-0.6,0.4-0.6,0.6c-0.4,1.9-1.8,1.8-3.3,1.9
			c-1.5,0.1-2.9,0.7-4.3,1.1c0,0.3,0.1,0.7,0.1,1c0.7,0,1.5,0.2,2.1,0C486.7,137.7,488.4,137.5,488.7,139.6z M426.4,14.9
			c0.1-1.3,0.6-2.3,0.2-3c-1.4-2.6-3.4-1.4-5.4-0.7c-2.6,0.8-1.1,2.6-1.4,4.3c1.3-0.3,2.3-0.6,3.8-1c-2.2,1.8-2.4,3.7-0.6,4.2
			c2.3,0.7,4.8,0.9,7.1,1.4c0.4-1.2,0.8-2,0.8-2.8c-0.1-0.7-0.6-1.7-1.1-1.8C428.5,15,427.1,15,426.4,14.9z M553.5,284.1
			c2.1-1.6,4.1-2.8,5.7-4.4c0.7-0.8,2.4-2.6,0.5-3.5c-2.5-1.2-3.2-3.4-4.4-5.4c-0.4-0.7-1.2-1.1-1.8-1.7c0,0.8-0.1,1.6-0.1,2.4
			c0,0.2,0,0.6,0.2,0.7c1.8,2,1.2,3.8-0.3,5.7C551.5,279.9,552.2,282,553.5,284.1z M105.9,42.8c1.3,1.2,2.4,2.1,3.4,3
			c1.7,1.4,2.8-0.3,4-0.9c0.5-0.2,1-1.5,0.8-1.9c-0.5-0.8-1.4-1.4-2.2-2c0.4-0.6,0.9-1.2,1.4-1.9c-1.6-1.6-3-1.6-6.2,0.2
			c0.5,0.6,1,1.1,1.5,1.8C107.7,41.7,106.9,42.2,105.9,42.8z M437.8,199.1c-0.6-1.8-1-3.6-1.7-5.4c-0.5-1.1-1.1-2.5-2.1-3
			c-1.8-0.8-2.4-2-2.8-3.7c-0.2-0.7-1.1-1.4-1.7-1.9c-0.1-0.1-1.1,0.6-1.1,0.7c0.2,0.7,0.5,1.6,1,2.1c1.8,1.8,2.9,3.7,3,6.4
			C432.6,197.4,435.3,199.5,437.8,199.1z M179.4,101.5c-0.5,0.5-0.9,0.6-1,0.9c-1.3,2.5-2.6,4.9-3.9,7.5c2.5,0.3,4.9,0.6,7.2,0.7
			c0.6,0,1.4-1.1,1.6-1.9c0.2-0.8-0.3-1.7-0.5-2.6C179.9,107,179.6,106.5,179.4,101.5z M254,100.8c3.4,0.3,5.7-0.9,6.1-3.1
			c0.2-1.1,0.4-2.3,0.5-3.4c0-0.6-0.3-1.5-0.7-1.7c-0.6-0.3-1.6-0.3-2.1,0.1C254.7,94.5,254.4,97.6,254,100.8z M313.1,15.1
			c-4.3-1.4-11.3-1.2-12.7,0.3C306.4,19.1,311.6,19,313.1,15.1z M498.4,30.2c-1.1,1.3-2.2,2-3.7,0.4c-0.3-0.4-2.2,0-2.7,0.6
			c-0.5,0.6-0.6,2-0.3,2.8c1.2,2.4,3.3,0.7,5,0.7C499.5,34.7,500.1,32.9,498.4,30.2z M131.8,63.8c-0.3,0.1-0.6,0.2-0.8,0.2
			c0.2,2.1,0.2,4.2,0.6,6.2c0.2,1.2,1.5,1.8,2.2,0.6c1.1-2,2.5-2.3,4.5-1.6c0.1-0.3,0.2-0.6,0.3-0.8C136.3,66.9,134,65.3,131.8,63.8
			z M72.5,29.9c2.6,0.9,4.8,1.5,6.3-1.3c0.1-0.2,0.5-0.2,0.8-0.2c2.6,0.6,2.6,0.6,3.2-2.6C78.3,24.2,75.9,27.9,72.5,29.9z
			 M498.9,116.1c-0.2,1.1-0.2,2-0.6,2.8c-0.4,0.8-1.1,1.4-1.6,2.2c3,1.5,5.5,0.8,7.4-1.6C502.4,118.3,500.6,117.2,498.9,116.1z
			 M109.4,23.7c-0.1-0.7,0.1-1.9-0.4-2.4c-2.4-2.3-5.3-3.1-8.8-3c1.3,1.3,2.4,2.6,3.8,3.5C105.4,22.7,107.1,23,109.4,23.7z
			 M500.3,96.8c-2.5,1-1.5,3-1.3,4.6c0.2,2.2,0.6,4.3,0.9,7c0.8-1.4,2.1-2.6,2.1-3.8C501.8,102.1,500.9,99.7,500.3,96.8z
			 M430.9,22.8c2.4-0.3,4.6-0.5,6.8-0.9c0.6-0.1,1.2-0.7,1.8-1.1c-0.4-0.4-0.8-1.1-1.3-1.3C435.3,18.3,432.8,18.2,430.9,22.8z
			 M108,28.1c0.1,1.2,0.3,2.3,0.4,3.4c0.1,0.8,0,2.3,0.3,2.4c0.9,0.2,2,0.2,2.8-0.3c0.6-0.4,1-1.5,1-2.2c0.1-0.8-0.4-1.7-0.6-2.6
			C110.6,28.6,109.4,28.4,108,28.1z M466.3,204.6c-0.2,0-0.5-0.1-0.8-0.1c-3.1-0.7-4,0.4-3,3.6c0.3,1.1,0.5,2.2,0.9,3.7
			c1.2-1.5,0-4.7,3-4.3C466.3,206.4,466.3,205.6,466.3,204.6z M465.8,177.2c0.3-1.6,0.5-3.1,0.7-4.6c0.1-0.9,0.5-2,0.2-2.8
			c-0.2-0.5-1.5-0.5-2.7-0.8C464.4,172.1,462.4,175.1,465.8,177.2z M473,185.8c-1.7,0.8-3.2,1.5-4.2,2c0.9,1.3,1.9,2.7,2.9,4.2
			C473.2,189.9,474.8,188.1,473,185.8z M504,280.3c1.1,4.5,1.1,4.5,3.8,3.9c0-1.5,0-3.1,0-4.8C506.4,279.8,505.2,280,504,280.3z
			 M441.1,213.7c-0.1,0.3-0.1,0.6-0.2,0.9c3.5,0.8,7,1.7,10.5,2.5c0.1-0.2,0.2-0.5,0.3-0.7c-0.4-0.6-0.7-1.5-1.2-1.6
			C447.4,214.3,444.3,214,441.1,213.7z M148.7,165.6c-3.6-3.4-8.3-5.4-10.8-4.2C142.2,161.5,144.2,166.5,148.7,165.6z M158.5,168.9
			c0-0.4,0.1-0.9,0.1-1.3c-1.6-0.4-3.2-1-4.8-1.2c-0.4-0.1-1.3,0.9-1.2,1.1c0.2,0.7,0.8,1.7,1.2,1.8
			C155.4,169.3,157,169.1,158.5,168.9z M400.4,185.5c-0.5,0.1-1,0.1-1.5,0.2c0,1.6-0.1,3.2,0.1,4.7c0,0.3,1.1,0.8,1.6,0.7
			c0.5-0.1,1.3-0.9,1.2-1.2C401.4,188.4,400.9,187,400.4,185.5z M537,41.7c1.8,0.3,3.7,1.3,5-0.9c0.2-0.4-0.5-1.7-1-1.9
			C538.8,38.3,537.5,39.4,537,41.7z M112,20.2c-0.1,0.2-0.3,0.5-0.4,0.7c0.7,0.9,1.2,2,2.1,2.6c0.5,0.3,1.6-0.1,2.4-0.2
			c-0.3-0.7-0.4-1.8-0.9-2.1C114.3,20.7,113.1,20.6,112,20.2z M118.2,35.7c0.2-0.3,0.4-0.5,0.6-0.8c-0.1-1.2,0.5-2.9-1.7-2.6
			c-0.8,0.1-1.5,1.2-2.3,1.8C115.9,34.6,117,35.1,118.2,35.7z M486.6,205.4c-0.8-1.5-1.6-2.9-3.5-2.2c-0.4,0.1-0.9,1.3-0.7,1.7
			C483.4,206.3,484.7,206.4,486.6,205.4z M87.2,24.1c2.8,2.2,4.2,1.8,5.3-1.8C90.7,22.9,89,23.5,87.2,24.1z M512.9,206.5
			c-1.8,1.1-3.4,1.9-5.1,2.9C511,210.8,512.3,210.1,512.9,206.5z M480.6,144.2c0.2,0.1,0.4,0.2,0.6,0.3c0.4-0.8,0.9-1.5,1.1-2.4
			c0.1-0.6-0.1-1.5-0.6-1.8c-0.5-0.4-1.4-0.3-2.2-0.4C480,141.7,480.3,143,480.6,144.2z M148.7,59.1c0-0.7,0-1.5,0-2.3
			c-1.8-0.3-3.2-0.1-3.3,2.3C146.5,59.1,147.5,59.1,148.7,59.1z M515,205.4c0.3-0.1,0.5-0.1,0.8-0.2c-0.1-0.9,0.1-2-0.3-2.6
			c-0.4-0.6-1.4-0.8-2.2-1.2c-0.2,0.2-0.3,0.4-0.5,0.6C513.5,203.1,514.3,204.3,515,205.4z M545.6,242.4c0.3-0.3,0.5-0.7,0.8-1
			c-1-0.7-1.9-1.5-3-2.1c-0.3-0.2-0.9,0.4-1.8,0.8C543.3,241.1,544.4,241.8,545.6,242.4z"/>
		<path d="M563,57.6c-0.1,0-0.2,0-0.2,0.1c-2,2.1-4.3,4-2.4,8.2c-2.4-1.2-4-1.9-5.5-2.6c-1.3-0.7-2.7-1.2-4-2.1
			c-0.9-0.6-1.5-1.5-2.3-2.3c-0.7-0.6-1.4-1.2-2.1-1.8c-0.1,0.9-0.2,1.9-0.2,2.8c0,0.3,0.3,0.6,0.4,0.8c-2.9,3.3-2.9,3.3,0.2,6.5
			c0.6,0.7,1.2,1.4,1.6,2.2c0.2,0.4,0.1,1.2-0.2,1.5c-0.3,0.3-1,0.2-1.6,0.1c-0.4-0.1-1.1-0.7-1.2-0.6c-2.3,2-6.4,1.8-7,5.9
			c-0.2,1.1-1,2.1-1.6,3.4c-1.2-1.5-2.1-2.7-3.2-4c-2.2,1.3-4.2,2.4-6.1,3.8c-2.2,1.7-2.4,4.2-0.7,6.4c2.3,2.9,2.3,6.3,0.6,9.6
			c-1.6,3-2.7,6.2-4.4,10.1c-1-1.2-2.1-2-2.5-3.1c-1.3-3.5-2.7-7-3.3-10.6c-0.9-4.9,1.8-8.8,4.5-12.6c0.9-1.3,1.8-2.8,2.5-4.3
			c0.2-0.5,0-1.3-0.1-1.9c-0.6,0.3-1.4,0.5-1.9,1c-0.4,0.4-0.6,1.2-1,2.3c-0.7-0.7-1.1-1.4-1.8-1.9c-1.2-0.8-2.6-2-3.8-1.9
			c-1.7,0.1-2.4,1.8-2.6,3.6c-0.2,1.4-0.5,2.9-1.1,4.3c-0.9,2.1-2.4,2.6-4.7,1.7c-2.9-1.2-6.1-1-8.6,1.1c-3.6,3.1-6.8,6.6-10.2,9.8
			c0.8,1,1.3,1.9,2,2.4c0.7,0.5,1.7,1,2.4,0.8c3.8-1.2,5.4-0.3,4.8,3.3c-0.7,3.9-1.9,7.9-3.6,11.5c-1.4,3-3.6,5.6-5.7,8.1
			c-0.6,0.8-2,1.1-3.1,1.2c-3.1,0.3-5.4,1.4-6.6,4.5c-0.5,1.3-2.1,2.3-3.2,3.5c2.6,2.2,3.8,5,2.6,8.2c-0.4,1-2.5,1.4-3.9,2.1
			c-0.5-3.3,2.5-6.8-1.9-7.8c-0.2-1.3-0.1-2.5-0.6-3.2c-0.7-0.9-2.2-0.3-5.9,1.9c0.4-1.3,0.8-2.3,1.1-3.4c0.1-0.4-0.1-0.9-0.3-1.1
			c-0.2-0.2-0.9-0.1-1.1,0.1c-1.9,1.4-3.8,2.9-5.7,4.4c1,1.1,2.1,2.2,2.9,3c1.4-0.2,2.7-0.3,4-0.5c0,0.2,0.1,0.4,0.1,0.7
			c-1.1,1.2-2.3,2.3-3.3,3.6c-0.3,0.4-0.6,1.3-0.3,1.7c0.6,1.3,1.7,2.3,2.2,3.6c0.5,1.4,0.6,2.9,0.5,4.4c1.3,1.4,1.3,2.6,0,4.2
			c-1.1,1.3-1.7,3.1-2.6,4.5c-3.6,5.4-8.8,8-15.2,8.2c-2.3,0.1-4.3,0.5-5.9,2.2c-1.6,1.7-1.5,3.5,0,5.3c1.5,1.9,2.9,4,4.1,6.1
			c1,1.8,0.7,3.6-1.1,4.9c-0.3,0.2-0.5,0.5-0.7,0.7c-3.7,3.7-4.6,3.6-7.9-0.5c-1.2-1.5-2.7-2.8-4.2-4.2c-0.8,2.1-1.4,3.8-2.1,5.6
			c-1-4-1.8-7.7-2.7-11.6c-1.6,0.7-3,1.3-5.3,2.3c1.7-4.6-1.1-6.8-2.7-9.5c-0.6-0.9-0.9-2-1.5-3.4c-2.5,2.2-6.6,1.1-9,4.9
			c-2,3.1-5.7,5.2-8.5,7.8c-0.6,0.5-0.9,1.7-0.9,2.5c0.1,3.5-0.8,6.6-2.6,9.5c-0.4,0.6-1.3,1.2-1.9,1.2c-0.6-0.1-1.3-0.9-1.6-1.6
			c-1-2.6-1.7-5.4-2.9-7.9c-1.8-3.9-2.7-8-2.8-12.3c0-0.9-0.4-1.7-0.5-2.4c-0.8,0.6-1.7,1.9-2.5,1.8c-1.5-0.2-2.5-1.1-2.2-3.1
			c0.1-0.6-1.8-1.4-2.5-2.3c-2.2-2.7-4.7-3.6-8.4-2.8c-2.5,0.5-5.5-0.4-8.1-1c-0.8-0.2-1.3-1.8-2-2.7c-4.1,2.3-7.7-0.6-9.5-3.9
			c-1.3-2.3-2-2.4-4.9-0.5c1.9,3,3.6,6.1,5.8,8.9c1.9,2.3,4.1,2.1,6.3,0.2c0.3-0.3,1.2-0.4,1.6-0.2c1.2,0.7,2.4,1.6,3.5,2.4
			c1.3,1,2.3,2.3,1.1,3.9c-1.9,2.6-3.6,5.8-6.2,7.5c-4.4,2.9-9.5,4.9-14.3,7.2c-1.3,0.6-2.7,1.1-4.5,1.9c-0.4-2.3-0.5-4.5-1.2-6.3
			c-1-2.6-2.6-4.9-3.9-7.4c-0.8-1.5-1.5-3.1-2.2-4.6c-0.3-0.8-0.4-1.7-0.8-2.3c-2.1-3.2-4.3-6.3-6.5-9.4c-0.5,0.6-1.1,1.3-1.8,2.1
			c1.9,4.2,3.8,8.5,5.7,12.8c1.4,3.1,2.5,6.4,4,9.4c0.5,1,2.1,1.5,2.9,2.5c1.6,2.1,3.1,4.4,4.9,7.2c3.2-0.7,7-1.5,10.9-2.4
			c0.2,4.2-2.6,7.2-4.1,10.8c-2.5,6.2-9,8.8-12.6,14.3c-2.8,4.4-3.2,8.3-1.8,13c0.9,3.1,1.4,6.4,1.4,9.6c0,1.2-1.5,2.6-2.6,3.6
			c-1.6,1.4-3.6,2.3-5.2,3.8c-1.5,1.4-2.4,3.3-1.1,5.3c1.6,2.5,0.4,4.5-1.7,5.7c-1.9,1.1-2.3,2.7-2.6,4.5c-0.9,5.6-4.7,9.3-9,12.2
			c-2,1.4-5.1,1.3-7.7,1.6c-1.8,0.2-4,0.7-5.2-0.2c-1-0.7-0.6-3.2-1.1-4.8c-0.5-1.7-1-3.5-2.1-4.8c-2.8-3.3-3-7.2-3.6-11.2
			c-0.4-2.5-1.8-5-2.9-7.4c-1.9-3.7-2.3-7.5,0.1-10.9c2-2.8,1.5-5.4,0.8-8.1c-0.9-3.8-2.1-7.5-4.8-10.5c-1.1-1.2-1.5-3.5-1.6-5.3
			c-0.2-1.9,0.3-3.8,0.5-5.8c0.2-2.3-1.1-3.5-3.3-2.8c-1.7,0.6-2.7,0.4-3.7-1.2c-1.5-2.3-3.3-2.6-6.7-1.3c-2.9,1.2-5.6,2.4-8.9,1.4
			c-0.9-0.3-2.1,0.2-3.2,0.6c-2.2,0.8-4.1,0.5-5.7-1.2c-1.1-1.1-2.3-1.9-3.5-2.9c-0.3-0.3-0.9-0.4-1-0.7c-0.7-3.3-3.4-5.1-5.3-7.5
			c-1.5-2-1.8-4.2-1.2-6.8c0.6-2.7,0.9-5.6,0.5-8.3c-0.5-4.3,1.1-7.8,3.4-10.9c2-2.7,4.7-4.9,7.1-7.2c1-1,1.5-1.8,0.8-3.3
			c-0.7-1.3-0.2-2.5,1.1-3.5c1.7-1.3,3.1-3,5.1-4.9c3.8,2.6,7.6-0.7,11.7-1.6c4.5-0.9,9.1-1,13.7-1.5c0.4,2.3,1.9,4.2-0.6,5.7
			c1.4,1.8,3,2.9,5.3,2.9c0.3,0,0.8-0.1,1,0.1c1.9,2.1,4.7,2.6,6.9,4.2c2,1.4,2.7,0.6,3.1-0.9c1.1-4,2.4-3.9,6-2.3
			c2.6,1.2,5.4,1.9,8.1,2.8c0.5,0.1,1.1-0.4,1.6-0.5c1.4-0.1,3-0.6,4.2-0.2c1.9,0.7,2.8,0,3.4-1.4c1.1-3,1.9-6.1,2.9-9.3
			c-1.3-0.5-2.1-0.8-3-1.2c-1.1,1.9-2.7,1.7-4.4,1.1c-0.6-0.2-1.5-0.5-1.8-0.3c-2.4,2-4.1,0-5-1.4c-1.3-2-1.8-4.6-2.9-7.6
			c-1,0.3-2.6,0.6-3.9,1.4c-0.5,0.3-0.9,2-0.6,2.4c1.7,2.2-0.1,3.4-1.5,5.2c-1.2-2.9-2.7-5.6-3.5-8.6c-0.5-1.8-1-2.9-2.6-3.9
			c-2.2-1.4-4.1-3.3-6.2-5c-0.7-0.6-1.5-1.5-2.3-1.5c-0.8,0-1.6,0.8-2.7,1.5c3.8,3.7,6.7,6.5,9.9,9.6c-0.7,0.2-2,0.9-2.6,0.5
			c-2.6-1.6-5.6-3.2-7.4-5.6c-2.5-3.2-3.7-3.8-6.9-1.5c-0.7,0.5-2.1,0.8-2.8,0.4c-2.1-1-3.2-0.1-3.4,1.7c-0.2,1.5-1.1,2-2.2,2.9
			c-1.4,1.1-2.9,2.7-3.4,4.4c-1,3.2-1.7,4.3-5,4.9c-0.8,0.1-1.7,0.2-2.4,0.6c-1.1,0.6-1.8,0.6-2.4-0.7c-0.2-0.4-0.8-0.8-1.3-0.9
			c-2.1-0.6-3-1.9-2.7-4.2c0.3-2.4,0.3-4.9,0.6-7.3c0.1-0.7,1-1.7,1.6-1.7c2.7,0,5.4,0.2,8.1,0.4c2.2,0.1,2.5-1.5,2.5-3
			c-0.2-3.4-1.2-6.4-5.2-7.4c0-0.2,0.1-0.5,0.1-0.7c1.2-0.1,2.4-0.3,3.5-0.4c1.8-1.5,3.7-2.9,5.5-4.4c1.7-1.4,3.3-2.9,4.9-4.4
			c3.1-3,3.1-3.1,7.6-3.9c-0.4-1.5-0.9-2.9-1.3-4.4c-0.9-2.8,1.3-3.4,3.7-4.8c-0.5,2.1-1,3.5-1.2,4.9c-0.1,0.9,0.2,2,0.8,2.6
			c0.6,0.6,1.7,0.8,2.7,1c0.8,0.2,1.7,0.2,2.6,0.2c0.8,0.1,1.8,0.3,2.5,0.1c2.1-0.8,4-2.4,6.6-0.8c0.8,0.5,3.2-2.3,3.2-3.4
			c0.1-1.4,0.3-3,1-4.1c0.2-0.4,2.2,0.3,3.9,0.6c0-0.9,0-1.9,0-2.9c0-0.8-0.6-2.1-0.3-2.3c0.9-0.6,2.3-1.4,3.1-1.1
			c2.4,1,3.9-0.3,5.9-1.4c-2.2-2.6-4.6-1.2-6.6-0.6c-2.1,0.7-4,1.2-5.5-0.6c-1.8-2.2-1.6-5.5,0.3-7.6c1.5-1.7,3.1-3.2,4.6-4.9
			c0.3-0.3,0.3-1.3,0-1.6c-1.3-1.5-5.1-1.2-5.5,0.7c-0.9,3.3-3.3,5.1-5.5,7.2c-2.5,2.4-2.3,3.9-0.1,6.7c0.5,0.6,0.3,2.9-0.2,3.1
			c-2.7,1.2-2.3,3.7-2.9,5.8c-0.3,0.9-3.8,3.7-4.6,3.4c-0.5-0.2-0.8-0.9-1-1.4c-1.1-2.8-2.1-5.5-3.2-8.4c-1.2,0.9-2.2,1.7-3.3,2.5
			c-2.3,1.7-4.2,1.1-4.9-1.7c-0.3-1.3-0.6-2.6-1-3.9c-1.2-4.1,2-5.5,4.5-7.1c3.8-2.5,6.8-5.5,9-9.5c1-1.8,2.9-3,4.2-4.5
			c0.9-1,1.4-2.2,2.3-3.2c0.7-0.8,1.7-2.1,2.5-2.2c3.3-0.1,5.8-1.8,8.3-3.5c0.4-0.2,0.8-0.3,1.3-0.5c0.1,0.5,0.3,1,0.4,1.6
			c2.6-0.6,5.5-1.7,8.6,0.1c-0.7,0.6-1.2,1-1.8,1.5c0.5,0.3,0.8,0.6,1.1,0.7c2.1,0.6,4.2,1,6.2,1.6c2.1,0.6,4.3,0.9,6.1,2.1
			c2,1.3,5.1,1.7,5.5,5.1c-2.2,1.3-4,3.2-7.1,1.5c-2.1-1.1-4.7-1.3-7.2-1.8c2.7,1.3,3.5,3.5,3.9,6.2c0.3,2.1,2.3,2.2,3.9,2.8
			c0.2,0.1,0.8-0.3,0.8-0.5c0-0.4-0.2-0.8-0.4-1.2c-0.2-0.4-0.6-0.8-0.9-1.1c0.5-0.1,1.1-0.4,1.6-0.3c0.6,0.1,1.3,0.9,1.8,0.8
			c0.8-0.2,1.9-0.7,2.1-1.4c0.8-2.7,2.3-4,5.1-3.4c1.8,0.4,1.9-0.7,1.7-1.9c-0.2-1.5-0.5-3.1-0.9-5.2c1.7,0.4,2.7,0.7,4.1,1.1
			c-1,1.1-1.7,1.9-2.5,2.9c1,0.7,1.9,1.4,3.1,2.3c1.9-4.7,6.3-5,10.3-6.2c0.4,0.5,0.9,1.1,1.4,1.8c2.8-1,5.5-3.4,9.1-1
			c0.4-0.4,1.2-1.1,2.1-1.9c-0.4-0.5-0.8-1.1-1.5-1.9c5.4-1.2,9.2,1.7,13.5,4.1c0.2-0.2,0.6-0.7,1.2-1.2c-0.4-0.5-0.6-0.9-0.9-1.1
			c-2.9-1.5-2.2-4.2-2.3-6.6c0-0.2,0-0.6,0.1-0.7c1.2-1.7,2.5-3.3,4-5.2c0.1,0,0.6,0.2,1.1,0.3c3.4,0.5,3.1,0.5,2.9,3.9
			c-0.2,2.9,0.1,6,0.9,8.8c0.8,3.4-0.8,6.3-4.4,6.7c-0.2,0-0.5,0.1-0.7,0.1c0,0.2,0,0.4-0.1,0.6c1.4,0.1,3.2,0.7,4.1,0.1
			c1.6-1,2.8-2.7,3.8-4.4c0.5-0.9-0.4-2.5,1.4-3.1c1.7-0.5,2.4,0.4,3,1.7c0.1,0.2,0.7,0.1,1.2,0.2c-0.7-4.1-3.9-2.7-6.5-3.1
			c0-1,0-2.1,0-3.1c0-0.8,0.2-1.7-0.1-2.3c-1-1.9-0.4-3,1.8-3.6c0.3,1.1,0.7,2.3,1,3.2c1.6,0.1,3.1,0.1,5,0.2
			c-1.1-0.7-1.9-1.2-3-1.9c0.8-0.4,1.3-0.6,1.9-0.8c-0.3-0.7-0.5-1.4-0.8-2.1c2.9-1,5,2.6,7.8,2.1c0.1-0.3,0.1-0.6,0.2-0.9
			c-0.6-0.3-1.4-0.4-1.7-0.9c-0.5-0.7-0.8-1.6-0.8-2.4c0-0.5,0.6-1.4,1-1.4c2.9-0.3,5.8-0.4,9.2-0.7c-0.4,0.4-0.2,0.3-0.2,0.2
			c0-5.8,1.5-5.8,8.3-7.2c2.9-0.6,6.1-0.4,8.9-1.2c2.2-0.6,5-0.6,5.9-3.7c0.3-0.9,2-1.3,3.2-1.8c1.4-0.7,2-0.3,3.1,1
			c1.2,1.4,2.7,4.3,6,2.2c1-0.6,3.1-0.1,4.3,0.6c1.2,0.6,2.2,1.9,2.7,3.2c0.7,2-1.3,2.4-2.5,3.2c-3.2,1.9-6.4,3.7-9.5,5.9
			c2.4-1.1,5.7-0.2,7.9-3c2.1,0.5,4.7,2,7.9,0.9c1.3-0.4,3.1,0.8,4.7,1.3c1.8,0.5,3.6,1.2,5.4,1.5c0.7,0.1,2.1-0.6,2.3-1.1
			c0.7-2.7,2.2-1.9,3.8-1.1c0.3,0.1,0.6,0.2,1,0.3c3.9,0.5,3.6,0.6,4.1,4.6c0.2,1.7,2.1,3.2,3.6,5.4c1.3-3.2,2.3-4.4,5.4-3.2
			c2.1,0.8,5,0,7.5-0.2c0.6-0.1,1-1,1.5-1.6c0.7-0.8,1.4-2.2,2.1-2.2c1.8-0.1,4.1-0.3,5.3,0.7c2.4,2.1,2.2,2.4,4.6,0.1
			c0.1-0.1,0.3-0.2,0.3-0.2c1.3,1.4,2.5,2.7,4,4.3c2.4-3.9,5.5-2.2,8.4-1.9c0.8,0.1,1.6,0.4,2.4,0.7c1.3,0.4,2.2,0.3,2.6-1.4
			c0.1-0.6,1.3-1.5,1.9-1.4c3.3,0.6,6.6,1.4,9.9,2.3c3,0.9,5.9,2,8.3,4.2c0.5,0.5,1.3,0.6,1.9,1c1.7,1.1,3.3,2.3,4.9,3.6
			c0.5,0.4,1.2,1.5,1.3,1.4c3.3-1.7,6.2,1.6,9.4,0.7C563,57,563,57.3,563,57.6z"/>
		<path d="M0,63.8c0.4-0.2,1-0.3,1.3-0.6c2.3-1.8,4.2-0.9,6.1,1C8.7,63.5,10,62.7,11,62C7.7,60,4.5,58.1,1,56
			c5.6-3.1,10.7-5.9,15.7-8.6c0.4-0.2,1-0.5,1.4-0.3c7,3.1,14.5,3.2,21.8,4.6c3.6,0.6,7,2,10.7,3.1c0.9-1.9,2.3-2.7,4.7-1.3
			c0.7,0.4,2.2-0.2,3.3-0.6c3-0.9,5.9-2.8,8.9,0.5c0.5-0.8,0.8-1.5,1.3-2.2c0.4,0.7,0.7,1.3,1.2,2.2c2.9-2.7,5.4-0.5,8.2,0.3
			c1.7,0.5,3.4,0.6,5.1,1c0.8,0.2,1.6,0.6,2.5,0.9c-0.4,0.6-0.8,1.3-1.4,2.3c1.5,0.2,3,0.7,4.5,0.6c2.7-0.3,5.4-1,7,2.2
			c0.1,0.2,0.6,0.1,0.5,0.1c0.4-1.3,0.5-2.7,1.2-3.4c1.2-1.2,2.7-1.2,4.3-0.2c3.1,1.9,6.6,1.8,10.3,1c0.1-1.4,0.9-3.1-2.2-3.6
			c1.3-0.9,2.4-2.3,3.2-2.1c1,0.2,1.7,1.7,2.8,2.9c-1.3,0.3-1.9,0.5-2.4,0.6c0.7,1.4,1.3,2.7,1.9,3.8c0.7-0.9,1.1-1.8,1.8-2.4
			c2.2-1.8,2-3.8-0.5-5c-3.1-1.4-3.3-3.1-0.7-5.4c0.6-0.5,0.7-1.7,0.7-2.5c0-1-0.4-2-0.4-2.9c-0.1-3.7,0.1-3.7,3.6-3.5
			c1.3,0.1,2.5,0.2,2.5,2c0,1.8-0.9,2.2-2.4,2c-0.3,0-0.5,0-0.8,0c-0.4,1-0.9,2-1.3,3.1c2.1,1.7,3.2,4.9,2.4,7.5c1,0.1,2,0.3,3,0.4
			c0.3,0.9,0.6,2,0.9,3.3c0.4-0.4,0.8-0.7,1.2-1c0.6-0.4,1.1-0.8,1.7-1.1c0.3,0.7,0.6,1.4,0.8,2.2c0.3,0.9,0.5,1.8,0.8,2.7
			c0.8-0.5,1.9-0.9,2.4-1.6c0.9-1.5,3-2.9,1-4.9c2.2-1.6,5-0.5,7.2,2.8c-0.7,0.2-1.4,0.3-2.3,0.6c0.4,0.7,0.6,1.2,0.9,1.6
			c1.3,1.8,0.6,3.9-1.5,4.1c-1.9,0.2-3.8,0-5.6,0c-0.8,5.4-1.8,6.6-7.7,8.3c0.9,1.2,1,1.7-0.8,2.6c-3.1,1.6-4.9,4.8-5.5,8.3
			c-0.1,0.8,0.4,1.8,1,2.5c1.1,1.4,2.5,2.5,4.1,4.2c3-0.9,5.5,2.1,8.5,3.4c1.4,0.6,3,1,4.5,1.3c1.6,0.3,2.3,1,2.1,2.5
			c-0.3,2.7,1.1,4.6,2.9,6.3c1.5,1.4,2.5,0.9,2.9-0.7c0.3-1.1,0.2-2.6-0.3-3.6c-1-2.1-0.1-3.4,1.5-4.5c3.4-2.4,3.7-4.4,0.8-7.3
			c-1.2-1.2-1.6-2.3-0.2-3.6c0.4-0.4,0.7-1.2,0.6-1.8c-0.3-1.9-0.7-3.9-1.3-6.3c1.5,0.3,2.6,0.5,3.7,0.6c0.9,0.1,1.9-0.1,2.8,0.1
			c0.9,0.2,1.9,0.5,2.7,1c1.3,0.8,2.5,1.6,3.5,2.6c0.5,0.6,0.5,1.7,0.8,2.5c0.5,1.2,0.8,2.8,1.8,3.5c2.1,1.5,3.8,0.7,5.3-1.9
			c0.4-0.6,0.6-1.4,1.2-3c1.7,3.8,2.8,7.2,4.6,10.2c1,1.7,3,3,4.8,4.2c0.8,0.5,1.9,0.2,1.9,1.7c0,0.4,1,0.8,1.4,1.3
			c0.6,0.7,1.6,1.6,1.4,2.2c-0.2,1-0.9,2-1.8,2.7c-1.3,1.1-2.8,2.1-4.4,2.8c-1.1,0.5-2.6,0.7-3.8,0.4c-4.9-1.1-9.8,0.9-12.1,4.9
			c1.9-0.6,3.9-1.5,6-2c0.7-0.2,1.5,0.5,2.3,0.9c-0.6,0.5-1.3,1-2,1.6c1.3,2.7,2.7,5.7,7,5.1c0,0.2,0,0.5,0.1,0.7
			c-2.1,0.8-4.1,1.5-6.2,2.3c-0.1-0.2-0.2-0.4-0.4-0.6c0.3-0.6,0.6-1.2,1-2c-0.3,0-0.5,0-0.7,0.1c-2.5,1.1-5.1,2.1-7.4,3.5
			c-1.2,0.7-2.5,1.7-2.1,3.7c0.1,0.5-1.7,1.4-2.7,2.1c-0.6,0.4-1.5,0.7-1.9,1.2c-1,1.6-1.8,3.3-2.7,5c-0.7-0.4-1.2-0.7-2-1.1
			c0.2,0.9,0.4,1.6,0.5,2.3c0.9,3.8,0.2,5.3-3.3,7.4c-3.9,2.3-5.5,5.8-4.6,8.8c0.7,2.1,0.8,4.4,1.2,6.6c0,0.2,0,0.3-0.1,0.7
			c-2.5-0.6-3.2-2.5-3.4-4.6c-0.2-2-1-3.1-3-3.3c-2.1-0.2-4.3-0.6-6.4-1c-0.2,0-0.4-0.1-0.5,0c-2.7,2.7-6.3,0.3-9.4,1.9
			c-3.4,1.7-4.2,2.6-4.3,6.3c0,2.4-0.9,4.7-0.9,7.1c-0.1,3.7,3.9,7.8,7,7.6c2.1-0.1,4-0.9,4.6-2.9c0.9-3,2.9-3.1,5.8-2.5
			c-0.6,1.6-1.2,3.2-1.7,4.8c-0.5,1.6-0.7,3.2-1.2,5.2c1.7,0,3.2,0,4.7,0c3.3,0,4.2,1.3,3.6,4.4c-0.2,1.2-0.3,2.6,0,3.8
			c0.8,3.8,2.1,4.6,6.3,3.5c-0.5,1.3-1,2.3-1.4,3.5c-1.8-1.2-3.7-2.2-5.3-3.5c-1.3-1.1-2.3-2.4-3.2-3.8c-1.6-2.4-3.8-3.7-6.5-4.2
			c-2.5-0.5-4.2-1.9-5.9-3.6c-0.6-0.5-1.7-0.6-2.5-0.7c-1.5-0.1-3.2,0.4-4.5-0.1c-3.5-1.4-6.8-3.1-10-5c-1-0.6-1.5-2.2-2-3.5
			c-0.7-1.7-0.9-3.7-1.9-5.1c-2.8-3.7-5.9-7-8.9-10.6c-0.5-0.6-0.6-1.5-1-2.2c-0.4-0.9-0.9-1.7-1.5-2.4c-0.3-0.3-1-0.2-1.5-0.3
			c0,0.5-0.3,1.1-0.1,1.5c1.4,2.5,3,4.9,4.4,7.4c0.8,1.5,1.4,3.1,2.1,4.7c-0.3,0.2-0.6,0.4-0.9,0.5c-0.5-0.4-1-0.8-1.4-1.3
			c-0.2-0.2,0.1-0.8-0.1-1c-1.1-1.2-2.8-2.2-3.4-3.6c-0.5-1.3,0.5-3-1.4-4.2c-1.2-0.8-1.6-2.8-2.3-4.3c-1.1-2.2-2-4.5-4.8-5.3
			c-0.8-0.2-1.6-1.1-2.1-1.9c-2.9-4.8-6-9.6-5.8-15.6c0-1,0.9-2.1,0.9-3.1c-0.1-2.8-0.4-5.6-0.6-8.6c-0.1,0.1,0-0.1,0.1-0.1
			c0.9-0.2,1.7-0.4,2.6-0.5c-0.5-0.8-1-1.7-1.6-2.4c-0.9-0.9-1.9-1.6-3.3-2c1.1,1.2,2.2,2.3,3.3,3.5c-0.2,0.3-0.3,0.5-0.5,0.8
			c-1.7-0.9-3.4-1.9-5.2-2.9c0.6-1,0.9-1.6,1.1-1.9c-1-1.6-1.9-3-2.8-4.3c-0.7-1-1.6-1.8-2.4-2.7c-0.2-0.2-0.5-0.4-0.6-0.6
			c-1.6-3-3.1-6-4.8-8.9c-0.8-1.3-1.9-2.4-2.9-3.4c-0.4-0.3-1.1-0.5-1.6-0.4c-2,0.4-3.6-0.2-5-1.6c-0.8-0.8-2-1.5-3.2-1.8
			c-3.6-0.9-7.2-1.6-11-2.5c-0.7,0.6-1.8,1.8-3.1,2.5c-0.6,0.3-1.7-0.3-2.5-0.5c0.6-0.6,1.1-1.1,1.7-1.7c0.2-0.2,0.5-0.4,0.8-0.7
			c-1.9-1.6-2.8,0.1-3.6,1C21.6,82.4,18.8,87,14.2,90c-0.9,0.6-2.1,0.6-3.3,0.5c2.6-1.9,5.5-3.3,5.3-7.1c-2.3,0-4.6,0-6.8,0
			c-0.7-3.7-0.8-3.8-4.2-2.8c-0.9-1.4-2.4-2.9-2.5-4.4c0-1.4,1.3-3.2,2.5-4.1c1.5-1,3.5-1.2,5.3-1.8c0.3-3.6-0.5-4.2-3.6-2.9
			c-2.2,0.9-4.2,1-5.6-1.5c-0.3-0.5-0.9-0.8-1.3-1.1C0,64.4,0,64.1,0,63.8z"/>
		<path d="M157.6,312.1c-0.2-2-0.4-4-0.6-6.7c-0.8,1.1-1.2,1.7-1.7,2.3c-0.5,0.5-1.2,1.3-1.8,1.3c-0.5,0-1.3-1-1.4-1.6
			c-0.4-2.9-2.9-5.5-1.7-8.7c-2-1.8-0.7-3.7,0-5.5c-0.5-0.8-1.1-1.6-1.8-2.6c5.1-1.3,3.3-5.6,4.4-8.9c-2-0.9-2.1-2.3-1.6-4.4
			c0.9-4,1.3-8.1,3-12c1-2.4,0.4-5.5,0.8-8.2c0.6-4.5,1.5-9.1,1.9-13.6c0.2-2.7,0.1-5.6-0.7-8.2c-0.4-1.4-2.8-2.1-4-3.3
			c-1.8-1.8-3.8-3.5-5.1-5.6c-2.6-4.3-4.9-8.8-7.2-13.4c-0.5-0.9-0.8-2.5-0.4-3c1.3-1.6,0.5-3.3,0.8-4.9c0.3-1.6,0.7-3.3,1.8-4.4
			c4.1-4.5,4.5-7.7,1.3-13.1c-0.3-0.5-0.5-1.2-0.9-2.3c0.9,0.5,1.4,0.7,1.9,1c1.4,0.9,2.6,0.7,3.2-1c0.8-2.6,2.7-3.3,5.3-3.1
			c1.4,0.1,2.8-0.4,4.2-0.4c0.7,0,1.6,0.3,2,0.7c1.2,1.6,2.8,1.9,4.7,1.8c1.4-0.1,2.7-0.1,4.1,0c1.5,0.2,3.3,0.2,3.5,2.3
			c0,0.2,0.1,0.4,0.2,0.4c3.4-0.3,3.9,3.6,6.5,4.5c0.8,0.3,1.6,0.3,2.5,0.3c4,0,5.5,1.1,6.8,4.9c0.2,0.5,0.4,1,0.7,1.3
			c1.8,1.5,1.5,2.8-0.2,4.2c-0.3,0.3-0.5,0.9-0.8,1.5c1.3-0.2,2.2-0.7,2.9-0.4c0.5,0.2,0.6,1.4,0.9,2.1c3.3-2.3,3.3-2.2,6.7,0.5
			c0.9,0.7,2.3,1.1,3.4,1.1c3.4,0.2,6.4,1.2,8.8,3.6c0.4,0.4,0.7,0.8,1.1,1c2.9,1.6,3.7,3.6,2.1,6.5c-1.2,2.1-2.6,4.1-4.3,5.8
			c-1.3,1.3-1.8,2.7-1.7,4.5c0.1,4.8-0.9,9.3-3.6,13.3c-0.7,1-2.1,1.8-3.4,2.1c-3.3,0.9-6.4,2.2-8.1,5.3c-0.7,1.2-0.5,2.9-0.8,4.3
			c-0.1,0.7-0.2,1.7-0.7,2.1c-2.7,2.3-4.3,5.2-5.8,8.4c-1.7,3.6-3.6,3.8-7.9,2c-0.3-0.1-0.5-0.2-1.2-0.5c0.8,2.9,4.2,5.4,1.6,7.8
			c-1.7,1.7-4.8,1.9-7.2,2.8c-0.1-0.2-0.2-0.4-0.4-0.6c-0.1,0.4-0.3,0.8-0.3,1.2c0.4,2.7-0.9,3.5-3.4,3.1c-0.3-0.1-1.2,1-1.1,1.3
			c1.1,3.3-0.2,5.7-2.4,7.9c-2,1.9-1.9,2.5,0.3,4.1c1.1,0.8,1.2,1.5,0.3,2.5c-0.9,1-1.7,2-2.6,3.1c-1.3,1.6-2.6,3.1-1.5,5.4
			c0.2,0.4-0.2,1.1-0.4,2c1.3,1.4,2.9,3.2,4.7,5.1c-0.7,0.4-1.4,0.9-2.1,1.3C159.9,312.1,158.8,312.1,157.6,312.1z"/>
		<path d="M222.1,7.1c4.4-0.7,8.7,2.2,13.2-0.9c0.2,0.3,0.4,0.6,0.6,0.8c-0.6,1.4-1.3,2.7-2,4.2c0.9-0.5,2-0.7,2.7-1.4
			c1.1-1.2,2.1-1.1,3.5-0.6c1,0.3,2.5-0.2,3.4-0.8c2.2-1.5,4.2-0.6,6.3-0.1c0.3,0.1,0.8,0.6,0.8,0.7c-0.2,0.4-0.4,0.9-0.8,1.1
			c-1.8,0.8-4.1,1.1-5.3,2.4c-1.9,2-4,1.7-6.4,1.8c0.2,1,0.7,1.9,0.6,2.6c-0.2,1-0.6,2-1.2,2.9c-0.7,1.1-1.6,2.1-2.4,3.1
			c1.8,1.5,3.3,2.6,4.8,3.8c-1.9,0.4-3.7,0.7-6.2,1.2c2.1,1.6,3.7,2.8,5.5,4c-1.4,1.1-2.3,1.8-3.1,2.4c1.3,0.7,2.1,1.1,2.9,1.5
			c-0.1,0.2-0.2,0.5-0.3,0.7c-1.5,0.1-2.9,0.2-4.4,0.3c0,0.2-0.1,0.4-0.1,0.6c1,0.4,2,0.8,3.2,1.2c-2.4,2.2-4.8,0.8-7.4,0.1
			c1,2.2,4.9,1,4,4.9c-1.5-0.6-2.8-1.1-4.2-1.7c1.7,2.3,5.5,2.9,5.3,7.5c-1.8-0.8-3.5-1.3-4.9-2.3c-1.3-0.9-1.6-0.2-1.9,0.6
			c-0.3,0.8-0.5,1.7-0.6,2.2c1.4,0.2,3.1,0.5,5.5,0.9c-3.9,3.4-7.4,5.7-12,5.6c-1.9,0-3.4,0.3-4.3,1.9c-2.1,3.7-5.5,5-9.4,5.8
			c-0.8,0.2-1.8,1-2.1,1.7c-1.5,3.8-2.9,7.7-4.2,11.5c-1.1,3-1.7,3.2-4.1,1.3c-0.8-0.6-2-0.5-3-0.9c-0.9-0.4-2-1-2.5-1.8
			c-2.4-4-4.6-8.2-6.9-12.2c-1-1.8-1-5.5,0.3-7c0.3-0.4,0.9-0.4,1.2-0.8c0.8-1.1,1.6-2.3,2.1-3.6c0.1-0.2-1.4-1.1-2.2-1.6
			c-0.5-0.3-1-0.5-1.8-0.3c0.7,0.3,1.4,0.7,2.1,1c-0.2,0.4-0.4,0.8-0.6,1.2c-1-0.1-2.1,0.1-2.9-0.3c-0.4-0.2-0.7-1.6-0.4-2.1
			c1.2-2.4,3.3-1,5.6-1.4c-1.2-1.1-2.4-2.2-3.8-3.4c-0.5,0.3-1.2,0.9-1.8,0.8c-0.5,0-1.5-1.1-1.4-1.2c1.6-2.4,0.1-4.4-0.8-6.3
			c-1.9-3.9-4.2-7.7-9-8.8c-1.4-0.3-3-0.4-4.5-0.4c-2.3,0.1-4.7,0.4-7,0.7c0.1-0.2,0.1-0.4,0.2-0.7c-1.3-1-2.6-1.9-4-2.9
			c2.4-0.5,4.8-1,7.2-1.5c0-0.2,0-0.4,0.1-0.6c-1.7,0-3.4,0.1-5-0.1c-1.6-0.3-3.1-0.9-4.6-1.4c0-0.3-0.1-0.6-0.1-0.9
			c2.7-1.1,5.3-2.6,8.1-3c2.8-0.4,3.7-1.7,4.2-4.1c-1.2-0.1-2.3-0.1-3.8-0.2c0.4-0.6,0.5-1.2,0.9-1.4c1.9-0.9,3.9-1.9,5.9-2.5
			c1.3-0.4,2.7-0.3,2.7-2.2c0-0.3,0.5-0.8,0.8-0.8c3-0.7,6.1-1.6,9.1-2c0.9-0.1,2,1,3.1,1.7c0-0.1,0.2-0.7,0.4-1.4
			c1.6,0.6,3.1,1.2,5.2,2c-0.9-1.3-1.3-1.9-1.8-2.5c0.1-0.2,0.2-0.4,0.3-0.7c2.3,0.7,4.5,1.5,6.8,2.2c0.8,0.2,1.7,0.2,2.5,0.3
			c0-1.1,0.1-2.2-0.1-3.3c-0.1-0.6-0.6-1.1-1-1.9c3.7,0,7.2,0.4,10.5-0.2c1.8-0.3,3.4-1.3,5.4-1.5c4.7-0.6,9.3-0.7,13.8,1.2
			c1.5,0.6,3.1,1,4.6,1.6c0.5,0.2,0.8,0.9,1.3,1.3c-0.6,0.4-1.1,1-1.7,1.1c-2.8,0.3-5.7,0.4-8.6,0.6C222.2,6.5,222.2,6.8,222.1,7.1z
			"/>
		<path d="M478.8,229.5c0.2-0.6,0.4-1,0.5-1.3c0.4-2.8,3-5,5.7-4.7c1.2,0.1,2.5,0.3,3.7,0.5c1.1,0.3,1.8,0.7,0.8,2
			c-1.7,2.4-1.4,3,1.2,4.7c1.6,1,3.2,2.3,4.8,3.4c5.1-2.5,2-7.8,3.9-11.5c0.4,0.3,0.9,0.5,1.1,0.9c1.8,4,3.6,7.9,5.2,11.9
			c0.7,1.8,1.6,2.4,3.4,2.3c0.8,0,2,0.3,2.5,0.9c1.8,2.2,3.3,4.6,5,6.9c0.6,0.9,1.7,1.6,1.9,2.6c0.3,1.8,0.4,3.8,0.1,5.6
			c-0.6,3.2,0.2,6.7-2,9.4c-1.8,2.2-3.7,4.2-5.5,6.3c-0.9,1.1-1.6,2.4-2.5,3.5c-0.5,0.6-1.4,1.5-1.8,1.4c-2.7-0.9-5.7,1.2-8.3-0.7
			c-1.1-0.8-2-2.1-2.9-3.2c-0.8-1-1.5-2-2-3.1c-0.6-1.2-0.9-2.5-1.5-4c-1,1.2-2,2.3-3.2,3.5c-1.3-4.3-4.5-6-8.5-6.7
			c-0.2,0-0.5-0.1-0.8,0c-3.5,1.4-7.6,1.3-10.5,4.2c-0.5,0.5-1.5,1-1.9,0.8c-2.3-1.1-3.9,0.2-5.8,1.3c-0.9,0.5-2.3,0.9-3.3,0.6
			c-1.7-0.4-2.6-1.3-1.9-3.6c0.6-1.8,0-4-0.5-5.9c-0.6-2.7-2.8-5-1.6-8.1c0.2-0.6-0.7-1.5-0.8-2.3c-0.7-3.2,1.7-6.5,5.3-7.4
			c1.4-0.4,3.1-0.4,4.3-1.1c1.5-0.8,2.7-2.1,3.8-3.4c0.8-0.9,0.1-3.4,2.7-2.2c0.1,0,0.5-0.4,0.7-0.7c2.7-4.7,2.7-4.7,7.8-3.2
			C478.2,229.1,478.4,229.2,478.8,229.5z"/>
		<path d="M131.6,12.6c0.3-0.8,0.5-1.4,0.8-2.4c-1.7,0.2-3.3,0.5-4.9,0.4c-0.7,0-1.8-1-1.9-1.6c-0.1-0.7,0.8-2.2,1.1-2.1
			c3.8,0.4,7.6-2.9,11.6,0c0.7-2.6,2.4-3.3,4.7-3.3c1.6,0,3.4-1.1,4.9-0.8c4.4,0.9,9.1-1.9,13.3,0.9c0.3,0.2,0.7,0.5,0.9,0.4
			c3.2-2,5.7,0.6,8.7,2c-2.9,1-5.8,2-8.6,3c0.3,0.2,0.8,0.5,1.7,1c-1.9,1-3.6,1.9-5.2,2.7c-0.7,0.4-1.5,0.6-1.9,1.1
			c-1.9,2.6-4.7,3-7.6,3c-0.4,0-1.1,0.8-1.2,1.3c-0.1,0.6,0.4,1.3,0.8,2.7c-1.9,3.3-5.7,4.8-10.6,4.9c2.3,0.8,4,1.4,6.2,2.1
			c-2.2,1.3-3.6,2.5-5.7,0.9c-0.8-0.6-2.3-0.2-3.5-0.1c-2.1,0.2-4.3,0.7-6.4,0.7c-0.9,0-1.9-0.6-2.7-0.9c1.2-1.2,2.2-2.3,3.4-3.1
			c0.5-0.4,1.4-0.6,2-0.5c1.1,0.2,2.2,0.6,3.9,1.1c-0.8-1.9-4.2-0.9-2.3-3.6c-1.5,0.1-2.7,0.2-4.2,0.3c1.4-3.9,4.5-2.3,6.9-2.9
			c-1.4-1.4-2.8-2.7-4.1-4.1c2-1.5,2.7-1.1,7.5,0.7c-0.4-0.3-0.7-0.6-1.1-0.9c-0.4-0.4-0.7-0.9-1-1.3c2.7-1.1,6.2-0.4,7.4-4.7
			C140.3,12.1,136.2,13.4,131.6,12.6z"/>
		<path d="M132.1,38.5c-2.4,4-2.1,6.5,1.7,9.3c-0.4-1.1-0.5-1.7-0.8-2.1c-1.1-1.8-1.4-3.7,0.1-5.3c1.3-1.4,3-1.8,4.9-1.1
			c0.6,0.2,1.4,0,2.1,0.1c2.1,0.2,4.1,0.5,6.2,1.1c-2,2.7-4.1,0.5-6.1,0.4c-0.1,1-0.3,2.1-0.4,3.4c1.5-0.5,3-0.8,4.4-1.4
			c2.6-1,4-0.5,5.2,2.1c0.2,0.4,0.4,1.1,0.5,1.1c3.5-0.8,5.5,3.2,9,2.9c0.2,1.8-0.4,4.2,2.8,4.3c-0.8,0.6-1.4,1.1-2.3,1.8
			c3.7,2,7.2,4,11.4,6.3c-1.2,1.5-2.3,2.9-3.6,4.2c-0.2,0.2-1.2,0-1.7-0.4c-0.4-0.3-0.6-1.1-1-1.4c-0.8-0.6-1.7-1.2-2.7-1.5
			c-0.4-0.1-1.5,1-1.4,1.1c0.5,0.9,1,1.8,1.8,2.4c1.4,1.2,3.3,1.8,3.1,4.1c-0.1,1.8-1.1,2.4-2.7,1.5c-1-0.6-2-1.2-3.3-1.4
			c0.6,1.2,1.1,2.4,1.7,3.6c-3.4-0.3-5.9-2-8-4.6c-1.3-1.6-2.9-2.3-5.1-1.4c-0.9,0.4-2.2,0.1-3.3,0.1c-0.7-2.5,0.7-2.7,2.4-2.4
			c2.6,0.4,3.6-0.2,4-2.6c0.1-0.5,0.4-1.3,0.8-1.4c3-1.3,1.5-3,0.3-4.3c-2.2-2.2-4.6-4.1-7-5.9c-0.7-0.5-1.9-0.4-2.8-0.3
			c-4.4,0.3-8.8,1-12.9-1c-1.1-0.5-2.3-1.2-0.5-2.2c-1.2-0.7-2.9-1.1-3.2-2c-0.7-2.2-0.1-4.6,1.8-5.9
			C128.6,38.9,130.5,38.9,132.1,38.5z"/>
		<path d="M96.9,45.1c-0.5-1.3-1-2.6-1.7-4.3c1.6,0,3,0,4.6,0c0.5,4.2,1.5,8.6,7.2,10.2c-1.5,0.5-2.5,0.9-3.9,1.4
			c1,0.6,1.7,1,2.3,1.4c0,0.3-0.1,0.5-0.1,0.8c-1.5-0.1-3-0.2-4.4-0.3c-1.4-0.1-3.1-0.7-4.2-0.1c-4.5,2.3-8.5,1.2-12.5-1
			c-0.9-0.5-1.7-0.9-2.6-1.3c0-0.3,0-0.5,0-0.8c2.5-0.2,4.9-0.4,7.4-0.6c0.1-0.2,0.1-0.4,0.2-0.6c-0.9-0.2-1.8-0.6-2.7-0.7
			c-1.1-0.1-2.2,0-3.3,0c-1.2,0-2.3,0-3.5,0c-0.1-0.2-0.2-0.4-0.2-0.6c0.9-0.5,1.8-1,2.9-1.7c-1.4-0.5-2.6-0.9-4-1.3
			c0.7-1.4,1.3-2.6,2-3.8c-2.2,0-3.5,1.4-4.3,3.3c-0.9,2.1-2.8,2.6-4.5,2c-1.4-0.4-2.7-1.7-3.6-3c-0.3-0.5,0.7-1.9,1-2.9
			c0.4-1.2,0.6-2.4,1.1-4.2c1.3,0,3.2-0.1,5.2,0c1.6,0.1,3.2,0.2,4.7,0.6c1.2,0.3,2.2,1,3.7,1.8c-1.3,1-1.9,1.5-2.5,2
			c2-0.5,4.1-2,5.2,1.5c1.9-1.7,3.2-1.1,4,0.9c3.2-2,3.2-2,5,1.2c0.2,0.4,0.8,0.6,1.2,0.9C96.7,45.3,96.8,45.2,96.9,45.1z"/>
		<path d="M483.2,206.8c1.9,0.3,3.7,0.6,5.8,0.9c2.2-2.7,3.5-2.9,7.2-1c1.3,0.7,3,0.7,4.2,1.4c2.5,1.5,4.9,3.3,7.3,5.2
			c0.3,0.2-0.1,1.3-0.2,2.2c1.1,0.7,2.3,1.5,3.5,2.2c-1.5,1.7-3.3,1.7-4.6,0.1c-1.8-2.4-4-2.7-5.4-0.3c-1.2,2.1-2.3,1.2-3.7,0.7
			c-1.4-0.6-2.8-1-4.3-1.6c0.9-3.3,0.1-4.9-3.9-6.4c-2-0.7-3.9-1.6-5.9-2.4C483.1,207.4,483.2,207.1,483.2,206.8z"/>
		<path d="M458.9,190.5c2.4,1.2,2.6,2,1,4.7c-0.3,0.4-0.3,1.1-0.2,1.6c1,2.5,0.2,6.4-1.5,8.2c-0.5,0.5-0.7,1.5-0.8,2.4
			c-0.2,1.8-1.2,2-2.6,1.5c-0.6-0.2-1.2-0.6-1.8-0.7c-4-0.4-6.4-2.4-7.1-6.4c-0.1-0.7,0.7-1.8,1.4-2.3c1.3-1,2.9-1.6,4.2-2.6
			C453.9,194.9,456.2,192.8,458.9,190.5z"/>
		<path d="M350,223.5c0.6,4.2,0.5,7.7-0.5,11.2c-1,3.5-1.7,7.1-2.9,10.5c-0.4,1.2-1.7,2.6-2.9,3c-0.8,0.3-2.9-0.9-3-1.7
			c-0.4-2.1,0-4.4,0.1-6.6c0.1-1.4,0.2-2.8,0.5-4.2c0.3-1.5,0.5-3.8,1.5-4.2C346.1,229.9,347.8,227,350,223.5z"/>
		<path d="M381,29c-3.4,1.2-6.7,2.4-9.9,3.5c-3.3,1.2-5.9,3.3-8.1,6c-0.9,1-1.8,2.1-2.8,2.9c-1.8,1.3-1.4,2.8-0.5,4.3
			c0.5,0.9,1.2,1.8,2.3,3.4c-1.8-0.2-3.1-0.1-4.1-0.6c-1.3-0.6-1.7-2.8-3.8-2.2c-0.2-0.6-0.6-1.3-0.4-1.7c0.6-1.2,1.4-2.2,2.2-3.3
			c1-1.5,2.3-2.8,3.1-4.3c1.8-3.4,4.8-5.2,8.3-6.3c3.6-1.1,7.3-2,10.9-3.2C379.7,26.9,380.4,27,381,29z"/>
		<path d="M131.9,18.2c-2.3,1.1-4.7,2.4-7.2,3.5c-2.2,1-4.7,0-5.9-2.4c0.7-0.4,1.4-0.8,1.8-1.1c-2.3-0.7-4.4-1.4-6.5-2
			c0-0.3,0-0.5,0-0.8c0.7-0.3,1.4-0.6,2-0.8c-1.2-0.7-2.2-1.4,0-2.3c0.8-0.3,1.4-0.8,2.1-1.3c1.9-1.2,3.3-0.5,4.9,0.9
			c1.1,1.1,2.7,1.7,4.1,2.5c0.5,0.3,1.2,0.5,1.6,0.9C129.9,16.1,130.8,17.1,131.9,18.2z"/>
		<path d="M264.8,101.6c-1.7-1.6-2.4-3-0.5-4.7c1.4-1.2,1.2-2.3-0.5-3.3c-3.2-1.8-3.8-7.3-1-9c0.4,1.3,0.7,2.5,2.6,1.7
			c1-0.4,1.7,0.7,0.8,1.7c-1.2,1.5-0.3,2.4,0.5,3.5c0.9,1.3,1.6,2.7,2.6,3.9c0.8,1.1,1.8,2,2.7,3c0.2-0.2,0.3-0.3,0.5-0.5
			c-0.4,1.3-0.8,2.6-1.4,4.3c-2.3,0.4-5.3,0.9-8.3,1.4c-0.1-0.1-0.1-0.3-0.2-0.4C263.3,102.9,263.9,102.3,264.8,101.6z"/>
		<path d="M439.3,213c-1.7-1.7-3.8-3.2-5.2-5.2c-3.4-4.9-6.6-10-9.9-15c2-0.5,3.5,0.8,5.1,2.2c1.4,1.3,2.8,2.4,4.2,3.6
			c0.7,0.6,1.4,1.1,2,1.8c1.7,2.4,3.6,4.7,4.9,7.3c0.6,1.3,0.1,3.2,0.1,4.8C440.1,212.7,439.7,212.9,439.3,213z"/>
		<path d="M115.3,28c1.1-0.1,2.4-0.4,3.4-0.2c2.5,0.6,5.4,0.4,6.5,3.7c0.1,0.4,1.3,0.7,2,0.7c2.4,0.1,4.8,0,7.2-0.1
			c1.5,0,3.1,0,4.6,0c1.6,0,2,1.1,1.6,2.2c-0.3,0.8-1.4,1.6-2.3,1.7c-2.2,0.3-4.4,0.3-6.7,0.1c-3-0.2-6-0.6-8.9-1.1
			c-0.6-0.1-1.3-1.2-1.3-1.9c-0.3-2.5-1.3-3.9-4.1-3.6c-0.7,0.1-1.4-0.4-2.1-0.6C115.3,28.6,115.3,28.3,115.3,28z"/>
		<path d="M287.4,16.9c1.8-1.1,6.9,0.2,8.7,2.2c-0.1-1.2-0.2-2.1-0.4-3.7c5.4,1.9,8.7,6.2,13.4,8.6c-2.4,1.7-3.9,1.2-5-1.1
			c-1.1-2.5-1.4-2.5-3.5-0.7c-1.1,0.9-1.8,1.8-2.4,3.1c-1.5,3.1-1.9,3.1-5.2,0.2c0.9-0.3,1.8-0.5,2.5-1c0.7-0.6,1.1-1.5,1.7-2.3
			c-0.8-0.4-1.6-0.9-2.4-1.2c-0.2-0.1-0.6-0.1-0.7,0c-3.3,2.1-4.4,0.3-5-2.6C288.9,17.8,288.1,17.5,287.4,16.9z"/>
		<path d="M548.5,281.9c0.6,0.4,1.7,1.1,2.7,1.8c-3.6,4-7.1,7.9-10.7,11.7c-0.8,0.8-2.6,1.6-3.4,1.2c-1.1-0.4-2.1-1.9-2.4-3.1
			c-0.2-0.7,0.9-2.1,1.7-2.7c2.4-1.7,5.2-3,7.6-4.7C545.5,285,546.8,283.5,548.5,281.9z"/>
		<path d="M235.9,64.1c2.7-0.4,5.6-1.1,8.4-1.2c1,0,2.3,1.2,2.9,2.2c0.6,1.1,0,2.5-1.4,3c-2.3,0.8-4.6,1.8-7,2.3
			c-2.3,0.4-3.6-1.3-4.6-3.1c-0.6-1.1-1.4-2-2.4-3.6c0.3-0.2,1.2-1.2,2-1.2C234.5,62.4,235.3,63.5,235.9,64.1z"/>
		<path d="M94.3,32.4c-0.5-0.9-0.9-1.4-1-2c-0.1-0.7,0.1-1.4,0.2-2.1c0.6,0.4,1.5,0.6,1.8,1.1c0.7,1.2,1.1,2.2,2.8,1.6
			c0.3-0.1,1.1,1.3,1.5,2.5c-4.9-0.2-8.9,3.3-13.6,2.1c1.1-0.5,2.2-0.9,3.4-1.4c0-0.1,0-0.2-0.1-0.3c-2.5,0-4.9,0-7.3,0
			c0.3-1.5,0.6-2.7,0.9-4c2.5-0.6,4.7-0.1,6.7,1.5C91,32.4,92.4,32.7,94.3,32.4z"/>
		<path d="M488.7,139.6c-0.3-2.1-2-1.9-4-1.4c-0.7,0.2-1.4,0-2.1,0c0-0.3-0.1-0.7-0.1-1c1.4-0.4,2.9-0.9,4.3-1.1
			c1.5-0.1,2.9,0,3.3-1.9c0.1-0.2,0.4-0.5,0.6-0.6c4-1.4,5.5-4.6,5.6-8.6c2.4,0.4,3.2,1.7,2.4,3.7c-0.6,1.5-1.1,3.1-1.5,4.7
			c-0.5,1.9-1.3,3.2-3.4,3.8C492,137.7,490.4,138.8,488.7,139.6z"/>
		<path d="M426.4,14.9c0.7,0.1,2.1,0.1,3.3,0.5c0.5,0.2,1.1,1.2,1.1,1.8c0.1,0.8-0.4,1.6-0.8,2.8c-2.3-0.4-4.8-0.7-7.1-1.4
			c-1.8-0.5-1.6-2.4,0.6-4.2c-1.5,0.4-2.5,0.6-3.8,1c0.2-1.7-1.2-3.5,1.4-4.3c2-0.7,4-1.9,5.4,0.7C426.9,12.6,426.5,13.6,426.4,14.9
			z"/>
		<path d="M553.5,284.1c-1.3-2.1-2-4.2-0.3-6.3c1.4-1.9,2.1-3.7,0.3-5.7c-0.1-0.2-0.2-0.5-0.2-0.7c0-0.8,0.1-1.6,0.1-2.4
			c0.6,0.6,1.5,1,1.8,1.7c1.2,2,1.9,4.2,4.4,5.4c2,1,0.3,2.8-0.5,3.5C557.6,281.3,555.6,282.5,553.5,284.1z"/>
		<path d="M105.9,42.8c1-0.6,1.8-1.1,2.7-1.7c-0.6-0.7-1-1.2-1.5-1.8c3.2-1.8,4.6-1.8,6.2-0.2c-0.5,0.6-0.9,1.3-1.4,1.9
			c0.8,0.7,1.7,1.2,2.2,2c0.2,0.4-0.3,1.7-0.8,1.9c-1.2,0.6-2.3,2.3-4,0.9C108.3,44.9,107.2,44,105.9,42.8z"/>
		<path d="M437.8,199.1c-2.5,0.4-5.3-1.8-5.3-4.7c-0.1-2.7-1.2-4.6-3-6.4c-0.5-0.5-0.8-1.4-1-2.1c0-0.1,1-0.8,1.1-0.7
			c0.7,0.5,1.5,1.1,1.7,1.9c0.4,1.7,1,2.9,2.8,3.7c1,0.4,1.6,1.8,2.1,3C436.9,195.5,437.3,197.3,437.8,199.1z"/>
		<path d="M179.4,101.5c0.3,5,0.6,5.5,3.5,4.6c0.2,0.9,0.7,1.8,0.5,2.6c-0.2,0.7-1.1,1.9-1.6,1.9c-2.4,0-4.7-0.4-7.2-0.7
			c1.3-2.5,2.6-5,3.9-7.5C178.5,102.1,178.8,102,179.4,101.5z"/>
		<path d="M254,100.8c0.4-3.1,0.7-6.3,3.7-8.2c0.5-0.3,1.5-0.3,2.1-0.1c0.4,0.2,0.7,1.1,0.7,1.7c0,1.1-0.3,2.3-0.5,3.4
			C259.7,99.9,257.4,101.1,254,100.8z"/>
		<path d="M313.1,15.1c-1.5,3.9-6.7,4-12.7,0.3C301.8,13.9,308.8,13.7,313.1,15.1z"/>
		<path d="M498.4,30.2c1.7,2.7,1.1,4.5-1.7,4.4c-1.7,0-3.8,1.8-5-0.7c-0.4-0.7-0.3-2.2,0.3-2.8c0.5-0.6,2.4-1,2.7-0.6
			C496.2,32.3,497.3,31.5,498.4,30.2z"/>
		<path d="M131.8,63.8c2.2,1.5,4.5,3.1,6.7,4.6c-0.1,0.3-0.2,0.6-0.3,0.8c-2-0.7-3.4-0.4-4.5,1.6c-0.6,1.2-2,0.6-2.2-0.6
			c-0.4-2-0.4-4.1-0.6-6.2C131.3,63.9,131.5,63.9,131.8,63.8z"/>
		<path d="M72.5,29.9c3.4-2,5.8-5.7,10.3-4c-0.6,3.1-0.7,3.2-3.2,2.6c-0.2-0.1-0.7,0-0.8,0.2C77.4,31.4,75.1,30.8,72.5,29.9z"/>
		<path d="M498.9,116.1c1.7,1.1,3.5,2.2,5.2,3.3c-1.8,2.5-4.4,3.1-7.4,1.6c0.6-0.7,1.3-1.4,1.6-2.2
			C498.7,118.1,498.7,117.1,498.9,116.1z"/>
		<path d="M109.4,23.7c-2.3-0.8-4.1-1-5.5-1.9c-1.4-0.8-2.4-2.2-3.8-3.5c3.5-0.1,6.5,0.6,8.8,3C109.5,21.9,109.3,23,109.4,23.7z"/>
		<path d="M500.3,96.8c0.7,2.9,1.5,5.3,1.7,7.9c0.1,1.2-1.3,2.4-2.1,3.8c-0.4-2.7-0.8-4.9-0.9-7C498.8,99.8,497.7,97.7,500.3,96.8z"
			/>
		<path d="M430.9,22.8c1.8-4.6,4.3-4.5,7.3-3.2c0.5,0.2,0.9,0.8,1.3,1.3c-0.6,0.4-1.1,1-1.8,1.1C435.5,22.3,433.3,22.5,430.9,22.8z"
			/>
		<path d="M108,28.1c1.3,0.2,2.6,0.4,3.9,0.6c0.2,0.9,0.7,1.7,0.6,2.6c0,0.8-0.4,1.9-1,2.2c-0.7,0.5-1.9,0.5-2.8,0.3
			c-0.3-0.1-0.2-1.5-0.3-2.4C108.3,30.4,108.2,29.3,108,28.1z"/>
		<path d="M466.3,204.6c0,0.9,0,1.8,0,2.8c-3-0.4-1.8,2.8-3,4.3c-0.3-1.4-0.5-2.6-0.9-3.7c-1-3.2-0.1-4.2,3-3.6
			C465.8,204.6,466.1,204.6,466.3,204.6z"/>
		<path d="M465.8,177.2c-3.4-2.1-1.4-5.1-1.8-8.1c1.1,0.3,2.4,0.3,2.7,0.8c0.3,0.7,0,1.8-0.2,2.8
			C466.3,174.1,466.1,175.6,465.8,177.2z"/>
		<path d="M473,185.8c1.8,2.3,0.2,4.1-1.3,6.2c-1.1-1.5-2.1-3-2.9-4.2C469.8,187.3,471.3,186.6,473,185.8z"/>
		<path d="M504,280.3c1.2-0.3,2.4-0.5,3.8-0.9c0,1.7,0,3.2,0,4.8C505.1,284.8,505.1,284.8,504,280.3z"/>
		<path d="M441.1,213.7c3.1,0.3,6.3,0.6,9.4,1.1c0.5,0.1,0.8,1,1.2,1.6c-0.1,0.2-0.2,0.5-0.3,0.7c-3.5-0.8-7-1.7-10.5-2.5
			C441,214.3,441.1,214,441.1,213.7z"/>
		<path d="M148.7,165.6c-4.5,0.8-6.5-4.1-10.8-4.2C140.4,160.3,145.1,162.2,148.7,165.6z"/>
		<path d="M158.5,168.9c-1.6,0.1-3.2,0.4-4.7,0.3c-0.5,0-1.1-1.1-1.2-1.8c-0.1-0.3,0.9-1.2,1.2-1.1c1.6,0.3,3.2,0.8,4.8,1.2
			C158.6,168,158.6,168.5,158.5,168.9z"/>
		<path d="M400.4,185.5c0.5,1.5,1,2.9,1.3,4.4c0.1,0.3-0.7,1.1-1.2,1.2c-0.5,0.1-1.6-0.4-1.6-0.7c-0.2-1.6-0.1-3.1-0.1-4.7
			C399.4,185.6,399.9,185.6,400.4,185.5z"/>
		<path d="M537,41.7c0.5-2.3,1.8-3.3,4-2.8c0.5,0.1,1.2,1.5,1,1.9C540.7,42.9,538.8,41.9,537,41.7z"/>
		<path d="M112,20.2c1.1,0.3,2.3,0.4,3.2,1c0.5,0.3,0.6,1.4,0.9,2.1c-0.8,0.1-1.9,0.6-2.4,0.2c-0.9-0.6-1.4-1.7-2.1-2.6
			C111.7,20.7,111.8,20.5,112,20.2z"/>
		<path d="M118.2,35.7c-1.1-0.5-2.2-1.1-3.4-1.6c0.8-0.6,1.5-1.7,2.3-1.8c2.2-0.3,1.6,1.4,1.7,2.6C118.6,35.1,118.4,35.4,118.2,35.7
			z"/>
		<path d="M486.6,205.4c-1.8,1-3.2,1-4.2-0.5c-0.2-0.3,0.3-1.5,0.7-1.7C485,202.5,485.7,203.9,486.6,205.4z"/>
		<path d="M87.2,24.1c1.8-0.6,3.4-1.2,5.3-1.8C91.4,25.9,90,26.4,87.2,24.1z"/>
		<path d="M512.9,206.5c-0.6,3.6-1.9,4.4-5.1,2.9C509.6,208.4,511.1,207.5,512.9,206.5z"/>
		<path d="M480.6,144.2c-0.3-1.2-0.7-2.5-1.1-4.3c0.8,0.1,1.7,0,2.2,0.4c0.4,0.3,0.7,1.3,0.6,1.8c-0.2,0.8-0.7,1.6-1.1,2.4
			C481,144.4,480.8,144.3,480.6,144.2z"/>
		<path d="M148.7,59.1c-1.2,0-2.2,0-3.3,0c0.1-2.4,1.5-2.6,3.3-2.3C148.7,57.6,148.7,58.3,148.7,59.1z"/>
		<path d="M515,205.4c-0.7-1.1-1.5-2.3-2.2-3.4c0.2-0.2,0.3-0.4,0.5-0.6c0.8,0.4,1.8,0.6,2.2,1.2c0.4,0.7,0.2,1.7,0.3,2.6
			C515.5,205.3,515.3,205.3,515,205.4z"/>
		<path d="M545.6,242.4c-1.2-0.7-2.4-1.3-4-2.3c0.8-0.4,1.5-1,1.8-0.8c1.1,0.6,2,1.4,3,2.1C546.1,241.8,545.9,242.1,545.6,242.4z"/>
	</g>
</g>
</svg>
