<?xml version="1.0" encoding="utf-8"?>
<!-- Generator: Adobe Illustrator 22.0.1, SVG Export Plug-In . SVG Version: 6.00 Build 0)  -->
<svg version="1.0" id="Lager_1" xmlns="http://www.w3.org/2000/svg" xmlns:xlink="http://www.w3.org/1999/xlink" x="0px" y="0px"
	 viewBox="0 0 22.5 15.7" style="enable-background:new 0 0 22.5 15.7;" xml:space="preserve">
<style type="text/css">
	.st0{fill:#020203;}
</style>
<path class="st0" d="M22.1,2.4c-0.3-1-1-1.7-2-2C18.3,0,11.3,0,11.3,0s-7,0-8.8,0.5c-1,0.3-1.7,1-2,2C0.2,4.2,0,6.1,0,7.9
	c0,1.8,0.2,3.6,0.5,5.4c0.3,1,1,1.7,2,2c1.8,0.5,8.8,0.5,8.8,0.5s7,0,8.8-0.5c1-0.3,1.7-1,2-2c0.3-1.8,0.5-3.6,0.5-5.4
	C22.5,6.1,22.4,4.2,22.1,2.4z M9,11.3V4.5l5.9,3.4L9,11.3z"/>
</svg>
