<?xml version="1.0" encoding="utf-8"?>
<!-- Generator: Adobe Illustrator 22.0.1, SVG Export Plug-In . SVG Version: 6.00 Build 0)  -->
<svg version="1.0" xmlns="http://www.w3.org/2000/svg" xmlns:xlink="http://www.w3.org/1999/xlink" x="0px" y="0px"
	 viewBox="0 0 359.9 397.6" style="enable-background:new 0 0 359.9 397.6;" xml:space="preserve">
<style type="text/css">
	.st0{fill:#65B552;}
	.st1{fill:#64C1C2;}
	.st2{fill:#00ABA6;}
	.st3{fill:#53B2AB;}
	.st4{fill:#499F97;}
	.st5{fill:#50ABA5;}
	.st6{fill:#50A78D;}
	.st7{fill:#72C4BA;}
	.st8{fill:#479583;}
	.st9{fill:#408C87;}
	.st10{fill:#3B8177;}
	.st11{opacity:0.67;fill:#65B552;}
	.st12{opacity:0.67;fill:#61B44B;}
</style>
<g id="Lager_1">
</g>
<g id="Lager_2">
	<polygon class="st0" points="213.1,0 359.9,128.2 359.9,311.7 173.6,397.6 0,276.1 47.7,95.3 	"/>
	<polygon class="st1" points="315.5,111.7 359.9,311.7 359.9,128.2 	"/>
	<polygon class="st2" points="213.1,0 315.5,111.7 359.9,128.2 	"/>
	<polygon class="st3" points="69,86 213.1,0 315.5,111.7 	"/>
	<polygon class="st4" points="69,86 168.7,316 315.5,111.7 	"/>
	<polygon class="st5" points="168.7,316 315.5,111.7 359.9,311.7 	"/>
	<polygon class="st6" points="0,276.1 69,86 47.7,95.3 	"/>
	<polygon class="st7" points="47.7,95.3 213.1,0 69,86 	"/>
	<polygon class="st8" points="0,276.1 168.7,316 69,86 	"/>
	<polygon class="st9" points="359.9,311.7 173.6,397.6 168.7,316 	"/>
	<polygon class="st10" points="0,276.1 173.6,397.6 168.7,316 	"/>
	<polygon class="st11" points="311.7,174.2 300,197 290,204.8 274.4,219.8 267.2,228.7 267.2,241 267.2,246 267.2,256 263.8,266 
		251,273.8 251,282.2 247.7,292.7 239.9,296.1 239.9,305 234.9,310 232.4,314.6 214.3,323.3 199.9,328.3 190.4,328.3 187.9,315.6 
		184.3,308.3 184.3,300.5 184.3,293.3 179.8,287.7 176.5,277.2 176.5,268.8 176.5,261.6 184.3,251.3 183.2,239.3 183.7,227.1 
		173.1,207.6 178.1,198.7 175.9,190.3 165.3,187 158.1,180.3 137.5,184.8 126.4,183.1 118,184.8 106.3,172.1 101.4,168.6 
		101.4,161.4 90.2,151.9 91.2,137.2 96.9,129.1 99.7,123 96.9,117.4 105.8,108.5 108.6,102.4 112.5,102.4 114.7,95.7 122.5,95.7 
		122.6,91.6 143.1,86.3 145.9,86.3 156.4,86.3 168.7,86.3 182.6,89.6 188.7,86.3 192.9,86.3 193.5,91.8 201,99.8 208.2,102.4 
		215.4,106.3 218.8,103.5 218.7,101.6 226.7,98.7 229.3,100.2 241,101.3 246.8,104.9 253.3,100.7 258.3,102.4 264.4,106.4 
		264.4,116.3 269.4,125.2 269.4,129.1 275,131.9 275,139.7 279.4,145.3 283.9,150.3 283.9,155.8 287.8,163.6 292.2,169.2 
		290.6,174.2 294.5,178.7 299.5,175.9 304.5,175.9 	"/>
	<polygon class="st12" points="39.4,303.6 41.3,301.5 38.8,298 35.3,295.5 31.8,293.8 36.6,293.8 31.8,288.9 30,281.3 29.4,278.7 
		31.5,274.5 29.4,267.5 31.8,265.6 35.3,260.5 41.3,258.8 44.1,256 44.1,253.2 46.2,249.3 46.2,243.8 47.9,227 50,224.9 50,220.7 
		53.9,217.5 53.9,211.6 53.9,205.3 51.4,201.8 47.9,199.7 41.6,193 38.5,193 33.6,193 31.1,186.9 31.8,181.1 35,168.6 35,160.2 
		37.4,157.4 37.4,152.5 36.4,148.6 36.4,145.5 33.2,151.8 29.4,169.3 26.6,176.2 0,276.1 	"/>
	<polygon class="st11" points="231.8,365.7 228.5,367.7 225.8,369.4 225.8,370.7 235.3,368.2 238.1,367.1 242.7,365.7 248.1,363.2 
		173.6,397.6 151.1,381.9 146,378.3 149.9,378.1 150.2,375.8 148.8,374.7 146,373 146,371.2 148.3,370.5 149,368 150.6,368.7 
		150.2,366.1 164.9,373.5 168.3,374.2 171.6,377.2 172.9,378.1 173.9,374.4 180.3,372.4 188.3,371.7 200.8,366.1 202.6,367.5 
		206.1,365.7 213.6,364.1 218.7,362.7 224.4,361.1 225.8,363.4 	"/>
	<polygon class="st11" points="139.8,372.8 146,378.3 147.9,378.1 147.9,376.1 140.2,371.4 	"/>
	<polygon class="st0" points="173.9,36.7 171.5,38.1 165.2,38.1 162.6,36.2 160.4,34 163.7,32.5 164.2,31 166.9,31.7 166.9,33.3 
		170.4,34.2 173.4,32.9 	"/>
	<polygon class="st0" points="194.7,13.1 197.6,13.1 197.6,15.4 192.4,15.4 190,16.9 188,18.1 188,20.5 186.3,20.5 185.6,19.4 
		184.8,21.4 182.1,21.4 182.8,23.2 180.2,22.2 180.2,23.9 178.1,23.9 177.6,24.9 175.8,24.9 175.4,26.7 174.6,26.7 172.2,27.4 
		172.2,28.7 168.5,28.2 167.2,29 164.4,28.1 189.6,13.5 193.3,11.4 194,11.5 194.6,10.8 195.8,10.8 	"/>
	<polygon class="st0" points="210.2,25.5 207.9,22.9 206.4,22.1 206.4,19.9 210.2,19.9 211.5,19.1 216.3,19.1 216.3,20.5 
		212.3,21.7 214.1,22.8 215.7,23.4 213.5,24.1 212.1,23.7 210.7,23.6 211.3,25 	"/>
	<polygon class="st0" points="168.6,59 165.1,59 160.4,57.9 161.1,56.5 163.9,56.5 163.7,54.6 164.5,53.3 167.2,54.7 168.6,53.9 
		171.3,53.9 172.7,54.4 172.7,56.2 170.2,57.3 	"/>
	<polygon class="st11" points="282.4,76.3 243.7,34.5 239.4,35.2 242.9,38.1 241.9,39.4 240.4,39.6 239.4,41.6 240.8,42.9 
		238.3,42.9 236.9,42.3 235.3,42.6 237.8,44 235.3,44.3 232.9,42.6 231.5,41.3 231.5,40.1 235.6,41 238,40.5 238.8,39.3 238.8,38.1 
		237.5,37.4 233.7,36.9 228.5,36.3 225.4,35.3 222.4,34.5 218.6,34.5 216.3,36 213.6,37.2 212.3,38.1 209.8,38.1 206.4,42.9 
		203.3,45.1 200,46.2 195.8,47.2 193.9,49.7 195.3,50.8 193.9,53.3 195.3,54.6 196.8,55.4 197.6,56.2 195.8,57.6 197.6,59 
		197.6,60.7 199.2,61.7 202.2,61.2 203.3,59 206.4,59.6 207.6,59 209.6,59 211.3,57.3 211.3,54.7 212.9,51.1 213.2,47.6 216.3,45.3 
		218,48 217.8,50.8 219.1,53.3 222.2,52.4 224.7,51.3 227.6,50.8 228.2,51.9 227.3,53.3 223.5,53.9 220.5,54.7 218.8,55.4 
		220.6,56.2 222.2,55.4 223,56.2 220.6,57.1 218,57.1 217.8,59 218.6,60.7 216.3,61.4 213.9,61.8 212.3,60.7 209.5,61.5 207.6,62.1 
		204.4,62.1 203.3,61.7 195.8,61.4 190.1,60.9 186.9,63.1 183.8,63.6 179.8,63.4 176.2,64.8 173.9,64.5 173.9,66.6 172.7,65.5 
		170.2,64.7 167.2,65 168.6,66.4 171.9,68.4 172.7,72.5 173.9,75.7 171.5,75.4 167.2,74.1 163.4,72.4 158.7,71.3 156,69.9 
		151.6,70.3 151.6,72.4 151.6,73.6 148.5,76.3 145.5,77.1 146.4,78.2 146.7,79.6 144.4,80.4 145.6,81.5 149.9,81.5 151.5,83.1 
		151,85.2 152.9,85.2 153.5,84 157.8,83.9 161.9,85.2 167.2,83.7 169.6,82.6 169.9,80.6 172.7,78.8 176.8,79.2 179.4,78.7 
		181.3,77.4 181.3,75.9 183.9,76.5 185.3,77.6 189.1,76.8 192.4,75.2 197.6,79 201.6,80.6 205,83.1 209,85.2 209.6,86.6 208.2,87.8 
		207.9,88.8 209.9,88.8 212.3,86.6 211.3,84.2 214.7,85.3 216.3,84.8 213.4,83.3 209.5,81.7 206.4,81.2 204.1,78.8 202.2,76.6 
		202.2,75.4 204.3,75.2 206.4,76.5 211.3,79.2 213.4,80.7 216.3,82.2 218.1,82.8 218.1,84.8 220.3,86.6 222.7,88.8 223.5,90.5 
		225.4,91.9 228.4,91.9 228.7,89.9 230.4,89.1 228.2,87.7 226.8,85.8 229.5,84.8 232.8,85 236.7,87.7 239.1,91 240.2,91.9 
		243.2,91.9 247.1,93.7 250.1,92.1 256.7,92.6 259.1,91.1 263.2,91.6 264.3,93.7 265.4,98.6 265.4,102 267.8,104.9 268.7,107.2 
		268.6,111.2 271.2,111.9 274.2,117 277.5,120.1 278,123.3 280.2,125.2 282.4,126 284,128.5 285.6,133.4 286.8,136.5 290.9,139.2 
		293.2,139.2 293.2,145.7 295.5,150.6 295.5,153.4 295.5,156.6 294.3,159.5 294.3,163.8 294.6,169.6 300.1,169.6 301.2,167.9 
		305.4,167.6 308.4,166 313,163.8 318.5,162.4 322.6,156.2 326.1,154.3 326.9,146.3 327.7,140 325,133.7 324.4,126.4 322.8,129.9 
		320.3,127.2 319.8,118.7 318.2,114.5 308.8,103.4 306.7,100.1 301.7,93.8 	"/>
	<polygon class="st0" points="179.8,50.5 176.5,49.5 173.9,53.3 173.9,57.1 176,57.7 173.9,59 171.6,59.9 171.6,61.4 168,62.3 
		171,63.1 172.7,62.1 176.7,63.1 180.2,62.3 181.3,58.4 179.5,54.4 	"/>
	<polygon class="st11" points="344.5,170.1 345.5,185.5 347.4,189 347.4,195.8 345.9,194 344.5,189 343.1,185.7 341.5,170.1 
		340.2,167.9 339.2,150.7 337,150.7 337,141.7 334.4,134.3 331.5,130.6 330.2,127.1 328,124.5 328,120.2 325.6,120.2 324,114.4 
		314,102.4 310.4,100.4 304.1,92.2 301.2,87.3 285,71.8 281.7,71.2 251.3,38.6 257.4,42.3 256.1,39.9 249.3,33.8 254.1,35.9 
		359.9,128.2 359.9,142.8 358,146.7 356.4,148.1 356.4,152.8 356.7,156.3 357.7,160.3 359.9,163.7 359.9,169 359.9,176.7 
		359.9,181.8 356.9,177.5 356.1,174.1 354,173.3 353,166.1 351.4,164.5 350.8,157.6 350.6,155 349.2,153.1 349.8,149.1 348.4,147.3 
		346.3,151 345.5,158.1 345.3,165.3 	"/>
	<polygon class="st11" points="359.9,211.1 358.2,206 356.8,201.7 355.2,197.6 355.2,195.8 357.5,197.4 359.1,201.9 359.9,206 	"/>
	<polygon class="st11" points="295.8,264.7 295.8,268 293.4,275.3 287.5,287.6 285.2,290.6 283.3,290.6 282.3,292.1 278.8,292.1 
		278.8,289.4 277.4,286.6 278,283.6 279.3,278.4 282.6,274.3 282.8,268.4 283.7,264.1 285.2,262 290.7,259.9 294,256.9 294,254.5 
		296.7,253.6 297.8,250.6 299.5,250.6 300.6,253.7 299.7,257.6 299.6,260.5 	"/>
</g>
</svg>
