<?xml version="1.0" encoding="utf-8"?>
<!-- Generator: Adobe Illustrator 22.0.1, SVG Export Plug-In . SVG Version: 6.00 Build 0)  -->
<svg version="1.0" id="Lager_1" xmlns="http://www.w3.org/2000/svg" xmlns:xlink="http://www.w3.org/1999/xlink" x="0px" y="0px"
	 viewBox="0 0 393.5 60.9" style="enable-background:new 0 0 393.5 60.9;" xml:space="preserve">
<style type="text/css">
	.st0{fill:#F07D41;}
	.st1{fill:#C7D308;}
	.st2{fill:#68B431;}
	.st3{fill:#40B8EB;}
	.st4{fill:#3F79BD;}
	.st5{fill:#E94E1B;}
	.st6{fill:#F38F1C;}
	.st7{fill:#F6E825;}
	.st8{fill:#2E4F9D;}
	.st9{fill:#A3A2A2;}
	.st10{fill:none;stroke:#ADACAC;stroke-width:0.75;stroke-miterlimit:10;}
</style>
<g>
	<path class="st0" d="M92.3,23c-0.4-0.7-0.9-1.2-1.6-1.7s-1.3-0.9-2.1-1.2s-1.6-0.4-2.4-0.4c-1.6,0-2.9,0.3-4,0.9
		c-1.1,0.6-1.9,1.4-2.7,2.4c-0.7,1-1.2,2.2-1.5,3.4c-0.3,1.3-0.4,2.6-0.4,4c0,1.3,0.2,2.6,0.4,3.9c0.3,1.3,0.8,2.4,1.5,3.4
		c0.7,1,1.6,1.8,2.7,2.4c1.1,0.6,2.4,0.9,4,0.9c2.1,0,3.8-0.7,4.9-1.9c1.1-1.1,1.7-2.6,2.1-4.3c0.1-0.4,0.4-0.8,0.9-0.8H99
		c0.6,0,1,0.5,0.9,1.1c-0.2,1.6-0.7,2.9-1.2,4.3c-0.7,1.6-1.7,2.9-2.9,4c-1.2,1.1-2.6,1.9-4.2,2.6c-1.6,0.6-3.4,0.9-5.3,0.9
		c-2.4,0-4.5-0.4-6.5-1.3c-1.9-0.8-3.6-2-4.9-3.4s-2.3-3.2-3.1-5.2c-0.7-2-1.1-4.1-1.1-6.4c0-2.3,0.3-4.5,1.1-6.5
		c0.7-2,1.7-3.8,3.1-5.3c1.3-1.5,2.9-2.7,4.9-3.6c1.9-0.8,4.1-1.3,6.5-1.3c1.7,0,3.4,0.3,4.9,0.8c1.6,0.5,2.9,1.2,4.2,2.2
		c1.2,0.9,2.2,2.2,3,3.6c0.6,1.1,1.1,2.4,1.3,3.7c0.1,0.6-0.3,1.1-0.9,1.1h-4.8c-0.4,0-0.8-0.3-0.9-0.7C92.8,24,92.6,23.5,92.3,23z"
		/>
	<path class="st0" d="M106.9,23.3c0.5,0,0.9,0.4,0.9,0.9v3.3h0.1c0.3-0.7,0.7-1.3,1.2-1.9c0.5-0.6,1.1-1.1,1.7-1.6
		c0.7-0.4,1.3-0.8,2.1-1c0.7-0.2,1.5-0.3,2.3-0.3c0.2,0,0.4,0,0.6,0.1c0.4,0.1,0.8,0.4,0.8,0.9v4c0,0.6-0.5,1-1.1,0.9l0,0
		c-0.4-0.1-0.8-0.1-1.2-0.1c-1.2,0-2.1,0.2-2.9,0.6c-0.8,0.4-1.4,0.9-1.9,1.6c-0.5,0.7-0.8,1.4-1.1,2.3s-0.3,1.8-0.3,2.9v9.3
		c0,0.5-0.4,0.9-0.9,0.9h-4.3c-0.5,0-0.9-0.4-0.9-0.9V24.3c0-0.5,0.4-0.9,0.9-0.9L106.9,23.3L106.9,23.3z"/>
	<path class="st0" d="M117.3,29.8c0.6-1.5,1.3-2.8,2.4-3.8c1.1-1.1,2.3-1.8,3.7-2.4c1.4-0.6,3.1-0.8,4.8-0.8c1.8,0,3.4,0.3,4.9,0.8
		c1.4,0.6,2.7,1.4,3.7,2.4c1.1,1.1,1.8,2.3,2.4,3.8c0.6,1.5,0.8,3.2,0.8,4.9c0,1.8-0.3,3.5-0.8,4.9c-0.6,1.4-1.3,2.7-2.4,3.8
		c-1.1,1.1-2.3,1.8-3.7,2.4c-1.4,0.6-3.1,0.8-4.9,0.8c-1.8,0-3.4-0.3-4.8-0.8c-1.4-0.6-2.7-1.3-3.7-2.4c-1.1-1.1-1.8-2.3-2.4-3.8
		c-0.6-1.4-0.8-3.1-0.8-4.9S116.7,31.2,117.3,29.8z M122.9,37.4c0.2,0.9,0.5,1.7,0.9,2.3c0.4,0.7,1,1.2,1.7,1.7
		c0.7,0.4,1.6,0.6,2.7,0.6c1.1,0,1.9-0.2,2.7-0.6s1.3-0.9,1.7-1.7c0.4-0.7,0.7-1.4,0.9-2.3c0.2-0.9,0.3-1.8,0.3-2.7
		c0-0.9-0.1-1.8-0.3-2.7c-0.2-0.9-0.5-1.7-0.9-2.3c-0.4-0.7-1-1.2-1.7-1.7c-0.7-0.4-1.6-0.7-2.7-0.7c-1.1,0-1.9,0.2-2.7,0.7
		c-0.7,0.4-1.3,1-1.7,1.7c-0.4,0.7-0.7,1.4-0.9,2.3c-0.2,0.9-0.3,1.8-0.3,2.7C122.7,35.6,122.8,36.5,122.9,37.4z"/>
	<path class="st0" d="M161.4,46.1c-0.4,0-0.8-0.3-0.9-0.7l-3.9-14.6h-0.1l-3.7,14.6c-0.1,0.4-0.5,0.7-0.9,0.7h-5
		c-0.4,0-0.8-0.3-0.9-0.7l-6.7-20.9c-0.2-0.6,0.3-1.2,0.9-1.2h4.6c0.4,0,0.8,0.3,0.9,0.7l4,14.8h0.1l3.6-14.8
		c0.1-0.4,0.5-0.7,0.9-0.7h4.6c0.4,0,0.8,0.3,0.9,0.7l3.7,14.7h0.1l4-14.8c0.1-0.4,0.5-0.7,0.9-0.7h4.4c0.6,0,1.1,0.6,0.9,1.2
		l-6.5,20.9c-0.1,0.4-0.5,0.7-0.9,0.7H161.4z"/>
	<path class="st0" d="M190.4,43.2c-0.7,1.2-1.7,2.1-2.9,2.7s-2.6,0.8-4,0.8c-1.7,0-3.2-0.3-4.5-1c-1.3-0.7-2.4-1.6-3.2-2.7
		c-0.8-1.1-1.4-2.4-1.9-3.9s-0.7-3-0.7-4.6c0-1.6,0.2-3,0.7-4.4c0.4-1.4,1.1-2.7,1.9-3.8s1.9-1.9,3.2-2.6c1.3-0.7,2.7-1,4.4-1
		c1.3,0,2.7,0.3,3.9,0.8s2.2,1.4,2.9,2.6h0.1V15.6c0-0.5,0.4-0.9,0.9-0.9h4.4c0.5,0,0.9,0.4,0.9,0.9v29.6c0,0.5-0.4,0.9-0.9,0.9h-4
		c-0.5,0-0.9-0.4-0.9-0.9v-1.9H190.4z M190.2,32c-0.2-0.9-0.5-1.6-0.9-2.3c-0.4-0.7-1-1.2-1.7-1.6c-0.7-0.4-1.6-0.6-2.6-0.6
		c-1.1,0-1.9,0.2-2.6,0.6c-0.7,0.4-1.3,0.9-1.7,1.6c-0.4,0.7-0.7,1.4-0.9,2.3c-0.2,0.9-0.3,1.8-0.3,2.7c0,0.9,0.1,1.8,0.3,2.7
		c0.2,0.9,0.6,1.7,1,2.4c0.4,0.7,1.1,1.3,1.7,1.7c0.7,0.4,1.5,0.7,2.5,0.7c1.1,0,1.9-0.2,2.6-0.6c0.7-0.4,1.2-0.9,1.7-1.7
		c0.4-0.7,0.7-1.5,0.9-2.4c0.2-0.9,0.3-1.8,0.3-2.7C190.4,33.7,190.3,32.8,190.2,32z"/>
	<path class="st0" d="M204.4,23.3c0.5,0,0.9,0.4,0.9,0.9v2h0.1c0.8-1.2,1.7-2.1,2.9-2.7c1.2-0.6,2.4-0.8,3.9-0.8
		c1.8,0,3.3,0.3,4.6,1c1.3,0.7,2.4,1.6,3.2,2.7c0.8,1.1,1.5,2.4,1.9,3.9c0.4,1.5,0.6,3.1,0.6,4.7c0,1.6-0.2,3-0.6,4.4
		c-0.4,1.4-1.1,2.7-1.9,3.8c-0.8,1.1-1.9,1.9-3.1,2.6c-1.3,0.7-2.7,0.9-4.4,0.9c-1.4,0-2.7-0.3-3.9-0.8c-1.2-0.6-2.2-1.4-2.9-2.6
		h-0.1v9.9c0,0.5-0.4,0.9-0.9,0.9h-4.4c-0.5,0-0.9-0.4-0.9-0.9V24.2c0-0.5,0.4-0.9,0.9-0.9L204.4,23.3L204.4,23.3z M213.4,41.4
		c0.7-0.4,1.3-0.9,1.7-1.6c0.4-0.7,0.7-1.4,0.9-2.3c0.2-0.9,0.3-1.8,0.3-2.7c0-0.9-0.1-1.8-0.3-2.7c-0.2-0.9-0.5-1.7-0.9-2.4
		c-0.4-0.7-1-1.3-1.7-1.7c-0.7-0.4-1.6-0.7-2.6-0.7c-1.1,0-1.9,0.2-2.6,0.7c-0.7,0.4-1.3,1-1.7,1.7c-0.4,0.7-0.7,1.4-0.9,2.3
		c-0.2,0.9-0.3,1.8-0.3,2.7c0,0.9,0.1,1.8,0.3,2.7c0.2,0.9,0.5,1.7,0.9,2.3c0.4,0.7,1,1.2,1.7,1.6c0.7,0.4,1.6,0.6,2.6,0.6
		C211.8,42,212.7,41.8,213.4,41.4z"/>
	<path class="st0" d="M224.3,29.8c0.6-1.5,1.3-2.8,2.4-3.8c1.1-1.1,2.3-1.8,3.7-2.4c1.4-0.6,3.1-0.8,4.8-0.8s3.4,0.3,4.9,0.8
		c1.4,0.6,2.7,1.4,3.7,2.4c1.1,1.1,1.8,2.3,2.4,3.8c0.6,1.5,0.8,3.2,0.8,4.9c0,1.8-0.3,3.5-0.8,4.9c-0.6,1.4-1.3,2.7-2.4,3.8
		c-1.1,1.1-2.3,1.8-3.7,2.4c-1.4,0.6-3.1,0.8-4.9,0.8c-1.8,0-3.4-0.3-4.8-0.8c-1.4-0.6-2.7-1.3-3.7-2.4c-1.1-1.1-1.8-2.3-2.4-3.8
		c-0.6-1.4-0.8-3.1-0.8-4.9S223.7,31.2,224.3,29.8z M230,37.4c0.2,0.9,0.5,1.7,0.9,2.3c0.4,0.7,1,1.2,1.7,1.7
		c0.7,0.4,1.6,0.6,2.7,0.6s1.9-0.2,2.7-0.6c0.7-0.4,1.3-0.9,1.7-1.7c0.4-0.7,0.7-1.4,0.9-2.3s0.3-1.8,0.3-2.7c0-0.9-0.1-1.8-0.3-2.7
		c-0.2-0.9-0.5-1.7-0.9-2.3c-0.4-0.7-1-1.2-1.7-1.7c-0.7-0.4-1.6-0.7-2.7-0.7s-1.9,0.2-2.7,0.7c-0.7,0.4-1.3,1-1.7,1.7
		c-0.4,0.7-0.7,1.4-0.9,2.3s-0.3,1.8-0.3,2.7C229.7,35.6,229.8,36.5,230,37.4z"/>
	<path class="st0" d="M254.8,15.6l-0.1,29.6c0,0.5-0.4,0.9-0.9,0.9h-4.4c-0.5,0-0.9-0.4-0.9-0.9l0.1-29.6c0-0.5,0.4-0.9,0.9-0.9h4.4
		C254.4,14.6,254.8,15,254.8,15.6z"/>
</g>
<polygon class="st1" points="50.1,8.4 49.7,8.2 47.7,10.7 48,10.9 "/>
<polygon class="st2" points="59.8,28.7 60.1,29.2 55.6,29.5 55.5,29 55.9,28.1 "/>
<polygon class="st3" points="52.6,49.8 52.4,50.3 48.3,46.1 48.8,45.7 "/>
<polygon class="st4" points="32,52.8 32.7,52.8 32.6,59.6 29.6,59.6 "/>
<polygon class="st5" points="16.5,45.9 16.8,46.3 10.9,52 10.4,51.5 "/>
<polygon class="st6" points="1.4,31.7 1.4,32.7 10.9,32.2 10.9,30.6 "/>
<polygon class="st7" points="19.3,14.5 16.5,18.5 16.1,19 7.7,12 10.4,9.2 "/>
<g>
	<path class="st7" d="M28.8,13.5V5.6V1.2l0,0c-8.2,0-15.6,3.3-21,8.7l8.7,8.7C19.7,15.4,24,13.5,28.8,13.5z"/>
	<path class="st3" d="M55.5,29c0,6.3-3,12.8-7.1,17l4,4c5.4-5.4,8.7-12.8,8.7-21h-4.4H55.5z"/>
	<path class="st2" d="M55.5,29H60c0-8.4-3.5-16-9.1-21.5l-3.2,3.2C52.5,15.3,55.5,21.8,55.5,29z"/>
	<path class="st7" d="M10.9,32c0-4.9,2.4-10.3,5.6-13.5l-7.7-7.7C3.4,16.1,0,23.6,0,31.9h9.5L10.9,32L10.9,32z"/>
	<path class="st5" d="M10.9,32H1.4c0,8,3.2,15.4,8.4,20.7l6.7-6.7C13.1,42.3,10.9,37.4,10.9,32z"/>
	<path class="st8" d="M32.2,52.8c-5.8,0-11.9-2.9-15.6-6.8l-5.8,5.8c5.4,5.6,13,9.1,21.5,9.1V54V52.8z"/>
	<path class="st4" d="M32.2,52.8v6.9c8.3,0,15.8-3.4,21.1-8.8L48.5,46C44.3,50.2,38.6,52.8,32.2,52.8z"/>
	<path class="st6" d="M10.9,32c0-4.9,2.4-10.3,5.6-13.5l-7.7-7.7C3.4,16.1,0,23.6,0,31.9h9.5L10.9,32L10.9,32z"/>
</g>
<path class="st1" d="M29.3,0h-0.3v3.3h0.3c6.8,0,13.8,3.1,18.4,7.4L50,8.3C44.7,3.2,37.4,0,29.3,0z"/>
<rect x="28.9" y="1.2" class="st1" width="0.8" height="2.1"/>
<rect x="28.8" y="1.2" class="st7" width="0.2" height="12.3"/>
<g>
	<path class="st9" d="M287.3,23.1v7h-2v-7h-1.9v-1.7h5.8v1.7H287.3z"/>
	<path class="st9" d="M298.4,22.5c0.8,0.8,1.4,1.9,1.4,3.3c0,1.2-0.4,2.3-1.4,3.2c-0.8,0.8-1.9,1.3-3.4,1.3c-1.6,0-2.7-0.6-3.4-1.3
		c-0.8-0.8-1.4-2-1.4-3.2c0-1.2,0.6-2.5,1.3-3.3c0.6-0.6,1.7-1.3,3.4-1.3C296.4,21.2,297.5,21.7,298.4,22.5z M293.1,23.8
		c-0.4,0.4-0.8,1-0.8,2c0,0.8,0.3,1.4,0.8,2c0.6,0.5,1.2,0.7,1.9,0.7c0.9,0,1.5-0.3,1.9-0.7c0.3-0.3,0.8-0.9,0.8-1.9
		c0-0.9-0.4-1.6-0.8-2c-0.4-0.4-1.1-0.7-1.9-0.7C294.2,23.1,293.6,23.4,293.1,23.8z"/>
	<path class="st9" d="M309.5,22.5c0.8,0.8,1.4,1.9,1.4,3.3c0,1.2-0.4,2.3-1.4,3.2c-0.8,0.8-1.9,1.3-3.4,1.3c-1.6,0-2.7-0.6-3.4-1.3
		c-0.8-0.8-1.4-2-1.4-3.2c0-1.2,0.6-2.5,1.3-3.3c0.6-0.6,1.7-1.3,3.4-1.3C307.5,21.2,308.6,21.7,309.5,22.5z M304.2,23.8
		c-0.4,0.4-0.8,1-0.8,2c0,0.8,0.3,1.4,0.8,2c0.6,0.5,1.2,0.7,1.9,0.7c0.9,0,1.5-0.3,1.9-0.7c0.3-0.3,0.8-0.9,0.8-1.9
		c0-0.9-0.4-1.6-0.8-2c-0.4-0.4-1.1-0.7-1.9-0.7C305.4,23.1,304.7,23.4,304.2,23.8z"/>
	<path class="st9" d="M315,21.4v7h2.7v1.7H313v-8.7H315z"/>
	<path class="st9" d="M324.1,23.6c-0.6-0.6-1.2-0.6-1.5-0.6c-0.3,0-0.6,0-0.8,0.3c-0.1,0.1-0.2,0.3-0.2,0.5c0,0.2,0.1,0.4,0.2,0.5
		c0.2,0.2,0.5,0.3,1.1,0.5l0.6,0.2c0.4,0.1,0.8,0.3,1.2,0.7c0.5,0.5,0.6,1.1,0.6,1.6c0,0.9-0.3,1.7-0.8,2.1
		c-0.8,0.8-1.9,0.9-2.5,0.9c-0.6,0-1.2-0.1-1.7-0.4c-0.4-0.2-0.9-0.6-1.3-0.9l1-1.4c0.2,0.2,0.6,0.5,0.8,0.7
		c0.3,0.2,0.7,0.3,1.1,0.3c0.3,0,0.6-0.1,0.9-0.3c0.2-0.1,0.3-0.4,0.3-0.7c0-0.3-0.1-0.5-0.3-0.6c-0.2-0.2-0.8-0.4-1-0.5l-0.7-0.2
		c-0.4-0.1-0.9-0.3-1.2-0.7c-0.5-0.5-0.5-1.1-0.5-1.5c0-0.8,0.2-1.4,0.8-2c0.6-0.6,1.3-0.8,2.1-0.8c0.6,0,1.6,0.1,2.6,0.9
		L324.1,23.6z"/>
	<path class="st9" d="M335.7,23.1h-2.8v1.7h2.6v1.7h-2.6v3.6h-2v-8.7h4.8V23.1z"/>
	<path class="st9" d="M345.4,22.5c0.8,0.8,1.4,1.9,1.4,3.3c0,1.2-0.4,2.3-1.4,3.2c-0.8,0.8-1.9,1.3-3.4,1.3c-1.6,0-2.7-0.6-3.4-1.3
		c-0.8-0.8-1.4-2-1.4-3.2c0-1.2,0.6-2.5,1.3-3.3c0.6-0.6,1.7-1.3,3.4-1.3C343.4,21.2,344.5,21.7,345.4,22.5z M340.1,23.8
		c-0.4,0.4-0.8,1-0.8,2c0,0.8,0.3,1.4,0.8,2c0.6,0.5,1.2,0.7,1.9,0.7c0.9,0,1.5-0.3,1.9-0.7c0.3-0.3,0.8-0.9,0.8-1.9
		c0-0.9-0.4-1.6-0.8-2c-0.4-0.4-1.1-0.7-1.9-0.7C341.3,23.1,340.6,23.4,340.1,23.8z"/>
	<path class="st9" d="M351.9,21.4c1.1,0,1.8,0.4,2.2,0.8c0.4,0.4,0.8,1,0.8,1.9c0,0.5-0.1,1.2-0.7,1.8c-0.3,0.3-0.7,0.5-1.2,0.7
		l2.7,3.5h-2.4l-2.3-3.4v3.4h-2v-8.7H351.9z M350.9,25.4h0.5c0.4,0,0.9,0,1.2-0.4c0.1-0.1,0.3-0.4,0.3-0.8c0-0.5-0.2-0.8-0.4-0.9
		c-0.3-0.2-0.8-0.3-1.1-0.3h-0.5V25.4z"/>
	<path class="st9" d="M290.6,43.8c-0.8,0.4-1.4,0.5-1.9,0.5c-1.6,0-2.7-0.5-3.4-1.3c-0.8-0.8-1.4-1.9-1.4-3.3c0-1.4,0.6-2.5,1.4-3.3
		c0.8-0.7,1.9-1.2,3.2-1.2c0.6,0,1.2,0.1,2.1,0.5V38c-0.4-0.5-1.1-0.9-2-0.9c-0.7,0-1.3,0.2-1.8,0.7c-0.5,0.5-0.8,1.2-0.8,2
		c0,0.9,0.4,1.5,0.8,1.9c0.2,0.2,0.8,0.7,1.9,0.7c0.5,0,1.2-0.1,2-0.9V43.8z"/>
	<path class="st9" d="M294.9,38.7h3.5v-3.3h2v8.7h-2v-3.7h-3.5v3.7h-2v-8.7h2V38.7z"/>
	<path class="st9" d="M308,42.5h-3.3l-0.7,1.6H302l3.5-8.7h1.8l3.4,8.7h-2.1L308,42.5z M307.5,40.9l-1.1-2.9l-1.1,2.9H307.5z"/>
	<path class="st9" d="M312.3,44.1v-8.7h1.7l4.7,5.6v-5.6h2v8.7h-1.7l-4.7-5.6v5.6H312.3z"/>
	<path class="st9" d="M327.5,39.4h4.3v0.1c0,1.1-0.4,2.7-1.3,3.7c-1,1-2.1,1.2-3.1,1.2c-1,0-2.2-0.2-3.2-1.2
		c-0.5-0.5-1.3-1.6-1.3-3.3c0-1.4,0.5-2.5,1.2-3.3c1.1-1.1,2.4-1.3,3.4-1.3c0.7,0,1.6,0.1,2.4,0.6c0.6,0.4,1.1,1,1.4,1.5l-1.8,1
		c-0.2-0.3-0.4-0.7-0.8-0.9c-0.4-0.3-0.8-0.4-1.3-0.4c-0.8,0-1.4,0.3-1.8,0.7c-0.5,0.5-0.7,1.2-0.7,2.1c0,1,0.4,1.6,0.7,2
		c0.5,0.5,1.1,0.7,1.8,0.7c0.9,0,1.3-0.3,1.5-0.5c0.1-0.1,0.5-0.4,0.6-1h-2.1V39.4z"/>
	<path class="st9" d="M338.8,37.1h-2.9v1.7h2.8v1.7h-2.8v1.9h2.9v1.7h-4.9v-8.7h4.9V37.1z"/>
	<path class="st9" d="M340.7,44.1l1.4-8.7h1.7l2.2,5.2l2.2-5.2h1.7l1.4,8.7h-2l-0.7-5.2l-2.2,5.2h-0.7l-2.2-5.2l-0.7,5.2H340.7z"/>
	<path class="st9" d="M358.5,42.5h-3.3l-0.7,1.6h-2.1l3.5-8.7h1.8l3.4,8.7h-2.1L358.5,42.5z M358,40.9l-1.1-2.9l-1.1,2.9H358z"/>
	<path class="st9" d="M364.9,39l3-3.6h2.4l-3.5,4.1l3.8,4.6H368l-3.1-3.8v3.8h-2v-8.7h2V39z"/>
	<path class="st9" d="M377.1,37.1h-2.9v1.7h2.8v1.7h-2.8v1.9h2.9v1.7h-4.9v-8.7h4.9V37.1z"/>
	<path class="st9" d="M382.5,35.4c1.1,0,1.8,0.4,2.2,0.8c0.4,0.4,0.8,1,0.8,1.9c0,0.5-0.1,1.2-0.7,1.8c-0.3,0.3-0.7,0.5-1.2,0.7
		l2.7,3.5h-2.4l-2.3-3.4v3.4h-2v-8.7H382.5z M381.5,39.4h0.5c0.4,0,0.9,0,1.2-0.4c0.1-0.1,0.3-0.4,0.3-0.8c0-0.5-0.2-0.8-0.4-0.9
		c-0.3-0.2-0.8-0.3-1.1-0.3h-0.5V39.4z"/>
	<path class="st9" d="M392.3,37.6c-0.6-0.6-1.2-0.6-1.5-0.6c-0.3,0-0.6,0-0.8,0.3c-0.1,0.1-0.2,0.3-0.2,0.5c0,0.2,0.1,0.4,0.2,0.5
		c0.2,0.2,0.5,0.3,1.1,0.5l0.6,0.2c0.4,0.1,0.8,0.3,1.2,0.7c0.5,0.5,0.6,1.1,0.6,1.6c0,0.9-0.3,1.7-0.8,2.1
		c-0.8,0.8-1.9,0.9-2.5,0.9c-0.6,0-1.2-0.1-1.7-0.4c-0.4-0.2-0.9-0.6-1.3-0.9l1-1.4c0.2,0.2,0.6,0.5,0.8,0.7
		c0.3,0.2,0.7,0.3,1.1,0.3c0.3,0,0.6-0.1,0.9-0.3c0.2-0.1,0.3-0.4,0.3-0.7c0-0.3-0.1-0.5-0.3-0.6c-0.2-0.2-0.8-0.4-1-0.5l-0.7-0.2
		c-0.4-0.1-0.9-0.3-1.2-0.7c-0.5-0.5-0.5-1.1-0.5-1.5c0-0.8,0.2-1.4,0.8-2c0.6-0.6,1.3-0.8,2.1-0.8c0.6,0,1.6,0.1,2.6,0.9
		L392.3,37.6z"/>
</g>
<line class="st10" x1="270" y1="14.9" x2="270" y2="47.4"/>
</svg>
