<?xml version="1.0" encoding="utf-8"?>
<!-- Generator: Adobe Illustrator 22.0.1, SVG Export Plug-In . SVG Version: 6.00 Build 0)  -->
<svg version="1.0" id="Lager_1" xmlns="http://www.w3.org/2000/svg" xmlns:xlink="http://www.w3.org/1999/xlink" x="0px" y="0px"
	 viewBox="0 0 456.6 109.7" style="enable-background:new 0 0 456.6 109.7;" xml:space="preserve">
<style type="text/css">
	.st0{fill:#EF7D3F;}
	.st1{fill:#C8D300;}
	.st2{fill:#67B32E;}
	.st3{fill:#3FB8EB;}
	.st4{fill:#3E79BD;}
	.st5{fill:#E84C17;}
	.st6{fill:#F38F1A;}
	.st7{fill:#F7E81D;}
	.st8{fill:#2B4E9D;}
</style>
<g>
	<path class="st0" d="M164.6,41.5c-0.7-1.2-1.7-2.2-2.8-3.1s-2.4-1.6-3.8-2.1s-2.9-0.8-4.4-0.8c-2.8,0-5.2,0.5-7.2,1.6
		s-3.5,2.5-4.8,4.4c-1.2,1.8-2.1,3.9-2.7,6.2c-0.6,2.3-0.8,4.7-0.8,7.2c0,2.4,0.3,4.7,0.8,7c0.6,2.3,1.4,4.3,2.7,6.1
		c1.2,1.8,2.8,3.2,4.8,4.3c2,1.1,4.3,1.6,7.2,1.6c3.8,0,6.8-1.2,8.9-3.5c1.9-2,3.1-4.6,3.7-7.8c0.2-0.8,0.8-1.4,1.7-1.4h8.7
		c1,0,1.8,0.9,1.7,2c-0.4,2.8-1.2,5.3-2.2,7.7c-1.3,2.9-3.1,5.3-5.2,7.3c-2.2,2-4.7,3.5-7.6,4.6s-6.1,1.6-9.6,1.6
		c-4.3,0-8.2-0.8-11.7-2.3s-6.4-3.6-8.8-6.2s-4.2-5.8-5.5-9.3c-1.3-3.6-1.9-7.4-1.9-11.6s0.6-8.2,1.9-11.8c1.3-3.6,3.1-6.8,5.5-9.5
		s5.3-4.8,8.8-6.4c3.5-1.5,7.4-2.3,11.7-2.3c3.1,0,6.1,0.5,8.9,1.4s5.3,2.2,7.5,3.9c2.2,1.7,4,3.9,5.4,6.4c1.1,2,1.9,4.3,2.4,6.7
		c0.2,1-0.6,2-1.7,2h-8.7c-0.8,0-1.4-0.5-1.6-1.2C165.5,43.2,165.1,42.3,164.6,41.5z"/>
	<path class="st0" d="M191,42c0.9,0,1.7,0.8,1.7,1.7v5.9h0.2c0.5-1.3,1.2-2.4,2.1-3.5s1.9-2,3.1-2.8s2.4-1.4,3.7-1.8
		c1.3-0.4,2.7-0.6,4.1-0.6c0.3,0,0.7,0,1,0.1c0.8,0.1,1.5,0.8,1.5,1.7v7.2c0,1-0.9,1.8-1.9,1.7l0,0c-0.7-0.1-1.5-0.1-2.1-0.1
		c-2.1,0-3.8,0.3-5.2,1c-1.4,0.7-2.6,1.6-3.5,2.8c-0.9,1.2-1.5,2.6-1.9,4.2s-0.6,3.3-0.6,5.2v16.8c0,0.9-0.8,1.7-1.7,1.7h-7.8
		c-0.9,0-1.7-0.8-1.7-1.7V43.8c0-0.9,0.8-1.7,1.7-1.7h7.3V42z"/>
	<path class="st0" d="M209.6,53.7c1-2.7,2.4-5,4.3-6.8c1.9-1.9,4.1-3.3,6.7-4.4c2.6-1,5.5-1.5,8.7-1.5s6.2,0.5,8.8,1.5
		s4.9,2.5,6.7,4.4c1.9,1.9,3.3,4.2,4.3,6.8c1,2.7,1.5,5.7,1.5,8.9c0,3.3-0.5,6.3-1.5,8.9s-2.4,4.9-4.3,6.8s-4.1,3.3-6.7,4.3
		s-5.5,1.5-8.8,1.5c-3.2,0-6.1-0.5-8.7-1.5s-4.8-2.4-6.7-4.3c-1.9-1.9-3.3-4.1-4.3-6.8c-1-2.6-1.5-5.6-1.5-8.9
		S208.6,56.3,209.6,53.7z M219.8,67.4c0.3,1.6,0.9,3,1.6,4.2c0.8,1.2,1.8,2.2,3.1,3c1.3,0.7,2.9,1.1,4.8,1.1s3.5-0.4,4.8-1.1
		s2.3-1.7,3.1-3c0.8-1.2,1.3-2.6,1.6-4.2c0.3-1.6,0.5-3.2,0.5-4.8c0-1.6-0.2-3.3-0.5-4.8c-0.3-1.6-0.9-3-1.6-4.2
		c-0.8-1.2-1.8-2.2-3.1-3c-1.3-0.8-2.9-1.2-4.8-1.2s-3.5,0.4-4.8,1.2c-1.3,0.8-2.3,1.8-3.1,3c-0.8,1.2-1.3,2.6-1.6,4.2
		c-0.3,1.6-0.5,3.2-0.5,4.8C219.4,64.2,219.5,65.8,219.8,67.4z"/>
	<path class="st0" d="M289.2,83.1c-0.8,0-1.4-0.5-1.6-1.3l-7-26.3h-0.2l-6.7,26.3c-0.2,0.8-0.9,1.3-1.6,1.3H263
		c-0.7,0-1.4-0.5-1.6-1.2l-12-37.7c-0.3-1.1,0.5-2.2,1.6-2.2h8.3c0.8,0,1.4,0.5,1.6,1.3l7.2,26.6h0.2l6.5-26.6
		c0.2-0.8,0.9-1.3,1.6-1.3h8.3c0.8,0,1.5,0.5,1.6,1.3l6.7,26.5h0.2l7.2-26.6c0.2-0.7,0.9-1.2,1.6-1.2h8c1.1,0,2,1.1,1.6,2.2
		l-11.7,37.7c-0.2,0.7-0.9,1.2-1.6,1.2H289.2z"/>
	<path class="st0" d="M341.5,77.9c-1.3,2.2-3.1,3.8-5.2,4.8s-4.6,1.5-7.3,1.5c-3.1,0-5.8-0.6-8.1-1.8c-2.3-1.2-4.3-2.8-5.8-4.8
		s-2.6-4.4-3.4-7s-1.2-5.4-1.2-8.3c0-2.8,0.4-5.4,1.2-8c0.8-2.6,1.9-4.8,3.4-6.8s3.4-3.5,5.7-4.7c2.3-1.2,4.9-1.8,7.9-1.8
		c2.4,0,4.8,0.5,7,1.5s3.9,2.6,5.2,4.6h0.2v-19c0-0.9,0.8-1.7,1.7-1.7h7.9c0.9,0,1.7,0.8,1.7,1.7v53.3c0,0.9-0.8,1.7-1.7,1.7h-7.3
		c-0.9,0-1.7-0.8-1.7-1.7v-3.5H341.5z M341,57.6c-0.3-1.6-0.9-2.9-1.6-4.1c-0.8-1.2-1.8-2.2-3-2.9c-1.2-0.7-2.8-1.1-4.6-1.1
		c-1.9,0-3.4,0.4-4.7,1.1c-1.3,0.7-2.3,1.7-3.1,2.9c-0.8,1.2-1.3,2.6-1.7,4.2c-0.3,1.6-0.5,3.2-0.5,4.9c0,1.6,0.2,3.2,0.6,4.8
		c0.4,1.6,1,3,1.8,4.3c0.8,1.2,1.9,2.3,3.1,3c1.2,0.8,2.7,1.2,4.5,1.2c1.9,0,3.4-0.4,4.6-1.1s2.2-1.7,3-3c0.7-1.2,1.3-2.7,1.6-4.3
		c0.3-1.6,0.5-3.2,0.5-4.9C341.5,60.8,341.3,59.1,341,57.6z"/>
	<path class="st0" d="M365.6,42c0.9,0,1.7,0.8,1.7,1.7v3.6h0.2c1.4-2.2,3.1-3.8,5.2-4.8s4.4-1.5,7-1.5c3.2,0,6,0.6,8.3,1.8
		c2.3,1.2,4.3,2.8,5.8,4.8s2.7,4.4,3.4,7c0.7,2.7,1.1,5.5,1.1,8.4c0,2.8-0.4,5.4-1.1,7.9s-1.9,4.8-3.4,6.8s-3.4,3.5-5.6,4.7
		c-2.3,1.2-4.9,1.7-7.9,1.7c-2.5,0-4.9-0.5-7-1.5S369.4,80,368,78h-0.2v17.8c0,0.9-0.8,1.7-1.7,1.7h-7.9c-0.9,0-1.7-0.8-1.7-1.7
		V43.7c0-0.9,0.8-1.7,1.7-1.7L365.6,42L365.6,42z M381.9,74.6c1.2-0.7,2.3-1.7,3-2.9c0.8-1.2,1.3-2.6,1.6-4.2
		c0.3-1.6,0.5-3.2,0.5-4.8c0-1.6-0.2-3.3-0.5-4.8c-0.3-1.6-0.9-3-1.7-4.3c-0.8-1.2-1.8-2.3-3.1-3c-1.2-0.8-2.8-1.2-4.6-1.2
		c-1.9,0-3.4,0.4-4.6,1.2c-1.2,0.8-2.3,1.8-3,3c-0.8,1.2-1.3,2.6-1.6,4.2c-0.3,1.6-0.5,3.2-0.5,4.9c0,1.6,0.2,3.3,0.5,4.8
		c0.3,1.6,0.9,3,1.7,4.2c0.8,1.2,1.8,2.2,3.1,2.9c1.3,0.7,2.8,1.1,4.6,1.1C379.1,75.7,380.7,75.3,381.9,74.6z"/>
	<path class="st0" d="M401.5,53.7c1-2.7,2.4-5,4.3-6.8c1.9-1.9,4.1-3.3,6.7-4.4c2.6-1,5.5-1.5,8.7-1.5s6.2,0.5,8.8,1.5
		c2.6,1,4.9,2.5,6.7,4.4c1.9,1.9,3.3,4.2,4.3,6.8c1,2.7,1.5,5.7,1.5,8.9c0,3.3-0.5,6.3-1.5,8.9s-2.4,4.9-4.3,6.8s-4.1,3.3-6.7,4.3
		s-5.5,1.5-8.8,1.5c-3.2,0-6.1-0.5-8.7-1.5s-4.8-2.4-6.7-4.3c-1.9-1.9-3.3-4.1-4.3-6.8c-1-2.6-1.5-5.6-1.5-8.9
		S400.5,56.3,401.5,53.7z M411.8,67.4c0.3,1.6,0.9,3,1.6,4.2c0.8,1.2,1.8,2.2,3.1,3c1.3,0.7,2.9,1.1,4.8,1.1s3.5-0.4,4.8-1.1
		s2.3-1.7,3.1-3c0.8-1.2,1.3-2.6,1.6-4.2c0.3-1.6,0.5-3.2,0.5-4.8c0-1.6-0.2-3.3-0.5-4.8c-0.3-1.6-0.9-3-1.6-4.2
		c-0.8-1.2-1.8-2.2-3.1-3c-1.3-0.8-2.9-1.2-4.8-1.2s-3.5,0.4-4.8,1.2c-1.3,0.8-2.3,1.8-3.1,3c-0.8,1.2-1.3,2.6-1.6,4.2
		c-0.3,1.6-0.5,3.2-0.5,4.8S411.4,65.8,411.8,67.4z"/>
	<path class="st0" d="M456.6,28.1l-0.2,53.3c0,0.9-0.8,1.7-1.7,1.7h-7.9c-0.9,0-1.7-0.8-1.7-1.7l0.2-53.3c0-0.9,0.8-1.7,1.7-1.7h7.9
		C455.8,26.4,456.6,27.1,456.6,28.1z"/>
</g>
<polygon class="st1" points="90.4,15.2 89.6,14.8 86,19.2 86.5,19.6 "/>
<polygon class="st2" points="107.8,51.8 108.4,52.6 100.3,53.2 100.1,52.3 100.7,50.7 "/>
<polygon class="st3" points="94.8,89.7 94.4,90.7 87.1,83.1 87.9,82.4 "/>
<polygon class="st4" points="57.7,95.1 58.9,95.1 58.7,107.5 53.4,107.5 "/>
<polygon class="st5" points="29.7,82.8 30.3,83.4 19.7,93.8 18.8,92.9 "/>
<polygon class="st6" points="2.6,57.1 2.6,59 19.7,58 19.6,55.2 "/>
<polygon class="st7" points="34.8,26.2 29.8,33.4 29,34.2 13.9,21.6 18.7,16.6 "/>
<g>
	<path class="st7" d="M52,24.3V10.1v-8l0,0c-14.8,0-28.2,6-37.9,15.6l15.7,15.7C35.5,27.8,43.3,24.3,52,24.3z"/>
	<path class="st3" d="M100.1,52.3c0,11.4-5.4,23.1-12.8,30.6l7.3,7.3c9.7-9.7,15.6-23.1,15.6-37.9h-8H100.1z"/>
	<path class="st2" d="M100.1,52.3h8c0-15.2-6.3-28.9-16.4-38.7L86,19.3C94.7,27.6,100.1,39.3,100.1,52.3z"/>
	<path class="st7" d="M19.7,57.6c0-8.8,4.3-18.5,10.1-24.3L15.9,19.4C6.1,29.1,0,42.6,0,57.5h17.1L19.7,57.6L19.7,57.6z"/>
	<path class="st5" d="M19.7,57.6H2.6c0,14.5,5.7,27.7,15.1,37.3l12.1-12C23.6,76.3,19.7,67.4,19.7,57.6z"/>
	<path class="st8" d="M58,95.1c-10.5,0-21.5-5.2-28.2-12.3L19.3,93.3c9.8,10.1,23.5,16.4,38.7,16.4V97.3V95.1z"/>
	<path class="st4" d="M58,95.1v12.4c14.9,0,28.4-6.1,38.1-15.9l-8.7-8.7C79.9,90.5,69.5,95.1,58,95.1z"/>
	<path class="st6" d="M19.7,57.6c0-8.8,4.3-18.5,10.1-24.3L15.9,19.4C6.1,29.1,0,42.6,0,57.5h17.1L19.7,57.6L19.7,57.6z"/>
</g>
<path class="st1" d="M52.9,0h-0.5v5.9h0.5c12.3,0,24.9,5.5,33.1,13.3l4.2-4.2C80.5,5.7,67.4,0,52.9,0z"/>
<rect x="52.1" y="2.1" class="st1" width="1.5" height="3.8"/>
<rect x="52" y="2.1" class="st7" width="0.4" height="22.2"/>
</svg>
