<?xml version="1.0" encoding="utf-8"?>
<!-- Generator: Adobe Illustrator 22.0.1, SVG Export Plug-In . SVG Version: 6.00 Build 0)  -->
<svg version="1.0" id="Lager_1" xmlns="http://www.w3.org/2000/svg" xmlns:xlink="http://www.w3.org/1999/xlink" x="0px" y="0px"
	 viewBox="0 0 332.1 332.3" style="enable-background:new 0 0 332.1 332.3;" xml:space="preserve">
<style type="text/css">
	.st0{fill:#888889;}
</style>
<g id="Pg6hkR.tif">
	<g>
		<path class="st0" d="M154.9,0c7.5,0,14.9,0,22.4,0c8.2,1.3,16.5,2.3,24.7,4C266.1,17.7,317.2,70.4,329,134.9c1.2,6.6,2,13.3,3,20
			c0,7.5,0,14.9,0,22.4c-0.2,1-0.6,2-0.7,3c-1.4,17.9-5.7,35.2-12.9,51.6c-36.8,83.3-130.3,122.6-214.4,87.9
			C39.9,293.2,5.2,243.2,0.4,173.8c-2.9-41.5,10-79.1,36.2-111.6C62,30.6,94.9,10.8,134.8,3.1C141.5,1.8,148.2,1,154.9,0z
			 M256.4,158.6c18.1,0,36.3,0,54.5,0c0.8-22.7-14.1-64.4-27-77c-12.8,6.6-25.5,13.2-38,19.7c2.2,9.2,4.8,18.6,6.6,28.1
			C254.2,139,255.1,148.7,256.4,158.6z M48.1,81.6c-14.8,17.9-27.9,55.5-26.9,77c18.3,0,36.5,0,55,0c0.7-19.9,4.5-38.9,10.3-57
			C73.5,94.8,60.9,88.2,48.1,81.6z M284.2,250.6c16.3-22.8,25.3-48.5,27-77.2c-18.5,0-36.6,0-55.2,0c-0.6,19.8-4.1,39-9.9,57.3
			C258.9,237.4,271.3,243.9,284.2,250.6z M47.9,250.6c13.1-6.8,25.6-13.3,38.3-19.9c-6.1-18.5-9.3-37.7-10.1-57.2
			c-18.7,0-36.8,0-55.2,0C22.6,202.1,31.6,227.7,47.9,250.6z M158.6,216.2c0-14.5,0-28.6,0-42.8c-22.7,0-45.1,0-67.9,0
			c0.4,18.2,3.6,35.7,9.3,53C119.2,220.4,138.5,216.9,158.6,216.2z M173.4,216.2c20.3,0.7,39.6,4.3,58.8,10.2
			c5.6-17.5,8.8-34.9,9.3-52.9c-22.8,0-45.3,0-68,0C173.4,187.7,173.4,201.8,173.4,216.2z M100.4,105.8c-5.7,17.5-9.1,34.8-9.7,52.8
			c22.9,0,45.4,0,67.9,0c0-14.3,0-28.4,0-42.7C138.8,115.1,119.7,111.8,100.4,105.8z M231.7,105.8c-19.3,6.1-38.6,9.3-58.2,10.2
			c0,14.5,0,28.6,0,42.7c22.6,0,45.1,0,67.9,0C240.8,140.6,237.4,123.2,231.7,105.8z M158.6,311.7c0-27.4,0-54.1,0-81
			c-18.4,0.7-36,3.7-53.3,9.3c0.1,0.8,0.1,1.2,0.2,1.5c11,26.1,27,48.7,48,67.8C154.8,310.4,156.7,310.8,158.6,311.7z M173.4,230.9
			c0,26.8,0,53.4,0,81.1c2.3-1.3,4.3-2,5.7-3.3c20.4-18.7,36.1-40.7,47-66.1c0.3-0.8,0.5-1.7,0.7-2.5
			C214.3,235.1,185.3,230.1,173.4,230.9z M158.7,21.4c-11.6,2.6-50.1,54.8-52.5,71.1c17,5.3,34.4,8.4,52.5,9
			C158.7,74.5,158.7,47.9,158.7,21.4z M226.6,92.3c-12.1-28.2-29.4-51.9-53.1-72.3c0,27.9,0,54.5,0,81.5
			C191.6,100.9,209,97.8,226.6,92.3z M200.7,24.9c7.4,10,15.3,19.5,22,29.9c6.7,10.3,12.1,21.4,18.5,32.9
			c11-5.7,22.2-11.5,33.9-17.6C254.2,47,229.7,32.2,200.7,24.9z M91.7,88c10.1-24,23.4-44.4,41.1-63.4C102.4,32.2,77.8,47,57,70.1
			C68.7,76.2,80,82,91.7,88z M241.7,244.7c-6.2,11.4-11.4,22.3-17.9,32.5c-6.4,10.2-14,19.6-21.2,29.5c28.3-7.5,52.2-22.2,72.5-44.7
			C263.3,255.9,252.3,250.2,241.7,244.7z M91.1,244.3c-11.4,5.9-22.5,11.7-34.2,17.8c20.5,22.4,44.3,37.2,72.8,44.3
			C113.6,288,100.8,267.6,91.1,244.3z"/>
	</g>
</g>
</svg>
