<?xml version="1.0" encoding="utf-8"?>
<!-- Generator: Adobe Illustrator 22.0.1, SVG Export Plug-In . SVG Version: 6.00 Build 0)  -->
<svg version="1.0" id="Lager_1" xmlns="http://www.w3.org/2000/svg" xmlns:xlink="http://www.w3.org/1999/xlink" x="0px" y="0px"
	 viewBox="0 0 575.3 318.9" style="enable-background:new 0 0 575.3 318.9;" xml:space="preserve">
<style type="text/css">
	.st0{fill:#D4EBED;}
	.st1{fill:#E4E8E7;}
	
		.st2{opacity:7.000000e-02;fill:none;stroke:#010202;stroke-width:0.8006;stroke-linecap:round;stroke-linejoin:round;stroke-miterlimit:10;stroke-dasharray:1.8099,2.1719;}
	.st3{fill:#FFFFFF;}
	.st4{opacity:0.8;fill:none;stroke:#7EB553;stroke-width:0.8946;stroke-linecap:round;stroke-linejoin:round;stroke-miterlimit:10;}
	.st5{opacity:0.8;fill:#7EB553;}
	.st6{fill:#EFB647;}
	.st7{opacity:0.52;fill:#FDFCFC;}
	.st8{fill:#AFB0AF;}
	.st9{fill:#B4CCC8;}
	.st10{fill:#6C8281;}
	.st11{fill:#788E8C;}
	.st12{fill:#586665;}
	.st13{fill:#CE5135;}
	.st14{fill:#E6543A;}
	.st15{fill:#882F23;}
	.st16{fill:#8E3931;}
	.st17{fill:#722724;}
</style>
<rect x="448.8" y="47.4" class="st0" width="3.3" height="2.7"/>
<rect x="448.8" y="111.3" class="st0" width="3.3" height="4.8"/>
<g id="biClH5.tif">
	<g>
		<path class="st1" d="M230.3,9.5c3.3-0.2,6.2-0.4,9-0.6c0.6-0.1,1.1-0.5,1.7-0.8c-0.4-0.5-0.7-1.2-1.2-1.4
			c-1.8-0.7-3.6-1.4-5.4-1.9c-6-1.7-11.9-2.5-17.8,0.6c-0.3,0.1-0.7,0.1-1,0.1c-3.4,0-6.7,0-10.3,0c0.3,0.7,0.6,1.1,0.7,1.6
			c0.2,1.2,0.2,2.4,0.3,3.6c-1-0.1-2-0.1-3-0.3c-2.2-0.6-4.3-1.3-6.4-2c-0.1,0.2-0.2,0.4-0.2,0.6c0.4,0.6,0.8,1.3,1.6,2.6
			c-2.2-0.8-3.7-1.4-5.3-2c-0.2,0.8-0.4,1.3-0.4,1.5c-1.2-0.7-2.5-2-3.3-1.8c-3.6,1.1-8.3,0-10.5,4.4c-0.2,0.3-0.9,0.4-1.4,0.6
			c-1.5,0.4-3.2,0.7-4.6,1.3c-1.1,0.4-2,1.3-3,2c0.1,0.2,0.3,0.4,0.4,0.6c1.1,0.1,2.2,0.2,3.4,0.2c-0.5,2.5-1.4,3.9-4.2,4.3
			c-2.8,0.4-5.5,2-8.2,3c0,0.4,0.1,0.8,0.1,1.2c3.2,0.6,6.4,1.1,9.6,1.7c0,0.1-0.1,0.2-0.1,0.3c-2.3,0.5-4.7,1-6.7,1.4
			c1,1,2,2.1,3.1,3.1c0.2,0.2,0.6,0.2,1,0.2c1.9-0.1,3.7-0.3,5.6-0.3c1.8,0,3.6-0.1,5.3,0.3c4.8,1,7.2,4.9,9.1,8.9
			c0.9,1.9,2.5,4,0.8,6.4c0,0,1,1.1,1.5,1.1c0.7,0,1.3-0.5,1.8-0.8c1.4,1.3,2.6,2.5,3.8,3.6c-1.7,0.4-2.9,0-4,0.2
			c-0.7,0.1-1.5,1-1.8,1.8c-0.2,0.4,0.4,1.5,0.9,1.7c0.7,0.3,1.6,0,2.4-0.1c0-0.3,0-0.5,0-0.8c-0.6-0.3-1.3-0.7-1.9-1
			c0.2-0.2,0.4-0.5,0.6-0.7c0.6,0.3,1.2,0.5,1.7,0.8c0.8,0.5,2.3,1.4,2.2,1.6c-0.4,1.3-1.3,2.6-2.1,3.8c-0.3,0.5-1.3,0.7-1.4,1.2
			c-0.4,1.9-1.4,4.3-0.7,5.8c2.2,4.7,5,9.1,7.7,13.5c0.4,0.7,1.6,1.1,2.4,1.4c0.9,0.4,2.1,0.3,2.8,0.9c2.4,1.9,3.1,1.8,4.1-1.1
			c1.4-3.9,2.7-7.9,4.3-11.7c0.3-0.8,1.4-1.7,2.3-1.9c4-0.8,7.3-2.3,9.5-6c0.9-1.5,2.4-1.8,4.2-1.8c4.6,0,8.2-2.3,12.1-5.6
			c-2.4-0.4-4.1-0.6-5.7-0.9c0.5-1.1,1.1-2.4,1.6-3.5c2.1,1,4,1.8,6,2.7c0.5-4.6-3.9-4.8-5.7-7.7c2,0.8,3.3,1.3,4.8,1.9
			c0.7-3.8-3.3-2.4-4-4.8c2.5,0.5,4.9,2,7.2,0.1c-1.1-0.5-2.1-1-3.1-1.5c0.1-0.2,0.2-0.4,0.2-0.6c1.4,0,2.9,0,4.3,0
			c0.1-0.3,0.2-0.6,0.3-0.9c-0.9-0.3-1.7-0.7-3.1-1.3c1.1-0.8,2-1.6,3.4-2.6c-1.7-1.3-3.3-2.5-5.5-4.1c2.5-0.5,4.2-0.9,6.1-1.3
			c-1.5-1.2-3-2.4-4.6-3.7c0.8-1.1,1.3-2.6,2.3-3.1c1.5-0.8,1.5-1.9,1.3-3.2c-0.1-0.8-0.3-1.5-0.5-2.4c2.3-0.5,4.6,0.4,6.4-1.9
			c1-1.3,3.4-1.6,5.1-2.4c0.4-0.2,0.7-0.6,1-0.9c-0.4-0.3-0.7-0.9-1.1-1c-2-0.5-3.9-1.1-5.9,0.3c-0.8,0.6-2.3,1.3-2.7,1
			c-2.6-2-4,0.6-5.8,1.2c-0.4,0.1-0.9,0.3-1.3,0.4c0.7-1.4,1.4-2.7,2.1-4c-0.3-0.3-0.5-0.5-0.8-0.8c-1.4,0.6-2.7,1.6-4.1,1.7
			c-1.6,0.1-3.3-0.5-4.9-0.9C233.4,10.2,231.6,11.9,230.3,9.5z M490.3,235.2c-0.3-0.1-0.5-0.1-0.8-0.1c-0.4-0.1-0.8-0.2-1.2-0.3
			c-3.8-1.4-5.1-0.8-6.8,3c-0.2,0.4-0.5,1-0.6,1c-2.5-0.7-2.1,1.6-3,2.7c-0.9,1.2-2.2,2.4-3.6,3.1c-1.3,0.7-2.9,0.8-4.4,1.2
			c-3.7,0.9-6.1,4.2-5.4,7.4c0.2,0.8,1.1,1.7,0.8,2.3c-1,2.5,0.4,4.4,1.1,6.5c0.8,2.5,2.5,5,1.1,7.7c-1,2-0.2,3,1.5,3.3
			c1.2,0.2,2.6-0.2,3.7-0.7c1.7-0.8,3.2-2.2,5.4-1.1c0.5,0.2,1.6-0.2,2-0.6c2.9-3,7.1-2.9,10.6-4.4c0.3-0.1,0.8,0,1.3,0.1
			c4,0.6,7,2.6,8.3,6.5c1.1-1.2,2.1-2.3,2.9-3.2c1.3,2.4,2.7,4.7,3.8,7c1.5,3.3,3.7,4.4,7.2,3.5c0.5-0.1,1.2,0,1.7,0.2
			c2,0.8,3.4,0.2,4.5-1.5c0.4-0.6,0.7-1.1,1.1-1.7c1.8-2.1,3.3-4.4,5.3-6.3c3.2-3,2.6-7,3.3-10.7c0.3-1.9,0.2-4-0.1-5.9
			c-0.2-1-1.2-1.9-1.9-2.9c-1.7-2.3-3.3-4.6-5-6.8c-0.4-0.5-1.4-1-2-0.8c-2.7,0.5-3.4-1.2-4.2-3.1c-1.6-3.8-3.3-7.6-5-11.4
			c-0.1-0.3-0.5-0.4-0.9-0.7c-1.9,3.8,1.2,9.2-4,11.5c-1.8-1.2-3.5-2.5-5.4-3.5c-1.7-0.9-2.2-1.8-1.4-3.6c1.2-2.7,1-2.7-2-3.1
			c-0.3,0-0.7-0.2-1-0.3c-3.3-0.8-6,1.1-6.6,4.5C490.7,234.4,490.5,234.8,490.3,235.2z M139.3,16c4.7,0.8,8.7-0.6,12.8-3.2
			c-0.8,4.6-4.7,3.8-7.8,5.8c0.9,0.4,1.9,0.9,2.8,1.3c-6-1.5-6-1.5-7.4-0.8c1.2,1.4,2.5,2.8,3.8,4.3c-2.2,0.9-5.6-1.1-7,2.8
			c1.5-0.1,2.8-0.3,4.3-0.4c-2.1,2.8,1.6,1.7,2.1,3.7c-1.5-0.3-2.6-0.7-3.8-0.8c-0.6-0.1-1.5-0.2-2,0.1c-1.2,1-2.3,2.2-3.4,3.3
			c0.7,0.2,1.7,0.9,2.6,0.8c2.2-0.1,4.4-0.5,6.5-0.7c1.2-0.1,2.8-0.4,3.5,0.2c2,1.6,3.4,0.4,5.4-0.8c-2.2-0.7-3.9-1.3-6.3-2.1
			c5.1-0.3,8.7-1.7,10.9-5.4c-0.5-0.9-0.9-1.7-0.8-2.5c0.1-0.4,0.9-1,1.4-1.1c2.7-0.2,5.4-0.3,7.3-2.9c0.5-0.6,1.4-1,2.1-1.4
			c1.6-0.9,3.3-1.7,5.2-2.7c-0.8-0.5-1.4-0.8-1.8-1.1c2.9-1,5.8-2,8.2-2.8c-2.9-4.7-7.6-1.1-11.3-3.4c-1.3-0.9-3.7-0.3-5.6-0.1
			c-3.6,0.3-7.1,0.8-10.7,0.9c-2.2,0.1-3.8,0.8-4.3,2.9c-1.8-0.3-3.6-0.8-5.3-0.7c-2.1,0.1-4.2,0.5-6.2,1.1
			c-0.7,0.2-1.5,1.4-1.5,2.2c0,0.6,1.2,1.5,2,1.6c1.6,0.1,3.2-0.3,5-0.5C139.8,14.5,139.5,15.2,139.3,16z M139.7,42.7
			c-4.1-0.3-5.8,0.7-6.6,3.8c-0.7,2.8,0.1,4.6,3.1,5c-0.1,0.9,0.2,2,0.7,2c2.9,0.5,5.9,1.1,8.8,1.2c2,0.1,4.6-1.2,6-0.4
			c3.2,2,5.9,4.9,8.8,7.4c1.5,1.3,0.9,2.3-0.4,3.3c-0.5,0.4-1.1,1-1.2,1.7c-0.5,2.4-1.5,3.1-4.1,2.6c-1.6-0.3-3-0.1-2.4,2.3
			c1.1,0,2.2,0.3,3.1-0.1c2.4-1,4.2-0.2,5.6,1.6c2,2.4,4.2,4.1,7.5,4.2c-0.5-1.2-1-2.3-1.8-4.2c1.6,0.9,2.4,1.5,3.3,1.8
			c0.8,0.3,1.8,0.3,2.7,0.4c-0.1-1.1,0.2-2.4-0.3-3.3c-0.6-1-2-1.5-2.8-2.5c-0.6-0.7-1.4-2.1-1.1-2.6c0.9-1.5,2.3-1.2,3.3,0.1
			c0.5,0.6,0.8,1.4,1.4,1.8c0.5,0.4,1.6,0.7,1.9,0.4c1.2-1.2,2.3-2.6,3.5-4c-4.1-2.3-7.7-4.3-11.5-6.4c0.8-0.7,1.3-1.2,2-1.8
			c-2.7-0.4-2.6-2.5-2.6-3.9c-1.4-0.6-2.9-0.8-3.5-1.6c-1.1-1.4-2.3-1.4-3.7-1.5c-0.8-0.1-1.9-0.8-2.3-1.6c-1.4-2.4-2.6-2.9-5.2-1.9
			c-1.4,0.5-3,0.9-4.6,1.4c0.2-1.4,0.3-2.5,0.4-3.6c5.1,0.9,5.1,0.9,6.7-0.7c-2.6-0.3-4.6-0.5-6.6-0.7c-0.7-0.1-1.5,0.2-2.1-0.1
			c-1.9-0.7-3.6-0.4-4.9,0.9c-1.4,1.6-1.4,3.5-0.2,5.4c0.3,0.5,0.3,1.2,0.6,2.3C137.5,48.7,137.1,46.1,139.7,42.7z M104.1,48.7
			c-0.1,0.2-0.2,0.4-0.3,0.7c-0.5-0.3-1.1-0.4-1.4-0.8c-1.9-3-1.9-3.1-5-1.3c-0.9-1.6-1.9-3-3.9-0.8c-1.1-3.5-3.4-2-5.5-1.5
			c0.3-0.5,0.6-0.8,0.9-1c0.3-0.3,0.7-0.5,1-0.7c-1.2-2.5-9.7-4-12.9-2.7c-0.6,2-1.1,3.5-1.6,5c-0.2,0.8-0.9,2-0.6,2.3
			c1.1,1.1,2.4,2.3,3.9,2.7c1.8,0.5,3.4-0.3,4.2-2.3c0.7-1.9,2.2-3,4.4-3.1c-0.7,1.4-1.3,2.6-2,4c1.6,0.5,2.8,0.9,4.3,1.3
			c-1.2,0.6-2.2,1.1-3.1,1.6c0.1,0.2,0.1,0.4,0.2,0.6c1.7,0,3.4-0.1,5,0c1.5,0.1,3.5-0.9,4.8,1.5c-2.9,0.2-5.4,0.4-7.9,0.6
			c0,0.3,0,0.5,0,0.8c0.9,0.4,1.9,0.8,2.7,1.4c4,2.4,8,3.2,12.4,0.9c1.1-0.6,2.8,0.1,4.3,0.2c1.4,0.1,2.8,0.2,4.3,0.3
			c0-0.2,0.1-0.5,0.1-0.7c-0.6-0.4-1.3-0.8-2.3-1.4c1.5-0.5,2.5-0.9,3.9-1.4c-5.7-1.6-6.5-6.1-7.2-10.3c-1.5,0-2.9,0-4.4,0
			C103.1,46.2,103.6,47.5,104.1,48.7z M494.4,212.4c0.5,0.8,0.5,1,0.6,1.1c2,0.8,4.1,1.6,6.1,2.5c3.8,1.6,4.4,2.9,3.4,6.1
			c1.4,0.5,2.8,0.9,4.2,1.5c1.4,0.7,2.6,1.5,3.8-0.6c1.3-2.3,3.7-2,5.5,0.3c1.2,1.6,2.9,1.6,4.4,0.1c-1.3-1.3-4.5-1.2-3.2-4.1
			c-3.1-3.5-6.9-5.4-11.2-6.8c-4.7-1.5-4.6-2-7.7,0.8C498.4,213.1,496.6,212.8,494.4,212.4z M470.1,196.1c-2.5,2.2-4.7,4.1-7,5.9
			c-1.5,1.2-3.3,2-4.8,3.1c-0.6,0.4-1.3,1.2-1.3,1.8c-0.1,2.6,2.9,6.1,5.4,6.7c1.4,0.3,2.7,0.8,4.1,1c1.2,0.1,2.1-0.3,2.1-1.8
			c0-0.7,0.3-1.6,0.7-2.2c1.5-2.6,3.5-5,1.6-8.3c-0.2-0.4,0-1.2,0.2-1.6C472.6,198,472.4,197.3,470.1,196.1z M359.9,229.7
			c-1.3,1.9-2,3.4-3.2,4.6c-1.2,1.2-3.1,1.8-4.1,3.1c-0.9,1.1-1.1,2.8-1.4,4.3c-0.3,1.3-0.2,2.6-0.3,3.8c-0.2,2.2-0.5,4.5-0.5,6.7
			c0,0.5,0.7,1.2,1.2,1.5c2.1,1.3,4.4,0,5-2.8c0.5-2.3,1-4.6,1.7-6.8C359.8,239.7,360.8,235.1,359.9,229.7z M391.2,32.6
			c-0.6-1.6-1.1-2.1-2.7-1.5c-3.4,1.2-6.8,2.1-10.3,3.1c-1.4,0.4-2.7,0.9-4,1.5c-5.6,2.7-6.4,9.3-10.7,13c-0.1,0.1,0.5,1.2,0.5,1.2
			c2.2-0.6,2.5,1.7,3.8,2.3c0.9,0.5,2.1,0.4,3.6,0.6c-0.6-1.2-0.9-1.8-1.2-2.3c-2.2-3.4-2.2-3.4,0.5-6c0.7-0.7,1.4-1.3,2-2
			c2.4-3.2,5.4-5.4,9.3-6.7C385.1,34.8,388.1,33.7,391.2,32.6z M139.5,21.7c-1.1-0.8-1.9-1.5-2.8-2.2c-0.8-0.6-1.6-1.1-2.5-1.6
			c-1-0.6-2.2-0.9-3.1-1.6c-3.3-2.8-3.1-2.6-7.2-0.7c-2.3,1.1-1.3,1.7,0,2.6c-0.8,0.2-1.5,0.4-2.2,0.6c0,0.3-0.1,0.6-0.1,0.8
			c2.1,0.7,4.1,1.3,6.6,2.1c-0.5,0.3-1.2,0.9-2.5,1.8c2.1,0.8,4,2.4,5.5,2C134.1,24.8,136.8,23,139.5,21.7z M273.9,106.1
			c-0.8,0.7-1.5,1.2-2.7,2.2c3.6-0.6,6.5-1.1,8.9-1.5c0.5-1.6,0.9-2.9,1.2-4.2c-3.6,0.1-3-3.4-4.3-5.3c-2.4-3.2-2.3-3.3-1.7-6.1
			c-1.4-0.5-2.7-1-4.5-1.6c-1.6,1.5-0.9,6.7,1.9,8.3c1.5,0.9,2.3,2,0.9,3.2C271.6,102.9,271.9,104.4,273.9,106.1z M450.2,218.6
			c0.5-0.2,0.9-0.3,1.4-0.5c-0.1-1.6,0.3-3.4-0.4-4.7c-1.3-2.6-3.2-4.8-4.9-7.2c-0.5-0.7-1.3-1.3-2-1.9c-1.4-1.2-2.9-2.4-4.3-3.7
			c-1.5-1.4-3-2.6-4.9-2.2c3.3,5,6.5,10.2,10,15.2C446.5,215.5,448.5,216.9,450.2,218.6z M122.2,32.4c1.4,0.4,2.2,0.8,2.9,0.7
			c2.6-0.2,3.4,1.2,3.8,3.4c0.1,0.8,0.6,2,1.1,2c3.2,0.5,6.4,0.9,9.5,1.2c2.1,0.1,4.2,0.1,6.3-0.2c0.9-0.1,2-0.8,2.3-1.6
			c0.5-1.2-0.1-2.1-1.7-2.1c-1.6,0.1-3.1,0-4.7,0c-2.3,0.1-4.6,0.4-6.9,0.1c-1-0.1-2.2-1-2.9-1.8C130.3,32.1,125.3,30.8,122.2,32.4z
			 M297.3,19.5c-0.1,0.3-0.2,0.6-0.2,1c0.5,0.6,1.2,1.2,1.4,1.9c0.8,2.3,1.6,4.4,4.5,2.2c0.4-0.3,1.2-0.2,1.8,0
			c0.6,0.2,1.4,0.6,1.6,1.1c0.2,0.5-0.2,1.4-0.6,1.8c-0.9,0.7-2,1.2-3.1,1.8c2.6,2.7,3.3,2.8,4.7-0.3c0.7-1.5,1.6-2.4,2.7-3.4
			c1.8-1.7,2.4-1.6,3.5,0.8c1,2.4,2.1,2.7,4.9,1.5c-4.6-2.6-8.1-6.5-13.3-8.8c0.1,1.7,0.2,2.6,0.2,3C302.7,21.1,300,20.3,297.3,19.5
			z M560.8,288.6c-1.8,1.6-3.2,3.1-4.9,4.2c-2.4,1.7-5.1,3-7.5,4.6c-0.8,0.6-1.7,2-1.5,2.8c0.3,1.2,1.3,2.6,2.3,3
			c0.8,0.3,2.5-0.4,3.3-1.1c3.7-3.8,7.2-7.8,10.8-11.8C562.3,289.6,561.3,288.9,560.8,288.6z M244.5,68.3c-0.6-0.5-1.2-1.6-2.1-1.8
			c-0.7-0.1-1.6,0.9-1.9,1c1.1,1.6,1.8,2.7,2.5,3.9c1,1.8,2.3,3.4,4.5,3c2.3-0.4,4.5-1.3,6.6-2.1c1.3-0.5,2.3-1.6,1.8-3.2
			c-0.5-1.5-1.6-2.4-3.3-2.2C250,67.3,247.2,67.8,244.5,68.3z M101.6,36c-2,0.5-3.5,0.2-4.9-0.9c-2-1.6-4.3-2.3-6.8-1.6
			c-0.2,1.2-0.5,2.4-0.8,4.1c1.3-0.2,2.4-0.5,3.5-0.6c1.3,0,2.6,0.2,4.7,0.3c-1.7,0.8-2.8,1.2-4.3,1.9c2.8,1.1,4.8-0.3,6.9-1
			c2.1-0.6,4.4-0.9,6.6-1.3c0-1.5,0.5-3.1-2-2.3c-0.5,0.2-1.4-1-2-1.5c-0.6-0.4-1.1-0.9-1.7-1.4c-0.1,0.8-0.3,1.6-0.2,2.4
			C100.6,34.7,101.1,35.1,101.6,36z M500.2,144.5c1.4-0.7,2.5-1.5,3.8-2c2.2-0.8,4.2-1.5,4.6-4.3c0.2-1.5,0.8-3.1,1.4-4.5
			c0.8-2,0.3-3-2.1-3.8c-0.1,4.1-1.7,7.4-5.9,8.8c-0.2,0.1-0.4,0.3-0.4,0.6c-0.5,2-2,1.8-3.6,2c-1.4,0.1-2.7,0.7-4,1.1
			c0.1,0.3,0.2,0.6,0.3,1c0.8-0.1,1.7,0,2.4-0.2C498.7,142.3,500,142.8,500.2,144.5z M436.9,18.4c0.2-1.3,0.8-2.4,0.4-3
			c-0.6-1.1-1.5-2.1-3.3-1.4c-3.7,1.3-3.7,1.2-3.2,4.8c1.1-0.3,2.1-0.6,3.2-0.9c-1.2,1.5-2.5,3.1-0.2,4.1c2.1,1,4.7,1,7,1.5
			c0.4-1.1,0.8-1.9,0.8-2.7c0-0.7-0.5-1.7-1.1-1.9C439.1,18.6,437.7,18.5,436.9,18.4z M565.8,290.5c2-1.6,4-3,5.7-4.7
			c0.7-0.7,2.2-2.3,0.4-3.2c-2.4-1.1-3.2-3.3-4.4-5.3c-0.4-0.7-1.1-1.4-1.6-2.1c-0.2,0.1-0.5,0.3-0.7,0.4c0.2,0.8,0.1,1.8,0.5,2.4
			c1.8,2.4,1.3,4.3-0.4,6.6C563.8,286.5,564.5,288.6,565.8,290.5z M113.3,46.7c1,0.8,1.7,1.3,2.4,1.9c1.6,1.5,4.1,1.6,5.4-0.1
			c0.4-0.5-0.2-1.9-0.5-2.7c-0.2-0.4-1-0.4-1.6-0.7c0.6-0.9,1.1-1.5,1.6-2.2c-2.2-2.1-4.1-0.2-6.3-0.1c0.7,0.9,1.2,1.5,1.8,2.2
			C115,45.6,114.2,46.1,113.3,46.7z M448.6,204.6c-0.5-1.8-0.8-3.4-1.4-4.9c-0.5-1.2-1.1-2.8-2.2-3.3c-1.9-0.9-2.6-2.3-3.1-4.2
			c-0.2-0.6-0.9-1.2-1.4-1.6c-0.2-0.1-1.2,0.6-1.1,0.7c0.2,0.7,0.5,1.5,1,1.9c1.9,1.8,3,3.9,3.1,6.7
			C443.6,202.8,446,204.7,448.6,204.6z M186.9,106.3c-1.4,2.7-2.8,5.4-4.3,8.1c2.5,0.3,4.8,0.6,7.1,0.6c0.5,0,1.3-1.1,1.5-1.9
			c0.2-0.7-0.2-1.6-0.4-2.4C188,111.5,187.4,110.7,186.9,106.3z M262.9,105.1c4.2,0.3,5.7-0.9,6-4.7c0.1-0.6,0.4-1.1,0.4-1.7
			c0-0.6-0.2-1.6-0.6-1.7c-0.7-0.2-1.6,0-2.2,0.3C263.5,99,263.5,102.1,262.9,105.1z M322.6,18.8c-3.5-1.4-11.2-1.4-12.7,0
			C315.5,22.4,320.5,22.4,322.6,18.8z M510.6,34.8c-1.5-0.1-3.1,0.3-4-0.3c-1.5-1.1-2.4-0.3-3.3,0.6c-0.9,1-1.1,2.4,0.3,3
			c1.1,0.5,2.5,0.4,3.7,0.3C510.9,38.1,510.9,38,510.6,34.8z M139.4,68c-0.3,0.1-0.5,0.2-0.8,0.3c0.2,2,0.2,4.1,0.6,6.1
			c0.3,1.2,1.5,1.7,2.2,0.4c1-2,2.4-2.2,4.4-1.5c0.1-0.3,0.1-0.5,0.2-0.8C143.8,71,141.6,69.5,139.4,68z M79.7,33.5
			c2.5,1,4.4,1.3,5.8-1.1c0.1-0.2,0.8-0.5,1-0.4c3,1.9,2.6-0.9,3.4-2.3C85.3,28,83,31.5,79.7,33.5z M510.9,121.1
			c-0.7,1.6-1.5,3.2-2.2,4.8c2.7,1.2,5.1,0.6,6.9-1.8C514,123,512.3,122,510.9,121.1z M116.6,27.2c-0.1-0.6,0.1-1.6-0.3-2.1
			c-2.2-2.4-5.1-3-7.9-3.1c0.9,1.1,1.6,2.5,2.8,3.3C112.6,26.2,114.3,26.4,116.6,27.2z M511.9,101.6c-0.2-0.1-0.5-0.1-0.7-0.2
			c-2.4,3.4,1.4,7.3,0.1,10.9c0.9-1,2.3-2.1,2.2-3.2C513.3,106.6,512.5,104.1,511.9,101.6z M450.4,24.9c-3.9-3.8-6.2-3.2-8.5,1.5
			c1.5-0.3,2.8-0.6,4.2-0.8C447.6,25.3,449,25.1,450.4,24.9z M115.6,31.8c0.1,1.2,0.1,2.4,0.2,3.5c0.1,0.8,0,2.1,0.3,2.2
			c0.8,0.2,1.9,0.2,2.6-0.2c0.6-0.4,1.1-1.4,1.1-2.2c0.1-0.8-0.4-1.7-0.7-2.8c-0.6,0-1.2,0.1-1.7,0C116.7,32.2,116.1,32,115.6,31.8z
			 M477.5,210.1c-1.1,0.1-3.3,0-3.3,0.2c-0.2,2.2-0.2,4.3-0.2,6.5c0.3,0,0.6,0.1,0.8,0.1c0.6-1.5-0.2-4.1,2.6-3.9
			C477.5,212.1,477.5,211.3,477.5,210.1z M476.9,182.3c0.3-1.6,0.6-3.1,0.9-4.5c0.1-0.9,0.5-2,0.1-2.6c-0.3-0.5-1.5-0.5-2.8-0.8
			C475.9,177.4,473.7,180.3,476.9,182.3z M484.2,191.2c-1.5,0.8-2.9,1.5-3.9,2.1c0.7,1.1,1.6,2.5,2.6,4
			C484.4,195.3,486,193.6,484.2,191.2z M515.7,286.9c0.8,1.6-0.3,5,3.7,3.9c0-1.6,0-3.1,0-4.7C518,286.3,516.9,286.6,515.7,286.9z
			 M452.4,219.4c-0.1,0.3-0.1,0.6-0.2,0.9c3.4,0.8,6.8,1.6,10.4,2.5c-0.3-1.2-0.4-1.7-0.5-1.9C458.7,220.3,455.5,219.9,452.4,219.4z
			 M155.7,171.4c0.1-0.3,0.3-0.6,0.4-0.8c-3.5-2.9-6.7-4.5-9.9-4.3C149.3,167.9,152.5,169.6,155.7,171.4z M166.2,174.1
			c0-0.4,0.1-0.8,0.1-1.2c-1.6-0.4-3.1-1-4.7-1.2c-0.4-0.1-1.3,0.8-1.2,1.1c0.1,0.6,0.7,1.6,1.2,1.6
			C163.2,174.4,164.7,174.2,166.2,174.1z M410.8,191c-0.4,0.1-0.9,0.1-1.3,0.2c0,1.6-0.1,3.2,0.1,4.7c0,0.3,1,0.7,1.4,0.6
			c0.5-0.1,1.3-0.9,1.2-1.2C411.9,193.8,411.3,192.4,410.8,191z M549.6,46.1c1.5-0.5,3-1,4.4-1.5c-0.3-0.6-0.5-1.7-0.9-1.8
			C551,42.2,549.7,43.1,549.6,46.1z M119.4,23.9c-0.1,0.2-0.2,0.4-0.3,0.7c0.6,0.8,1.1,1.8,1.8,2.3c0.6,0.4,1.6,0.1,2.4,0.1
			c-0.3-0.7-0.4-1.8-0.9-2.1C121.5,24.3,120.4,24.2,119.4,23.9z M121.9,37.6c0.1,0.4,0.2,0.7,0.3,1.1c1.2,0.1,2.5,0.1,3.7,0.2
			c0.2-0.2,0.3-0.4,0.5-0.6c-0.5-0.8-1.1-2.2-1.6-2.1C123.9,36.2,122.9,37,121.9,37.6z M497.4,211.8c0.2-0.5,0.5-1,0.7-1.5
			c-1.1-0.5-2.3-1-3.4-1.5c-0.2,0.6-0.5,1.2-0.7,1.8C495,210.9,496.2,211.3,497.4,211.8z M94.5,27.7c2.7,2.1,4.1,1.6,4.8-1.7
			C97.7,26.6,96.1,27.2,94.5,27.7z M524.7,212.2c-1.8,1-3.2,1.9-5.1,3C523.3,216,523.7,215.8,524.7,212.2z M492.1,149.1
			c0.3,0.1,0.6,0.1,0.9,0.2c0.2-1.3,0.5-2.5,0.4-3.8c0-0.2-1.4-0.4-2.4-0.7C491.5,146.5,491.8,147.8,492.1,149.1z M156.3,63
			c0-0.7,0-1.5,0-3.1c-1.5,1.1-2.5,1.8-3.4,2.4c0.2,0.2,0.3,0.5,0.5,0.7C154.3,63,155.2,63,156.3,63z M526.9,211.2
			c1.2-2.8,0.8-3.6-2.4-3.9C525.4,208.6,526,209.7,526.9,211.2z M557.7,248.3c0.2-0.3,0.5-0.6,0.7-0.9c-1-0.7-1.9-1.4-2.9-2
			c-0.2-0.1-0.8,0.4-1.6,0.8C555.4,247.1,556.6,247.7,557.7,248.3z"/>
		<path class="st1" d="M575.3,61.6c-1,0.9-2.1,1.7-2.9,2.6c-0.4,0.5-0.5,1.3-0.5,2c0,0.9,0.2,1.8,0.4,3.3c-1.5-0.7-2.6-1.1-3.7-1.7
			c-1.9-0.9-3.8-1.7-5.6-2.8c-0.8-0.5-1.3-1.6-2.1-2.3c-0.7-0.6-1.6-1.1-2.4-1.6c-0.1,0.9-0.1,1.8-0.1,2.7c0,0.3,0.3,0.6,0.4,0.9
			c-2.9,3.5-2.9,3.4,0.3,6.7c0.5,0.5,1.1,1.1,1.3,1.8c0.2,0.5,0,1.2,0,1.8c-0.5,0-1.1,0-1.6-0.1c-0.4-0.1-0.8-0.6-1.1-0.5
			c-0.6,0.2-1.2,0.6-1.8,1c-2.1,1.3-5,1.7-5.5,4.9c-0.2,1.2-0.9,2.2-1.5,3.5c-1.2-1.5-2.1-2.7-3.2-4.1c-2.4,1.5-4.7,2.8-6.8,4.5
			c-2,1.6-1.8,4-0.1,6.1c2.2,2.8,2.2,6.3,0.5,9.5c-1.6,3-2.8,6.3-4.4,10.1c-0.9-1.2-1.9-1.9-2.3-2.9c-1.3-3.5-2.7-6.9-3.4-10.6
			c-1-5.1,1.8-9.1,4.5-13.1c1-1.4,1.8-2.8,2.5-4.3c0.2-0.5-0.2-1.4-0.3-2.1c-0.6,0.4-1.4,0.7-1.9,1.2c-0.4,0.4-0.6,1.2-1,2.2
			c-0.6-0.7-1-1.4-1.5-1.7c-1.3-0.8-2.7-2.2-4-2.1c-1.9,0.1-2.5,2-2.7,3.9c-0.2,1.5-0.8,3-1.5,4.5c-0.8,1.8-2.2,2-4,1.3
			c-3.7-1.4-8.8-0.6-11.1,3.2c-1,1.6-2.8,2.7-4.2,4c-1.4,1.2-2.8,2.4-4.3,3.6c1,1.2,1.6,2.2,2.4,2.8c0.7,0.5,1.9,1,2.4,0.8
			c1.4-0.8,2.8-1.6,3.8,0c0.7,1.2,1,3,0.8,4.5c-0.2,2.1-0.7,4.1-1.4,6.1c-0.5,1.7-1.3,3.3-2.2,4.8c-1.1,1.7-2.5,3.2-3.7,4.9
			c-1.6,2.5-3.3,4.3-6.8,4.3c-2,0-4.3,1.5-5,4.2c-0.4,1.4-2,2.4-3.3,3.7c2.4,2.2,3.9,5,2.7,8.3c-0.4,1-2.4,1.4-4.1,2.3
			c0.3-2.7,0.5-4.6,0.7-6.6c-0.9-0.5-1.8-1-2.3-1.3c-0.3-1.3-0.7-3.3-0.8-3.2c-1.9,0.2-3.8,0.7-5.6,1.1c0.1-0.4,0.5-1.3,0.7-2.3
			c0.1-0.4,0.1-1.1-0.2-1.2c-0.4-0.2-1.1-0.3-1.4,0c-2,1.4-3.8,2.9-5.9,4.5c1.1,1.1,2.2,2.3,3.1,3.3c1.3-0.3,2.5-0.5,3.6-0.7
			c0.1,0.2,0.2,0.4,0.3,0.7c-1.1,1.2-2.3,2.2-3.2,3.5c-0.4,0.6-0.2,1.7,0.1,2.5c0.7,2.5,4,4.4,1.7,7.7c1.8,1.3,1.6,2.6,0.3,4.3
			c-1.1,1.3-1.6,3-2.5,4.4c-3.6,5.4-8.8,8-15.2,8.2c-2.3,0.1-4.3,0.5-6,2.2c-1.7,1.8-1.8,3.8-0.1,5.6c0.7,0.7,1.5,1.4,2.2,2.2
			c3.2,3.5,3,6.6-0.2,10c-1,1-1.7,2.4-2.5,3.5c-3.6-3.4-6.4-6-9.3-8.7c-0.7,2.1-1.3,3.7-2,5.6c-1-4.1-1.8-7.7-2.8-11.6
			c-1.6,0.7-3,1.3-5.2,2.2c1.6-4.4-1-6.7-2.8-9.4c-0.7-1-1-2.2-1.6-3.7c-2.6,2.3-6.7,1.2-9.2,5c-2,3.2-5.7,5.2-8.6,7.9
			c-0.6,0.6-0.7,1.7-0.9,2.5c-0.8,3.2-1.5,6.3-2.5,9.5c-0.2,0.6-1.3,1.3-1.9,1.3c-0.6-0.1-1.4-0.9-1.6-1.6c-1-2.6-1.7-5.3-2.9-7.8
			c-2-4.1-2.8-8.3-2.9-12.8c0-0.9-0.4-1.8-0.7-3c-1,1.3-1.4,3.6-3.6,2c-0.3-0.2-0.8-0.6-0.8-0.9c-0.4-3.4-3.8-4.3-5.5-6.7
			c-0.4-0.5-1.5-0.5-2.3-0.6c-3.5-0.2-7-0.3-10.5-0.6c-0.6,0-1.6-0.4-1.7-0.7c-0.7-2.7-2.2-1.9-4.1-1.4c-2.5,0.6-4.1-1.5-5.7-3
			c-0.7-0.7-0.9-2-1.7-2.5c-0.9-0.6-2.2-0.5-3.3-0.7c-0.1,0.8-0.6,1.8-0.3,2.4c1.3,2.5,2.6,5,4.4,7.1c2.6,3.1,4.9,2.9,7.6,0.2
			c1.6,1,3.2,1.9,4.8,3c1.4,1,1.8,2.4,0.8,3.8c-1.9,2.5-3.5,5.5-6,7.2c-4.5,2.9-9.5,5-14.3,7.4c-1.4,0.7-2.9,1.1-4.8,1.8
			c-0.4-2.3-0.5-4.5-1.2-6.4c-0.9-2.5-2.4-4.7-3.7-7.1c-0.9-1.7-1.7-3.4-2.5-5.1c-0.3-0.6-0.3-1.4-0.6-1.9c-2.2-3.4-4.5-6.7-6.8-9.9
			c-0.6,0.8-1.3,1.5-1.9,2.2c2,4.4,4,8.9,5.9,13.4c1.4,3.1,2.5,6.3,4,9.3c0.5,1,2.1,1.4,2.8,2.3c1.3,1.6,2.4,3.3,3.4,5.2
			c0.9,1.7,1.6,2.5,3.7,1.8c2.8-0.9,5.8-1.3,9-2c-0.1,4.3-2.8,7.2-4.1,10.7c-2.1,5.7-7.7,8-11.2,12.4c-4.2,5.3-5.5,10.3-2.8,16.6
			c1,2.5,1.1,5.5,1,8.2c-0.1,1.3-1.6,2.6-2.7,3.6c-1.6,1.4-3.7,2.4-5.2,3.9c-1.5,1.4-2.2,3.4-1,5.5c1.5,2.5,0.4,4.4-1.6,5.6
			c-1.9,1.1-2.4,2.7-2.7,4.6c-0.8,5.6-4.7,9.3-8.8,12.3c-2,1.4-5.1,1.3-7.8,1.7c-1.8,0.2-4.1,0.7-5.3-0.2c-1-0.7-0.7-3.2-1.2-4.8
			c-0.5-1.7-1-3.5-2.1-4.8c-2.8-3.4-3-7.3-3.6-11.4c-0.4-2.6-1.8-5.1-3-7.5c-1.9-3.7-2.3-7.5,0.1-10.8c2.1-2.9,1.5-5.6,0.8-8.5
			c-0.9-3.9-2.2-7.5-5-10.6c-1.1-1.2-1.4-3.4-1.5-5.2c-0.1-1.9,0.3-3.9,0.5-5.8c0.2-2.3-1.3-3.7-3.4-3c-1.9,0.7-2.9,0.3-4-1.3
			c-1.6-2.3-3.3-2.5-6.8-1.1c-2.8,1.1-5.6,2.4-8.8,1.3c-1-0.3-2.3,0.3-3.4,0.6c-2.2,0.7-4,0.3-5.6-1.3c-1-1-2.2-1.9-3.3-2.8
			c-0.4-0.3-1.1-0.5-1.2-0.9c-0.8-3.2-3.4-5-5.3-7.4c-1.6-2-1.9-4.2-1.3-6.9c0.7-2.7,0.9-5.7,0.6-8.4c-0.5-4.3,1.1-7.8,3.5-11
			c2-2.6,4.6-4.8,7-7.1c1.1-1,1.6-1.9,1-3.5c-0.3-0.9,0.4-2.4,1.1-3.3c1.4-1.7,3.1-3.1,4.3-5c0.2,0,0.4-0.2,0.5-0.1
			c3.8,1.9,7.3,0.5,10.8-1.2c4.9-2.3,10.1-1.2,15.2-1.5c0.6,1.9,1.8,3.7-1.4,5.7c2.5,1,4.3,1.8,6.2,2.5c0.3,0.1,0.8-0.1,1,0.1
			c1.9,2.1,4.8,2.7,7,4.3c1.9,1.4,2.6,0.5,3.2-1c1.8-4.2,1.7-4.1,6.1-2.2c2.6,1.1,5.3,1.9,8.1,2.7c0.5,0.1,1.1-0.4,1.7-0.5
			c1.4-0.2,3-0.7,4.3-0.2c2,0.7,3,0,3.6-1.6c1.1-3.1,1.9-6.2,2.8-9.3c-1.8-1-3.1-1.9-4.4-0.1c-0.2,0.3-1,0.5-1.4,0.3
			c-1.8-0.7-3.3-0.9-5.2-0.1c-0.8,0.3-2.8-1.2-3.5-2.4c-1-1.8-1.3-4.1-2-6.1c-0.2-0.5-1.1-1.2-1.5-1.1c-1.6,0.5-3.2,1.2-5,2
			c1.6,2.6,2.5,4.7-0.4,7.1c-1.3-3-2.7-5.9-3.5-8.9c-0.5-1.7-1-2.8-2.5-3.8c-2.2-1.5-4.2-3.3-6.4-5c-0.7-0.6-1.6-1.7-2.3-1.6
			c-0.8,0.1-1.6,1.2-2.6,2c3.3,3.3,6.3,6.2,9.4,9.2c-0.6,0.1-1.8,0.8-2.4,0.4c-2.6-1.6-5.6-3.1-7.4-5.5c-2.7-3.5-3.8-4-7.4-1.5
			c-0.6,0.4-1.8,0.6-2.4,0.3c-2.1-1-3.4-0.4-3.7,1.7c-0.2,1.6-1.3,2.1-2.3,2.9c-1.4,1.2-2.8,2.8-3.4,4.5c-1,3.2-1.7,4.2-5.2,4.8
			c-0.7,0.1-1.5,0.2-2.2,0.6c-1.1,0.6-1.9,0.7-2.5-0.6c-0.2-0.4-0.9-0.8-1.4-0.9c-2.2-0.6-2.9-2-2.7-4.2c0.3-2.4,0.3-4.8,0.6-7.1
			c0.1-0.7,1-1.8,1.5-1.8c2.7,0,5.5,0.2,8.2,0.4c2.2,0.1,2.5-1.5,2.5-3.1c0.2-3.4-1.4-5.6-5.2-7.8c0.3-0.2,0.5-0.5,0.8-0.5
			c5.5-0.7,8.7-5,12.5-8.4c2.5-2.3,4.6-4.8,8.4-4.5c-1.7-7.4-1.7-7.4,2-9c-0.1,1.4,0.1,2.8-0.4,3.7c-0.8,1.4-0.8,2.3,0.3,3.4
			c1,1.1,2,1.9,3.5,0.9c0.3-0.2,1-0.4,1.1-0.3c1.9,2.1,3.6,0.6,5.5-0.1c1.4-0.5,3.1-0.4,4.7-0.5c0,0.2,0.1,0.5,0.1,0.7
			c0.8-0.4,1.7-0.8,2.3-1.4c0.5-0.5,0.8-1.4,1-2.1c0.2-1.2,0-2.5,0.4-3.7c0.3-1.2,1.3-1.3,2.4-0.6c0.6,0.4,1.3,0.4,2,0.6
			c0.1-0.9,0.4-1.7,0.4-2.6c0-0.9-0.6-2.5-0.3-2.7c1-0.5,2.3-0.5,3.4-0.8c1.8-0.3,3.5-0.6,5.3-1c0-0.4,0.1-0.8,0.1-1.2
			c-0.9-0.4-1.8-1-2.7-1c-1.4,0-2.9,0.3-4.2,0.8c-2,0.8-3.8,1.2-5.3-0.6c-1.7-2-1.6-5.5,0.1-7.3c1.6-1.8,3.3-3.4,4.8-5.2
			c0.3-0.4,0.1-1.8-0.4-2.1c-2.4-1.7-5.7-0.3-6.3,3c-0.3,1.7-1.1,2.4-2.3,3.2c-1.2,0.8-2.2,1.9-3.1,3c-1.6,2-1.2,4.1,0.5,5.9
			c0.6,0.6,0.6,2.8,0.3,2.9c-2.9,1.3-2.1,4.3-3.3,6.3c-0.9,1.4-2.9,2.1-4.4,3.1c-0.1,0-0.7-0.7-0.9-1.2c-1.1-2.8-2.1-5.6-3.2-8.8
			c-1.2,0.9-2.3,1.8-3.4,2.6c-2.2,1.7-4.1,1-4.8-1.7c-0.3-1.2-0.6-2.5-1-3.7c-1.2-3.7,1.5-5.5,3.9-6.9c4.4-2.6,7.6-6.3,10.2-10.7
			c0.9-1.5,2.5-2.5,3.6-3.8c0.9-1,1.5-2.2,2.4-3.2c0.7-0.8,1.5-2.2,2.3-2.2c3.8,0,6.6-2.2,9.7-4.3c0.1,0.6,0.2,1.2,0.3,1.5
			c2.8-0.2,5.6-0.3,8.5-0.5c0,0.3,0.1,0.6,0.1,0.9c-0.5,0.4-0.9,0.9-1.5,1.4c0.4,0.3,0.7,0.7,1,0.8c2.3,0.7,4.6,1.5,7,2
			c3.1,0.6,6.1,1.3,8.5,3.7c0.9,0.9,1.9,1.6,3,2.5c-5.3,5.2-10,0.9-15,0.3c2.7,1.4,3.5,3.7,3.9,6.4c0.3,2.1,2.4,2.2,4,2.8
			c0.2,0.1,0.9-0.3,0.9-0.5c0.1-0.4,0-1-0.3-1.3c-0.2-0.3-0.7-0.4-1.1-0.6c0.1-0.3,0.1-0.6,0.2-0.8c0.9,0.2,1.8,0.4,2.7,0.7
			c1.6,0.6,2.6,0.5,2.8-1.5c0.3-2.2,2.3-3.6,4.6-3.3c0.6,0.1,1.6,0.1,1.7-0.2c0.2-0.6,0.1-1.4,0.1-2.2c-0.1-1.3-0.2-2.7-0.3-4.6
			c1.4,0.4,2.4,0.7,3.7,1.1c-1,1.1-1.6,1.8-2.2,2.5c2,2.9,2.8,2.8,4.9,0.3c1-1.1,2.5-1.9,3.9-2.5c1.4-0.6,3-0.9,4.6-1.3
			c0.4,0.5,0.9,1.1,1.3,1.7c3-0.7,5.7-3.6,9.1-0.9c0.7-0.5,1.6-1.3,2.5-2.1c-0.4-0.6-0.9-1.2-1.5-2c5.4-1.1,9.3,1.8,13.3,4.2
			c1.5-0.8,1.6-1.8,0.1-2.9c-1.4-1-1.8-2.2-1.9-4.1c0-2,0.6-3,1.7-4.3c0.9-1,1.2-2.5,1.8-3.9c0.4,0.1,0.7,0.3,1,0.3
			c3.1,0,4.4,0.5,3.4,4.4c-0.7,2.9,0.6,6.4,1.3,9.6c0.4,1.9-1.5,5-3.9,5.6c-0.6,0.1-1.2,0.1-1.8,0.1c0,0.3,0,0.6-0.1,0.9
			c1.5,0.1,3.2,0.6,4.4,0.1c2-0.9,3.7-2.4,3.8-5c0-0.7,0.1-1.7,0.5-2c1.1-0.8,2.3-1.2,3.2,0.4c0.3,0.5,0.9,0.8,1.8,1.5
			c-0.7-3.2-0.7-3.2-6.2-3.9c-0.3-2.3-0.8-4.5-0.8-6.8c0-0.8,1.1-1.6,1.9-2.7c0.5,1.8,0.9,2.9,1.1,3.9c1.6,0,3.2,0,5.2,0
			c-1.1-0.7-1.9-1.2-2.9-1.8c0.7-0.3,1.2-0.6,1.8-0.8c-0.3-0.7-0.5-1.4-0.8-2.1c2.9-1,4.9,3.1,7.7,1.9c-0.9-1.7-1.7-2.9-2.2-4.2
			c-0.1-0.3,0.6-1.4,1-1.4c2.9-0.3,5.9-0.4,9.2-0.7c-0.3,0.3-0.1,0.2-0.1,0.1c0-5.7,1.4-5.8,8.3-7.2c3-0.6,6.1-0.4,9-1.2
			c2.2-0.6,5-0.6,6-3.7c0.3-0.9,2.1-1.3,3.2-1.9c1.5-0.8,2,0,3.1,1.1c1.4,1.4,3,4.3,6.2,2.2c0.8-0.6,2.8-0.1,3.9,0.5
			c1.2,0.7,2.5,2,3,3.3c0.7,2-1.4,2.4-2.6,3.1c-2.6,1.6-5.3,3-7.9,4.6c-0.6,0.4-1.1,0.9-1.5,1.6c2.4-1.4,5.9,0,7.7-3.2
			c2.4,0.7,4.9,2.1,8,1c1.4-0.4,3.3,0.8,5,1.2c1.8,0.5,3.6,1.2,5.5,1.5c0.7,0.1,2.2-0.5,2.3-1.1c0.8-2.7,2.2-1.9,3.9-1.1
			c0.7,0.3,1.5,0.2,2.3,0.3c1.9,0.1,3.1,1,2.7,3.1c-0.6,3.3,1.2,5,4.1,6.1c0.9-2.2,1.8-3.5,4.9-2.3c2.2,0.9,5.2,0,7.8-0.3
			c0.5-0.1,1-0.9,1.4-1.5c0.6-0.8,1.2-2.2,1.8-2.3c1.8-0.2,4.1-0.4,5.4,0.6c2.8,2.1,2.5,2.4,5.3-0.1c0.7,0.9,1.2,2,2,2.7
			c0.6,0.5,2.1,1.1,2.3,0.9c2.7-3.2,5.8-1.3,8.7-0.8c0.6,0.1,1.2,0.2,1.7,0.4c1.3,0.4,2.3,0.3,2.7-1.4c0.3-1.5,1.4-1.8,2.7-1.4
			c4,1.2,8.1,2.2,12.1,3.5c1.5,0.5,2.8,1.5,4.1,2.3c0.7,0.4,1.2,1.1,1.9,1.3c3.1,0.8,5.5,2.4,7.2,5.1c0.1,0.2,0.5,0.5,0.6,0.4
			c3.3-1.7,6.3,1.6,9.5,0.5C575.3,60.9,575.3,61.3,575.3,61.6z"/>
		<path class="st1" d="M6.1,67.8c0.3,0,0.6,0.1,0.8,0c2.4-2.2,4.6-1.8,6.7,0.6c1.4-0.8,2.7-1.7,3.9-2.4c-3.4-2-6.7-4-9.7-5.8
			c2.2-1.6,3.9-3,5.8-4.1c3.2-1.8,6.6-3.5,9.9-5.1c0.3-0.1,0.7-0.1,1,0c3.7,1,7.4,2.1,11.1,2.9c4.9,1,9.8,1.6,14.7,2.6
			c2.3,0.5,4.5,1.5,6.9,2.3c1-1.8,2.4-3,4.8-1.5c0.7,0.4,2.1-0.1,3.1-0.4c3.1-1.1,6.1-3.2,9.1,0.3c0.6-0.9,1-1.5,1.5-2.2
			c0.4,2,1.2,2.3,2.9,1.1c0.7-0.5,2.4-0.2,3.4,0.2c2.8,1.1,5.4,2.5,8.5,2.2c0.7-0.1,1.4,0.4,2.4,0.8c-0.7,0.8-1.2,1.4-2.2,2.6
			c2.1,0.2,3.7,0.4,5.3,0.4c2.5-0.1,5.2-1,6.7,2.2c0.1,0.2,0.8,0.2,1.2,0.2c-0.2-4.1,1.8-5.4,5.4-3.6c3.3,1.7,6.6,1.5,10.6,0.7
			c-0.4-1.3-0.8-2.6-1.2-3.9c-0.3,0-0.6-0.1-0.9-0.1c1-0.6,2-1.7,2.8-1.6c0.9,0.2,1.5,1.6,2.4,2.7c-1.1,0.3-1.7,0.5-2.3,0.7
			c0.7,1.4,1.5,2.8,2.1,4c0.7-1,1.2-1.9,1.9-2.5c2.1-1.8,1.9-3.9-0.5-5.2c-0.9-0.5-2.8-0.2-2.2-2.6c0.3-1.1-0.5-2.3,1.4-2.8
			c0.5-0.1,0.7-1.8,0.8-2.7c0.1-1-0.4-2-0.4-3c-0.1-3.4,0.1-3.6,3.6-3.4c1.3,0.1,2.3,0.2,2.4,2c0,1.7-0.8,2.1-2.2,2
			c-0.3,0-0.7,0-1,0.1c-0.5,1.1-0.9,2.1-1.3,3.2c2,2,3.3,4.3,2.5,7.6c0.9,0.2,1.7,0.4,3,0.6c0.2,0.7,0.5,1.8,0.9,3.2
			c0.5-0.4,0.9-0.7,1.3-1c0.5-0.4,1-0.7,1.5-1.1c0.3,0.6,1,1.5,0.8,1.9c-0.8,1.5-0.3,2.8,1.1,3c0.7,0.1,1.9-1.1,2.5-1.9
			c1.1-1.4,2.5-2.9,0.8-4.8c2.3-1.2,4.8-0.2,7.1,3c-0.7,0.1-1.3,0.2-2.4,0.4c0.5,0.8,0.7,1.5,1.1,2.1c1.2,1.7,0.3,3.7-1.7,3.9
			c-1.8,0.1-3.6,0-5.7,0c0.2,5.2-3.1,7.4-7.6,8.4c0.2,0.2,0.4,0.4,0.6,0.6c-0.5,0.6-0.9,1.4-1.6,1.9c-2.8,2.2-4.9,5-5.4,8.6
			c-0.1,0.8,0.5,1.9,1.1,2.7c1.1,1.3,2.4,2.5,3.2,3.4c2.8,1.2,5.2,2.5,7.8,3.5c2.1,0.8,4.3,1.3,6.4,2.2c0.8,0.4,1.9,1.6,1.9,2.4
			c0,2.6,0.9,4.6,3,6.2c0.6,0.5,1.6,1.1,2.1,0.9c0.6-0.2,1.2-1.3,1.3-2c0.1-1-0.1-2.3-0.5-3.2c-1-2-0.1-3.2,1.4-4.3
			c3.6-2.5,3.8-4.5,0.8-7.6c-1.2-1.2-1.5-2.2-0.2-3.5c0.4-0.5,0.6-1.4,0.6-2.1c0-0.9-0.4-1.8-0.5-2.7c-0.2-1-0.3-2-0.4-3.4
			c1.2,0.2,2.3,0.4,3.3,0.5c1,0.1,1.9,0,2.9,0.2c0.9,0.2,1.9,0.5,2.7,1c1.3,0.8,2.6,1.6,3.6,2.7c0.5,0.6,0.8,1.6,0.8,2.5
			c0,1.9,0.6,3.3,2.5,4c2.4,0.9,4.4-0.7,6.3-4.7c1.4,3.3,2.5,6.8,4.3,9.8c1,1.8,3.3,2.8,4.9,4.2c0.6,0.5,1.1,1.1,1.7,1.6
			c0.4,0.4,0.9,0.7,1.3,1.2c0.6,0.8,1.8,1.7,1.6,2.4c-0.2,1.1-1.2,2.1-2.1,2.8c-1.2,1-2.6,2-4.1,2.5c-1.2,0.5-2.6,0.7-3.9,0.4
			c-4.9-1.1-9.8,0.9-12.6,5.6c3-1.2,5.5-3.9,9.4-1.5c-1.2,0.5-2,0.9-2.8,1.2c3.3,5.1,3.3,5.1,7.1,6.3c-2,0.6-3.9,1.3-6.6,2.2
			c0.8-1.4,1.1-2,1.4-2.6c-0.1-0.2-0.2-0.4-0.4-0.5c-2.8,1.4-5.7,2.7-8.3,4.4c-0.9,0.6-1,2.3-1.7,3.3c-0.7,0.9-1.7,1.5-2.6,2.1
			c-0.7,0.5-1.7,0.7-2.1,1.4c-1,1.5-1.7,3.2-2.6,4.9c-0.7-0.4-1.2-0.7-1.9-1c0,0.4-0.2,0.8-0.1,1.1c1.4,5.2,1.1,6.1-3.3,9
			c-4.5,2.9-5.2,5.4-3.4,10.5c0.6,1.5,0.4,3.3,0.6,5.4c-2.7-0.6-3.4-2.5-3.5-4.3c-0.2-2.4-1.2-3.5-3.5-3.8c-1.7-0.2-3.3-0.9-5-0.8
			c-1.7,0.1-3.3,0.8-5.6,1.4c-2.2-1.5-9.4,0.5-9.9,4.2c-0.6,4.9-2.7,10.1,1.1,15.1c3.1,4.1,8.8,3,9.9-0.5c1.1-3.2,3.1-2.7,5.5-2.4
			c-0.9,3.3-1.9,6.5-2.9,10.1c2.1,0,3.8,0,5.5,0c2.6,0,3.6,1.4,3.1,4c-0.2,1.3-0.4,2.8-0.1,4.1c0.9,4.1,2.1,4.8,6.3,3.9
			c-0.5,1.1-0.9,2-1.4,3.1c-1.8-1.2-3.7-2.2-5.3-3.5c-1.2-1-2.2-2.4-3.1-3.7c-1.6-2.6-4.2-3.5-6.8-4.5c-2-0.8-3.8-2.1-5.5-3.4
			c-1.1-0.8-1.8-1.5-3.3-0.8c-0.8,0.4-2.2,0.5-3.1,0.1c-3.9-1.7-7.7-3.4-11.4-5.4c-0.9-0.5-1.7-2.1-1.6-3.2c0.3-2.4-0.9-4-2.2-5.6
			c-3-3.5-6-7-8.9-10.5c-0.5-0.6-0.5-1.6-0.9-2.3c-0.5-0.9-1.2-1.7-1.9-2.5c-0.2-0.2-1-0.3-1.3,0c-0.3,0.2-0.4,1-0.3,1.3
			c1.5,2.6,3.1,5.1,4.6,7.7c0.8,1.5,1.5,3,2.2,4.6c-0.3,0.2-0.6,0.4-0.9,0.6c-0.4-0.5-1-1-1.3-1.5c-0.3-0.6-0.3-1.6-0.8-2
			c-1.5-1.3-3.5-2.2-2.7-4.8c0.1-0.3-0.5-0.8-0.8-1.3c-1-1.6-2.2-3.1-3-4.8c-1.1-2.2-2-4.6-4.8-5.4c-0.8-0.2-1.7-1.1-2.2-1.9
			c-2.9-4.9-6-9.8-5.8-15.8c0-1.1,0.9-2.1,0.9-3.2c-0.1-2.8-0.4-5.5-0.6-8.5c0.3,0,1,0.2,1.4-0.1c0.5-0.4,1.2-1.5,1.1-1.6
			c-1.4-1.4-2.9-2.7-4.4-4.1c-0.2,0.2-0.4,0.4-0.6,0.6c1.1,1.1,2.1,2.3,3.4,3.5c-2.5,0.6-3.8-0.8-4.9-2.2c-0.3-0.4,0.1-1.4,0.2-2
			c-0.8-1.2-1.6-2.6-2.6-3.8c-0.8-1.1-1.8-2.1-2.7-3.1c-0.2-0.2-0.4-0.5-0.5-0.7c-1.9-4.4-4.1-8.7-7.6-12.1
			c-0.5-0.5-1.4-0.8-2.1-0.7c-1.8,0.3-3.2-0.2-4.7-1.4c-1.1-0.9-2.6-2-3.9-2c-3.3-0.1-6.2-1-8.9-2.6c-1.2-0.7-2.2-1-2.6,1
			c-0.1,0.6-1.1,1.3-1.8,1.5c-0.9,0.2-1.9-0.1-2.9-0.2c0.6-0.6,1.2-1.2,1.8-1.9c0.2-0.2,0.3-0.4,0.6-0.7c-1.9-1.8-2.9,0-3.7,1
			c-3.3,4.2-6.3,8.8-10.9,11.9c-0.8,0.5-1.9,0.5-2.9,0.5c2.5-1.9,5.5-3.4,5.2-7.3c-2.3,0-4.6,0-6.9,0c-0.6-3.7-0.7-3.7-4.2-2.9
			C10.6,83.1,9,81.7,9,80.3c0-1.4,1.3-3.2,2.6-4.1c1.4-1,3.5-1.2,5.6-1.9c-0.3-1.2-0.3-2.6-1-3.2c-0.6-0.5-2.1-0.1-3.1,0.2
			c-2.3,0.7-4.3,1-5.7-1.5c-0.3-0.5-0.9-0.7-1.4-1.1C6.1,68.5,6.1,68.1,6.1,67.8z"/>
		<path class="st1" d="M165.4,318.9c-0.2-2.1-0.3-4.1-0.5-6.2c-0.2-0.1-0.4-0.1-0.7-0.2c-0.5,0.7-0.9,1.5-1.5,2.1
			c-0.5,0.5-1.2,1-1.8,1c-0.4,0-1.1-0.9-1.1-1.4c-0.1-3-2.3-5.5-2-8.9c0.2-1.6-0.7-3.4,0.1-5.3c0.3-0.6-0.9-1.8-1.5-2.9
			c2.9-0.9,3.8-3,3.7-5.6c0-1.8,0.9-3.6-1.3-5.1c-0.6-0.4,0-2.9,0.4-4.3c0.9-3.6,2.1-7.1,2.9-10.7c0.5-2.2,0.2-4.5,0.4-6.7
			c0.7-6.2,1.6-12.4,2.2-18.6c0.4-3.9-1.1-6.6-4.8-8.5c-2.2-1.2-4-3.6-5.3-5.8c-2.6-4.3-4.9-8.8-7.2-13.3c-0.4-0.8-0.8-2.3-0.4-2.8
			c1.4-1.8,0.6-3.7,0.9-5.5c0.2-1.3,0.6-2.9,1.5-3.8c4.6-5,4.9-7.8,1.5-13.9c-0.2-0.4-0.4-0.9-0.6-1.4c1.3,0.4,2.6,1.2,3.6,0.9
			c0.9-0.3,1.3-1.8,2.1-2.6c0.7-0.7,1.6-1.4,2.5-1.7c0.9-0.3,2.1,0.1,3.1-0.1c5.1-1,9.3,3.6,14.5,2.2c1-0.3,2.9,0.3,3.1,2.3
			c0,0.2,0.3,0.6,0.4,0.6c2.6-0.4,3.2,2.1,4.7,3.3c1.1,0.8,2.7,1.4,4.1,1.4c4,0.2,5.4,1.1,6.9,5c0.2,0.5,0.4,1,0.8,1.3
			c1.7,1.4,1.4,2.7-0.1,4c-0.4,0.3-0.4,1.1-0.6,1.8c1.3-0.2,2.2-0.7,2.8-0.4c0.4,0.2,0.5,1.3,0.8,2.2c0.4-0.3,0.8-0.8,1.4-1
			c1.1-0.3,3-0.8,3.3-0.4c2.3,3,5.7,2.6,8.7,3.5c2,0.6,3.9,1.9,5.8,2.9c0.5,0.3,0.9,0.8,1.4,1.1c2.7,1.4,3.5,3.3,2,5.9
			c-1.2,2.2-2.6,4.4-4.4,6.2c-1.3,1.4-1.9,2.8-1.9,4.7c0.1,4.7-0.9,9.3-3.6,13.2c-0.7,1-2.1,1.8-3.4,2.2c-3.4,0.9-6.4,2.3-8.2,5.4
			c-0.7,1.2-0.5,2.9-0.8,4.4c-0.1,0.7-0.3,1.7-0.8,2.1c-2.7,2.4-4.4,5.3-5.9,8.5c-1.7,3.6-3.3,3.7-7.6,2.1c-0.4-0.1-0.8-0.3-1.5-0.1
			c0.6,1.1,1.2,2.2,1.9,3.3c1.2,2.1,0.6,4.4-1.7,5.2c-1.9,0.6-4,0.9-6.3,1.4c0,0-0.3,0.4-0.2,0.8c0.3,2.7-0.8,3.6-3.4,3
			c-0.3-0.1-1.2,1.1-1.1,1.4c1.1,3.3-0.2,5.7-2.5,8c-1.9,1.9-1.9,2.6,0.3,4.2c1.2,0.8,1.2,1.5,0.3,2.4c-1.1,1.3-2.5,2.4-3.2,3.9
			c-0.7,1.3-0.7,2.9-1,4.4c-0.1,0.6-0.2,1.2-0.3,2.2c1.3,1.4,2.9,3.2,4.6,5.1c-0.5,0.4-1.2,0.9-1.8,1.4
			C167.8,318.9,166.6,318.9,165.4,318.9z"/>
		<path class="st1" d="M230.3,9.5c1.2,2.3,3,0.7,4.4,1.1c1.6,0.5,3.3,1.1,4.9,0.9c1.4-0.1,2.7-1.1,4.1-1.7c0.3,0.3,0.5,0.5,0.8,0.8
			c-0.7,1.3-1.4,2.6-2.1,4c0.4-0.1,0.8-0.2,1.3-0.4c1.9-0.6,3.3-3.2,5.8-1.2c0.4,0.3,2-0.4,2.7-1c1.9-1.5,3.9-0.8,5.9-0.3
			c0.4,0.1,0.8,0.6,1.1,1c-0.3,0.3-0.6,0.7-1,0.9c-1.7,0.8-4.1,1.1-5.1,2.4c-1.8,2.3-4,1.4-6.4,1.9c0.2,0.9,0.4,1.6,0.5,2.4
			c0.2,1.3,0.1,2.3-1.3,3.2c-1,0.6-1.5,2-2.3,3.1c1.7,1.3,3.1,2.5,4.6,3.7c-1.9,0.4-3.6,0.7-6.1,1.3c2.2,1.6,3.8,2.8,5.5,4.1
			c-1.4,1-2.3,1.8-3.4,2.6c1.4,0.6,2.3,0.9,3.1,1.3c-0.1,0.3-0.2,0.6-0.3,0.9c-1.4,0-2.9,0-4.3,0c-0.1,0.2-0.2,0.4-0.2,0.6
			c1,0.5,2,0.9,3.1,1.5c-2.3,1.9-4.7,0.5-7.2-0.1c0.7,2.4,4.7,1.1,4,4.8c-1.5-0.6-2.8-1.1-4.8-1.9c1.8,2.9,6.2,3.1,5.7,7.7
			c-2-0.9-3.8-1.7-6-2.7c-0.5,1.1-1.1,2.4-1.6,3.5c1.5,0.2,3.3,0.5,5.7,0.9c-4,3.3-7.6,5.6-12.1,5.6c-1.8,0-3.3,0.3-4.2,1.8
			c-2.2,3.7-5.5,5.2-9.5,6c-0.9,0.2-2,1-2.3,1.9c-1.6,3.9-2.9,7.8-4.3,11.7c-1,2.8-1.7,3-4.1,1.1c-0.7-0.6-1.9-0.5-2.8-0.9
			c-0.9-0.4-2-0.7-2.4-1.4c-2.7-4.4-5.5-8.8-7.7-13.5c-0.7-1.5,0.3-3.8,0.7-5.8c0.1-0.5,1.1-0.7,1.4-1.2c0.8-1.2,1.6-2.4,2.1-3.8
			c0.1-0.3-1.4-1.1-2.2-1.6c-0.5-0.3-1.1-0.5-1.7-0.8c-0.2,0.2-0.4,0.5-0.6,0.7c0.6,0.3,1.3,0.7,1.9,1c0,0.3,0,0.5,0,0.8
			c-0.8,0-1.7,0.3-2.4,0.1c-0.5-0.2-1.1-1.3-0.9-1.7c0.3-0.7,1.1-1.6,1.8-1.8c1.1-0.2,2.3,0.2,4-0.2c-1.2-1.1-2.4-2.3-3.8-3.6
			c-0.5,0.2-1.2,0.8-1.8,0.8c-0.5,0-1.5-1-1.5-1.1c1.7-2.4,0.1-4.5-0.8-6.4c-1.9-4-4.3-7.8-9.1-8.9c-1.7-0.4-3.5-0.3-5.3-0.3
			c-1.9,0-3.7,0.2-5.6,0.3c-0.3,0-0.8,0-1-0.2c-1.1-1-2.1-2.1-3.1-3.1c2.1-0.4,4.4-0.9,6.7-1.4c0-0.1,0.1-0.2,0.1-0.3
			c-3.2-0.6-6.4-1.1-9.6-1.7c0-0.4-0.1-0.8-0.1-1.2c2.7-1,5.4-2.6,8.2-3c2.9-0.4,3.7-1.8,4.2-4.3c-1.2-0.1-2.3-0.2-3.4-0.2
			c-0.1-0.2-0.3-0.4-0.4-0.6c1-0.7,1.9-1.6,3-2c1.5-0.6,3.1-0.8,4.6-1.3c0.5-0.1,1.2-0.2,1.4-0.6c2.2-4.4,6.9-3.3,10.5-4.4
			c0.8-0.2,2.1,1.1,3.3,1.8c0-0.1,0.2-0.7,0.4-1.5c1.6,0.6,3.1,1.1,5.3,2c-0.8-1.3-1.2-2-1.6-2.6c0.1-0.2,0.2-0.4,0.2-0.6
			c2.1,0.7,4.3,1.4,6.4,2c1,0.3,2,0.2,3,0.3c-0.1-1.2-0.1-2.4-0.3-3.6c-0.1-0.5-0.4-0.9-0.7-1.6c3.5,0,6.9,0,10.3,0
			c0.3,0,0.7,0,1-0.1c5.8-3.1,11.8-2.3,17.8-0.6c1.8,0.5,3.6,1.2,5.4,1.9c0.5,0.2,0.8,0.9,1.2,1.4c-0.6,0.3-1.1,0.8-1.7,0.8
			C236.5,9.2,233.6,9.3,230.3,9.5z"/>
		<path class="st1" d="M490.3,235.2c0.2-0.4,0.4-0.8,0.5-1.2c0.5-3.4,3.3-5.3,6.6-4.5c0.3,0.1,0.6,0.2,1,0.3c3.1,0.4,3.2,0.4,2,3.1
			c-0.8,1.8-0.3,2.7,1.4,3.6c1.9,1,3.6,2.3,5.4,3.5c5.2-2.4,2.1-7.8,4-11.5c0.4,0.3,0.7,0.5,0.9,0.7c1.7,3.8,3.4,7.6,5,11.4
			c0.8,2,1.6,3.6,4.2,3.1c0.6-0.1,1.6,0.3,2,0.8c1.8,2.2,3.4,4.5,5,6.8c0.7,0.9,1.7,1.8,1.9,2.9c0.3,1.9,0.4,4,0.1,5.9
			c-0.6,3.7,0,7.7-3.3,10.7c-2,1.9-3.6,4.2-5.3,6.3c-0.4,0.5-0.8,1.1-1.1,1.7c-1.1,1.7-2.5,2.3-4.5,1.5c-0.5-0.2-1.2-0.4-1.7-0.2
			c-3.5,0.9-5.7-0.2-7.2-3.5c-1.1-2.4-2.5-4.6-3.8-7c-0.8,0.9-1.8,2-2.9,3.2c-1.4-3.9-4.3-5.9-8.3-6.5c-0.4-0.1-0.9-0.3-1.3-0.1
			c-3.5,1.5-7.7,1.3-10.6,4.4c-0.4,0.5-1.5,0.9-2,0.6c-2.2-1.1-3.7,0.3-5.4,1.1c-1.1,0.5-2.6,0.9-3.7,0.7c-1.7-0.3-2.5-1.3-1.5-3.3
			c1.4-2.7-0.3-5.2-1.1-7.7c-0.7-2.1-2.1-4.1-1.1-6.5c0.2-0.6-0.7-1.5-0.8-2.3c-0.7-3.3,1.7-6.5,5.4-7.4c1.5-0.4,3.1-0.5,4.4-1.2
			c1.4-0.7,2.6-1.9,3.6-3.1c0.9-1.1,0.5-3.4,3-2.7c0.1,0,0.5-0.6,0.6-1c1.7-3.8,3-4.4,6.8-3c0.4,0.1,0.8,0.2,1.2,0.3
			C489.8,235.2,490,235.2,490.3,235.2z"/>
		<path class="st1" d="M139.3,16c0.3-0.8,0.5-1.5,0.8-2.4c-1.8,0.2-3.4,0.6-5,0.5c-0.7,0-2-1-2-1.6c0-0.8,0.8-2,1.5-2.2
			c2-0.6,4.1-1,6.2-1.1c1.7-0.1,3.5,0.4,5.3,0.7c0.5-2,2-2.8,4.3-2.9c3.6-0.2,7.1-0.7,10.7-0.9c1.9-0.1,4.3-0.7,5.6,0.1
			c3.6,2.3,8.4-1.3,11.3,3.4c-2.4,0.8-5.3,1.8-8.2,2.8c0.4,0.3,1,0.6,1.8,1.1c-1.9,1-3.5,1.8-5.2,2.7c-0.7,0.4-1.7,0.7-2.1,1.4
			c-1.9,2.6-4.6,2.6-7.3,2.9c-0.5,0-1.4,0.7-1.4,1.1c-0.1,0.8,0.3,1.6,0.8,2.5c-2.2,3.7-5.8,5.1-10.9,5.4c2.5,0.8,4.2,1.4,6.3,2.1
			c-2.1,1.2-3.4,2.4-5.4,0.8c-0.8-0.6-2.3-0.3-3.5-0.2c-2.2,0.2-4.4,0.6-6.5,0.7c-0.9,0-1.9-0.6-2.6-0.8c1.2-1.2,2.2-2.4,3.4-3.3
			c0.4-0.3,1.3-0.2,2-0.1c1.1,0.2,2.3,0.5,3.8,0.8c-0.5-2-4.2-0.9-2.1-3.7c-1.5,0.1-2.7,0.2-4.3,0.4c1.4-3.9,4.7-1.9,7-2.8
			c-1.3-1.5-2.6-2.9-3.8-4.3c1.3-0.7,1.3-0.7,7.4,0.8c-0.9-0.4-1.9-0.9-2.8-1.3c3.1-2,6.9-1.1,7.8-5.8C148,15.4,144,16.8,139.3,16z"
			/>
		<path class="st1" d="M139.7,42.7c-2.6,3.4-2.3,5.9,1.6,9c-0.3-1.1-0.3-1.8-0.6-2.3c-1.2-1.9-1.3-3.8,0.2-5.4
			c1.2-1.3,3-1.6,4.9-0.9c0.6,0.2,1.4,0,2.1,0.1c2,0.2,4.1,0.4,6.6,0.7c-1.6,1.6-1.6,1.6-6.7,0.7c-0.1,1.1-0.3,2.2-0.4,3.6
			c1.6-0.5,3.2-0.9,4.6-1.4c2.6-1,3.8-0.5,5.2,1.9c0.4,0.7,1.5,1.5,2.3,1.6c1.4,0.2,2.6,0.2,3.7,1.5c0.6,0.8,2.1,1,3.5,1.6
			c0,1.4-0.2,3.4,2.6,3.9c-0.6,0.6-1.2,1.1-2,1.8c3.8,2.1,7.4,4.1,11.5,6.4c-1.2,1.4-2.3,2.8-3.5,4c-0.3,0.3-1.4-0.1-1.9-0.4
			c-0.6-0.4-0.9-1.2-1.4-1.8c-1.1-1.3-2.4-1.6-3.3-0.1c-0.3,0.5,0.5,1.9,1.1,2.6c0.8,1,2.2,1.5,2.8,2.5c0.5,0.9,0.2,2.2,0.3,3.3
			c-0.9-0.1-1.8-0.1-2.7-0.4c-0.9-0.3-1.7-0.9-3.3-1.8c0.8,1.9,1.3,3.1,1.8,4.2c-3.3-0.1-5.5-1.8-7.5-4.2c-1.5-1.8-3.2-2.6-5.6-1.6
			c-0.9,0.4-2,0.1-3.1,0.1c-0.6-2.4,0.8-2.6,2.4-2.3c2.6,0.5,3.7-0.2,4.1-2.6c0.1-0.6,0.7-1.2,1.2-1.7c1.3-1,1.9-2,0.4-3.3
			c-2.9-2.5-5.6-5.4-8.8-7.4c-1.4-0.9-4,0.5-6,0.4c-3-0.2-5.9-0.7-8.8-1.2c-0.4-0.1-0.7-1.1-0.7-2c-3-0.4-3.8-2.3-3.1-5
			C133.9,43.4,135.6,42.5,139.7,42.7z"/>
		<path class="st1" d="M104.1,48.7c-0.5-1.2-1-2.5-1.6-4.1c1.5,0,2.9,0,4.4,0c0.7,4.2,1.5,8.6,7.2,10.3c-1.4,0.5-2.4,0.9-3.9,1.4
			c1.1,0.7,1.7,1,2.3,1.4c0,0.2-0.1,0.5-0.1,0.7c-1.4-0.1-2.8-0.2-4.3-0.3c-1.4-0.1-3.2-0.8-4.3-0.2c-4.4,2.3-8.4,1.5-12.4-0.9
			c-0.9-0.5-1.8-0.9-2.7-1.4c0-0.3,0-0.5,0-0.8c2.5-0.2,5-0.4,7.9-0.6c-1.3-2.3-3.2-1.3-4.8-1.5c-1.7-0.2-3.4,0-5,0
			c-0.1-0.2-0.1-0.4-0.2-0.6c0.9-0.5,1.9-1,3.1-1.6c-1.5-0.5-2.7-0.8-4.3-1.3c0.7-1.4,1.3-2.6,2-4c-2.2,0.1-3.7,1.2-4.4,3.1
			c-0.8,2-2.4,2.8-4.2,2.3c-1.4-0.4-2.8-1.6-3.9-2.7c-0.3-0.3,0.3-1.5,0.6-2.3c0.5-1.5,0.9-3,1.6-5c3.1-1.3,11.6,0.2,12.9,2.7
			c-0.3,0.2-0.7,0.5-1,0.7c-0.3,0.3-0.6,0.5-0.9,1c2.1-0.5,4.3-2.1,5.5,1.5c2-2.2,3-0.8,3.9,0.8c3.1-1.7,3.1-1.7,5,1.3
			c0.2,0.4,0.9,0.5,1.4,0.8C103.9,49.2,104,48.9,104.1,48.7z"/>
		<path class="st1" d="M494.4,212.4c2.2,0.3,3.9,0.6,6,0.9c3.1-2.8,2.9-2.3,7.7-0.8c4.3,1.4,8.1,3.3,11.2,6.8
			c-1.3,2.9,1.9,2.8,3.2,4.1c-1.5,1.6-3.1,1.5-4.4-0.1c-1.8-2.3-4.2-2.6-5.5-0.3c-1.2,2.1-2.3,1.2-3.8,0.6c-1.3-0.6-2.8-1-4.2-1.5
			c1-3.2,0.4-4.5-3.4-6.1c-2-0.9-4.1-1.7-6.1-2.5C495,213.5,494.9,213.2,494.4,212.4z"/>
		<path class="st1" d="M470.1,196.1c2.3,1.2,2.5,1.9,0.9,4.6c-0.3,0.4-0.4,1.2-0.2,1.6c1.9,3.3-0.1,5.7-1.6,8.3
			c-0.4,0.7-0.7,1.5-0.7,2.2c0,1.5-0.9,2-2.1,1.8c-1.4-0.2-2.7-0.7-4.1-1c-2.5-0.6-5.5-4.1-5.4-6.7c0-0.6,0.7-1.4,1.3-1.8
			c1.6-1.1,3.3-1.9,4.8-3.1C465.4,200.2,467.5,198.3,470.1,196.1z"/>
		<path class="st1" d="M359.9,229.7c0.9,5.4-0.1,10-1.6,14.5c-0.7,2.2-1.2,4.5-1.7,6.8c-0.6,2.8-2.9,4.1-5,2.8
			c-0.5-0.3-1.2-1-1.2-1.5c0.1-2.2,0.3-4.5,0.5-6.7c0.1-1.3,0.1-2.6,0.3-3.8c0.3-1.5,0.5-3.2,1.4-4.3c1-1.3,2.9-1.9,4.1-3.1
			C357.9,233.1,358.6,231.6,359.9,229.7z"/>
		<path class="st1" d="M391.2,32.6c-3.1,1.1-6.1,2.2-9.1,3.1c-3.8,1.2-6.8,3.5-9.3,6.7c-0.6,0.7-1.3,1.4-2,2c-2.7,2.7-2.7,2.7-0.5,6
			c0.3,0.5,0.6,1.1,1.2,2.3c-1.5-0.2-2.7-0.1-3.6-0.6c-1.3-0.7-1.7-2.9-3.8-2.3c-0.1,0-0.6-1.1-0.5-1.2c4.3-3.8,5.1-10.4,10.7-13
			c1.3-0.6,2.6-1.1,4-1.5c3.4-1.1,6.9-1.9,10.3-3.1C390.1,30.5,390.6,31,391.2,32.6z"/>
		<path class="st1" d="M139.5,21.7c-2.7,1.4-5.4,3.1-8.3,3.9c-1.5,0.4-3.4-1.2-5.5-2c1.4-1,2.1-1.5,2.5-1.8
			c-2.4-0.8-4.5-1.4-6.6-2.1c0-0.3,0.1-0.6,0.1-0.8c0.7-0.2,1.4-0.4,2.2-0.6c-1.3-0.9-2.3-1.4,0-2.6c4-2,3.9-2.1,7.2,0.7
			c0.9,0.7,2.1,1.1,3.1,1.6c0.9,0.5,1.7,1,2.5,1.6C137.6,20.1,138.5,20.8,139.5,21.7z"/>
		<path class="st1" d="M273.9,106.1c-2-1.6-2.3-3.2-0.2-5c1.4-1.2,0.6-2.3-0.9-3.2c-2.8-1.6-3.5-6.8-1.9-8.3
			c1.7,0.6,3.1,1.1,4.5,1.6c-0.6,2.8-0.7,2.9,1.7,6.1c1.4,1.8,0.8,5.4,4.3,5.3c-0.4,1.3-0.8,2.7-1.2,4.2c-2.4,0.4-5.3,0.9-8.9,1.5
			C272.4,107.3,273.1,106.7,273.9,106.1z"/>
		<path class="st1" d="M450.2,218.6c-1.7-1.7-3.7-3.1-5.1-5.1c-3.5-5-6.7-10.1-10-15.2c1.8-0.4,3.4,0.8,4.9,2.2
			c1.4,1.3,2.9,2.5,4.3,3.7c0.7,0.6,1.4,1.1,2,1.9c1.7,2.3,3.5,4.6,4.9,7.2c0.7,1.3,0.3,3.1,0.4,4.7
			C451.1,218.2,450.7,218.4,450.2,218.6z"/>
		<path class="st1" d="M122.2,32.4c3.2-1.6,8.1-0.3,9.8,1.8c0.7,0.9,1.9,1.7,2.9,1.8c2.3,0.2,4.6-0.1,6.9-0.1c1.6,0,3.1,0,4.7,0
			c1.6-0.1,2.2,0.9,1.7,2.1c-0.3,0.7-1.5,1.5-2.3,1.6c-2.1,0.3-4.2,0.4-6.3,0.2c-3.2-0.2-6.4-0.6-9.5-1.2c-0.5-0.1-1-1.3-1.1-2
			c-0.4-2.2-1.3-3.6-3.8-3.4C124.3,33.2,123.5,32.8,122.2,32.4z"/>
		<path class="st1" d="M297.3,19.5c2.7,0.8,5.4,1.6,8.1,2.4c0-0.4-0.1-1.3-0.2-3c5.2,2.3,8.7,6.3,13.3,8.8c-2.8,1.3-3.9,0.9-4.9-1.5
			c-1-2.4-1.6-2.5-3.5-0.8c-1.1,1-2,1.9-2.7,3.4c-1.4,3.1-2.1,3-4.7,0.3c1-0.6,2.1-1,3.1-1.8c0.4-0.3,0.8-1.3,0.6-1.8
			c-0.2-0.5-1-0.9-1.6-1.1c-0.5-0.2-1.4-0.2-1.8,0c-3,2.2-3.7,0.1-4.5-2.2c-0.3-0.7-0.9-1.3-1.4-1.9
			C297.1,20.1,297.2,19.8,297.3,19.5z"/>
		<path class="st1" d="M560.8,288.6c0.6,0.4,1.5,1,2.5,1.7c-3.6,4-7.1,8-10.8,11.8c-0.7,0.8-2.4,1.5-3.3,1.1c-1-0.4-2.1-1.8-2.3-3
			c-0.2-0.8,0.7-2.2,1.5-2.8c2.4-1.7,5.1-3,7.5-4.6C557.6,291.7,558.9,290.2,560.8,288.6z"/>
		<path class="st1" d="M244.5,68.3c2.7-0.5,5.5-1,8.2-1.4c1.7-0.3,2.8,0.7,3.3,2.2c0.5,1.6-0.4,2.6-1.8,3.2
			c-2.2,0.8-4.4,1.7-6.6,2.1c-2.2,0.4-3.5-1.1-4.5-3c-0.6-1.2-1.4-2.2-2.5-3.9c0.2-0.2,1.2-1.2,1.9-1
			C243.3,66.7,243.9,67.8,244.5,68.3z"/>
		<path class="st1" d="M101.6,36c-0.6-0.9-1-1.3-1.1-1.7c-0.1-0.8,0.1-1.6,0.2-2.4c0.6,0.5,1.1,0.9,1.7,1.4c0.7,0.5,1.6,1.6,2,1.5
			c2.5-0.8,2,0.8,2,2.3c-2.2,0.4-4.5,0.6-6.6,1.3c-2.1,0.6-4.1,2.1-6.9,1c1.5-0.7,2.6-1.1,4.3-1.9c-2.1-0.2-3.4-0.4-4.7-0.3
			c-1.1,0-2.3,0.3-3.5,0.6c0.3-1.7,0.6-2.9,0.8-4.1c2.6-0.8,4.8,0,6.8,1.6C98.1,36.2,99.6,36.5,101.6,36z"/>
		<path class="st1" d="M500.2,144.5c-0.3-1.7-1.5-2.2-3.5-1.5c-0.8,0.3-1.6,0.2-2.4,0.2c-0.1-0.3-0.2-0.6-0.3-1c1.3-0.4,2.7-1,4-1.1
			c1.6-0.1,3.1,0,3.6-2c0.1-0.2,0.2-0.5,0.4-0.6c4.2-1.4,5.7-4.6,5.9-8.8c2.5,0.8,3,1.8,2.1,3.8c-0.6,1.5-1.2,3-1.4,4.5
			c-0.4,2.8-2.4,3.6-4.6,4.3C502.8,142.9,501.6,143.7,500.2,144.5z"/>
		<path class="st1" d="M436.9,18.4c0.8,0.1,2.3,0.2,3.6,0.6c0.5,0.2,1,1.2,1.1,1.9c0,0.8-0.4,1.6-0.8,2.7c-2.4-0.5-4.9-0.5-7-1.5
			c-2.3-1-1-2.7,0.2-4.1c-1,0.3-2.1,0.6-3.2,0.9c-0.6-3.6-0.5-3.5,3.2-4.8c1.8-0.6,2.7,0.3,3.3,1.4
			C437.6,16.1,437.1,17.2,436.9,18.4z"/>
		<path class="st1" d="M565.8,290.5c-1.3-1.9-2-4-0.5-5.8c1.7-2.2,2.2-4.2,0.4-6.6c-0.5-0.6-0.4-1.6-0.5-2.4
			c0.2-0.1,0.5-0.3,0.7-0.4c0.5,0.7,1.2,1.3,1.6,2.1c1.2,2,2,4.2,4.4,5.3c1.8,0.9,0.3,2.5-0.4,3.2
			C569.8,287.5,567.8,288.9,565.8,290.5z"/>
		<path class="st1" d="M113.3,46.7c1-0.6,1.7-1.1,2.7-1.7c-0.6-0.7-1-1.3-1.8-2.2c2.3-0.1,4.1-2,6.3,0.1c-0.5,0.7-1,1.4-1.6,2.2
			c0.6,0.3,1.4,0.3,1.6,0.7c0.4,0.9,0.9,2.2,0.5,2.7c-1.2,1.7-3.7,1.6-5.4,0.1C115,48,114.2,47.5,113.3,46.7z"/>
		<path class="st1" d="M448.6,204.6c-2.6,0.1-5.1-1.9-5.2-4.6c-0.1-2.8-1.2-4.9-3.1-6.7c-0.5-0.5-0.8-1.2-1-1.9c0-0.1,1-0.8,1.1-0.7
			c0.6,0.4,1.3,0.9,1.4,1.6c0.5,1.9,1.2,3.2,3.1,4.2c1,0.5,1.7,2.1,2.2,3.3C447.8,201.2,448.1,202.9,448.6,204.6z"/>
		<path class="st1" d="M186.9,106.3c0.5,4.4,1.1,5.2,4,4.5c0.1,0.8,0.5,1.7,0.4,2.4c-0.2,0.7-1,1.9-1.5,1.9c-2.3,0-4.7-0.4-7.1-0.6
			C184,111.7,185.4,109,186.9,106.3z"/>
		<path class="st1" d="M262.9,105.1c0.5-3,0.5-6.2,3.6-7.8c0.6-0.3,1.6-0.5,2.2-0.3c0.3,0.1,0.6,1.1,0.6,1.7c0,0.6-0.4,1.1-0.4,1.7
			C268.6,104.2,267.1,105.5,262.9,105.1z"/>
		<path class="st1" d="M322.6,18.8c-2.1,3.6-7.1,3.5-12.7,0C311.4,17.4,319.2,17.4,322.6,18.8z"/>
		<path class="st1" d="M510.6,34.8c0.3,3.3,0.3,3.3-3.2,3.5c-1.2,0.1-2.6,0.2-3.7-0.3c-1.4-0.6-1.2-2-0.3-3c0.8-0.9,1.7-1.6,3.3-0.6
			C507.6,35.1,509.1,34.7,510.6,34.8z"/>
		<path class="st1" d="M139.4,68c2.2,1.5,4.4,3,6.6,4.5c-0.1,0.3-0.1,0.5-0.2,0.8c-2-0.7-3.4-0.5-4.4,1.5c-0.7,1.3-1.9,0.8-2.2-0.4
			c-0.4-2-0.4-4-0.6-6.1C138.8,68.2,139.1,68.1,139.4,68z"/>
		<path class="st1" d="M79.7,33.5c3.2-2,5.6-5.5,10.2-3.8c-0.8,1.4-0.4,4.2-3.4,2.3c-0.2-0.1-0.8,0.1-1,0.4
			C84.2,34.7,82.2,34.5,79.7,33.5z"/>
		<path class="st1" d="M510.9,121.1c1.4,0.9,3.1,1.9,4.7,3c-1.9,2.4-4.2,3-6.9,1.8C509.4,124.3,510.1,122.7,510.9,121.1z"/>
		<path class="st1" d="M116.6,27.2c-2.3-0.7-4-1-5.4-1.8c-1.2-0.8-2-2.3-2.8-3.3c2.8,0.1,5.7,0.7,7.9,3.1
			C116.7,25.6,116.5,26.6,116.6,27.2z"/>
		<path class="st1" d="M511.9,101.6c0.6,2.5,1.4,5,1.6,7.5c0.1,1.1-1.3,2.2-2.2,3.2c1.2-3.6-2.6-7.5-0.1-10.9
			C511.4,101.5,511.7,101.6,511.9,101.6z"/>
		<path class="st1" d="M450.4,24.9c-1.4,0.2-2.9,0.4-4.3,0.6c-1.4,0.2-2.8,0.5-4.2,0.8C444.3,21.7,446.5,21.1,450.4,24.9z"/>
		<path class="st1" d="M115.6,31.8c0.6,0.1,1.2,0.4,1.8,0.5c0.6,0.1,1.2,0,1.7,0c0.3,1,0.8,1.9,0.7,2.8c-0.1,0.8-0.5,1.8-1.1,2.2
			c-0.7,0.4-1.8,0.5-2.6,0.2c-0.3-0.1-0.2-1.4-0.3-2.2C115.7,34.2,115.6,33.1,115.6,31.8z"/>
		<path class="st1" d="M477.5,210.1c0,1.3,0,2.1,0,2.9c-2.8-0.3-2,2.4-2.6,3.9c-0.3,0-0.6-0.1-0.8-0.1c0-2.2-0.1-4.4,0.2-6.5
			C474.2,210.1,476.4,210.1,477.5,210.1z"/>
		<path class="st1" d="M476.9,182.3c-3.2-2-1-4.9-1.8-7.9c1.2,0.3,2.5,0.3,2.8,0.8c0.4,0.6,0,1.7-0.1,2.6
			C477.6,179.2,477.2,180.7,476.9,182.3z"/>
		<path class="st1" d="M484.2,191.2c1.8,2.4,0.2,4.1-1.3,6.1c-1-1.5-1.9-2.9-2.6-4C481.3,192.8,482.7,192,484.2,191.2z"/>
		<path class="st1" d="M515.7,286.9c1.2-0.3,2.4-0.5,3.7-0.8c0,1.6,0,3.2,0,4.7C515.3,291.9,516.5,288.5,515.7,286.9z"/>
		<path class="st1" d="M452.4,219.4c3.1,0.5,6.3,0.9,9.7,1.4c0.1,0.2,0.2,0.8,0.5,1.9c-3.7-0.9-7-1.7-10.4-2.5
			C452.3,220,452.3,219.7,452.4,219.4z"/>
		<path class="st1" d="M155.7,171.4c-3.2-1.7-6.4-3.4-9.5-5.1c3.2-0.3,6.4,1.3,9.9,4.3C155.9,170.8,155.8,171.1,155.7,171.4z"/>
		<path class="st1" d="M166.2,174.1c-1.5,0.1-3.1,0.4-4.6,0.3c-0.5,0-1.1-1-1.2-1.6c-0.1-0.3,0.9-1.2,1.2-1.1
			c1.6,0.3,3.1,0.8,4.7,1.2C166.3,173.3,166.3,173.7,166.2,174.1z"/>
		<path class="st1" d="M410.8,191c0.5,1.4,1.1,2.9,1.4,4.3c0.1,0.3-0.7,1.1-1.2,1.2c-0.4,0.1-1.4-0.3-1.4-0.6
			c-0.1-1.6-0.1-3.1-0.1-4.7C409.9,191.1,410.4,191,410.8,191z"/>
		<path class="st1" d="M549.6,46.1c0.1-3,1.5-3.9,3.5-3.3c0.4,0.1,0.6,1.2,0.9,1.8C552.5,45.1,551,45.6,549.6,46.1z"/>
		<path class="st1" d="M119.4,23.9c1,0.3,2.2,0.4,3,1c0.5,0.4,0.6,1.4,0.9,2.1c-0.8,0-1.8,0.3-2.4-0.1c-0.8-0.5-1.2-1.5-1.8-2.3
			C119.1,24.3,119.3,24.1,119.4,23.9z"/>
		<path class="st1" d="M121.9,37.6c1-0.5,1.9-1.4,2.9-1.5c0.4-0.1,1,1.4,1.6,2.1c-0.2,0.2-0.3,0.4-0.5,0.6c-1.2-0.1-2.5-0.1-3.7-0.2
			C122.2,38.3,122.1,37.9,121.9,37.6z"/>
		<path class="st1" d="M497.4,211.8c-1.2-0.4-2.3-0.8-3.5-1.3c0.2-0.6,0.5-1.2,0.7-1.8c1.1,0.5,2.3,1,3.4,1.5
			C497.8,210.8,497.6,211.3,497.4,211.8z"/>
		<path class="st1" d="M94.5,27.7c1.6-0.6,3.2-1.1,4.8-1.7C98.6,29.4,97.2,29.9,94.5,27.7z"/>
		<path class="st1" d="M524.7,212.2c-1,3.5-1.4,3.8-5.1,3C521.4,214.1,522.9,213.3,524.7,212.2z"/>
		<path class="st1" d="M492.1,149.1c-0.3-1.3-0.7-2.5-1.1-4.4c1,0.3,2.4,0.5,2.4,0.7c0.1,1.3-0.2,2.5-0.4,3.8
			C492.7,149.2,492.4,149.1,492.1,149.1z"/>
		<path class="st1" d="M156.3,63c-1.1,0-2,0-3,0c-0.1-0.2-0.3-0.5-0.5-0.7c1-0.7,1.9-1.4,3.4-2.4C156.3,61.5,156.3,62.3,156.3,63z"
			/>
		<path class="st1" d="M526.9,211.2c-0.9-1.5-1.6-2.6-2.4-3.9C527.7,207.6,528.2,208.4,526.9,211.2z"/>
		<path class="st1" d="M557.7,248.3c-1.1-0.6-2.3-1.3-3.8-2.1c0.7-0.4,1.3-0.9,1.6-0.8c1,0.6,2,1.3,2.9,2
			C558.2,247.7,557.9,248,557.7,248.3z"/>
	</g>
</g>
<path class="st2" d="M471.9,246.2"/>
<rect y="70.7" class="st3" width="1.1" height="1"/>
<line class="st2" x1="136.3" y1="121.9" x2="208.7" y2="150.8"/>
<line class="st2" x1="181.2" y1="253" x2="211.6" y2="152.2"/>
<line class="st2" x1="499.8" y1="252.6" x2="208.7" y2="150.8"/>
<line class="st2" x1="322.1" y1="56.1" x2="211.6" y2="152.2"/>
<line class="st2" x1="375.2" y1="114.4" x2="211.6" y2="154.7"/>
<line class="st2" x1="155.5" y1="34.9" x2="211.6" y2="152.2"/>
<circle class="st4" cx="181.2" cy="253" r="5.4"/>
<circle class="st5" cx="181.2" cy="253" r="2.1"/>
<circle class="st4" cx="136.3" cy="121.9" r="5.4"/>
<circle class="st4" cx="155.5" cy="34.9" r="5.4"/>
<circle class="st5" cx="136.3" cy="121.9" r="2.1"/>
<circle class="st4" cx="101.4" cy="86.3" r="5.4"/>
<circle class="st5" cx="101.4" cy="86.3" r="2.1"/>
<circle class="st4" cx="155.8" cy="35.2" r="5.4"/>
<circle class="st5" cx="155.5" cy="34.9" r="2.1"/>
<circle class="st4" cx="322.1" cy="56.1" r="5.4"/>
<circle class="st5" cx="322.1" cy="56.1" r="2.1"/>
<circle class="st4" cx="284.6" cy="116.5" r="5.4"/>
<circle class="st5" cx="284.6" cy="116.2" r="2.1"/>
<circle class="st4" cx="375.2" cy="114.4" r="5.4"/>
<circle class="st5" cx="375.2" cy="114.4" r="2.1"/>
<circle class="st4" cx="425" cy="91.4" r="5.4"/>
<circle class="st5" cx="425" cy="91.4" r="2.1"/>
<circle class="st4" cx="383.4" cy="49.9" r="5.4"/>
<circle class="st5" cx="383.4" cy="49.9" r="2.1"/>
<circle class="st4" cx="483.1" cy="104.7" r="5.4"/>
<circle class="st5" cx="483.1" cy="104.7" r="2.1"/>
<circle class="st4" cx="499.8" cy="252.6" r="5.4"/>
<circle class="st5" cx="499.8" cy="252.6" r="2.1"/>
<path class="st6" d="M171.8,255.3c-0.2-0.1-0.4-0.2-0.7-0.3c-1.5-0.6-3.1-0.7-4.6-0.5c-1.2,0.2-2.4,0.4-3.3,1.2
	c-0.2,0.2-0.4,0.5-0.4,0.8c0,1.8,0,3.6,0,5.4c0,0.5,0.4,0.8,0.9,0.8c0.5,0,0.8-0.1,0.9-0.4c0-0.1,0-0.1,0-0.2v-4.5
	c0-0.1,0.1-0.1,0.2-0.1h0.1h0c0.1,0,0.2,0.1,0.2,0.1v4.6c0,2.1,0,4.3,0,6.4c0,0.2,0,0.4,0,0.7c0.1,0.6,0.5,0.9,1.1,0.9
	c1,0.1,1.5-0.4,1.5-1.4c0-1.8,0-3.5,0-5.3v-1.1c0-0.1,0.1-0.2,0.2-0.2s0.2,0.1,0.2,0.2v6.6c0,0,0,0,0,0c0,0.8,0.5,1.2,1.3,1.2
	c0.9,0,1.3-0.5,1.3-1.4c0-3.6,0-11.2,0-11.2v0c0-0.1,0-0.1,0.1-0.1c0,0,0,0,0,0c0,0,0,0,0,0c0,0,0,0,0,0h0.1c0.1,0,0.2,0.1,0.2,0.1
	v4.6c0,0.2,0.1,0.3,0.2,0.4c0.2,0.1,0.4,0.2,0.7,0.2c0.6,0,0.8-0.2,0.8-0.8c0-1.7-0.1-3.4,0-5.1C172.8,256,172.4,255.6,171.8,255.3z
	"/>
<path class="st6" d="M167.6,253.8c2.2,0.1,4.1-1.6,4.1-3.7c0.1-2.1-1.7-3.8-3.9-3.9c-2.2-0.1-4,1.6-4.1,3.7
	C163.7,252,165.4,253.7,167.6,253.8z"/>
<path class="st6" d="M92.3,89.4c-0.2-0.1-0.4-0.2-0.7-0.3c-1.5-0.6-3.1-0.7-4.6-0.5c-1.2,0.2-2.4,0.4-3.3,1.2
	c-0.2,0.2-0.4,0.5-0.4,0.8c0,1.8,0,3.6,0,5.4c0,0.5,0.4,0.8,0.9,0.8c0.5,0,0.8-0.1,0.9-0.4c0-0.1,0-0.1,0-0.2v-4.5
	c0-0.1,0.1-0.1,0.2-0.1h0.1h0c0.1,0,0.2,0.1,0.2,0.1v4.6c0,2.1,0,4.3,0,6.4c0,0.2,0,0.4,0,0.7c0.1,0.6,0.5,0.9,1.1,0.9
	c1,0.1,1.5-0.4,1.5-1.4c0-1.8,0-3.5,0-5.3v-1.1c0-0.1,0.1-0.2,0.2-0.2s0.2,0.1,0.2,0.2v6.6c0,0,0,0,0,0c0,0.8,0.5,1.2,1.3,1.2
	c0.9,0,1.3-0.5,1.3-1.4c0-3.6,0-11.2,0-11.2v0c0-0.1,0-0.1,0.1-0.1c0,0,0,0,0,0c0,0,0,0,0,0c0,0,0,0,0,0h0.1c0.1,0,0.2,0.1,0.2,0.1
	v4.6c0,0.2,0.1,0.3,0.2,0.4c0.2,0.1,0.4,0.2,0.7,0.2c0.6,0,0.8-0.2,0.8-0.8c0-1.7-0.1-3.4,0-5.1C93.2,90.2,92.9,89.7,92.3,89.4z"/>
<path class="st6" d="M88.1,87.9c2.2,0.1,4.1-1.6,4.1-3.7c0.1-2.1-1.7-3.8-3.9-3.9c-2.2-0.1-4,1.6-4.1,3.7
	C84.1,86.1,85.9,87.9,88.1,87.9z"/>
<path class="st6" d="M311.9,58.9c-0.2-0.1-0.4-0.2-0.7-0.3c-1.5-0.6-3.1-0.7-4.6-0.5c-1.2,0.2-2.4,0.4-3.3,1.2
	c-0.2,0.2-0.4,0.5-0.4,0.8c0,1.8,0,3.6,0,5.4c0,0.5,0.4,0.8,0.9,0.8c0.5,0,0.8-0.1,0.9-0.4c0-0.1,0-0.1,0-0.2v-4.5
	c0-0.1,0.1-0.1,0.2-0.1h0.1h0c0.1,0,0.2,0.1,0.2,0.1v4.6c0,2.1,0,4.3,0,6.4c0,0.2,0,0.4,0,0.7c0.1,0.6,0.5,0.9,1.1,0.9
	c1,0.1,1.5-0.4,1.5-1.4c0-1.8,0-3.5,0-5.3V66c0-0.1,0.1-0.2,0.2-0.2s0.2,0.1,0.2,0.2v6.6c0,0,0,0,0,0c0,0.8,0.5,1.2,1.3,1.2
	c0.9,0,1.3-0.5,1.3-1.4c0-3.6,0-11.2,0-11.2v0c0-0.1,0-0.1,0.1-0.1c0,0,0,0,0,0c0,0,0,0,0,0s0,0,0,0h0.1c0.1,0,0.2,0.1,0.2,0.1v4.6
	c0,0.2,0.1,0.3,0.2,0.4c0.2,0.1,0.4,0.2,0.7,0.2c0.6,0,0.8-0.2,0.8-0.8c0-1.7-0.1-3.4,0-5.1C312.9,59.7,312.5,59.3,311.9,58.9z"/>
<path class="st6" d="M307.7,57.5c2.2,0.1,4.1-1.6,4.1-3.7c0.1-2.1-1.7-3.8-3.9-3.9c-2.2-0.1-4,1.6-4.1,3.7
	C303.7,55.6,305.5,57.4,307.7,57.5z"/>
<path class="st6" d="M414.7,93.6c-0.2-0.1-0.4-0.2-0.7-0.3c-1.5-0.6-3.1-0.7-4.6-0.5c-1.2,0.2-2.4,0.4-3.3,1.2
	c-0.2,0.2-0.4,0.5-0.4,0.8c0,1.8,0,3.6,0,5.4c0,0.5,0.4,0.8,0.9,0.8c0.5,0,0.8-0.1,0.9-0.4c0-0.1,0-0.1,0-0.2v-4.5
	c0-0.1,0.1-0.1,0.2-0.1h0.1h0c0.1,0,0.2,0.1,0.2,0.1v4.6c0,2.1,0,4.3,0,6.4c0,0.2,0,0.4,0,0.7c0.1,0.6,0.5,0.9,1.1,0.9
	c1,0.1,1.5-0.4,1.5-1.4c0-1.8,0-3.5,0-5.3v-1.1c0-0.1,0.1-0.2,0.2-0.2c0.1,0,0.2,0.1,0.2,0.2v6.6c0,0,0,0,0,0c0,0.8,0.5,1.2,1.3,1.2
	c0.9,0,1.3-0.5,1.3-1.4c0-3.6,0-11.2,0-11.2v0c0-0.1,0-0.1,0.1-0.1c0,0,0,0,0,0c0,0,0,0,0,0s0,0,0,0h0.1c0.1,0,0.2,0.1,0.2,0.1v4.6
	c0,0.2,0.1,0.3,0.2,0.4c0.2,0.1,0.4,0.2,0.7,0.2c0.6,0,0.8-0.2,0.8-0.8c0-1.7-0.1-3.4,0-5.1C415.7,94.4,415.3,94,414.7,93.6z"/>
<path class="st6" d="M410.5,92.2c2.2,0.1,4.1-1.6,4.1-3.7c0.1-2.1-1.7-3.8-3.9-3.9c-2.2-0.1-4,1.6-4.1,3.7
	C406.6,90.3,408.3,92.1,410.5,92.2z"/>
<path class="st6" d="M270.5,118.6c-0.9,0-1.7,0.1-2.6,0.3c-0.8,0.2-1.3,0.7-1.6,1.5c-0.7,1.5-1.4,3-2.1,4.6
	c-0.1,0.2-0.2,0.4-0.2,0.6c-0.1,0.4,0,0.8,0.5,0.9c0.4,0.1,0.7,0,0.9-0.5c0.6-1.3,1.2-2.6,1.8-4c0.1-0.2,0.2-0.4,0.3-0.5l0.2,0
	c0,0.2-0.1,0.4-0.1,0.6c-0.9,2-1.8,3.9-2.8,5.9c-0.1,0.1-0.1,0.3-0.2,0.5h3.1c0,0.3,0.1,0.5,0.1,0.8c0,1.4,0,2.8,0,4.1
	c0,0.8,0.4,1.3,1.2,1.3c0.8,0,1.2-0.3,1.2-1.2c0-1.4,0-2.7,0-4.1c0-0.2,0-0.3,0-0.4c0-0.1,0.1-0.1,0.1-0.2c0.1-0.1,0.2-0.1,0.3,0
	c0,0.1,0.1,0.1,0.1,0.2c0,0.1,0,0.3,0,0.4c0,1.4,0,2.7,0,4.1c0,0.9,0.4,1.2,1.2,1.2c0.8,0,1.2-0.4,1.2-1.3c0-1.4,0-2.8,0-4.1
	c0-0.2,0-0.5,0.1-0.8h3.1c-0.1-0.2-0.1-0.4-0.2-0.5c-0.9-2-1.9-3.9-2.8-5.9c-0.1-0.2-0.1-0.4-0.1-0.6l0.2,0c0.1,0.2,0.2,0.4,0.3,0.5
	c0.6,1.3,1.2,2.6,1.8,4c0.2,0.4,0.5,0.6,0.9,0.5c0.5-0.1,0.6-0.5,0.5-0.9c0-0.2-0.1-0.4-0.2-0.6c-0.7-1.5-1.4-3-2.1-4.6
	c-0.3-0.7-0.8-1.2-1.6-1.5c-0.9-0.3-1.7-0.3-2.6-0.3 M270.4,118c2.2,0,3.9-1.7,3.9-3.8c0-2.1-1.7-3.9-3.8-3.9
	c-2.1,0-3.9,1.7-3.9,3.8C266.6,116.2,268.3,118,270.4,118z"/>
<path class="st6" d="M360.4,116.8c-0.9,0-1.7,0.1-2.6,0.3c-0.8,0.2-1.3,0.7-1.6,1.5c-0.7,1.5-1.4,3-2.1,4.6
	c-0.1,0.2-0.2,0.4-0.2,0.6c-0.1,0.4,0,0.8,0.5,0.9c0.4,0.1,0.7,0,0.9-0.5c0.6-1.3,1.2-2.6,1.8-4c0.1-0.2,0.2-0.4,0.3-0.5l0.2,0
	c0,0.2-0.1,0.4-0.1,0.6c-0.9,2-1.8,3.9-2.8,5.9c-0.1,0.1-0.1,0.3-0.2,0.5h3.1c0,0.3,0.1,0.5,0.1,0.8c0,1.4,0,2.8,0,4.1
	c0,0.8,0.4,1.3,1.2,1.3c0.8,0,1.2-0.3,1.2-1.2c0-1.4,0-2.7,0-4.1c0-0.2,0-0.3,0-0.4c0-0.1,0.1-0.1,0.1-0.2c0.1-0.1,0.2-0.1,0.3,0
	c0,0.1,0.1,0.1,0.1,0.2c0,0.1,0,0.3,0,0.4c0,1.4,0,2.7,0,4.1c0,0.9,0.4,1.2,1.2,1.2c0.8,0,1.2-0.4,1.2-1.3c0-1.4,0-2.8,0-4.1
	c0-0.2,0-0.5,0.1-0.8h3.1c-0.1-0.2-0.1-0.4-0.2-0.5c-0.9-2-1.9-3.9-2.8-5.9c-0.1-0.2-0.1-0.4-0.1-0.6l0.2,0c0.1,0.2,0.2,0.4,0.3,0.5
	c0.6,1.3,1.2,2.6,1.8,4c0.2,0.4,0.5,0.6,0.9,0.5c0.5-0.1,0.6-0.5,0.5-0.9c0-0.2-0.1-0.4-0.2-0.6c-0.7-1.5-1.4-3-2.1-4.6
	c-0.3-0.7-0.8-1.2-1.6-1.5c-0.9-0.3-1.7-0.3-2.6-0.3 M360.3,116.2c2.2,0,3.9-1.7,3.9-3.8c0-2.1-1.7-3.9-3.8-3.9
	c-2.1,0-3.9,1.7-3.9,3.8C356.5,114.4,358.2,116.1,360.3,116.2z"/>
<path class="st6" d="M370.2,53.2c-0.9,0-1.7,0.1-2.6,0.3c-0.8,0.2-1.3,0.7-1.6,1.5c-0.7,1.5-1.4,3-2.1,4.6c-0.1,0.2-0.2,0.4-0.2,0.6
	c-0.1,0.4,0,0.8,0.5,0.9c0.4,0.1,0.7,0,0.9-0.5c0.6-1.3,1.2-2.6,1.8-4c0.1-0.2,0.2-0.4,0.3-0.5l0.2,0c0,0.2-0.1,0.4-0.1,0.6
	c-0.9,2-1.8,3.9-2.8,5.9c-0.1,0.1-0.1,0.3-0.2,0.5h3.1c0,0.3,0.1,0.5,0.1,0.8c0,1.4,0,2.8,0,4.1c0,0.8,0.4,1.3,1.2,1.3
	c0.8,0,1.2-0.3,1.2-1.2c0-1.4,0-2.7,0-4.1c0-0.2,0-0.3,0-0.4c0-0.1,0.1-0.1,0.1-0.2c0.1-0.1,0.2-0.1,0.3,0c0,0.1,0.1,0.1,0.1,0.2
	c0,0.1,0,0.3,0,0.4c0,1.4,0,2.7,0,4.1c0,0.9,0.4,1.2,1.2,1.2c0.8,0,1.2-0.4,1.2-1.3c0-1.4,0-2.8,0-4.1c0-0.2,0-0.5,0.1-0.8h3.1
	c-0.1-0.2-0.1-0.4-0.2-0.5c-0.9-2-1.9-3.9-2.8-5.9c-0.1-0.2-0.1-0.4-0.1-0.6l0.2,0c0.1,0.2,0.2,0.4,0.3,0.5c0.6,1.3,1.2,2.6,1.8,4
	c0.2,0.4,0.5,0.6,0.9,0.5c0.5-0.1,0.6-0.5,0.5-0.9c0-0.2-0.1-0.4-0.2-0.6c-0.7-1.5-1.4-3-2.1-4.6c-0.3-0.7-0.8-1.2-1.6-1.5
	c-0.9-0.3-1.7-0.3-2.6-0.3 M370.1,52.6c2.2,0,3.9-1.7,3.9-3.8c0-2.1-1.7-3.9-3.8-3.9c-2.1,0-3.9,1.7-3.9,3.8
	C366.3,50.9,368,52.6,370.1,52.6z"/>
<path class="st6" d="M466.8,106.9c-0.9,0-1.7,0.1-2.6,0.3c-0.8,0.2-1.3,0.7-1.6,1.5c-0.7,1.5-1.4,3-2.1,4.6
	c-0.1,0.2-0.2,0.4-0.2,0.6c-0.1,0.4,0,0.8,0.5,0.9c0.4,0.1,0.7,0,0.9-0.5c0.6-1.3,1.2-2.6,1.8-4c0.1-0.2,0.2-0.4,0.3-0.5l0.2,0
	c0,0.2-0.1,0.4-0.1,0.6c-0.9,2-1.8,3.9-2.8,5.9c-0.1,0.1-0.1,0.3-0.2,0.5h3.1c0,0.3,0.1,0.5,0.1,0.8c0,1.4,0,2.8,0,4.1
	c0,0.8,0.4,1.3,1.2,1.3c0.8,0,1.2-0.3,1.2-1.2c0-1.4,0-2.7,0-4.1c0-0.2,0-0.3,0-0.4c0-0.1,0.1-0.1,0.1-0.2c0.1-0.1,0.2-0.1,0.3,0
	c0,0.1,0.1,0.1,0.1,0.2c0,0.1,0,0.3,0,0.4c0,1.4,0,2.7,0,4.1c0,0.9,0.4,1.2,1.2,1.2c0.8,0,1.2-0.4,1.2-1.3c0-1.4,0-2.8,0-4.1
	c0-0.2,0-0.5,0.1-0.8h3.1c-0.1-0.2-0.1-0.4-0.2-0.5c-0.9-2-1.9-3.9-2.8-5.9c-0.1-0.2-0.1-0.4-0.1-0.6l0.2,0c0.1,0.2,0.2,0.4,0.3,0.5
	c0.6,1.3,1.2,2.6,1.8,4c0.2,0.4,0.5,0.6,0.9,0.5c0.5-0.1,0.6-0.5,0.5-0.9c0-0.2-0.1-0.4-0.2-0.6c-0.7-1.5-1.4-3-2.1-4.6
	c-0.3-0.7-0.8-1.2-1.6-1.5c-0.9-0.3-1.7-0.3-2.6-0.3 M466.7,106.3c2.2,0,3.9-1.7,3.9-3.8c0-2.1-1.7-3.9-3.8-3.9
	c-2.1,0-3.9,1.7-3.9,3.8C462.9,104.6,464.6,106.3,466.7,106.3z"/>
<path class="st6" d="M484.6,252.6c-0.9,0-1.7,0.1-2.6,0.3c-0.8,0.2-1.3,0.7-1.6,1.5c-0.7,1.5-1.4,3-2.1,4.6
	c-0.1,0.2-0.2,0.4-0.2,0.6c-0.1,0.4,0,0.8,0.5,0.9c0.4,0.1,0.7,0,0.9-0.5c0.6-1.3,1.2-2.6,1.8-4c0.1-0.2,0.2-0.4,0.3-0.5l0.2,0
	c0,0.2-0.1,0.4-0.1,0.6c-0.9,2-1.8,3.9-2.8,5.9c-0.1,0.1-0.1,0.3-0.2,0.5h3.1c0,0.3,0.1,0.5,0.1,0.8c0,1.4,0,2.8,0,4.1
	c0,0.8,0.4,1.3,1.2,1.3c0.8,0,1.2-0.3,1.2-1.2c0-1.4,0-2.7,0-4.1c0-0.2,0-0.3,0-0.4c0-0.1,0.1-0.1,0.1-0.2c0.1-0.1,0.2-0.1,0.3,0
	c0,0.1,0.1,0.1,0.1,0.2c0,0.1,0,0.3,0,0.4c0,1.4,0,2.7,0,4.1c0,0.9,0.4,1.2,1.2,1.2c0.8,0,1.2-0.4,1.2-1.3c0-1.4,0-2.8,0-4.1
	c0-0.2,0-0.5,0.1-0.8h3.1c-0.1-0.2-0.1-0.4-0.2-0.5c-0.9-2-1.9-3.9-2.8-5.9c-0.1-0.2-0.1-0.4-0.1-0.6l0.2,0c0.1,0.2,0.2,0.4,0.3,0.5
	c0.6,1.3,1.2,2.6,1.8,4c0.2,0.4,0.5,0.6,0.9,0.5c0.5-0.1,0.6-0.5,0.5-0.9c0-0.2-0.1-0.4-0.2-0.6c-0.7-1.5-1.4-3-2.1-4.6
	c-0.3-0.7-0.8-1.2-1.6-1.5c-0.9-0.3-1.7-0.3-2.6-0.3 M484.5,252c2.2,0,3.9-1.7,3.9-3.8c0-2.1-1.7-3.9-3.8-3.9
	c-2.1,0-3.9,1.7-3.9,3.8C480.7,250.2,482.4,252,484.5,252z"/>
<path class="st6" d="M141.3,37c-0.9,0-1.7,0.1-2.6,0.3c-0.8,0.2-1.3,0.7-1.6,1.5c-0.7,1.5-1.4,3-2.1,4.6c-0.1,0.2-0.2,0.4-0.2,0.6
	c-0.1,0.4,0,0.8,0.5,0.9c0.4,0.1,0.7,0,0.9-0.5c0.6-1.3,1.2-2.6,1.8-4c0.1-0.2,0.2-0.4,0.3-0.5l0.2,0c0,0.2-0.1,0.4-0.1,0.6
	c-0.9,2-1.8,3.9-2.8,5.9c-0.1,0.1-0.1,0.3-0.2,0.5h3.1c0,0.3,0.1,0.5,0.1,0.8c0,1.4,0,2.8,0,4.1c0,0.8,0.4,1.3,1.2,1.3
	c0.8,0,1.2-0.3,1.2-1.2c0-1.4,0-2.7,0-4.1c0-0.2,0-0.3,0-0.4c0-0.1,0.1-0.1,0.1-0.2c0.1-0.1,0.2-0.1,0.3,0c0,0.1,0.1,0.1,0.1,0.2
	c0,0.1,0,0.3,0,0.4c0,1.4,0,2.7,0,4.1c0,0.9,0.4,1.2,1.2,1.2c0.8,0,1.2-0.4,1.2-1.3c0-1.4,0-2.8,0-4.1c0-0.2,0-0.5,0.1-0.8h3.1
	c-0.1-0.2-0.1-0.4-0.2-0.5c-0.9-2-1.9-3.9-2.8-5.9c-0.1-0.2-0.1-0.4-0.1-0.6l0.2,0c0.1,0.2,0.2,0.4,0.3,0.5c0.6,1.3,1.2,2.6,1.8,4
	c0.2,0.4,0.5,0.6,0.9,0.5c0.5-0.1,0.6-0.5,0.5-0.9c0-0.2-0.1-0.4-0.2-0.6c-0.7-1.5-1.4-3-2.1-4.6c-0.3-0.7-0.8-1.2-1.6-1.5
	c-0.9-0.3-1.7-0.3-2.6-0.3 M141.2,36.4c2.2,0,3.9-1.7,3.9-3.8c0-2.1-1.7-3.9-3.8-3.9c-2.1,0-3.9,1.7-3.9,3.8
	C137.4,34.7,139.1,36.4,141.2,36.4z"/>
<path class="st6" d="M122.4,125.3c-0.9,0-1.7,0.1-2.6,0.3c-0.8,0.2-1.3,0.7-1.6,1.5c-0.7,1.5-1.4,3-2.1,4.6
	c-0.1,0.2-0.2,0.4-0.2,0.6c-0.1,0.4,0,0.8,0.5,0.9c0.4,0.1,0.7,0,0.9-0.5c0.6-1.3,1.2-2.6,1.8-4c0.1-0.2,0.2-0.4,0.3-0.5l0.2,0
	c0,0.2-0.1,0.4-0.1,0.6c-0.9,2-1.8,3.9-2.8,5.9c-0.1,0.1-0.1,0.3-0.2,0.5h3.1c0,0.3,0.1,0.5,0.1,0.8c0,1.4,0,2.8,0,4.1
	c0,0.8,0.4,1.3,1.2,1.3c0.8,0,1.2-0.3,1.2-1.2c0-1.4,0-2.7,0-4.1c0-0.2,0-0.3,0-0.4c0-0.1,0.1-0.1,0.1-0.2c0.1-0.1,0.2-0.1,0.3,0
	c0,0.1,0.1,0.1,0.1,0.2c0,0.1,0,0.3,0,0.4c0,1.4,0,2.7,0,4.1c0,0.9,0.4,1.2,1.2,1.2c0.8,0,1.2-0.4,1.2-1.3c0-1.4,0-2.8,0-4.1
	c0-0.2,0-0.5,0.1-0.8h3.1c-0.1-0.2-0.1-0.4-0.2-0.5c-0.9-2-1.9-3.9-2.8-5.9c-0.1-0.2-0.1-0.4-0.1-0.6l0.2,0c0.1,0.2,0.2,0.4,0.3,0.5
	c0.6,1.3,1.2,2.6,1.8,4c0.2,0.4,0.5,0.6,0.9,0.5c0.5-0.1,0.6-0.5,0.5-0.9c0-0.2-0.1-0.4-0.2-0.6c-0.7-1.5-1.4-3-2.1-4.6
	c-0.3-0.7-0.8-1.2-1.6-1.5c-0.9-0.3-1.7-0.3-2.6-0.3 M122.4,124.7c2.2,0,3.9-1.7,3.9-3.8c0-2.1-1.7-3.9-3.8-3.9
	c-2.1,0-3.9,1.7-3.9,3.8C118.5,122.9,120.2,124.6,122.4,124.7z"/>
<polygon class="st7" points="107.1,52.5 102,53.4 96.1,57 93.2,63.3 93.9,68.9 96.1,72.2 94.7,77.6 100.2,75.7 106.2,76.4 
	114.3,74.8 120.3,69 120.7,64.9 120.3,60.9 117.3,55.9 110.8,52.9 "/>
<polygon class="st7" points="141.5,89.1 136.4,90 130.5,93.7 127.6,99.9 128.4,105.5 130.5,108.8 129.1,114.3 134.6,112.3 
	140.6,113 148.8,111.4 154.7,105.6 155.2,101.5 154.7,97.5 151.8,92.6 145.2,89.5 "/>
<polygon class="st7" points="160.3,1 155.2,1.9 149.2,5.5 146.4,11.8 147.1,17.4 149.2,20.7 147.9,26.1 153.3,24.2 159.4,24.9 
	167.5,23.3 173.4,17.5 173.9,13.4 173.4,9.4 170.5,4.5 163.9,1.4 "/>
<polygon class="st7" points="289.7,82.6 284.6,83.5 278.6,87.1 275.8,93.4 276.5,99 278.6,102.3 277.3,107.7 282.7,105.8 
	288.8,106.5 296.9,104.9 302.8,99.1 303.3,95 302.8,91 299.9,86 293.3,83 "/>
<polygon class="st7" points="327.5,22.7 322.4,23.6 316.4,27.3 313.6,33.5 314.3,39.1 316.4,42.4 315.1,47.9 320.5,45.9 326.6,46.6 
	334.7,45 340.6,39.2 341.1,35.1 340.6,31.1 337.7,26.2 331.1,23.1 "/>
<polygon class="st7" points="389.4,16.7 384.3,17.6 378.3,21.2 375.5,27.5 376.2,33.1 378.3,36.4 377,41.8 382.4,39.9 388.4,40.6 
	396.6,39 402.5,33.2 403,29.1 402.5,25.1 399.6,20.2 393,17.1 "/>
<polygon class="st7" points="429.4,57.2 424.3,58.1 418.4,61.7 415.5,68 416.3,73.6 418.4,76.9 417,82.3 422.5,80.4 428.5,81.1 
	436.6,79.5 442.6,73.7 443.1,69.6 442.6,65.6 439.6,60.7 433.1,57.6 "/>
<polygon class="st7" points="379.8,80.6 374.7,81.5 368.8,85.2 365.9,91.4 366.6,97 368.8,100.3 367.4,105.8 372.9,103.8 
	378.9,104.5 387,102.9 393,97.1 393.4,93 393,89 390,84.1 383.5,81 "/>
<polygon class="st7" points="486.2,71.2 481.1,72.1 475.2,75.8 472.4,82.1 473.1,87.6 475.2,91 473.8,96.4 479.3,94.4 485.3,95.2 
	493.5,93.6 499.4,87.8 499.9,83.6 499.4,79.6 496.5,74.7 489.9,71.6 "/>
<polygon class="st7" points="504.5,217.1 499.4,218 493.5,221.7 490.6,228 491.4,233.5 493.5,236.9 492.1,242.3 497.6,240.3 
	503.6,241.1 511.8,239.4 517.7,233.6 518.2,229.5 517.7,225.5 514.7,220.6 508.2,217.5 "/>
<polygon class="st7" points="186.1,217.5 181,218.4 175.1,222.1 172.2,228.4 172.9,233.9 175.1,237.2 173.7,242.7 179.2,240.7 
	185.2,241.4 193.3,239.8 199.3,234 199.7,229.9 199.3,225.9 196.3,221 189.7,217.9 "/>
<path class="st8" d="M127.5,116.3l1.5-7.5l-0.4-0.6c-1.5-2-2.4-4.4-2.4-6.9c-0.1-7.2,6.5-13.1,14.8-13.2c8.3-0.1,15.1,5.6,15.3,12.7
	c0.1,7.2-6.5,13.1-14.8,13.2c-2.1,0-4.1-0.3-6-1l-0.4-0.2l-0.4,0.1L127.5,116.3z M130,113.1l3-1.3l1.2-0.5c0.6-0.2,1.2-0.2,1.8,0
	c1.7,0.6,3.6,1,5.4,0.9c7.3-0.1,13.1-5.2,13-11.3s-6.1-11-13.3-10.9c-7.3,0.1-13.1,5.2-13,11.3c0,2,1,4.3,2.3,6.1
	c0.4,0.5,0.6,1.3,0.4,1.9L130,113.1z"/>
<path class="st8" d="M146.3,28.2l1.5-7.5l-0.4-0.6c-1.5-2-2.4-4.4-2.4-6.9c-0.1-7.2,6.5-13.1,14.8-13.2s15.1,5.6,15.3,12.7
	c0.1,7.2-6.5,13.1-14.8,13.2c-2.1,0-4.1-0.3-6-1l-0.4-0.2l-0.4,0.1L146.3,28.2z M148.7,24.9l3-1.3l1.2-0.5c0.6-0.2,1.2-0.2,1.8,0
	c1.7,0.6,3.6,1,5.4,0.9c7.3-0.1,13.1-5.2,13-11.3s-6.1-11-13.3-10.9c-7.3,0.1-13.1,5.2-13,11.3c0,2,1,4.3,2.3,6.1
	c0.4,0.5,0.6,1.3,0.4,1.9L148.7,24.9z"/>
<path class="st8" d="M275.7,109.7l1.5-7.5l-0.4-0.6c-1.5-2-2.4-4.4-2.4-6.9c-0.1-7.2,6.5-13.1,14.8-13.2c8.3-0.1,15.1,5.6,15.3,12.7
	c0.1,7.2-6.5,13.1-14.8,13.2c-2.1,0-4.1-0.3-6-1l-0.4-0.2l-0.4,0.1L275.7,109.7z M278.1,106.5l3-1.3l1.2-0.5c0.6-0.2,1.2-0.2,1.8,0
	c1.7,0.6,3.6,1,5.4,0.9c7.3-0.1,13.1-5.2,13-11.3c-0.1-6.1-6.1-11-13.3-10.9c-7.3,0.1-13.1,5.2-13,11.3c0,2,1,4.3,2.3,6.1
	c0.4,0.5,0.6,1.3,0.4,1.9L278.1,106.5z"/>
<path class="st8" d="M313.5,49.9l1.5-7.5l-0.4-0.6c-1.5-2-2.4-4.4-2.4-6.9c-0.1-7.2,6.5-13.1,14.8-13.2c8.3-0.1,15.1,5.6,15.3,12.7
	s-6.5,13.1-14.8,13.2c-2.1,0-4.1-0.3-6-1l-0.4-0.2l-0.4,0.1L313.5,49.9z M315.9,46.7l3-1.3l1.2-0.5c0.6-0.2,1.2-0.2,1.8,0
	c1.7,0.6,3.6,1,5.4,0.9c7.3-0.1,13.1-5.2,13-11.3c-0.1-6.1-6.1-11-13.3-10.9c-7.3,0.1-13.1,5.2-13,11.3c0,2,1,4.3,2.3,6.1
	c0.4,0.5,0.6,1.3,0.4,1.9L315.9,46.7z"/>
<path class="st8" d="M375.3,43.9l1.5-7.5l-0.4-0.6c-1.5-2-2.4-4.4-2.4-6.9c-0.1-7.2,6.5-13.1,14.8-13.2s15.1,5.6,15.3,12.7
	s-6.5,13.1-14.8,13.2c-2.1,0-4.1-0.3-6-1l-0.4-0.2l-0.4,0.1L375.3,43.9z M377.8,40.6l3-1.3l1.2-0.5c0.6-0.2,1.2-0.2,1.8,0
	c1.7,0.6,3.6,1,5.4,0.9c7.3-0.1,13.1-5.2,13-11.3c-0.1-6.1-6.1-11-13.3-10.9c-7.3,0.1-13.1,5.2-13,11.3c0,2,1,4.3,2.3,6.1
	c0.4,0.5,0.6,1.3,0.4,1.9L377.8,40.6z"/>
<path class="st8" d="M415.4,84.4l1.5-7.5l-0.4-0.6c-1.5-2-2.4-4.4-2.4-6.9c-0.1-7.2,6.5-13.1,14.8-13.2c8.3-0.1,15.1,5.6,15.3,12.7
	c0.1,7.2-6.5,13.1-14.8,13.2c-2.1,0-4.1-0.3-6-1L423,81l-0.4,0.1L415.4,84.4z M417.9,81.1l3-1.3l1.2-0.5c0.6-0.2,1.2-0.2,1.8,0
	c1.7,0.6,3.6,1,5.4,0.9c7.3-0.1,13.1-5.2,13-11.3c-0.1-6.1-6.1-11-13.3-10.9c-7.3,0.1-13.1,5.2-13,11.3c0,2,1,4.3,2.3,6.1
	c0.4,0.5,0.6,1.3,0.4,1.9L417.9,81.1z"/>
<path class="st8" d="M365.8,107.8l1.5-7.5l-0.4-0.6c-1.5-2-2.4-4.4-2.4-6.9c-0.1-7.2,6.5-13.1,14.8-13.2c8.3-0.1,15.1,5.6,15.3,12.7
	c0.1,7.2-6.5,13.1-14.8,13.2c-2.1,0-4.1-0.3-6-1l-0.4-0.2l-0.4,0.1L365.8,107.8z M368.3,104.6l3-1.3l1.2-0.5c0.6-0.2,1.2-0.2,1.8,0
	c1.7,0.6,3.6,1,5.4,0.9c7.3-0.1,13.1-5.2,13-11.3c-0.1-6.1-6.1-11-13.3-10.9c-7.3,0.1-13.1,5.2-13,11.3c0,2,1,4.3,2.3,6.1
	c0.4,0.5,0.6,1.3,0.4,1.9L368.3,104.6z"/>
<path class="st8" d="M472.2,98.4l1.5-7.5l-0.4-0.6c-1.5-2-2.4-4.4-2.4-6.9c-0.1-7.2,6.5-13.1,14.8-13.2s15.1,5.6,15.3,12.7
	s-6.5,13.1-14.8,13.2c-2.1,0-4.1-0.3-6-1l-0.4-0.2l-0.4,0.1L472.2,98.4z M474.7,95.2l3-1.3l1.2-0.5c0.6-0.2,1.2-0.2,1.8,0
	c1.7,0.6,3.6,1,5.4,0.9c7.3-0.1,13.1-5.2,13-11.3c-0.1-6.1-6.1-11-13.3-10.9c-7.3,0.1-13.1,5.2-13,11.3c0,2,1,4.3,2.3,6.1
	c0.4,0.5,0.6,1.3,0.4,1.9L474.7,95.2z"/>
<path class="st8" d="M490.5,244.3l1.5-7.5l-0.4-0.6c-1.5-2-2.4-4.4-2.4-6.9c-0.1-7.2,6.5-13.1,14.8-13.2c8.3-0.1,15.1,5.6,15.3,12.7
	s-6.5,13.1-14.8,13.2c-2.1,0-4.1-0.3-6-1l-0.4-0.2l-0.4,0.1L490.5,244.3z M493,241.1l3-1.3l1.2-0.5c0.6-0.2,1.2-0.2,1.8,0
	c1.7,0.6,3.6,1,5.4,0.9c7.3-0.1,13.1-5.2,13-11.3c-0.1-6.1-6.1-11-13.3-10.9c-7.3,0.1-13.1,5.2-13,11.3c0,2,1,4.3,2.3,6.1
	c0.4,0.5,0.6,1.3,0.4,1.9L493,241.1z"/>
<path class="st8" d="M172.1,244.7l1.5-7.5l-0.4-0.6c-1.5-2-2.4-4.4-2.4-6.9c-0.1-7.2,6.5-13.1,14.8-13.2c8.3-0.1,15.1,5.6,15.3,12.7
	s-6.5,13.1-14.8,13.2c-2.1,0-4.1-0.3-6-1l-0.4-0.2l-0.4,0.1L172.1,244.7z M174.6,241.5l3-1.3l1.2-0.5c0.6-0.2,1.2-0.2,1.8,0
	c1.7,0.6,3.6,1,5.4,0.9c7.3-0.1,13.1-5.2,13-11.3s-6.1-11-13.3-10.9c-7.3,0.1-13.1,5.2-13,11.3c0,2,1,4.3,2.3,6.1
	c0.4,0.5,0.6,1.3,0.4,1.9L174.6,241.5z"/>
<path class="st8" d="M93.3,79.6l1.5-7.5l-0.4-0.6c-1.5-2-2.4-4.4-2.4-6.9c-0.1-7.2,6.5-13.1,14.8-13.2c8.3-0.1,15.1,5.6,15.3,12.7
	c0.1,7.2-6.5,13.1-14.8,13.2c-2.1,0-4.1-0.3-6-1l-0.4-0.2l-0.4,0.1L93.3,79.6z M95.8,76.4l3-1.3l1.2-0.5c0.6-0.2,1.2-0.2,1.8,0
	c1.7,0.6,3.6,1,5.4,0.9c7.3-0.1,13.1-5.2,13-11.3s-6.1-11-13.3-10.9c-7.3,0.1-13.1,5.2-13,11.3c0,2,1,4.3,2.3,6.1
	c0.4,0.5,0.6,1.3,0.4,1.9L95.8,76.4z"/>
<polygon class="st9" points="205.1,128.8 183.4,143 188.8,169.2 228,174.5 246.9,153.6 233.4,132.3 "/>
<polygon class="st10" points="226.6,186 187.5,180.7 188.9,169.2 228,174.5 "/>
<polygon class="st11" points="245.5,165.1 226.6,186 228,174.5 246.9,153.6 "/>
<polygon class="st12" points="182,154.5 187.4,180.7 188.8,169.2 183.4,143 "/>
<polygon class="st13" points="209.8,119.8 194.4,129.8 198,148.8 226.1,152.2 239.5,137.3 229.9,122.2 "/>
<polygon class="st14" points="211.8,124.2 201.2,131.1 203.7,144.1 222.9,146.4 232,136.3 225.5,125.9 "/>
<polygon class="st15" points="224.4,166.4 196.6,162.8 198,148.8 226.1,152.2 "/>
<polygon class="st16" points="237.8,151.5 224.4,166.4 226.1,152.2 239.5,137.3 "/>
<polygon class="st17" points="192.7,144 196.6,162.8 198.3,148.6 194.4,129.8 "/>
<g>
	<path class="st8" d="M150.5,8.1v3.5h1.1v0.4H150V8.1H150.5z"/>
	<path class="st8" d="M154,10.1h1.6v0.1c0,0.4-0.1,0.9-0.4,1.2c-0.1,0.2-0.6,0.7-1.5,0.7c-1.2,0-2-0.9-2-2c0-1.1,0.9-2,2.1-2
		c0.4,0,0.8,0.1,1.2,0.4c0.2,0.1,0.3,0.3,0.5,0.5l-0.3,0.3c-0.1-0.2-0.2-0.3-0.4-0.4c-0.2-0.2-0.5-0.3-1-0.3c-1,0-1.6,0.7-1.6,1.6
		c0,1.1,0.9,1.6,1.6,1.6c0.5,0,1-0.3,1.2-0.7c0.1-0.1,0.1-0.3,0.2-0.6H154V10.1z"/>
	<path class="st8" d="M157.1,8.1c0.2,0,0.6,0,0.9,0.2c0.1,0.1,0.4,0.3,0.4,0.8c0,0.2,0,0.5-0.4,0.8c0.5,0.1,0.8,0.6,0.8,1
		c0,0.4-0.2,0.7-0.4,0.9c-0.3,0.2-0.7,0.3-0.9,0.3h-1V8.1H157.1z M156.9,9.9h0.3c0.2,0,0.8,0,0.8-0.7c0-0.6-0.6-0.7-0.8-0.7h-0.3
		V9.9z M156.9,11.7h0.5c0.3,0,0.5,0,0.7-0.2c0.2-0.1,0.3-0.3,0.3-0.5c0-0.3-0.2-0.5-0.3-0.6c-0.1-0.1-0.4-0.1-0.7-0.1h-0.4V11.7z"/>
	<path class="st8" d="M160.5,8.6v3.5h-0.4V8.6h-1V8.1h2.4v0.4H160.5z"/>
	<path class="st8" d="M152.2,16.1h-1.7l-0.5,1.1h-0.5l1.8-4.1l1.8,4.1h-0.5L152.2,16.1z M152,15.7l-0.7-1.6l-0.7,1.6H152z"/>
	<path class="st8" d="M155.5,12.9h0.4v4.3h-0.4v-0.3c-0.1,0.2-0.4,0.4-0.8,0.4c-0.6,0-1.2-0.4-1.2-1.3c0-0.8,0.6-1.3,1.2-1.3
		c0.5,0,0.7,0.3,0.8,0.4V12.9z M153.9,16c0,0.5,0.3,0.9,0.8,0.9c0.5,0,0.8-0.4,0.8-0.9c0-0.6-0.4-0.9-0.8-0.9
		C154.3,15.1,153.9,15.4,153.9,16z"/>
	<path class="st8" d="M156.6,16c0-0.7,0.5-1.3,1.3-1.3c0.8,0,1.3,0.5,1.3,1.3c0,0.7-0.6,1.3-1.3,1.3C157.1,17.3,156.6,16.7,156.6,16
		z M157,16c0,0.6,0.4,0.9,0.9,0.9c0.4,0,0.9-0.3,0.9-0.9c0-0.6-0.4-0.9-0.9-0.9C157.4,15.1,157,15.4,157,16z"/>
	<path class="st8" d="M160.2,18.6h-0.4v-3.8h0.4v0.3c0.3-0.4,0.7-0.4,0.8-0.4c0.8,0,1.2,0.6,1.2,1.3c0,0.7-0.4,1.3-1.2,1.3
		c-0.4,0-0.7-0.2-0.9-0.4V18.6z M161.8,16c0-0.6-0.4-0.9-0.8-0.9c-0.4,0-0.8,0.3-0.8,0.9c0,0.5,0.3,0.9,0.8,0.9
		C161.5,16.9,161.8,16.5,161.8,16z"/>
	<path class="st8" d="M163.3,15.1v2.1h-0.4v-2.1h-0.3v-0.4h0.3v-0.9h0.4v0.9h0.4v0.4H163.3z"/>
	<path class="st8" d="M164.4,13.5c0.2,0,0.3,0.1,0.3,0.3s-0.1,0.3-0.3,0.3c-0.2,0-0.3-0.1-0.3-0.3S164.2,13.5,164.4,13.5z
		 M164.6,14.8v2.5h-0.4v-2.5H164.6z"/>
	<path class="st8" d="M165.2,16c0-0.7,0.5-1.3,1.3-1.3c0.8,0,1.3,0.5,1.3,1.3c0,0.7-0.6,1.3-1.3,1.3C165.8,17.3,165.2,16.7,165.2,16
		z M165.7,16c0,0.6,0.4,0.9,0.9,0.9c0.4,0,0.9-0.3,0.9-0.9c0-0.6-0.4-0.9-0.9-0.9C166.1,15.1,165.7,15.4,165.7,16z"/>
	<path class="st8" d="M168.5,14.8h0.4V15c0.1-0.1,0.3-0.3,0.7-0.3c0.3,0,0.6,0.1,0.7,0.3c0.1,0.2,0.1,0.4,0.1,0.7v1.5H170v-1.5
		c0-0.1,0-0.3-0.1-0.4c-0.1-0.1-0.2-0.2-0.4-0.2c-0.1,0-0.3,0-0.4,0.2c-0.2,0.2-0.2,0.5-0.2,0.7v1.3h-0.4V14.8z"/>
</g>
<g>
	<path class="st8" d="M100.5,60.7c-0.1-0.1-0.3-0.3-0.5-0.4c-0.2-0.1-0.4-0.2-0.7-0.2c-0.9,0-1.6,0.7-1.6,1.6c0,1.1,0.9,1.6,1.6,1.6
		c0.3,0,0.5-0.1,0.7-0.2c0.2-0.1,0.4-0.3,0.5-0.3v0.5c-0.4,0.3-0.9,0.4-1.2,0.4c-1.2,0-2-0.9-2-2c0-1.2,0.9-2,2.1-2
		c0.2,0,0.7,0,1.2,0.4V60.7z"/>
	<path class="st8" d="M101.7,59.5v4.3h-0.4v-4.3H101.7z"/>
	<path class="st8" d="M102.7,60.1c0.2,0,0.3,0.1,0.3,0.3c0,0.2-0.1,0.3-0.3,0.3c-0.2,0-0.3-0.1-0.3-0.3
		C102.4,60.3,102.5,60.1,102.7,60.1z M102.9,61.4v2.5h-0.4v-2.5H102.9z"/>
	<path class="st8" d="M103.7,61.4h0.4v0.3c0.1-0.2,0.3-0.3,0.6-0.3c0.4,0,0.6,0.3,0.7,0.4c0.2-0.4,0.6-0.4,0.7-0.4
		c0.7,0,0.8,0.6,0.8,1v1.6h-0.4v-1.5c0-0.3,0-0.6-0.4-0.6c-0.5,0-0.5,0.5-0.5,0.8v1.4h-0.4v-1.5c0-0.2,0-0.7-0.4-0.7
		c-0.5,0-0.5,0.5-0.5,0.8v1.3h-0.4V61.4z"/>
	<path class="st8" d="M109.6,61.4h0.4v2.5h-0.4v-0.3c-0.1,0.2-0.4,0.4-0.8,0.4c-0.6,0-1.2-0.4-1.2-1.3c0-0.8,0.6-1.3,1.2-1.3
		c0.5,0,0.7,0.3,0.8,0.4V61.4z M108,62.6c0,0.5,0.3,0.9,0.8,0.9c0.5,0,0.8-0.4,0.8-0.9c0-0.6-0.4-0.9-0.8-0.9
		C108.4,61.7,108,62,108,62.6z"/>
	<path class="st8" d="M111.3,61.7v2.1h-0.4v-2.1h-0.3v-0.4h0.3v-0.9h0.4v0.9h0.4v0.4H111.3z"/>
	<path class="st8" d="M114.3,63.2c-0.1,0.1-0.2,0.3-0.3,0.4c-0.2,0.2-0.5,0.3-0.8,0.3c-0.6,0-1.2-0.4-1.2-1.3c0-0.7,0.4-1.3,1.2-1.3
		c0.5,0,0.8,0.2,0.9,0.4c0.2,0.2,0.2,0.6,0.2,0.9h-1.9c0,0.5,0.4,0.8,0.8,0.8c0.2,0,0.4-0.1,0.5-0.2c0.1-0.1,0.2-0.2,0.3-0.3
		L114.3,63.2z M113.9,62.3c-0.1-0.4-0.4-0.6-0.7-0.6s-0.7,0.3-0.7,0.6H113.9z"/>
	<path class="st8" d="M99.7,67.8H98l-0.5,1.1h-0.5l1.8-4.1l1.8,4.1h-0.5L99.7,67.8z M99.5,67.4l-0.7-1.6l-0.7,1.6H99.5z"/>
	<path class="st8" d="M103,67.2c-0.2-0.3-0.5-0.4-0.8-0.4c-0.5,0-0.9,0.3-0.9,0.9c0,0.6,0.4,0.9,0.9,0.9c0.3,0,0.6-0.1,0.8-0.4v0.5
		c-0.3,0.2-0.5,0.3-0.8,0.3c-0.8,0-1.3-0.5-1.3-1.3c0-0.8,0.6-1.3,1.3-1.3c0.4,0,0.6,0.2,0.8,0.2V67.2z"/>
	<path class="st8" d="M104.1,66.9v2.1h-0.4v-2.1h-0.3v-0.4h0.3v-0.9h0.4v0.9h0.4v0.4H104.1z"/>
	<path class="st8" d="M105.2,65.2c0.2,0,0.3,0.1,0.3,0.3c0,0.2-0.1,0.3-0.3,0.3s-0.3-0.1-0.3-0.3C104.9,65.4,105,65.2,105.2,65.2z
		 M105.4,66.5v2.5h-0.4v-2.5H105.4z"/>
	<path class="st8" d="M106.3,66.5l0.7,1.7l0.7-1.7h0.5l-1.2,2.6l-1.2-2.6H106.3z"/>
	<path class="st8" d="M108.9,65.2c0.2,0,0.3,0.1,0.3,0.3c0,0.2-0.1,0.3-0.3,0.3c-0.2,0-0.3-0.1-0.3-0.3
		C108.6,65.4,108.7,65.2,108.9,65.2z M109.1,66.5v2.5h-0.4v-2.5H109.1z"/>
	<path class="st8" d="M110.9,67c-0.1-0.1-0.2-0.2-0.3-0.2c-0.2,0-0.3,0.1-0.3,0.3c0,0.2,0.1,0.2,0.4,0.3c0.4,0.1,0.5,0.3,0.6,0.4
		c0.1,0.1,0.1,0.3,0.1,0.4c0,0.5-0.4,0.8-0.8,0.8c-0.1,0-0.6,0-0.9-0.6l0.4-0.2c0,0.1,0.2,0.4,0.5,0.4c0.3,0,0.4-0.2,0.4-0.4
		c0-0.2-0.2-0.3-0.4-0.4c-0.3-0.1-0.5-0.2-0.6-0.4c-0.1-0.1-0.1-0.2-0.1-0.4c0-0.4,0.3-0.7,0.7-0.7c0.1,0,0.5,0,0.7,0.4L110.9,67z"
		/>
	<path class="st8" d="M112,66.5h0.4v0.3c0.1-0.2,0.3-0.3,0.6-0.3c0.4,0,0.6,0.3,0.7,0.4c0.2-0.4,0.6-0.4,0.7-0.4
		c0.7,0,0.8,0.6,0.8,1v1.6h-0.4v-1.5c0-0.3,0-0.6-0.4-0.6c-0.5,0-0.5,0.5-0.5,0.8v1.4h-0.4v-1.5c0-0.2,0-0.7-0.4-0.7
		c-0.5,0-0.5,0.5-0.5,0.8v1.3H112V66.5z"/>
</g>
<g>
	<path class="st8" d="M134.1,98.6h1.6v0.1c0,0.4-0.1,0.9-0.4,1.2c-0.1,0.2-0.6,0.7-1.5,0.7c-1.2,0-2-0.9-2-2c0-1.1,0.9-2,2.1-2
		c0.4,0,0.8,0.1,1.2,0.4c0.2,0.1,0.3,0.3,0.5,0.5l-0.3,0.3c-0.1-0.2-0.2-0.3-0.4-0.4c-0.2-0.2-0.5-0.3-1-0.3c-1,0-1.6,0.7-1.6,1.6
		c0,1.1,0.9,1.6,1.6,1.6c0.5,0,1-0.3,1.2-0.7c0.1-0.1,0.1-0.3,0.2-0.6h-1.2V98.6z"/>
	<path class="st8" d="M138.6,99.9c-0.1,0.1-0.2,0.3-0.3,0.4c-0.2,0.2-0.5,0.3-0.8,0.3c-0.6,0-1.2-0.4-1.2-1.3c0-0.7,0.4-1.3,1.2-1.3
		c0.5,0,0.8,0.2,0.9,0.4c0.2,0.2,0.2,0.6,0.2,0.9h-1.9c0,0.5,0.4,0.8,0.8,0.8c0.2,0,0.4-0.1,0.5-0.2c0.1-0.1,0.2-0.2,0.3-0.3
		L138.6,99.9z M138.2,99.1c-0.1-0.4-0.4-0.6-0.7-0.6c-0.4,0-0.7,0.3-0.7,0.6H138.2z"/>
	<path class="st8" d="M139.3,98.1h0.4v0.3c0.1-0.1,0.3-0.3,0.7-0.3c0.3,0,0.6,0.1,0.7,0.3c0.1,0.2,0.1,0.4,0.1,0.7v1.5h-0.4v-1.5
		c0-0.1,0-0.3-0.1-0.4c-0.1-0.1-0.2-0.2-0.4-0.2c-0.1,0-0.3,0-0.4,0.2c-0.2,0.2-0.2,0.5-0.2,0.7v1.3h-0.4V98.1z"/>
	<path class="st8" d="M143.9,96.3h0.4v4.3h-0.4v-0.3c-0.1,0.2-0.4,0.4-0.8,0.4c-0.6,0-1.2-0.4-1.2-1.3c0-0.8,0.6-1.3,1.2-1.3
		c0.5,0,0.7,0.3,0.8,0.4V96.3z M142.3,99.3c0,0.5,0.3,0.9,0.8,0.9c0.5,0,0.8-0.4,0.8-0.9c0-0.6-0.4-0.9-0.8-0.9
		C142.7,98.4,142.3,98.7,142.3,99.3z"/>
	<path class="st8" d="M147.3,99.9c-0.1,0.1-0.2,0.3-0.3,0.4c-0.2,0.2-0.5,0.3-0.8,0.3c-0.6,0-1.2-0.4-1.2-1.3c0-0.7,0.4-1.3,1.2-1.3
		c0.5,0,0.8,0.2,0.9,0.4c0.2,0.2,0.2,0.6,0.2,0.9h-1.9c0,0.5,0.4,0.8,0.8,0.8c0.2,0,0.4-0.1,0.5-0.2c0.1-0.1,0.2-0.2,0.3-0.3
		L147.3,99.9z M146.9,99.1c-0.1-0.4-0.4-0.6-0.7-0.6c-0.4,0-0.7,0.3-0.7,0.6H146.9z"/>
	<path class="st8" d="M148,98.1h0.4v0.3c0-0.1,0.2-0.3,0.6-0.3c0.1,0,0.3,0,0.4,0.1l-0.2,0.4c-0.1-0.1-0.2-0.1-0.2-0.1
		c-0.2,0-0.3,0.1-0.3,0.2c-0.1,0.1-0.1,0.3-0.1,0.7v1.3H148V98.1z"/>
	<path class="st8" d="M132.5,101.7v3.9h-0.4v-3.9H132.5z"/>
	<path class="st8" d="M135.3,101.4h0.4v4.3h-0.4v-0.3c-0.1,0.2-0.4,0.4-0.8,0.4c-0.6,0-1.2-0.4-1.2-1.3c0-0.8,0.6-1.3,1.2-1.3
		c0.5,0,0.7,0.3,0.8,0.4V101.4z M133.7,104.5c0,0.5,0.3,0.9,0.8,0.9c0.5,0,0.8-0.4,0.8-0.9c0-0.6-0.4-0.9-0.8-0.9
		C134.1,103.5,133.7,103.9,133.7,104.5z"/>
	<path class="st8" d="M138.7,105.1c-0.1,0.1-0.2,0.3-0.3,0.4c-0.2,0.2-0.5,0.3-0.8,0.3c-0.6,0-1.2-0.4-1.2-1.3
		c0-0.7,0.4-1.3,1.2-1.3c0.5,0,0.8,0.2,0.9,0.4c0.2,0.2,0.2,0.6,0.2,0.9h-1.9c0,0.5,0.4,0.8,0.8,0.8c0.2,0,0.4-0.1,0.5-0.2
		c0.1-0.1,0.2-0.2,0.3-0.3L138.7,105.1z M138.3,104.2c-0.1-0.4-0.4-0.6-0.7-0.6s-0.7,0.3-0.7,0.6H138.3z"/>
	<path class="st8" d="M139.4,103.2h0.4v0.3c0.1-0.1,0.3-0.3,0.7-0.3c0.3,0,0.6,0.1,0.7,0.3c0.1,0.2,0.1,0.4,0.1,0.7v1.5h-0.4v-1.5
		c0-0.1,0-0.3-0.1-0.4c-0.1-0.1-0.2-0.2-0.4-0.2c-0.1,0-0.3,0-0.4,0.2c-0.2,0.2-0.2,0.5-0.2,0.7v1.3h-0.4V103.2z"/>
	<path class="st8" d="M142.6,103.6v2.1h-0.4v-2.1h-0.3v-0.4h0.3v-0.9h0.4v0.9h0.4v0.4H142.6z"/>
	<path class="st8" d="M143.6,102c0.2,0,0.3,0.1,0.3,0.3s-0.1,0.3-0.3,0.3s-0.3-0.1-0.3-0.3S143.4,102,143.6,102z M143.8,103.2v2.5
		h-0.4v-2.5H143.8z"/>
	<path class="st8" d="M145.1,103.6v2.1h-0.4v-2.1h-0.3v-0.4h0.3v-0.9h0.4v0.9h0.4v0.4H145.1z"/>
	<path class="st8" d="M146.8,105.4l-1.1-2.2h0.5l0.9,1.8l0.8-1.8h0.5l-1.8,3.8h-0.5L146.8,105.4z"/>
</g>
<g>
	<path class="st8" d="M281.8,91.7h1.6v0.1c0,0.4-0.1,0.9-0.4,1.2c-0.1,0.2-0.6,0.7-1.5,0.7c-1.2,0-2-0.9-2-2c0-1.1,0.9-2,2.1-2
		c0.4,0,0.8,0.1,1.2,0.4c0.2,0.1,0.3,0.3,0.5,0.5l-0.3,0.3c-0.1-0.2-0.2-0.3-0.4-0.4c-0.2-0.2-0.5-0.3-1-0.3c-1,0-1.6,0.7-1.6,1.6
		c0,1.1,0.9,1.6,1.6,1.6c0.5,0,1-0.3,1.2-0.7c0.1-0.1,0.1-0.3,0.2-0.6h-1.2V91.7z"/>
	<path class="st8" d="M286,91.2h0.4v2.5H286v-0.3c-0.1,0.2-0.4,0.4-0.8,0.4c-0.6,0-1.2-0.4-1.2-1.3c0-0.8,0.6-1.3,1.2-1.3
		c0.5,0,0.7,0.3,0.8,0.4V91.2z M284.4,92.4c0,0.5,0.3,0.9,0.8,0.9c0.5,0,0.8-0.4,0.8-0.9c0-0.6-0.4-0.9-0.8-0.9
		C284.8,91.5,284.4,91.8,284.4,92.4z"/>
	<path class="st8" d="M288,93.4l-1.1-2.2h0.5l0.9,1.8l0.8-1.8h0.5l-1.8,3.8h-0.5L288,93.4z"/>
	<path class="st8" d="M279.6,98.8l0.7-4.2l1.5,3.3l1.5-3.3l0.6,4.2h-0.4l-0.4-2.7l-1.3,2.9l-1.3-2.9l-0.4,2.7H279.6z"/>
	<path class="st8" d="M286.6,96.3h0.4v2.5h-0.4v-0.3c-0.1,0.2-0.4,0.4-0.8,0.4c-0.6,0-1.2-0.4-1.2-1.3c0-0.8,0.6-1.3,1.2-1.3
		c0.5,0,0.7,0.3,0.8,0.4V96.3z M285,97.6c0,0.5,0.3,0.9,0.8,0.9c0.5,0,0.8-0.4,0.8-0.9c0-0.6-0.4-0.9-0.8-0.9
		C285.4,96.7,285,97,285,97.6z"/>
	<path class="st8" d="M287.9,96.3h0.4v0.3c0-0.1,0.2-0.3,0.6-0.3c0.1,0,0.3,0,0.4,0.1l-0.2,0.4c-0.1-0.1-0.2-0.1-0.2-0.1
		c-0.2,0-0.3,0.1-0.3,0.2c-0.1,0.1-0.1,0.3-0.1,0.7v1.3h-0.4V96.3z"/>
	<path class="st8" d="M289.6,96.3h0.4v0.3c0-0.1,0.2-0.3,0.6-0.3c0.1,0,0.3,0,0.4,0.1l-0.2,0.4c-0.1-0.1-0.2-0.1-0.2-0.1
		c-0.2,0-0.3,0.1-0.3,0.2c-0.1,0.1-0.1,0.3-0.1,0.7v1.3h-0.4V96.3z"/>
	<path class="st8" d="M291.6,95.1c0.2,0,0.3,0.1,0.3,0.3s-0.1,0.3-0.3,0.3c-0.2,0-0.3-0.1-0.3-0.3S291.4,95.1,291.6,95.1z
		 M291.8,96.3v2.5h-0.4v-2.5H291.8z"/>
	<path class="st8" d="M294.5,96.3h0.4v2.5h-0.4v-0.3c-0.1,0.2-0.4,0.4-0.8,0.4c-0.6,0-1.2-0.4-1.2-1.3c0-0.8,0.6-1.3,1.2-1.3
		c0.5,0,0.7,0.3,0.8,0.4V96.3z M292.9,97.6c0,0.5,0.3,0.9,0.8,0.9c0.5,0,0.8-0.4,0.8-0.9c0-0.6-0.4-0.9-0.8-0.9
		C293.3,96.7,292.9,97,292.9,97.6z"/>
	<path class="st8" d="M297.6,96.3h0.4v2.4c0,0.3,0,0.6-0.2,1c-0.2,0.2-0.5,0.5-1,0.5c-0.4,0-0.7-0.2-0.9-0.3s-0.3-0.4-0.3-0.8h0.4
		c0,0.2,0.1,0.4,0.2,0.5c0.2,0.2,0.4,0.2,0.6,0.2c0.3,0,0.5-0.1,0.6-0.3c0.1-0.2,0.1-0.4,0.1-0.6v-0.4c-0.1,0.2-0.4,0.4-0.8,0.4
		c-0.4,0-0.6-0.1-0.8-0.3c-0.2-0.2-0.4-0.5-0.4-1c0-0.5,0.2-0.8,0.4-1c0.2-0.2,0.5-0.3,0.8-0.3c0.4,0,0.6,0.2,0.8,0.4V96.3z
		 M296.2,96.9c-0.2,0.2-0.2,0.5-0.2,0.7c0,0.2,0,0.5,0.3,0.7c0.1,0.1,0.3,0.2,0.5,0.2c0.2,0,0.4-0.1,0.5-0.2
		c0.2-0.2,0.3-0.4,0.3-0.7c0-0.3-0.1-0.5-0.3-0.7c-0.1-0.1-0.3-0.2-0.6-0.2C296.5,96.7,296.3,96.8,296.2,96.9z"/>
	<path class="st8" d="M301,98.2c-0.1,0.1-0.2,0.3-0.3,0.4c-0.2,0.2-0.5,0.3-0.8,0.3c-0.6,0-1.2-0.4-1.2-1.3c0-0.7,0.4-1.3,1.2-1.3
		c0.5,0,0.8,0.2,0.9,0.4c0.2,0.2,0.2,0.6,0.2,0.9h-1.9c0,0.5,0.4,0.8,0.8,0.8c0.2,0,0.4-0.1,0.5-0.2c0.1-0.1,0.2-0.2,0.3-0.3
		L301,98.2z M300.6,97.3c-0.1-0.4-0.4-0.6-0.7-0.6c-0.4,0-0.7,0.3-0.7,0.6H300.6z"/>
</g>
<g>
	<path class="st8" d="M319.8,29.6c0.2,0,0.6,0,0.9,0.2c0.1,0.1,0.4,0.3,0.4,0.8c0,0.2,0,0.5-0.4,0.8c0.5,0.1,0.7,0.6,0.7,1
		c0,0.4-0.2,0.7-0.4,0.9c-0.3,0.2-0.7,0.3-0.9,0.3h-1v-3.9H319.8z M319.5,31.4h0.3c0.2,0,0.8,0,0.8-0.7c0-0.6-0.6-0.7-0.8-0.7h-0.3
		V31.4z M319.5,33.1h0.5c0.3,0,0.5,0,0.7-0.2c0.2-0.1,0.3-0.3,0.3-0.5c0-0.3-0.2-0.5-0.3-0.6c-0.1-0.1-0.4-0.1-0.7-0.1h-0.4V33.1z"
		/>
	<path class="st8" d="M323.9,31.1h0.4v2.5h-0.4v-0.3c-0.1,0.2-0.4,0.4-0.8,0.4c-0.6,0-1.2-0.4-1.2-1.3c0-0.8,0.6-1.3,1.2-1.3
		c0.5,0,0.7,0.3,0.8,0.4V31.1z M322.4,32.3c0,0.5,0.3,0.9,0.8,0.9c0.5,0,0.8-0.4,0.8-0.9c0-0.6-0.4-0.9-0.8-0.9
		C322.7,31.4,322.4,31.7,322.4,32.3z"/>
	<path class="st8" d="M326.2,31.7c-0.1-0.1-0.2-0.2-0.3-0.2c-0.2,0-0.3,0.1-0.3,0.3c0,0.2,0.1,0.2,0.4,0.3c0.4,0.1,0.5,0.3,0.6,0.4
		c0.1,0.1,0.1,0.3,0.1,0.4c0,0.5-0.4,0.8-0.8,0.8c-0.1,0-0.6,0-0.9-0.6l0.4-0.2c0,0.1,0.2,0.4,0.5,0.4c0.3,0,0.4-0.2,0.4-0.4
		c0-0.2-0.2-0.3-0.4-0.4c-0.3-0.1-0.5-0.2-0.6-0.4c-0.1-0.1-0.1-0.2-0.1-0.4c0-0.4,0.3-0.7,0.7-0.7c0.1,0,0.5,0,0.7,0.4L326.2,31.7z
		"/>
	<path class="st8" d="M327.5,29.9c0.2,0,0.3,0.1,0.3,0.3c0,0.2-0.1,0.3-0.3,0.3s-0.3-0.1-0.3-0.3C327.2,30,327.3,29.9,327.5,29.9z
		 M327.7,31.1v2.5h-0.4v-2.5H327.7z"/>
	<path class="st8" d="M330.4,31.8c-0.2-0.3-0.5-0.4-0.8-0.4c-0.5,0-0.9,0.3-0.9,0.9c0,0.6,0.4,0.9,0.9,0.9c0.3,0,0.6-0.1,0.8-0.4
		v0.5c-0.3,0.2-0.5,0.3-0.8,0.3c-0.8,0-1.3-0.5-1.3-1.3c0-0.8,0.6-1.3,1.3-1.3c0.4,0,0.6,0.2,0.8,0.2V31.8z"/>
	<path class="st8" d="M319.5,34.7v3.9H319v-3.9H319.5z"/>
	<path class="st8" d="M320.4,36.2h0.4v0.3c0.1-0.1,0.3-0.3,0.7-0.3c0.3,0,0.6,0.1,0.7,0.3c0.1,0.2,0.1,0.4,0.1,0.7v1.5h-0.4v-1.5
		c0-0.1,0-0.3-0.1-0.4c-0.1-0.1-0.2-0.2-0.4-0.2c-0.1,0-0.3,0-0.4,0.2c-0.2,0.2-0.2,0.5-0.2,0.7v1.3h-0.4V36.2z"/>
	<path class="st8" d="M325.1,36.9c-0.2-0.3-0.5-0.4-0.8-0.4c-0.5,0-0.9,0.3-0.9,0.9s0.4,0.9,0.9,0.9c0.3,0,0.6-0.1,0.8-0.4v0.5
		c-0.3,0.2-0.5,0.3-0.8,0.3c-0.8,0-1.3-0.5-1.3-1.3c0-0.8,0.6-1.3,1.3-1.3c0.4,0,0.6,0.2,0.8,0.2V36.9z"/>
	<path class="st8" d="M325.6,37.5c0-0.7,0.5-1.3,1.3-1.3s1.3,0.5,1.3,1.3c0,0.7-0.6,1.3-1.3,1.3S325.6,38.2,325.6,37.5z M326,37.5
		c0,0.6,0.4,0.9,0.9,0.9c0.4,0,0.9-0.3,0.9-0.9c0-0.6-0.4-0.9-0.9-0.9S326,36.9,326,37.5z"/>
	<path class="st8" d="M328.9,36.2h0.4v0.3c0.1-0.2,0.3-0.3,0.6-0.3c0.4,0,0.6,0.3,0.7,0.4c0.2-0.4,0.6-0.4,0.7-0.4
		c0.7,0,0.8,0.6,0.8,1v1.6h-0.4v-1.5c0-0.3,0-0.6-0.4-0.6c-0.5,0-0.5,0.5-0.5,0.8v1.4h-0.4v-1.5c0-0.2,0-0.7-0.4-0.7
		c-0.5,0-0.5,0.5-0.5,0.8v1.3h-0.4V36.2z"/>
	<path class="st8" d="M335.1,38.1c-0.1,0.1-0.2,0.3-0.3,0.4c-0.2,0.2-0.5,0.3-0.8,0.3c-0.6,0-1.2-0.4-1.2-1.3c0-0.7,0.4-1.3,1.2-1.3
		c0.5,0,0.8,0.2,0.9,0.4c0.2,0.2,0.2,0.6,0.2,0.9h-1.9c0,0.5,0.4,0.8,0.8,0.8c0.2,0,0.4-0.1,0.5-0.2c0.1-0.1,0.2-0.2,0.3-0.3
		L335.1,38.1z M334.7,37.2c-0.1-0.4-0.4-0.6-0.7-0.6s-0.7,0.3-0.7,0.6H334.7z"/>
</g>
<g>
	<path class="st8" d="M373.7,90.3h1.6v0.1c0,0.4-0.1,0.9-0.4,1.2c-0.1,0.2-0.6,0.7-1.5,0.7c-1.2,0-2-0.9-2-2c0-1.1,0.9-2,2.1-2
		c0.4,0,0.8,0.1,1.2,0.4c0.2,0.1,0.3,0.3,0.5,0.5l-0.3,0.3c-0.1-0.2-0.2-0.3-0.4-0.4c-0.2-0.2-0.5-0.3-1-0.3c-1,0-1.6,0.7-1.6,1.6
		c0,1.1,0.9,1.6,1.6,1.6c0.5,0,1-0.3,1.2-0.7c0.1-0.1,0.1-0.3,0.2-0.6h-1.2V90.3z"/>
	<path class="st8" d="M376.4,91.2c0,0.2,0,0.4,0.1,0.5c0.1,0.1,0.2,0.2,0.4,0.2c0.2,0,0.4-0.1,0.4-0.2c0.1-0.2,0.1-0.4,0.1-0.5v-1.4
		h0.4v1.5c0,0.3,0,0.5-0.2,0.7c-0.2,0.2-0.5,0.3-0.8,0.3s-0.5-0.1-0.8-0.3c-0.2-0.2-0.2-0.4-0.2-0.7v-1.5h0.4V91.2z"/>
	<path class="st8" d="M378.7,89.8h0.4v0.3c0.1-0.1,0.3-0.3,0.7-0.3c0.3,0,0.6,0.1,0.7,0.3c0.1,0.2,0.1,0.4,0.1,0.7v1.5h-0.4v-1.5
		c0-0.1,0-0.3-0.1-0.4c-0.1-0.1-0.2-0.2-0.4-0.2c-0.1,0-0.3,0-0.4,0.2c-0.2,0.2-0.2,0.5-0.2,0.7v1.3h-0.4V89.8z"/>
	<path class="st8" d="M374.6,94.3c-0.1-0.1-0.3-0.3-0.5-0.4c-0.2-0.1-0.4-0.2-0.7-0.2c-0.9,0-1.6,0.7-1.6,1.6c0,1.1,0.9,1.6,1.6,1.6
		c0.3,0,0.5-0.1,0.7-0.2c0.2-0.1,0.4-0.3,0.5-0.3V97c-0.4,0.3-0.9,0.4-1.2,0.4c-1.2,0-2-0.9-2-2c0-1.2,0.9-2,2.1-2
		c0.2,0,0.7,0,1.2,0.4V94.3z"/>
	<path class="st8" d="M375.2,96.1c0-0.7,0.5-1.3,1.3-1.3c0.8,0,1.3,0.5,1.3,1.3c0,0.7-0.6,1.3-1.3,1.3
		C375.7,97.4,375.2,96.9,375.2,96.1z M375.6,96.1c0,0.6,0.4,0.9,0.9,0.9c0.4,0,0.9-0.3,0.9-0.9c0-0.6-0.4-0.9-0.9-0.9
		C376,95.2,375.6,95.5,375.6,96.1z"/>
	<path class="st8" d="M378.4,94.9h0.4v0.3c0.1-0.1,0.3-0.3,0.7-0.3c0.3,0,0.6,0.1,0.7,0.3c0.1,0.2,0.1,0.4,0.1,0.7v1.5H380v-1.5
		c0-0.1,0-0.3-0.1-0.4c-0.1-0.1-0.2-0.2-0.4-0.2c-0.1,0-0.3,0-0.4,0.2c-0.2,0.2-0.2,0.5-0.2,0.7v1.3h-0.4V94.9z"/>
	<path class="st8" d="M381.6,95.3v2.1h-0.4v-2.1H381v-0.4h0.3V94h0.4v0.9h0.4v0.4H381.6z"/>
	<path class="st8" d="M382.5,94.9h0.4v0.3c0-0.1,0.2-0.3,0.6-0.3c0.1,0,0.3,0,0.4,0.1l-0.2,0.4c-0.1-0.1-0.2-0.1-0.2-0.1
		c-0.2,0-0.3,0.1-0.3,0.2c-0.1,0.1-0.1,0.3-0.1,0.7v1.3h-0.4V94.9z"/>
	<path class="st8" d="M383.9,96.1c0-0.7,0.5-1.3,1.3-1.3c0.8,0,1.3,0.5,1.3,1.3c0,0.7-0.6,1.3-1.3,1.3
		C384.5,97.4,383.9,96.9,383.9,96.1z M384.4,96.1c0,0.6,0.4,0.9,0.9,0.9c0.4,0,0.9-0.3,0.9-0.9c0-0.6-0.4-0.9-0.9-0.9
		C384.8,95.2,384.4,95.5,384.4,96.1z"/>
	<path class="st8" d="M387.6,93v4.3h-0.4V93H387.6z"/>
</g>
<g>
	<path class="st8" d="M424.2,65.3h-1.6v1.2h1.6v0.4h-1.6v1.5h1.6v0.4h-2v-3.9h2V65.3z"/>
	<path class="st8" d="M426.8,66.4h0.4v3.8h-0.4v-1.7c-0.1,0.2-0.4,0.4-0.8,0.4c-0.6,0-1.2-0.4-1.2-1.3c0-0.8,0.6-1.3,1.2-1.3
		c0.5,0,0.7,0.3,0.8,0.4V66.4z M425.2,67.6c0,0.5,0.3,0.9,0.8,0.9c0.5,0,0.8-0.4,0.8-0.9c0-0.6-0.4-0.9-0.8-0.9
		C425.6,66.7,425.2,67,425.2,67.6z"/>
	<path class="st8" d="M428.5,67.9c0,0.2,0,0.4,0.1,0.5c0.1,0.1,0.2,0.2,0.4,0.2c0.2,0,0.4-0.1,0.4-0.2c0.1-0.2,0.1-0.4,0.1-0.5v-1.4
		h0.4v1.5c0,0.3,0,0.5-0.2,0.7c-0.2,0.2-0.5,0.3-0.8,0.3c-0.2,0-0.5-0.1-0.7-0.3c-0.2-0.2-0.2-0.4-0.2-0.7v-1.5h0.4V67.9z"/>
	<path class="st8" d="M432.7,66.4h0.4v2.5h-0.4v-0.3c-0.1,0.2-0.4,0.4-0.8,0.4c-0.6,0-1.2-0.4-1.2-1.3c0-0.8,0.6-1.3,1.2-1.3
		c0.5,0,0.7,0.3,0.8,0.4V66.4z M431.1,67.6c0,0.5,0.3,0.9,0.8,0.9c0.5,0,0.8-0.4,0.8-0.9c0-0.6-0.4-0.9-0.8-0.9
		C431.5,66.7,431.1,67,431.1,67.6z"/>
	<path class="st8" d="M434.3,64.6v4.3h-0.4v-4.3H434.3z"/>
	<path class="st8" d="M422.9,70.1c0.4,0,0.7,0,1,0.3c0.3,0.2,0.4,0.6,0.4,0.8c0,0.6-0.3,1.1-1.2,1.1h-0.4V74h-0.4v-3.9H422.9z
		 M422.6,71.9h0.4c0.5,0,0.8-0.3,0.8-0.7c0-0.6-0.6-0.7-0.9-0.7h-0.3V71.9z"/>
	<path class="st8" d="M426.5,71.5h0.4V74h-0.4v-0.3c-0.1,0.2-0.4,0.4-0.8,0.4c-0.6,0-1.2-0.4-1.2-1.3c0-0.8,0.6-1.3,1.2-1.3
		c0.5,0,0.7,0.3,0.8,0.4V71.5z M425,72.8c0,0.5,0.3,0.9,0.8,0.9c0.5,0,0.8-0.4,0.8-0.9c0-0.6-0.4-0.9-0.8-0.9
		C425.3,71.9,425,72.2,425,72.8z"/>
	<path class="st8" d="M428.6,73.8l-1.1-2.2h0.5l0.9,1.8l0.8-1.8h0.5l-1.8,3.8h-0.5L428.6,73.8z"/>
</g>
<g>
	<path class="st8" d="M382.5,24.3c-0.2-0.3-0.5-0.4-0.8-0.4c-0.5,0-0.9,0.3-0.9,0.9c0,0.6,0.4,0.9,0.9,0.9c0.3,0,0.6-0.1,0.8-0.4
		v0.5c-0.3,0.2-0.5,0.3-0.8,0.3c-0.8,0-1.3-0.5-1.3-1.3c0-0.8,0.6-1.3,1.3-1.3c0.4,0,0.6,0.2,0.8,0.2V24.3z"/>
	<path class="st8" d="M383.5,25.5c-0.3-0.4-0.4-0.9-0.4-1.4c0-0.6,0.1-1.1,0.4-1.4c0.3-0.4,0.7-0.6,1-0.6s0.7,0.2,1,0.6
		c0.3,0.4,0.4,0.9,0.4,1.4c0,0.6-0.1,1.1-0.4,1.4c-0.3,0.4-0.7,0.6-1,0.6S383.8,25.9,383.5,25.5z M383.8,22.9
		c-0.2,0.3-0.3,0.8-0.3,1.2c0,0.4,0.1,0.9,0.3,1.2c0.2,0.3,0.5,0.4,0.7,0.4s0.5-0.1,0.7-0.4c0.2-0.3,0.3-0.8,0.3-1.2
		c0-0.4-0.1-0.9-0.3-1.2c-0.2-0.3-0.5-0.4-0.7-0.4S384,22.5,383.8,22.9z"/>
	<path class="st8" d="M386.5,26l1.4-1.7c0.1-0.1,0.4-0.4,0.5-0.6c0.2-0.3,0.2-0.4,0.2-0.6c0-0.4-0.3-0.8-0.8-0.8
		c-0.3,0-0.5,0.1-0.7,0.3c-0.1,0.1-0.1,0.3-0.1,0.5h-0.4c0-0.4,0.1-0.6,0.3-0.8c0.2-0.2,0.4-0.4,0.9-0.4c0.7,0,1.2,0.5,1.2,1.2
		c0,0.3-0.1,0.5-0.3,0.8c-0.2,0.2-0.4,0.5-0.5,0.7l-0.8,0.9h1.7V26H386.5z"/>
	<path class="st8" d="M382.8,27.6h-1.6v1.2h1.6v0.4h-1.6v1.5h1.6v0.4h-2v-3.9h2V27.6z"/>
	<path class="st8" d="M383.5,28.7h0.4V29c0.1-0.2,0.3-0.3,0.6-0.3c0.4,0,0.6,0.3,0.7,0.4c0.2-0.4,0.6-0.4,0.7-0.4
		c0.7,0,0.8,0.6,0.8,1v1.6h-0.4v-1.5c0-0.3,0-0.6-0.4-0.6c-0.5,0-0.5,0.5-0.5,0.8v1.4h-0.4v-1.5c0-0.2,0-0.7-0.4-0.7
		c-0.5,0-0.5,0.5-0.5,0.8v1.3h-0.4V28.7z"/>
	<path class="st8" d="M387.7,27.5c0.2,0,0.3,0.1,0.3,0.3s-0.1,0.3-0.3,0.3c-0.2,0-0.3-0.1-0.3-0.3S387.6,27.5,387.7,27.5z
		 M387.9,28.7v2.5h-0.4v-2.5H387.9z"/>
	<path class="st8" d="M389.7,29.3c-0.1-0.1-0.2-0.2-0.3-0.2c-0.2,0-0.3,0.1-0.3,0.3c0,0.2,0.1,0.2,0.4,0.3c0.4,0.1,0.5,0.3,0.6,0.4
		c0.1,0.1,0.1,0.3,0.1,0.4c0,0.5-0.4,0.8-0.8,0.8c-0.1,0-0.6,0-0.9-0.6l0.4-0.2c0,0.1,0.2,0.4,0.5,0.4c0.3,0,0.4-0.2,0.4-0.4
		c0-0.2-0.2-0.3-0.4-0.4c-0.3-0.1-0.5-0.2-0.6-0.4c-0.1-0.1-0.1-0.2-0.1-0.4c0-0.4,0.3-0.7,0.7-0.7c0.1,0,0.5,0,0.7,0.4L389.7,29.3z
		"/>
	<path class="st8" d="M391.8,29.3c-0.1-0.1-0.2-0.2-0.3-0.2c-0.2,0-0.3,0.1-0.3,0.3c0,0.2,0.1,0.2,0.4,0.3c0.4,0.1,0.5,0.3,0.6,0.4
		c0.1,0.1,0.1,0.3,0.1,0.4c0,0.5-0.4,0.8-0.8,0.8c-0.1,0-0.6,0-0.9-0.6l0.4-0.2c0,0.1,0.2,0.4,0.5,0.4c0.3,0,0.4-0.2,0.4-0.4
		c0-0.2-0.2-0.3-0.4-0.4c-0.3-0.1-0.5-0.2-0.6-0.4c-0.1-0.1-0.1-0.2-0.1-0.4c0-0.4,0.3-0.7,0.7-0.7c0.1,0,0.5,0,0.7,0.4L391.8,29.3z
		"/>
	<path class="st8" d="M393.1,27.5c0.2,0,0.3,0.1,0.3,0.3s-0.1,0.3-0.3,0.3c-0.2,0-0.3-0.1-0.3-0.3S392.9,27.5,393.1,27.5z
		 M393.3,28.7v2.5h-0.4v-2.5H393.3z"/>
	<path class="st8" d="M394,29.9c0-0.7,0.5-1.3,1.3-1.3s1.3,0.5,1.3,1.3c0,0.7-0.6,1.3-1.3,1.3C394.5,31.2,394,30.7,394,29.9z
		 M394.4,29.9c0,0.6,0.4,0.9,0.9,0.9c0.4,0,0.9-0.3,0.9-0.9c0-0.6-0.4-0.9-0.9-0.9C394.8,29,394.4,29.3,394.4,29.9z"/>
	<path class="st8" d="M397.2,28.7h0.4V29c0.1-0.1,0.3-0.3,0.7-0.3c0.3,0,0.6,0.1,0.7,0.3c0.1,0.2,0.1,0.4,0.1,0.7v1.5h-0.4v-1.5
		c0-0.1,0-0.3-0.1-0.4c-0.1-0.1-0.2-0.2-0.4-0.2c-0.1,0-0.3,0-0.4,0.2c-0.2,0.2-0.2,0.5-0.2,0.7v1.3h-0.4V28.7z"/>
	<path class="st8" d="M381.7,32.7v3.5h-0.4v-3.5h-1v-0.4h2.4v0.4H381.7z"/>
	<path class="st8" d="M384.5,33.8h0.4v2.5h-0.4v-0.3c-0.1,0.2-0.4,0.4-0.8,0.4c-0.6,0-1.2-0.4-1.2-1.3c0-0.8,0.6-1.3,1.2-1.3
		c0.5,0,0.7,0.3,0.8,0.4V33.8z M382.9,35c0,0.5,0.3,0.9,0.8,0.9c0.5,0,0.8-0.4,0.8-0.9c0-0.6-0.4-0.9-0.8-0.9
		C383.3,34.1,382.9,34.4,382.9,35z"/>
	<path class="st8" d="M386.4,35l-0.9-1.1h0.5l0.6,0.8l0.6-0.8h0.5L387,35l1,1.3h-0.5l-0.8-1l-0.8,1h-0.5L386.4,35z"/>
</g>
<g>
	<path class="st8" d="M477.2,82.9l0.7-4.2l1.5,3.3l1.5-3.3l0.6,4.2h-0.4l-0.4-2.7l-1.3,2.9l-1.3-2.9l-0.4,2.7H477.2z"/>
	<path class="st8" d="M484.5,82.3c-0.1,0.1-0.2,0.3-0.3,0.4c-0.2,0.2-0.5,0.3-0.8,0.3c-0.6,0-1.2-0.4-1.2-1.3c0-0.7,0.4-1.3,1.2-1.3
		c0.5,0,0.8,0.2,0.9,0.4c0.2,0.2,0.2,0.6,0.2,0.9h-1.9c0,0.5,0.4,0.8,0.8,0.8c0.2,0,0.4-0.1,0.5-0.2c0.1-0.1,0.2-0.2,0.3-0.3
		L484.5,82.3z M484.1,81.4c-0.1-0.4-0.4-0.6-0.7-0.6s-0.7,0.3-0.7,0.6H484.1z"/>
	<path class="st8" d="M485.2,80.5h0.4v0.3c0.1-0.1,0.3-0.3,0.7-0.3c0.3,0,0.6,0.1,0.7,0.3c0.1,0.2,0.1,0.4,0.1,0.7v1.5h-0.4v-1.5
		c0-0.1,0-0.3-0.1-0.4c-0.1-0.1-0.2-0.2-0.4-0.2c-0.1,0-0.3,0-0.4,0.2c-0.2,0.2-0.2,0.5-0.2,0.7v1.3h-0.4V80.5z"/>
	<path class="st8" d="M488.4,80.9v2.1H488v-2.1h-0.3v-0.4h0.3v-0.9h0.4v0.9h0.4v0.4H488.4z"/>
	<path class="st8" d="M491.1,80.5h0.4v2.5h-0.4v-0.3c-0.1,0.2-0.4,0.4-0.8,0.4c-0.6,0-1.2-0.4-1.2-1.3c0-0.8,0.6-1.3,1.2-1.3
		c0.5,0,0.7,0.3,0.8,0.4V80.5z M489.5,81.7c0,0.5,0.3,0.9,0.8,0.9c0.5,0,0.8-0.4,0.8-0.9c0-0.6-0.4-0.9-0.8-0.9
		C489.9,80.8,489.5,81.1,489.5,81.7z"/>
	<path class="st8" d="M492.8,78.6v4.3h-0.4v-4.3H492.8z"/>
	<path class="st8" d="M477.8,85.7h2v-1.6h0.4v3.9h-0.4v-1.9h-2v1.9h-0.4v-3.9h0.4V85.7z"/>
	<path class="st8" d="M483.3,87.4c-0.1,0.1-0.2,0.3-0.3,0.4c-0.2,0.2-0.5,0.3-0.8,0.3c-0.6,0-1.2-0.4-1.2-1.3c0-0.7,0.4-1.3,1.2-1.3
		c0.5,0,0.8,0.2,0.9,0.4c0.2,0.2,0.2,0.6,0.2,0.9h-1.9c0,0.5,0.4,0.8,0.8,0.8c0.2,0,0.4-0.1,0.5-0.2c0.1-0.1,0.2-0.2,0.3-0.3
		L483.3,87.4z M482.9,86.6c-0.1-0.4-0.4-0.6-0.7-0.6c-0.4,0-0.7,0.3-0.7,0.6H482.9z"/>
	<path class="st8" d="M485.9,85.6h0.4v2.5h-0.4v-0.3c-0.1,0.2-0.4,0.4-0.8,0.4c-0.6,0-1.2-0.4-1.2-1.3c0-0.8,0.6-1.3,1.2-1.3
		c0.5,0,0.7,0.3,0.8,0.4V85.6z M484.3,86.8c0,0.5,0.3,0.9,0.8,0.9c0.5,0,0.8-0.4,0.8-0.9c0-0.6-0.4-0.9-0.8-0.9
		C484.7,85.9,484.3,86.2,484.3,86.8z"/>
	<path class="st8" d="M487.5,83.8v4.3h-0.4v-4.3H487.5z"/>
	<path class="st8" d="M488.8,86v2.1h-0.4V86h-0.3v-0.4h0.3v-0.9h0.4v0.9h0.4V86H488.8z"/>
	<path class="st8" d="M489.6,83.8h0.4v2.1c0.1-0.1,0.3-0.3,0.7-0.3c0.3,0,0.6,0.1,0.7,0.3c0.1,0.2,0.1,0.4,0.1,0.7v1.5h-0.4v-1.5
		c0-0.1,0-0.3-0.1-0.4c-0.1-0.1-0.2-0.2-0.4-0.2c-0.1,0-0.3,0-0.4,0.2c-0.2,0.2-0.2,0.5-0.2,0.7v1.3h-0.4V83.8z"/>
</g>
<g>
	<path class="st8" d="M495.9,224.8h-1.4v1.2h1.3v0.4h-1.3v1.9h-0.4v-3.9h1.8V224.8z"/>
	<path class="st8" d="M496.1,227.1c0-0.7,0.5-1.3,1.3-1.3c0.8,0,1.3,0.5,1.3,1.3c0,0.7-0.6,1.3-1.3,1.3
		C496.7,228.4,496.1,227.8,496.1,227.1z M496.6,227.1c0,0.6,0.4,0.9,0.9,0.9c0.4,0,0.9-0.3,0.9-0.9c0-0.6-0.4-0.9-0.9-0.9
		C497,226.2,496.6,226.5,496.6,227.1z"/>
	<path class="st8" d="M499.4,225.9h0.4v0.3c0-0.1,0.2-0.3,0.6-0.3c0.1,0,0.3,0,0.4,0.1l-0.2,0.4c-0.1-0.1-0.2-0.1-0.2-0.1
		c-0.2,0-0.3,0.1-0.3,0.2c-0.1,0.1-0.1,0.3-0.1,0.7v1.3h-0.4V225.9z"/>
	<path class="st8" d="M503.2,227.7c-0.1,0.1-0.2,0.3-0.3,0.4c-0.2,0.2-0.5,0.3-0.8,0.3c-0.6,0-1.2-0.4-1.2-1.3
		c0-0.7,0.4-1.3,1.2-1.3c0.5,0,0.8,0.2,0.9,0.4c0.2,0.2,0.2,0.6,0.2,0.9h-1.9c0,0.5,0.4,0.8,0.8,0.8c0.2,0,0.4-0.1,0.5-0.2
		c0.1-0.1,0.2-0.2,0.3-0.3L503.2,227.7z M502.8,226.8c-0.1-0.4-0.4-0.6-0.7-0.6s-0.7,0.3-0.7,0.6H502.8z"/>
	<path class="st8" d="M504.1,224.6c0.2,0,0.3,0.1,0.3,0.3c0,0.2-0.1,0.3-0.3,0.3c-0.2,0-0.3-0.1-0.3-0.3
		C503.8,224.8,503.9,224.6,504.1,224.6z M504.3,225.9v2.5h-0.4v-2.5H504.3z"/>
	<path class="st8" d="M507,225.9h0.4v2.4c0,0.3,0,0.6-0.2,1c-0.2,0.2-0.5,0.5-1,0.5c-0.4,0-0.7-0.2-0.9-0.3
		c-0.2-0.2-0.3-0.4-0.3-0.8h0.4c0,0.2,0.1,0.4,0.2,0.5c0.2,0.2,0.4,0.2,0.6,0.2c0.3,0,0.5-0.1,0.6-0.3c0.1-0.2,0.1-0.4,0.1-0.6V228
		c-0.1,0.2-0.4,0.4-0.8,0.4c-0.4,0-0.6-0.1-0.8-0.3c-0.2-0.2-0.4-0.5-0.4-1c0-0.5,0.2-0.8,0.4-1c0.2-0.2,0.5-0.3,0.8-0.3
		c0.4,0,0.6,0.2,0.8,0.4V225.9z M505.6,226.4c-0.2,0.2-0.2,0.5-0.2,0.7c0,0.2,0,0.5,0.3,0.7c0.1,0.1,0.3,0.2,0.5,0.2
		c0.2,0,0.4-0.1,0.5-0.2c0.2-0.2,0.3-0.4,0.3-0.7c0-0.3-0.1-0.5-0.3-0.7c-0.1-0.1-0.3-0.2-0.6-0.2
		C505.9,226.2,505.7,226.3,505.6,226.4z"/>
	<path class="st8" d="M508.2,225.9h0.4v0.3c0.1-0.1,0.3-0.3,0.7-0.3c0.3,0,0.6,0.1,0.7,0.3c0.1,0.2,0.1,0.4,0.1,0.7v1.5h-0.4v-1.5
		c0-0.1,0-0.3-0.1-0.4c-0.1-0.1-0.2-0.2-0.4-0.2c-0.1,0-0.3,0-0.4,0.2c-0.2,0.2-0.2,0.5-0.2,0.7v1.3h-0.4V225.9z"/>
	<path class="st8" d="M494.5,229.5v3.5h1.1v0.4h-1.5v-3.9H494.5z"/>
	<path class="st8" d="M495.9,232.2c0-0.7,0.5-1.3,1.3-1.3c0.8,0,1.3,0.5,1.3,1.3c0,0.7-0.6,1.3-1.3,1.3
		C496.5,233.5,495.9,233,495.9,232.2z M496.4,232.2c0,0.6,0.4,0.9,0.9,0.9c0.4,0,0.9-0.3,0.9-0.9c0-0.6-0.4-0.9-0.9-0.9
		C496.8,231.3,496.4,231.6,496.4,232.2z"/>
	<path class="st8" d="M499.6,233.4h-0.4v-4.3h0.4v2.2c0.3-0.4,0.7-0.4,0.8-0.4c0.8,0,1.2,0.6,1.2,1.3c0,0.7-0.4,1.3-1.2,1.3
		c-0.4,0-0.7-0.2-0.9-0.4V233.4z M501.2,232.2c0-0.6-0.4-0.9-0.8-0.9c-0.4,0-0.8,0.3-0.8,0.9c0,0.5,0.3,0.9,0.8,0.9
		C500.9,233.1,501.2,232.7,501.2,232.2z"/>
	<path class="st8" d="M502.7,233.4h-0.4v-4.3h0.4v2.2c0.3-0.4,0.7-0.4,0.8-0.4c0.8,0,1.2,0.6,1.2,1.3c0,0.7-0.4,1.3-1.2,1.3
		c-0.4,0-0.7-0.2-0.9-0.4V233.4z M504.3,232.2c0-0.6-0.4-0.9-0.8-0.9c-0.4,0-0.8,0.3-0.8,0.9c0,0.5,0.3,0.9,0.8,0.9
		C504,233.1,504.3,232.7,504.3,232.2z"/>
	<path class="st8" d="M506.2,233.2l-1.1-2.2h0.5l0.9,1.8l0.8-1.8h0.5l-1.8,3.8h-0.5L506.2,233.2z"/>
	<path class="st8" d="M508.3,229.8c0.2,0,0.3,0.1,0.3,0.3c0,0.2-0.1,0.3-0.3,0.3s-0.3-0.1-0.3-0.3
		C508,229.9,508.2,229.8,508.3,229.8z M508.6,231v2.5h-0.4V231H508.6z"/>
	<path class="st8" d="M509.4,231h0.4v0.3c0.1-0.1,0.3-0.3,0.7-0.3c0.3,0,0.6,0.1,0.7,0.3c0.1,0.2,0.1,0.4,0.1,0.7v1.5h-0.4v-1.5
		c0-0.1,0-0.3-0.1-0.4c-0.1-0.1-0.2-0.2-0.4-0.2c-0.1,0-0.3,0-0.4,0.2c-0.2,0.2-0.2,0.5-0.2,0.7v1.3h-0.4V231z"/>
	<path class="st8" d="M514,231h0.4v2.4c0,0.3,0,0.6-0.2,1c-0.2,0.2-0.5,0.5-1,0.5c-0.4,0-0.7-0.2-0.9-0.3c-0.2-0.2-0.3-0.4-0.3-0.8
		h0.4c0,0.2,0.1,0.4,0.2,0.5c0.2,0.2,0.4,0.2,0.6,0.2c0.3,0,0.5-0.1,0.6-0.3c0.1-0.2,0.1-0.4,0.1-0.6v-0.4c-0.1,0.2-0.4,0.4-0.8,0.4
		c-0.4,0-0.6-0.1-0.8-0.3c-0.2-0.2-0.4-0.5-0.4-1c0-0.5,0.2-0.8,0.4-1c0.2-0.2,0.5-0.3,0.8-0.3c0.4,0,0.6,0.2,0.8,0.4V231z
		 M512.7,231.5c-0.2,0.2-0.2,0.5-0.2,0.7c0,0.2,0,0.5,0.3,0.7c0.1,0.1,0.3,0.2,0.5,0.2c0.2,0,0.4-0.1,0.5-0.2
		c0.2-0.2,0.3-0.4,0.3-0.7c0-0.3-0.1-0.5-0.3-0.7c-0.1-0.1-0.3-0.2-0.6-0.2C513,231.3,512.8,231.4,512.7,231.5z"/>
</g>
<g>
	<path class="st8" d="M178.1,225.6c-0.1-0.1-0.1-0.2-0.2-0.3c-0.1-0.1-0.2-0.1-0.4-0.1c-0.4,0-0.7,0.2-0.7,0.6c0,0.2,0,0.2,0.1,0.3
		c0.1,0.1,0.3,0.2,0.4,0.2l0.4,0.2c0.2,0.1,0.4,0.2,0.6,0.4c0.2,0.2,0.3,0.4,0.3,0.7c0,0.7-0.5,1.2-1.2,1.2c-0.3,0-0.6-0.1-0.9-0.3
		c-0.2-0.2-0.3-0.5-0.4-0.7l0.4-0.1c0,0.2,0.1,0.4,0.2,0.5c0.2,0.2,0.4,0.2,0.6,0.2c0.5,0,0.8-0.4,0.8-0.8c0-0.2-0.1-0.3-0.2-0.5
		c-0.1-0.1-0.3-0.2-0.5-0.3l-0.4-0.2c-0.2-0.1-0.3-0.2-0.5-0.3c-0.2-0.2-0.3-0.3-0.3-0.6c0-0.6,0.5-1,1.1-1c0.2,0,0.4,0,0.6,0.2
		c0.2,0.1,0.3,0.3,0.4,0.4L178.1,225.6z"/>
	<path class="st8" d="M181.2,226.3h0.4v2.5h-0.4v-0.3c-0.1,0.2-0.4,0.4-0.8,0.4c-0.6,0-1.2-0.4-1.2-1.3c0-0.8,0.6-1.3,1.2-1.3
		c0.5,0,0.7,0.3,0.8,0.4V226.3z M179.6,227.5c0,0.5,0.3,0.9,0.8,0.9c0.5,0,0.8-0.4,0.8-0.9c0-0.6-0.4-0.9-0.8-0.9
		C179.9,226.6,179.6,226.9,179.6,227.5z"/>
	<path class="st8" d="M182.5,226.3l0.7,1.7l0.7-1.7h0.5l-1.2,2.6l-1.2-2.6H182.5z"/>
	<path class="st8" d="M187.1,228.1c-0.1,0.1-0.2,0.3-0.3,0.4c-0.2,0.2-0.5,0.3-0.8,0.3c-0.6,0-1.2-0.4-1.2-1.3
		c0-0.7,0.4-1.3,1.2-1.3c0.5,0,0.8,0.2,0.9,0.4c0.2,0.2,0.2,0.6,0.2,0.9h-1.9c0,0.5,0.4,0.8,0.8,0.8c0.2,0,0.4-0.1,0.5-0.2
		c0.1-0.1,0.2-0.2,0.3-0.3L187.1,228.1z M186.6,227.2c-0.1-0.4-0.4-0.6-0.7-0.6c-0.4,0-0.7,0.3-0.7,0.6H186.6z"/>
	<path class="st8" d="M189.5,226.7v2.1h-0.4v-2.1h-0.3v-0.4h0.3v-0.9h0.4v0.9h0.4v0.4H189.5z"/>
	<path class="st8" d="M190.4,224.4h0.4v2.1c0.1-0.1,0.3-0.3,0.7-0.3c0.3,0,0.6,0.1,0.7,0.3c0.1,0.2,0.1,0.4,0.1,0.7v1.5h-0.4v-1.5
		c0-0.1,0-0.3-0.1-0.4c-0.1-0.1-0.2-0.2-0.4-0.2c-0.1,0-0.3,0-0.4,0.2c-0.2,0.2-0.2,0.5-0.2,0.7v1.3h-0.4V224.4z"/>
	<path class="st8" d="M195.3,228.1c-0.1,0.1-0.2,0.3-0.3,0.4c-0.2,0.2-0.5,0.3-0.8,0.3c-0.6,0-1.2-0.4-1.2-1.3
		c0-0.7,0.4-1.3,1.2-1.3c0.5,0,0.8,0.2,0.9,0.4c0.2,0.2,0.2,0.6,0.2,0.9h-1.9c0,0.5,0.4,0.8,0.8,0.8c0.2,0,0.4-0.1,0.5-0.2
		c0.1-0.1,0.2-0.2,0.3-0.3L195.3,228.1z M194.8,227.2c-0.1-0.4-0.4-0.6-0.7-0.6c-0.4,0-0.7,0.3-0.7,0.6H194.8z"/>
	<path class="st8" d="M177,229.9c0.2,0,0.6,0,0.9,0.2c0.1,0.1,0.4,0.3,0.4,0.8c0,0.2,0,0.5-0.4,0.8c0.5,0.1,0.8,0.6,0.8,1
		s-0.2,0.7-0.4,0.9c-0.3,0.2-0.7,0.3-0.9,0.3h-1v-3.9H177z M176.8,231.6h0.3c0.2,0,0.8,0,0.8-0.7c0-0.6-0.6-0.7-0.8-0.7h-0.3V231.6z
		 M176.8,233.4h0.5c0.3,0,0.5,0,0.7-0.2c0.2-0.1,0.3-0.3,0.3-0.5c0-0.3-0.2-0.5-0.3-0.6c-0.1-0.1-0.4-0.1-0.7-0.1h-0.4V233.4z"/>
	<path class="st8" d="M181.5,233.2c-0.1,0.1-0.2,0.3-0.3,0.4c-0.2,0.2-0.5,0.3-0.8,0.3c-0.6,0-1.2-0.4-1.2-1.3
		c0-0.7,0.4-1.3,1.2-1.3c0.5,0,0.8,0.2,0.9,0.4c0.2,0.2,0.2,0.6,0.2,0.9h-1.9c0,0.5,0.4,0.8,0.8,0.8c0.2,0,0.4-0.1,0.5-0.2
		c0.1-0.1,0.2-0.2,0.3-0.3L181.5,233.2z M181.1,232.3c-0.1-0.4-0.4-0.6-0.7-0.6c-0.4,0-0.7,0.3-0.7,0.6H181.1z"/>
	<path class="st8" d="M184.4,233.2c-0.1,0.1-0.2,0.3-0.3,0.4c-0.2,0.2-0.5,0.3-0.8,0.3c-0.6,0-1.2-0.4-1.2-1.3
		c0-0.7,0.4-1.3,1.2-1.3c0.5,0,0.8,0.2,0.9,0.4c0.2,0.2,0.2,0.6,0.2,0.9h-1.9c0,0.5,0.4,0.8,0.8,0.8c0.2,0,0.4-0.1,0.5-0.2
		c0.1-0.1,0.2-0.2,0.3-0.3L184.4,233.2z M183.9,232.3c-0.1-0.4-0.4-0.6-0.7-0.6c-0.4,0-0.7,0.3-0.7,0.6H183.9z"/>
	<path class="st8" d="M185.4,229.8l0.4,0.1l-0.6,1.3l-0.3-0.1L185.4,229.8z"/>
	<path class="st8" d="M187.2,231.9c-0.1-0.1-0.2-0.2-0.3-0.2c-0.2,0-0.3,0.1-0.3,0.3c0,0.2,0.1,0.2,0.4,0.3c0.4,0.1,0.5,0.3,0.6,0.4
		c0.1,0.1,0.1,0.3,0.1,0.4c0,0.5-0.4,0.8-0.8,0.8c-0.1,0-0.6,0-0.9-0.6l0.4-0.2c0,0.1,0.2,0.4,0.5,0.4c0.3,0,0.4-0.2,0.4-0.4
		c0-0.2-0.2-0.3-0.4-0.4c-0.3-0.1-0.5-0.2-0.6-0.4c-0.1-0.1-0.1-0.2-0.1-0.4c0-0.4,0.3-0.7,0.7-0.7c0.1,0,0.5,0,0.7,0.4L187.2,231.9
		z"/>
</g>
</svg>
