<?xml version="1.0" encoding="utf-8"?>
<!-- Generator: Adobe Illustrator 22.0.1, SVG Export Plug-In . SVG Version: 6.00 Build 0)  -->
<svg version="1.0" id="Lager_1" xmlns="http://www.w3.org/2000/svg" xmlns:xlink="http://www.w3.org/1999/xlink" x="0px" y="0px"
	 viewBox="0 0 559.9 307.2" style="enable-background:new 0 0 559.9 307.2;" xml:space="preserve">
<style type="text/css">
	.st0{fill:#D4EBED;}
	.st1{fill:#3B5162;}
	.st2{fill:#E4E8E7;}
	.st3{fill:#8EA9A5;}
	.st4{fill:#C2E3E2;}
	.st5{fill:#588F96;}
	.st6{fill:#9A5F5B;}
	.st7{fill:#7FB554;}
	.st8{fill:#80C9C5;}
	.st9{opacity:0.34;fill:#FFFFFF;}
	.st10{fill:#83CAC9;}
	.st11{fill:#83CAC9;stroke:#83CAC9;stroke-width:0.8856;stroke-miterlimit:10;}
	
		.st12{opacity:0.8;fill:none;stroke:#7EB553;stroke-width:0.8707;stroke-linecap:round;stroke-linejoin:round;stroke-miterlimit:10;}
	.st13{opacity:0.8;fill:#7EB553;}
	.st14{opacity:0.7;fill:#A9C8CA;}
	
		.st15{opacity:7.000000e-02;fill:none;stroke:#010202;stroke-width:0.7792;stroke-linecap:round;stroke-linejoin:round;stroke-miterlimit:10;stroke-dasharray:1.7615,2.1138;}
	.st16{fill:#EE721B;}
	.st17{fill:#F3FAFC;}
	.st18{fill:#FFFFFF;}
</style>
<rect x="436.8" y="42.9" class="st0" width="3.2" height="2.6"/>
<rect x="436.8" y="105.1" class="st0" width="3.2" height="4.6"/>
<rect x="436.9" y="180.2" class="st1" width="3.2" height="18.9"/>
<g id="biClH5.tif">
	<g>
		<path class="st2" d="M224.2,6.1c3.2-0.2,6-0.4,8.8-0.6c0.6-0.1,1.1-0.5,1.6-0.8c-0.4-0.5-0.7-1.1-1.2-1.3
			c-1.7-0.7-3.5-1.4-5.2-1.9C222.4-0.2,216.6-1,210.9,2c-0.3,0.1-0.6,0.1-1,0.1c-3.3,0-6.5,0-10,0c0.3,0.7,0.6,1.1,0.7,1.5
			c0.2,1.2,0.2,2.3,0.3,3.5c-1-0.1-2-0.1-2.9-0.3c-2.1-0.6-4.2-1.3-6.3-1.9c-0.1,0.2-0.1,0.4-0.2,0.6c0.4,0.6,0.8,1.2,1.6,2.5
			c-2.2-0.8-3.6-1.3-5.1-1.9c-0.2,0.7-0.4,1.3-0.4,1.4c-1.2-0.7-2.4-2-3.2-1.7c-3.5,1.1-8,0-10.2,4.3c-0.2,0.3-0.9,0.4-1.3,0.5
			c-1.5,0.4-3.1,0.6-4.5,1.2c-1.1,0.4-1.9,1.3-2.9,2c0.1,0.2,0.3,0.4,0.4,0.6c1.1,0.1,2.1,0.1,3.3,0.2c-0.5,2.4-1.3,3.8-4.1,4.2
			c-2.8,0.4-5.4,1.9-8,2.9c0,0.4,0.1,0.8,0.1,1.2c3.1,0.5,6.2,1.1,9.4,1.6c0,0.1-0.1,0.2-0.1,0.3c-2.3,0.5-4.5,1-6.6,1.4
			c1,1,2,2.1,3,3c0.2,0.2,0.6,0.2,1,0.2c1.8-0.1,3.6-0.3,5.5-0.3c1.7,0,3.5-0.1,5.1,0.3c4.7,1,7,4.7,8.8,8.6
			c0.9,1.8,2.4,3.9,0.8,6.2c0,0,0.9,1,1.4,1c0.6,0,1.3-0.5,1.8-0.8c1.4,1.3,2.5,2.4,3.7,3.5c-1.6,0.4-2.8,0-3.9,0.2
			c-0.7,0.1-1.4,1-1.7,1.7c-0.2,0.4,0.4,1.5,0.9,1.7c0.7,0.3,1.6,0,2.4-0.1c0-0.2,0-0.5,0-0.7c-0.6-0.3-1.3-0.7-1.9-1
			c0.2-0.2,0.4-0.5,0.6-0.7c0.5,0.2,1.1,0.4,1.6,0.8c0.8,0.5,2.3,1.3,2.2,1.6c-0.4,1.3-1.2,2.5-2,3.7c-0.3,0.5-1.3,0.7-1.4,1.2
			c-0.4,1.9-1.4,4.2-0.7,5.6c2.1,4.6,4.8,8.8,7.5,13.1c0.4,0.7,1.5,1,2.4,1.4c0.9,0.4,2,0.3,2.7,0.9c2.3,1.8,3,1.7,4-1
			c1.3-3.8,2.7-7.7,4.2-11.4c0.3-0.8,1.4-1.7,2.2-1.8c3.9-0.7,7.2-2.3,9.3-5.8c0.9-1.5,2.3-1.8,4.1-1.8c4.4,0,7.9-2.2,11.8-5.4
			c-2.3-0.4-4-0.6-5.5-0.8c0.5-1.1,1-2.3,1.5-3.4c2.1,0.9,3.9,1.8,5.8,2.6c0.5-4.5-3.8-4.6-5.6-7.5c1.9,0.8,3.2,1.3,4.7,1.8
			c0.6-3.7-3.2-2.4-3.9-4.7c2.5,0.5,4.8,1.9,7.1,0.1c-1.1-0.5-2.1-1-3-1.4c0.1-0.2,0.1-0.4,0.2-0.6c1.4,0,2.8,0,4.2,0
			c0.1-0.3,0.2-0.6,0.3-0.9c-0.8-0.3-1.7-0.7-3.1-1.2c1.1-0.8,2-1.5,3.3-2.5c-1.7-1.3-3.2-2.4-5.4-4c2.4-0.5,4.1-0.8,5.9-1.2
			c-1.5-1.2-2.9-2.3-4.5-3.6c0.8-1.1,1.3-2.5,2.3-3.1c1.4-0.8,1.5-1.8,1.3-3.1c-0.1-0.8-0.3-1.5-0.5-2.3c2.3-0.5,4.5,0.4,6.2-1.8
			c1-1.3,3.3-1.6,5-2.4c0.4-0.2,0.7-0.6,1-0.8c-0.4-0.3-0.7-0.8-1.1-0.9c-1.9-0.4-3.8-1.1-5.7,0.3c-0.7,0.6-2.2,1.3-2.7,1
			c-2.5-1.9-3.9,0.6-5.7,1.2c-0.4,0.1-0.8,0.3-1.2,0.4c0.7-1.4,1.4-2.6,2-3.9c-0.3-0.2-0.5-0.5-0.8-0.7c-1.3,0.6-2.6,1.5-4,1.6
			c-1.6,0.1-3.2-0.5-4.8-0.9C227.1,6.8,225.4,8.4,224.2,6.1z M477.2,225.8c-0.3,0-0.5-0.1-0.7-0.1c-0.4-0.1-0.8-0.2-1.2-0.3
			c-3.7-1.4-4.9-0.8-6.6,2.9c-0.2,0.4-0.5,1-0.6,1c-2.5-0.7-2.1,1.5-2.9,2.6c-0.9,1.2-2.1,2.3-3.5,3c-1.3,0.7-2.8,0.8-4.3,1.1
			c-3.6,0.9-5.9,4.1-5.2,7.2c0.2,0.8,1,1.7,0.8,2.3c-0.9,2.4,0.4,4.3,1.1,6.4c0.8,2.4,2.4,4.9,1.1,7.5c-1,1.9-0.2,2.9,1.5,3.2
			c1.2,0.2,2.5-0.2,3.6-0.7c1.7-0.8,3.2-2.1,5.3-1.1c0.5,0.2,1.5-0.2,2-0.6c2.8-2.9,6.9-2.8,10.3-4.2c0.3-0.1,0.8,0,1.2,0.1
			c3.9,0.6,6.8,2.5,8.1,6.3c1.1-1.2,2-2.2,2.8-3.1c1.3,2.4,2.6,4.5,3.7,6.8c1.5,3.2,3.6,4.3,7,3.4c0.5-0.1,1.2,0,1.7,0.2
			c1.9,0.8,3.3,0.2,4.4-1.5c0.4-0.6,0.7-1.1,1.1-1.6c1.7-2.1,3.3-4.3,5.2-6.1c3.1-2.9,2.6-6.8,3.2-10.4c0.3-1.9,0.2-3.9-0.1-5.8
			c-0.2-1-1.2-1.9-1.9-2.8c-1.6-2.2-3.2-4.5-4.9-6.7c-0.4-0.5-1.4-0.9-2-0.8c-2.6,0.5-3.3-1.2-4.1-3.1c-1.5-3.7-3.2-7.4-4.8-11.1
			c-0.1-0.3-0.5-0.4-0.8-0.7c-1.8,3.7,1.2,8.9-3.9,11.2c-1.8-1.2-3.4-2.4-5.3-3.4c-1.6-0.9-2.2-1.7-1.4-3.5c1.1-2.6,1-2.7-2-3.1
			c-0.3,0-0.6-0.2-1-0.2c-3.2-0.8-5.9,1.1-6.4,4.4C477.6,225,477.4,225.4,477.2,225.8z M135.5,12.4c4.6,0.8,8.5-0.5,12.5-3.1
			c-0.8,4.5-4.6,3.7-7.6,5.6c0.9,0.4,1.8,0.9,2.7,1.3c-5.9-1.5-5.9-1.5-7.2-0.8c1.2,1.3,2.4,2.7,3.7,4.2c-2.2,0.9-5.4-1.1-6.8,2.7
			c1.5-0.1,2.7-0.2,4.1-0.4c-2,2.7,1.6,1.7,2.1,3.6c-1.5-0.3-2.6-0.6-3.7-0.8c-0.6-0.1-1.5-0.2-1.9,0.1c-1.2,0.9-2.2,2.1-3.3,3.2
			c0.7,0.2,1.6,0.8,2.5,0.8c2.1-0.1,4.2-0.5,6.4-0.7c1.2-0.1,2.7-0.4,3.4,0.2c2,1.5,3.3,0.4,5.3-0.8c-2.1-0.7-3.8-1.3-6.2-2.1
			c4.9-0.3,8.5-1.7,10.6-5.3c-0.5-0.9-0.9-1.7-0.8-2.5c0-0.4,0.9-1,1.4-1c2.7-0.2,5.3-0.3,7.1-2.8c0.4-0.6,1.3-0.9,2.1-1.3
			c1.6-0.8,3.2-1.7,5-2.6c-0.8-0.5-1.3-0.8-1.7-1.1c2.8-1,5.7-1.9,8-2.7c-2.8-4.6-7.4-1-11-3.3c-1.3-0.8-3.6-0.3-5.5-0.1
			c-3.5,0.2-6.9,0.8-10.4,0.9c-2.2,0.1-3.7,0.8-4.2,2.8c-1.8-0.3-3.5-0.7-5.2-0.7c-2,0.1-4.1,0.5-6,1c-0.7,0.2-1.5,1.4-1.5,2.1
			c0,0.5,1.2,1.5,1.9,1.5c1.5,0.1,3.1-0.3,4.8-0.5C136,10.9,135.8,11.6,135.5,12.4z M136,38.4c-4-0.2-5.7,0.7-6.4,3.7
			c-0.7,2.7,0.1,4.5,3,4.9c-0.1,0.9,0.2,1.9,0.6,2c2.8,0.5,5.7,1,8.6,1.2c2,0.1,4.5-1.2,5.8-0.4c3.2,1.9,5.8,4.7,8.6,7.2
			c1.4,1.3,0.9,2.3-0.4,3.2c-0.5,0.4-1.1,1-1.2,1.6c-0.5,2.4-1.5,3-4,2.6c-1.6-0.3-2.9-0.1-2.3,2.2c1.1,0,2.2,0.3,3-0.1
			c2.3-1,4.1-0.1,5.5,1.6c1.9,2.3,4.1,4,7.3,4.1c-0.5-1.1-1-2.3-1.7-4.1c1.5,0.8,2.3,1.4,3.2,1.7c0.8,0.3,1.7,0.3,2.6,0.4
			c-0.1-1.1,0.2-2.4-0.3-3.2c-0.6-1-2-1.5-2.7-2.4c-0.6-0.7-1.3-2.1-1.1-2.6c0.9-1.5,2.2-1.2,3.3,0.1c0.5,0.6,0.8,1.3,1.4,1.7
			c0.5,0.4,1.6,0.7,1.8,0.4c1.2-1.1,2.2-2.5,3.4-3.9c-4-2.2-7.5-4.1-11.1-6.2c0.7-0.7,1.3-1.2,1.9-1.8c-2.7-0.4-2.5-2.4-2.5-3.8
			c-1.4-0.6-2.8-0.7-3.4-1.5c-1-1.3-2.2-1.3-3.6-1.5c-0.8-0.1-1.8-0.8-2.3-1.5c-1.4-2.4-2.5-2.9-5.1-1.9c-1.4,0.5-2.9,0.9-4.5,1.4
			c0.2-1.3,0.3-2.4,0.4-3.5c5,0.9,5,0.9,6.5-0.7c-2.5-0.3-4.5-0.5-6.4-0.7c-0.7-0.1-1.4,0.1-2.1-0.1c-1.8-0.7-3.5-0.4-4.7,0.9
			c-1.4,1.5-1.4,3.4-0.2,5.2c0.3,0.5,0.3,1.1,0.6,2.3C133.8,44.2,133.4,41.7,136,38.4z M101.3,44.3c-0.1,0.2-0.2,0.4-0.3,0.6
			c-0.5-0.2-1.1-0.4-1.3-0.8c-1.9-3-1.8-3-4.9-1.3C94,41.4,93,40,91,42.1c-1.1-3.4-3.3-1.9-5.3-1.4c0.3-0.5,0.6-0.8,0.9-1
			c0.3-0.3,0.6-0.5,1-0.7c-1.2-2.5-9.5-3.9-12.5-2.6c-0.6,1.9-1.1,3.4-1.5,4.9c-0.2,0.8-0.8,1.9-0.6,2.2c1.1,1.1,2.4,2.2,3.8,2.6
			c1.7,0.5,3.3-0.3,4.1-2.3c0.7-1.9,2.1-2.9,4.3-3c-0.7,1.3-1.3,2.5-2,3.9c1.6,0.5,2.8,0.9,4.2,1.3c-1.2,0.6-2.1,1.1-3,1.6
			c0.1,0.2,0.1,0.4,0.2,0.6c1.6,0,3.3-0.1,4.9,0c1.5,0.1,3.4-0.8,4.6,1.4c-2.8,0.2-5.2,0.4-7.7,0.6c0,0.3,0,0.5,0,0.8
			c0.9,0.4,1.8,0.8,2.6,1.3c3.9,2.3,7.8,3.1,12.1,0.9c1.1-0.6,2.8,0.1,4.2,0.2c1.4,0.1,2.8,0.2,4.2,0.3c0-0.2,0.1-0.5,0.1-0.7
			c-0.6-0.4-1.2-0.8-2.3-1.4c1.4-0.5,2.4-0.9,3.8-1.4c-5.5-1.6-6.3-5.9-7-10c-1.5,0-2.8,0-4.3,0C100.4,41.8,100.9,43.1,101.3,44.3z
			 M481.2,203.6c0.5,0.8,0.5,1,0.6,1c2,0.8,4,1.6,5.9,2.4c3.7,1.6,4.3,2.8,3.3,6c1.4,0.5,2.8,0.9,4.1,1.5c1.4,0.6,2.5,1.5,3.7-0.6
			c1.3-2.2,3.6-2,5.4,0.3c1.2,1.6,2.8,1.6,4.3,0.1c-1.2-1.3-4.3-1.2-3.1-4c-3-3.4-6.7-5.2-10.9-6.6c-4.6-1.5-4.5-1.9-7.5,0.8
			C485,204.2,483.4,203.9,481.2,203.6z M457.5,187.7c-2.5,2.1-4.6,4-6.8,5.8c-1.5,1.1-3.2,1.9-4.7,3c-0.6,0.4-1.3,1.1-1.3,1.7
			c-0.1,2.5,2.8,5.9,5.3,6.5c1.3,0.3,2.6,0.8,4,1c1.1,0.1,2-0.3,2.1-1.8c0-0.7,0.3-1.5,0.7-2.2c1.5-2.5,3.4-4.9,1.5-8
			c-0.2-0.4,0-1.1,0.2-1.6C460,189.5,459.8,188.8,457.5,187.7z M350.3,220.4c-1.2,1.8-2,3.3-3.1,4.5c-1.2,1.2-3,1.8-4,3.1
			c-0.9,1.1-1.1,2.8-1.3,4.2c-0.2,1.2-0.2,2.5-0.3,3.7c-0.2,2.2-0.5,4.4-0.5,6.5c0,0.5,0.7,1.1,1.2,1.4c2,1.3,4.3,0,4.9-2.7
			c0.5-2.2,1-4.5,1.7-6.6C350.1,230.1,351.1,225.7,350.3,220.4z M380.8,28.6c-0.6-1.5-1.1-2-2.7-1.5c-3.3,1.2-6.7,2-10,3.1
			c-1.3,0.4-2.7,0.9-3.9,1.4c-5.4,2.6-6.3,9-10.4,12.7c-0.1,0.1,0.5,1.2,0.5,1.2c2.1-0.6,2.5,1.6,3.7,2.3c0.9,0.5,2.1,0.3,3.5,0.5
			c-0.6-1.2-0.8-1.7-1.2-2.3c-2.1-3.3-2.1-3.3,0.5-5.9c0.6-0.7,1.4-1.2,1.9-2c2.3-3.1,5.3-5.3,9-6.5
			C374.8,30.7,377.7,29.6,380.8,28.6z M135.8,17.9c-1-0.8-1.8-1.5-2.7-2.1c-0.8-0.6-1.6-1.1-2.4-1.6c-1-0.6-2.2-0.9-3-1.6
			c-3.2-2.7-3.1-2.6-7-0.7c-2.3,1.1-1.2,1.7,0,2.5c-0.8,0.2-1.5,0.4-2.1,0.6c0,0.3-0.1,0.5-0.1,0.8c2,0.6,4,1.3,6.4,2
			c-0.5,0.3-1.2,0.8-2.5,1.8c2,0.8,3.9,2.3,5.3,1.9C130.5,21,133.1,19.2,135.8,17.9z M266.6,100.1c-0.8,0.7-1.5,1.2-2.7,2.2
			c3.5-0.6,6.4-1.1,8.7-1.5c0.4-1.5,0.8-2.8,1.2-4.1c-3.5,0.1-2.9-3.3-4.2-5.1c-2.3-3.1-2.2-3.2-1.6-6c-1.3-0.5-2.6-1-4.3-1.6
			c-1.6,1.5-0.9,6.5,1.8,8.1c1.4,0.8,2.2,1.9,0.9,3.1C264.3,97,264.7,98.5,266.6,100.1z M438.2,209.6c0.4-0.2,0.9-0.3,1.3-0.5
			c-0.1-1.6,0.2-3.3-0.4-4.6c-1.3-2.5-3.1-4.7-4.7-7c-0.5-0.7-1.3-1.2-1.9-1.8c-1.4-1.2-2.9-2.3-4.2-3.6c-1.5-1.4-3-2.6-4.7-2.2
			c3.2,4.9,6.3,9.9,9.7,14.7C434.6,206.5,436.5,208,438.2,209.6z M118.9,28.4c1.3,0.4,2.1,0.8,2.8,0.7c2.5-0.2,3.3,1.2,3.7,3.3
			c0.1,0.7,0.6,1.9,1.1,2c3.1,0.5,6.2,0.9,9.3,1.1c2,0.1,4.1,0.1,6.1-0.2c0.8-0.1,2-0.8,2.3-1.5c0.5-1.1-0.1-2.1-1.6-2
			c-1.5,0.1-3,0-4.6,0c-2.2,0-4.5,0.3-6.7,0.1c-1-0.1-2.2-0.9-2.9-1.8C126.8,28.1,122,26.8,118.9,28.4z M289.4,15.8
			c-0.1,0.3-0.1,0.6-0.2,0.9c0.5,0.6,1.1,1.1,1.4,1.8c0.8,2.2,1.5,4.3,4.4,2.1c0.4-0.3,1.2-0.2,1.7,0c0.6,0.2,1.4,0.6,1.6,1.1
			c0.2,0.4-0.2,1.4-0.6,1.7c-0.9,0.7-2,1.2-3,1.7c2.6,2.6,3.2,2.7,4.6-0.3c0.6-1.4,1.5-2.3,2.6-3.3c1.8-1.6,2.4-1.5,3.4,0.8
			c1,2.3,2,2.7,4.8,1.4c-4.5-2.5-7.9-6.4-13-8.6c0.1,1.6,0.2,2.5,0.2,2.9C294.6,17.4,292,16.6,289.4,15.8z M545.8,277.7
			c-1.8,1.6-3.1,3-4.7,4.1c-2.4,1.6-5,2.9-7.3,4.5c-0.8,0.6-1.7,1.9-1.5,2.7c0.3,1.1,1.3,2.5,2.3,2.9c0.8,0.3,2.4-0.4,3.2-1.1
			c3.6-3.7,7-7.6,10.5-11.5C547.3,278.7,546.3,278.1,545.8,277.7z M238,63.3c-0.5-0.5-1.2-1.6-2-1.7c-0.7-0.1-1.6,0.8-1.8,1
			c1,1.6,1.8,2.6,2.4,3.8c1,1.8,2.3,3.3,4.4,2.9c2.2-0.4,4.4-1.3,6.5-2.1c1.3-0.5,2.2-1.5,1.7-3.1c-0.5-1.5-1.5-2.4-3.2-2.1
			C243.3,62.4,240.6,62.9,238,63.3z M98.9,31.9c-2,0.5-3.4,0.2-4.8-0.9c-2-1.6-4.2-2.3-6.6-1.5c-0.2,1.2-0.4,2.3-0.8,4
			c1.2-0.2,2.3-0.5,3.4-0.5c1.3,0,2.6,0.2,4.6,0.3c-1.7,0.7-2.8,1.2-4.2,1.8c2.8,1,4.6-0.3,6.7-1c2.1-0.6,4.3-0.8,6.4-1.2
			c0-1.5,0.5-3-2-2.3c-0.5,0.1-1.3-0.9-2-1.5c-0.5-0.4-1.1-0.9-1.6-1.3c-0.1,0.8-0.3,1.6-0.2,2.3C97.9,30.6,98.4,31,98.9,31.9z
			 M486.9,137.4c1.3-0.7,2.5-1.5,3.7-1.9c2.2-0.8,4.1-1.5,4.5-4.2c0.2-1.5,0.8-3,1.4-4.4c0.8-1.9,0.3-2.9-2.1-3.7
			c-0.1,4-1.6,7.2-5.7,8.6c-0.2,0.1-0.4,0.3-0.4,0.5c-0.5,2-2,1.8-3.5,1.9c-1.3,0.1-2.6,0.7-3.9,1.1c0.1,0.3,0.2,0.6,0.3,0.9
			c0.8-0.1,1.6,0,2.4-0.2C485.4,135.3,486.6,135.8,486.9,137.4z M425.2,14.8c0.2-1.2,0.7-2.3,0.4-2.9c-0.6-1.1-1.5-2-3.2-1.4
			c-3.6,1.3-3.6,1.1-3.1,4.7c1.1-0.3,2.1-0.6,3.1-0.9c-1.2,1.4-2.5,3-0.2,4c2.1,0.9,4.6,1,6.8,1.4c0.3-1.1,0.8-1.9,0.8-2.6
			c0-0.6-0.5-1.6-1-1.8C427.4,14.9,426,14.9,425.2,14.8z M550.7,279.5c1.9-1.6,3.9-2.9,5.5-4.6c0.7-0.7,2.1-2.3,0.4-3.1
			c-2.4-1.1-3.1-3.2-4.3-5.2c-0.4-0.7-1-1.3-1.6-2c-0.2,0.1-0.5,0.2-0.7,0.4c0.2,0.8,0.1,1.8,0.5,2.4c1.7,2.3,1.3,4.2-0.4,6.4
			C548.7,275.7,549.4,277.7,550.7,279.5z M110.2,42.3c1,0.8,1.7,1.3,2.4,1.9c1.6,1.4,4,1.5,5.2-0.1c0.4-0.5-0.2-1.8-0.5-2.6
			c-0.2-0.4-0.9-0.4-1.5-0.7c0.6-0.8,1.1-1.5,1.6-2.2c-2.1-2-3.9-0.2-6.1-0.1c0.7,0.9,1.2,1.5,1.7,2.2
			C111.9,41.2,111.2,41.7,110.2,42.3z M436.7,196c-0.5-1.7-0.8-3.3-1.4-4.8c-0.5-1.2-1.1-2.7-2.1-3.2c-1.9-0.9-2.6-2.3-3-4.1
			c-0.2-0.6-0.8-1.1-1.4-1.5c-0.2-0.1-1.1,0.6-1.1,0.7c0.2,0.7,0.5,1.4,0.9,1.9c1.9,1.8,3,3.8,3,6.5
			C431.7,194.2,434.1,196.1,436.7,196z M181.9,100.3c-1.4,2.6-2.8,5.2-4.2,7.9c2.4,0.2,4.7,0.6,6.9,0.6c0.5,0,1.3-1.1,1.5-1.8
			c0.2-0.7-0.2-1.5-0.3-2.3C182.9,105.4,182.4,104.6,181.9,100.3z M255.9,99.2c4.1,0.3,5.5-0.9,5.9-4.6c0.1-0.6,0.4-1.1,0.4-1.6
			c0-0.6-0.2-1.6-0.6-1.7c-0.7-0.2-1.5,0-2.2,0.3C256.4,93.2,256.4,96.2,255.9,99.2z M314,15.2c-3.4-1.4-10.9-1.4-12.3,0
			C307.1,18.6,311.9,18.7,314,15.2z M497,30.7c-1.5-0.1-3,0.3-3.9-0.3c-1.5-1-2.4-0.3-3.2,0.6c-0.9,0.9-1.1,2.3,0.3,2.9
			c1.1,0.4,2.4,0.3,3.6,0.3C497.2,33.9,497.2,33.9,497,30.7z M135.6,63c-0.3,0.1-0.5,0.2-0.8,0.3c0.2,2,0.2,4,0.6,5.9
			c0.2,1.2,1.5,1.7,2.1,0.4c1-1.9,2.3-2.1,4.2-1.5c0.1-0.2,0.1-0.5,0.2-0.7C139.9,65.9,137.8,64.5,135.6,63z M77.6,29.4
			c2.4,1,4.3,1.2,5.7-1.1c0.1-0.2,0.8-0.5,0.9-0.4c2.9,1.8,2.5-0.8,3.3-2.3C83,24.1,80.8,27.5,77.6,29.4z M497.2,114.7
			c-0.7,1.6-1.4,3.1-2.1,4.7c2.6,1.2,5,0.6,6.8-1.7C500.2,116.6,498.6,115.5,497.2,114.7z M113.5,23.3c-0.1-0.6,0.1-1.6-0.3-2
			c-2.1-2.3-5-2.9-7.7-3c0.8,1,1.6,2.5,2.7,3.2C109.5,22.3,111.3,22.6,113.5,23.3z M498.2,95.8c-0.2-0.1-0.4-0.1-0.7-0.2
			c-2.4,3.3,1.3,7.1,0.1,10.6c0.9-0.9,2.2-2.1,2.1-3.1C499.6,100.6,498.8,98.2,498.2,95.8z M438.4,21.1c-3.8-3.7-6-3.2-8.3,1.4
			c1.4-0.3,2.8-0.6,4.1-0.8C435.6,21.5,437,21.3,438.4,21.1z M112.5,27.8c0.1,1.2,0.1,2.3,0.2,3.4c0.1,0.7,0,2,0.3,2.1
			c0.8,0.2,1.9,0.2,2.5-0.2c0.6-0.4,1-1.4,1.1-2.2c0.1-0.8-0.4-1.7-0.7-2.7c-0.6,0-1.1,0.1-1.7,0C113.6,28.2,113,28,112.5,27.8z
			 M464.7,201.3c-1.1,0.1-3.2,0-3.2,0.2c-0.2,2.1-0.1,4.2-0.1,6.4c0.3,0,0.6,0.1,0.8,0.1c0.6-1.5-0.2-4,2.5-3.8
			C464.7,203.3,464.7,202.5,464.7,201.3z M464.2,174.3c0.3-1.6,0.6-3,0.9-4.4c0.1-0.8,0.5-1.9,0.1-2.5c-0.3-0.5-1.5-0.4-2.7-0.7
			C463.2,169.5,461.1,172.3,464.2,174.3z M471.2,183c-1.4,0.8-2.8,1.5-3.8,2c0.7,1.1,1.6,2.4,2.5,3.9
			C471.5,186.9,473,185.3,471.2,183z M501.9,276c0.8,1.6-0.3,4.9,3.6,3.8c0-1.5,0-3,0-4.6C504.2,275.5,503.1,275.8,501.9,276z
			 M440.3,210.4c-0.1,0.3-0.1,0.6-0.2,0.9c3.3,0.8,6.6,1.6,10.1,2.4c-0.3-1.1-0.4-1.7-0.5-1.9C446.4,211.3,443.4,210.8,440.3,210.4z
			 M151.5,163.6c0.1-0.3,0.3-0.5,0.4-0.8c-3.4-2.9-6.5-4.4-9.6-4.2C145.3,160.3,148.4,161.9,151.5,163.6z M161.8,166.3
			c0-0.4,0.1-0.8,0.1-1.2c-1.5-0.4-3-0.9-4.6-1.2c-0.4-0.1-1.3,0.8-1.2,1.1c0.1,0.6,0.7,1.5,1.1,1.6
			C158.8,166.6,160.3,166.4,161.8,166.3z M399.8,182.7c-0.4,0.1-0.9,0.1-1.3,0.2c0,1.5-0.1,3.1,0.1,4.6c0,0.3,1,0.7,1.4,0.6
			c0.5-0.1,1.2-0.9,1.2-1.2C400.9,185.5,400.3,184.1,399.8,182.7z M534.9,41.7c1.4-0.5,2.9-1,4.3-1.5c-0.3-0.6-0.5-1.6-0.9-1.8
			C536.3,37.9,535,38.8,534.9,41.7z M116.2,20.1c-0.1,0.2-0.2,0.4-0.3,0.7c0.6,0.8,1,1.8,1.8,2.3c0.6,0.4,1.6,0.1,2.4,0.1
			c-0.3-0.7-0.4-1.7-0.9-2.1C118.3,20.5,117.2,20.4,116.2,20.1z M118.7,33.4c0.1,0.4,0.2,0.7,0.3,1.1c1.2,0.1,2.4,0.1,3.6,0.2
			c0.2-0.2,0.3-0.4,0.5-0.6c-0.5-0.7-1.1-2.1-1.5-2.1C120.6,32.1,119.6,32.9,118.7,33.4z M484.1,202.9c0.2-0.5,0.5-1,0.7-1.5
			c-1.1-0.5-2.2-1-3.4-1.5c-0.2,0.6-0.5,1.1-0.7,1.7C481.8,202.1,482.9,202.5,484.1,202.9z M92,23.8c2.6,2.1,4,1.6,4.7-1.6
			C95.1,22.8,93.6,23.3,92,23.8z M510.6,203.4c-1.7,1-3.1,1.8-4.9,2.9C509.3,207.1,509.7,206.8,510.6,203.4z M479,141.9
			c0.3,0,0.6,0.1,0.9,0.1c0.2-1.2,0.5-2.5,0.4-3.7c0-0.2-1.4-0.4-2.4-0.7C478.4,139.5,478.7,140.7,479,141.9z M152.1,58.1
			c0-0.7,0-1.4,0-3c-1.4,1-2.4,1.7-3.3,2.4c0.1,0.2,0.3,0.4,0.4,0.7C150.1,58.1,151,58.1,152.1,58.1z M512.8,202.4
			c1.2-2.7,0.7-3.5-2.3-3.8C511.3,199.9,512,200.9,512.8,202.4z M542.8,238.5c0.2-0.3,0.5-0.6,0.7-0.9c-0.9-0.7-1.8-1.4-2.8-1.9
			c-0.2-0.1-0.8,0.4-1.5,0.7C540.6,237.3,541.7,237.9,542.8,238.5z"/>
		<path class="st2" d="M559.9,56.8c-1,0.8-2,1.6-2.8,2.6c-0.4,0.5-0.5,1.3-0.5,1.9c0,0.9,0.2,1.8,0.4,3.2c-1.5-0.7-2.6-1.1-3.6-1.6
			c-1.8-0.9-3.7-1.7-5.5-2.7c-0.8-0.5-1.3-1.5-2-2.2c-0.7-0.6-1.5-1-2.3-1.6c-0.1,0.9-0.1,1.7-0.1,2.6c0,0.3,0.2,0.6,0.4,0.9
			c-2.8,3.4-2.8,3.3,0.3,6.6c0.5,0.5,1,1.1,1.3,1.8c0.2,0.5,0,1.2,0,1.7c-0.5,0-1.1,0-1.6-0.1c-0.4-0.1-0.8-0.6-1.1-0.5
			c-0.6,0.2-1.1,0.6-1.7,1c-2.1,1.2-4.9,1.6-5.3,4.8c-0.2,1.1-0.9,2.2-1.5,3.4c-1.1-1.5-2-2.6-3.2-4c-2.3,1.5-4.6,2.7-6.6,4.4
			c-1.9,1.6-1.8,3.9-0.1,6c2.1,2.7,2.1,6.1,0.5,9.3c-1.5,3-2.7,6.1-4.3,9.9c-0.9-1.1-1.9-1.9-2.2-2.9c-1.2-3.4-2.6-6.8-3.3-10.3
			c-1-4.9,1.7-8.9,4.4-12.7c0.9-1.3,1.8-2.8,2.4-4.2c0.2-0.5-0.2-1.3-0.3-2c-0.6,0.4-1.4,0.6-1.9,1.1c-0.4,0.4-0.6,1.1-1,2.1
			c-0.6-0.7-0.9-1.3-1.5-1.7c-1.3-0.8-2.7-2.1-3.9-2c-1.9,0.1-2.4,1.9-2.7,3.8c-0.2,1.5-0.8,3-1.4,4.3c-0.8,1.7-2.1,1.9-3.9,1.2
			c-3.6-1.4-8.6-0.5-10.8,3.1c-0.9,1.6-2.7,2.6-4.1,3.9c-1.3,1.2-2.7,2.3-4.1,3.5c1,1.2,1.5,2.1,2.3,2.7c0.6,0.5,1.8,1,2.3,0.7
			c1.4-0.8,2.8-1.5,3.7,0c0.7,1.2,0.9,2.9,0.8,4.3c-0.2,2-0.7,4-1.3,5.9c-0.5,1.6-1.3,3.2-2.2,4.6c-1,1.7-2.5,3.1-3.6,4.7
			c-1.6,2.4-3.2,4.2-6.6,4.1c-1.9,0-4.1,1.4-4.9,4.1c-0.4,1.3-2,2.3-3.2,3.6c2.4,2.1,3.8,4.9,2.6,8c-0.3,1-2.3,1.3-4,2.2
			c0.3-2.6,0.5-4.5,0.7-6.5c-0.8-0.5-1.7-1-2.2-1.3c-0.3-1.3-0.7-3.2-0.8-3.2c-1.9,0.2-3.7,0.7-5.4,1c0.1-0.4,0.5-1.3,0.7-2.3
			c0.1-0.4,0.1-1.1-0.2-1.2c-0.3-0.2-1-0.3-1.3,0c-1.9,1.4-3.7,2.8-5.7,4.4c1,1.1,2.1,2.3,3,3.2c1.3-0.3,2.4-0.5,3.5-0.7
			c0.1,0.2,0.2,0.4,0.3,0.6c-1.1,1.1-2.3,2.1-3.1,3.4c-0.4,0.6-0.2,1.7,0.1,2.5c0.7,2.4,3.9,4.3,1.7,7.5c1.7,1.2,1.6,2.5,0.2,4.2
			c-1,1.2-1.6,2.9-2.5,4.3c-3.5,5.3-8.6,7.8-14.8,8c-2.3,0.1-4.2,0.5-5.9,2.1c-1.7,1.7-1.7,3.7-0.1,5.4c0.7,0.7,1.4,1.4,2.1,2.1
			c3.1,3.4,3,6.4-0.2,9.7c-1,1-1.7,2.3-2.5,3.4c-3.5-3.3-6.2-5.8-9.1-8.5c-0.7,2-1.3,3.6-1.9,5.4c-0.9-3.9-1.8-7.5-2.7-11.3
			c-1.5,0.6-2.9,1.2-5.1,2.1c1.6-4.3-1-6.5-2.7-9.1c-0.6-1-1-2.2-1.6-3.6c-2.6,2.2-6.6,1.1-8.9,4.9c-1.9,3.1-5.6,5.1-8.3,7.7
			c-0.6,0.5-0.7,1.6-0.9,2.5c-0.8,3.1-1.5,6.2-2.4,9.2c-0.2,0.6-1.2,1.3-1.8,1.3c-0.6,0-1.3-0.9-1.6-1.6c-1-2.5-1.6-5.2-2.8-7.6
			c-1.9-4-2.7-8.1-2.8-12.4c0-0.9-0.4-1.7-0.7-2.9c-1,1.3-1.3,3.5-3.5,2c-0.3-0.2-0.7-0.6-0.8-0.9c-0.4-3.3-3.7-4.2-5.4-6.5
			c-0.4-0.5-1.5-0.5-2.3-0.6c-3.4-0.2-6.8-0.3-10.2-0.6c-0.6,0-1.6-0.3-1.7-0.7c-0.7-2.6-2.2-1.8-4-1.4c-2.4,0.6-4-1.5-5.5-3
			c-0.7-0.6-0.9-2-1.6-2.4c-0.9-0.5-2.1-0.5-3.2-0.7c-0.1,0.8-0.6,1.8-0.3,2.4c1.3,2.4,2.5,4.9,4.3,6.9c2.5,3,4.8,2.9,7.4,0.2
			c1.6,1,3.1,1.9,4.6,2.9c1.4,0.9,1.8,2.3,0.7,3.7c-1.8,2.4-3.4,5.4-5.8,7c-4.3,2.8-9.2,4.9-13.9,7.2c-1.4,0.7-2.8,1.1-4.7,1.8
			c-0.4-2.3-0.4-4.4-1.2-6.2c-0.9-2.4-2.4-4.6-3.6-6.9c-0.8-1.6-1.6-3.3-2.4-5c-0.3-0.6-0.3-1.3-0.6-1.9c-2.2-3.3-4.4-6.5-6.6-9.7
			c-0.6,0.7-1.2,1.4-1.9,2.2c1.9,4.3,3.9,8.6,5.8,13c1.3,3,2.4,6.1,3.9,9.1c0.5,1,2,1.4,2.7,2.3c1.2,1.6,2.4,3.2,3.3,5
			c0.8,1.6,1.6,2.4,3.6,1.7c2.8-0.9,5.7-1.3,8.8-1.9c-0.1,4.1-2.8,7-4,10.4c-2,5.6-7.5,7.8-10.9,12.1c-4,5.1-5.3,10-2.8,16.2
			c1,2.4,1.1,5.4,1,8c-0.1,1.2-1.5,2.6-2.6,3.5c-1.6,1.4-3.6,2.3-5.1,3.8c-1.5,1.4-2.2,3.3-1,5.3c1.4,2.4,0.4,4.3-1.6,5.4
			c-1.9,1.1-2.4,2.6-2.6,4.4c-0.8,5.5-4.5,9-8.6,11.9c-1.9,1.4-5,1.3-7.6,1.6c-1.7,0.2-4,0.7-5.1-0.2c-1-0.7-0.7-3.1-1.2-4.7
			c-0.5-1.6-1-3.4-2.1-4.7c-2.7-3.3-2.9-7.1-3.5-11.1c-0.4-2.5-1.7-4.9-2.9-7.3c-1.8-3.6-2.2-7.3,0.1-10.5c2-2.8,1.5-5.4,0.8-8.2
			c-0.9-3.8-2.1-7.3-4.9-10.3c-1.1-1.2-1.3-3.3-1.5-5c-0.1-1.9,0.3-3.8,0.5-5.7c0.2-2.2-1.2-3.6-3.3-2.9c-1.9,0.7-2.8,0.3-3.9-1.3
			c-1.6-2.2-3.3-2.4-6.6-1c-2.8,1.1-5.4,2.3-8.6,1.3c-1-0.3-2.2,0.3-3.3,0.6c-2.1,0.7-3.9,0.3-5.4-1.3c-1-1-2.1-1.8-3.2-2.7
			c-0.4-0.3-1.1-0.5-1.2-0.8c-0.7-3.1-3.3-4.9-5.1-7.2c-1.5-2-1.9-4.1-1.2-6.7c0.6-2.6,0.9-5.5,0.5-8.2c-0.5-4.2,1.1-7.6,3.4-10.7
			c2-2.6,4.5-4.7,6.9-6.9c1.1-1,1.5-1.8,0.9-3.4c-0.3-0.8,0.4-2.3,1.1-3.2c1.4-1.6,3.1-3,4.2-4.9c0.2,0,0.4-0.2,0.5-0.1
			c3.7,1.8,7.1,0.5,10.5-1.1c4.7-2.3,9.8-1.1,14.8-1.4c0.5,1.9,1.7,3.6-1.4,5.6c2.4,1,4.2,1.7,6,2.5c0.3,0.1,0.8-0.1,1,0.1
			c1.9,2.1,4.6,2.6,6.8,4.1c1.9,1.3,2.5,0.5,3.2-0.9c1.8-4.1,1.7-4,5.9-2.1c2.5,1.1,5.2,1.8,7.8,2.6c0.5,0.1,1.1-0.4,1.6-0.4
			c1.4-0.2,2.9-0.6,4.2-0.2c1.9,0.7,3,0,3.5-1.6c1-3,1.9-6,2.8-9c-1.7-1-3-1.8-4.3-0.1c-0.2,0.3-1,0.5-1.4,0.3
			c-1.7-0.7-3.2-0.9-5.1-0.1c-0.7,0.3-2.8-1.2-3.4-2.3c-1-1.8-1.2-4-1.9-5.9c-0.2-0.5-1.1-1.2-1.4-1.1c-1.6,0.5-3.1,1.2-4.9,1.9
			c1.6,2.5,2.4,4.6-0.3,6.9c-1.2-3-2.6-5.7-3.4-8.7c-0.4-1.6-1-2.7-2.4-3.7c-2.2-1.4-4.1-3.2-6.2-4.8c-0.7-0.6-1.5-1.6-2.2-1.5
			c-0.8,0.1-1.5,1.1-2.5,1.9c3.3,3.2,6.2,6,9.2,9c-0.6,0.1-1.8,0.8-2.3,0.4c-2.5-1.6-5.4-3-7.2-5.3c-2.6-3.4-3.7-3.9-7.2-1.4
			c-0.6,0.4-1.7,0.6-2.3,0.3c-2-1-3.4-0.4-3.6,1.7c-0.2,1.6-1.2,2-2.2,2.9c-1.4,1.2-2.8,2.7-3.3,4.4c-1,3.1-1.7,4.1-5,4.7
			c-0.7,0.1-1.5,0.2-2.1,0.5c-1.1,0.5-1.8,0.7-2.4-0.6c-0.2-0.4-0.8-0.8-1.3-0.9c-2.1-0.6-2.9-2-2.6-4.1c0.3-2.3,0.3-4.6,0.6-6.9
			c0.1-0.7,1-1.7,1.5-1.7c2.7,0,5.3,0.2,8,0.4c2.2,0.1,2.4-1.5,2.5-3c0.2-3.3-1.3-5.5-5.1-7.6c0.3-0.2,0.5-0.5,0.8-0.5
			c5.4-0.7,8.5-4.8,12.1-8.1c2.4-2.2,4.5-4.7,8.2-4.4c-1.7-7.2-1.7-7.2,1.9-8.8c-0.1,1.3,0.1,2.7-0.4,3.6c-0.8,1.3-0.8,2.2,0.3,3.3
			c1,1,1.9,1.9,3.4,0.9c0.3-0.2,1-0.4,1.1-0.3c1.8,2,3.5,0.6,5.3-0.1c1.4-0.5,3-0.4,4.5-0.5c0,0.2,0.1,0.5,0.1,0.7
			c0.8-0.4,1.6-0.8,2.2-1.4c0.5-0.5,0.8-1.3,1-2.1c0.2-1.2,0-2.4,0.4-3.6c0.3-1.2,1.2-1.3,2.3-0.6c0.5,0.3,1.3,0.4,1.9,0.5
			c0.1-0.8,0.3-1.7,0.4-2.5c0-0.9-0.5-2.5-0.2-2.6c1-0.5,2.2-0.5,3.3-0.7c1.7-0.3,3.4-0.6,5.2-0.9c0-0.4,0.1-0.8,0.1-1.1
			c-0.9-0.4-1.7-1-2.6-1c-1.4,0-2.8,0.2-4.1,0.8c-1.9,0.8-3.7,1.2-5.2-0.6c-1.6-2-1.6-5.3,0.1-7.1c1.5-1.7,3.2-3.3,4.7-5.1
			c0.3-0.4,0.1-1.7-0.4-2c-2.3-1.7-5.6-0.3-6.1,2.9c-0.3,1.7-1.1,2.3-2.3,3.1c-1.2,0.8-2.2,1.8-3.1,2.9c-1.5,1.9-1.1,4,0.4,5.7
			c0.5,0.6,0.6,2.7,0.3,2.9c-2.8,1.3-2,4.2-3.2,6.1c-0.8,1.4-2.8,2.1-4.3,3c-0.1,0-0.7-0.7-0.9-1.1c-1-2.7-2-5.5-3.1-8.5
			c-1.2,0.9-2.3,1.7-3.4,2.6c-2.1,1.6-4,1-4.6-1.6c-0.3-1.2-0.6-2.4-0.9-3.6c-1.1-3.6,1.4-5.3,3.8-6.8c4.3-2.6,7.4-6.2,9.9-10.4
			c0.8-1.4,2.4-2.4,3.5-3.7c0.8-1,1.5-2.1,2.3-3.1c0.7-0.8,1.5-2.1,2.2-2.1c3.7,0,6.4-2.1,9.5-4.2c0.1,0.6,0.2,1.2,0.3,1.5
			c2.7-0.2,5.5-0.3,8.2-0.5c0,0.3,0.1,0.6,0.1,0.9c-0.4,0.4-0.9,0.8-1.5,1.4c0.4,0.3,0.7,0.7,1,0.8c2.3,0.7,4.5,1.5,6.8,1.9
			c3,0.6,6,1.3,8.3,3.6c0.9,0.9,1.9,1.6,2.9,2.4c-5.1,5-9.8,0.9-14.6,0.3c2.6,1.4,3.5,3.6,3.8,6.3c0.3,2.1,2.3,2.2,3.9,2.8
			c0.2,0.1,0.8-0.3,0.9-0.5c0.1-0.4,0-0.9-0.3-1.3c-0.2-0.3-0.7-0.4-1.1-0.6c0.1-0.3,0.1-0.5,0.2-0.8c0.9,0.2,1.8,0.4,2.6,0.7
			c1.5,0.5,2.5,0.5,2.8-1.5c0.2-2.2,2.3-3.5,4.5-3.2c0.6,0.1,1.6,0.1,1.6-0.2c0.2-0.6,0.1-1.4,0.1-2.1c-0.1-1.3-0.2-2.6-0.3-4.5
			c1.3,0.4,2.3,0.7,3.6,1c-1,1.1-1.6,1.8-2.2,2.4c1.9,2.8,2.7,2.8,4.7,0.3c0.9-1.1,2.4-1.9,3.8-2.5c1.4-0.6,3-0.8,4.5-1.2
			c0.4,0.5,0.9,1.1,1.3,1.7c2.9-0.7,5.5-3.5,8.9-0.8c0.6-0.5,1.5-1.3,2.4-2c-0.4-0.5-0.9-1.1-1.5-1.9c5.3-1.1,9,1.7,12.9,4.1
			c1.5-0.8,1.5-1.8,0.1-2.8c-1.4-1-1.8-2.1-1.8-4c0-1.9,0.5-2.9,1.7-4.2c0.9-1,1.1-2.4,1.7-3.8c0.4,0.1,0.7,0.3,1,0.3
			c3,0,4.3,0.5,3.3,4.3c-0.7,2.9,0.6,6.3,1.3,9.4c0.4,1.8-1.5,4.9-3.8,5.4c-0.6,0.1-1.1,0.1-1.7,0.1c0,0.3,0,0.6-0.1,0.9
			c1.4,0.1,3.1,0.6,4.3,0.1c1.9-0.9,3.6-2.4,3.7-4.9c0-0.7,0.1-1.6,0.5-2c1-0.8,2.2-1.1,3.1,0.4c0.3,0.5,0.9,0.8,1.8,1.4
			c-0.7-3.1-0.7-3.1-6-3.8c-0.3-2.2-0.8-4.4-0.8-6.6c0-0.8,1-1.5,1.9-2.6c0.5,1.8,0.8,2.9,1.1,3.8c1.6,0,3.1,0,5.1,0
			c-1.1-0.7-1.8-1.2-2.9-1.8c0.7-0.3,1.2-0.5,1.7-0.8c-0.3-0.7-0.5-1.4-0.7-2c2.9-1,4.8,3,7.5,1.9c-0.9-1.6-1.7-2.8-2.2-4.1
			c-0.1-0.3,0.6-1.3,1-1.4c2.8-0.3,5.7-0.4,9-0.6c-0.3,0.3-0.1,0.2-0.1,0.1c0-5.5,1.3-5.6,8-7c2.9-0.6,6-0.4,8.8-1.2
			c2.2-0.6,4.9-0.6,5.9-3.6c0.3-0.9,2-1.3,3.1-1.9c1.5-0.8,1.9,0,3,1.1c1.4,1.3,2.9,4.2,6,2.1c0.8-0.6,2.7-0.1,3.8,0.5
			c1.2,0.7,2.4,1.9,2.9,3.2c0.7,1.9-1.4,2.3-2.5,3c-2.5,1.5-5.1,3-7.7,4.5c-0.6,0.3-1.1,0.8-1.5,1.5c2.3-1.3,5.7,0,7.5-3.1
			c2.4,0.6,4.8,2,7.8,1c1.3-0.4,3.2,0.8,4.8,1.2c1.8,0.5,3.5,1.2,5.4,1.5c0.7,0.1,2.1-0.5,2.3-1.1c0.7-2.6,2.1-1.8,3.8-1.1
			c0.6,0.3,1.5,0.2,2.2,0.2c1.9,0.1,3,0.9,2.7,3c-0.6,3.2,1.2,4.8,4,5.9c0.9-2.1,1.8-3.4,4.8-2.3c2.2,0.8,5.1,0,7.6-0.3
			c0.5-0.1,0.9-0.9,1.4-1.5c0.6-0.8,1.1-2.1,1.8-2.2c1.7-0.2,4-0.4,5.2,0.6c2.7,2.1,2.5,2.4,5.2-0.1c0.7,0.9,1.2,1.9,2,2.6
			c0.6,0.5,2.1,1.1,2.3,0.9c2.6-3.1,5.6-1.3,8.5-0.7c0.6,0.1,1.1,0.2,1.7,0.4c1.3,0.3,2.3,0.3,2.6-1.3c0.3-1.5,1.3-1.7,2.6-1.4
			c3.9,1.1,7.9,2.2,11.7,3.4c1.4,0.5,2.7,1.4,4,2.2c0.6,0.4,1.2,1.1,1.8,1.2c3,0.7,5.4,2.3,7,5c0.1,0.2,0.5,0.5,0.6,0.4
			c3.2-1.7,6.1,1.6,9.3,0.5C559.9,56.1,559.9,56.5,559.9,56.8z"/>
		<path class="st2" d="M5.9,62.8c0.2,0,0.6,0.1,0.7,0c2.3-2.2,4.5-1.8,6.6,0.6c1.3-0.8,2.6-1.6,3.8-2.3c-3.3-2-6.5-3.9-9.4-5.6
			c2.1-1.5,3.8-2.9,5.6-4c3.1-1.8,6.4-3.4,9.6-5c0.2-0.1,0.6,0,0.9,0c3.6,0.9,7.2,2.1,10.8,2.8c4.7,1,9.6,1.6,14.3,2.6
			c2.2,0.5,4.3,1.4,6.8,2.3c1-1.8,2.3-2.9,4.7-1.4c0.7,0.4,2.1-0.1,3-0.4c3-1,5.9-3.1,8.9,0.3c0.6-0.9,0.9-1.4,1.4-2.2
			c0.4,2,1.2,2.2,2.9,1.1c0.7-0.5,2.3-0.2,3.3,0.2c2.7,1,5.2,2.4,8.3,2.1c0.6-0.1,1.3,0.4,2.3,0.7c-0.7,0.8-1.2,1.4-2.1,2.5
			c2,0.2,3.6,0.4,5.1,0.3c2.4-0.1,5.1-0.9,6.5,2.1c0.1,0.2,0.7,0.2,1.1,0.2c-0.2-4,1.7-5.3,5.3-3.5c3.2,1.6,6.5,1.5,10.3,0.7
			c-0.4-1.3-0.8-2.6-1.2-3.8c-0.3,0-0.6-0.1-0.9-0.1c0.9-0.6,2-1.7,2.7-1.5c0.8,0.2,1.4,1.6,2.3,2.7c-1,0.3-1.6,0.5-2.2,0.7
			c0.7,1.4,1.4,2.7,2,3.9c0.7-1,1.2-1.8,1.9-2.4c2.1-1.7,1.8-3.8-0.5-5.1c-0.9-0.5-2.8-0.2-2.1-2.5c0.3-1.1-0.5-2.2,1.3-2.7
			c0.4-0.1,0.7-1.7,0.7-2.6c0.1-1-0.3-1.9-0.4-2.9c-0.1-3.4,0.1-3.5,3.5-3.3c1.2,0.1,2.3,0.2,2.3,1.9c0,1.6-0.7,2.1-2.2,1.9
			c-0.3,0-0.7,0-1,0.1c-0.4,1.1-0.9,2.1-1.3,3.1c1.9,2,3.2,4.2,2.5,7.4c0.8,0.2,1.7,0.4,2.9,0.6c0.2,0.7,0.5,1.7,0.9,3.1
			c0.5-0.4,0.9-0.7,1.3-1c0.5-0.4,1-0.7,1.5-1.1c0.3,0.6,1,1.4,0.8,1.8c-0.7,1.5-0.2,2.7,1.1,2.9c0.7,0.1,1.8-1.1,2.4-1.9
			c1-1.4,2.4-2.9,0.7-4.7c2.3-1.2,4.7-0.2,6.9,2.9c-0.7,0.1-1.3,0.2-2.3,0.3c0.4,0.8,0.7,1.5,1.1,2c1.1,1.6,0.3,3.6-1.7,3.8
			c-1.8,0.1-3.6,0-5.6,0c0.2,5.1-3,7.2-7.3,8.1c0.2,0.2,0.4,0.4,0.6,0.6c-0.5,0.6-0.9,1.4-1.5,1.9c-2.8,2.2-4.8,4.8-5.3,8.3
			c-0.1,0.8,0.5,1.9,1.1,2.6c1,1.3,2.3,2.4,3.2,3.3c2.7,1.2,5.1,2.4,7.6,3.4c2,0.8,4.2,1.2,6.2,2.1c0.8,0.4,1.8,1.6,1.8,2.4
			c0,2.6,0.9,4.5,2.9,6c0.6,0.5,1.6,1.1,2.1,0.9c0.6-0.2,1.2-1.2,1.3-2c0.1-1-0.1-2.2-0.5-3.1c-1-2-0.1-3.1,1.4-4.2
			c3.5-2.4,3.7-4.4,0.8-7.4c-1.1-1.2-1.5-2.1-0.2-3.4c0.4-0.5,0.6-1.3,0.6-2c0-0.9-0.4-1.7-0.5-2.6c-0.2-1-0.3-1.9-0.4-3.3
			c1.2,0.2,2.2,0.4,3.2,0.5c0.9,0.1,1.9,0,2.8,0.2c0.9,0.2,1.9,0.5,2.6,0.9c1.2,0.8,2.5,1.6,3.5,2.6c0.5,0.6,0.8,1.6,0.7,2.4
			c0,1.9,0.6,3.2,2.4,3.9c2.3,0.9,4.3-0.7,6.2-4.6c1.4,3.2,2.4,6.6,4.2,9.6c1,1.7,3.2,2.7,4.8,4.1c0.6,0.5,1.1,1,1.6,1.5
			c0.4,0.4,0.9,0.7,1.2,1.1c0.6,0.7,1.7,1.7,1.6,2.3c-0.2,1-1.2,2-2,2.7c-1.2,1-2.5,1.9-4,2.5c-1.1,0.4-2.6,0.7-3.7,0.4
			c-4.8-1-9.6,0.9-12.3,5.5c3-1.1,5.4-3.8,9.1-1.5c-1.2,0.5-1.9,0.8-2.7,1.1c3.2,4.9,3.2,4.9,6.9,6.1c-1.9,0.6-3.8,1.3-6.4,2.1
			c0.7-1.4,1.1-2,1.4-2.6c-0.1-0.2-0.2-0.3-0.4-0.5c-2.7,1.4-5.5,2.7-8.1,4.3c-0.9,0.6-1,2.3-1.7,3.2c-0.6,0.8-1.7,1.4-2.6,2.1
			c-0.7,0.5-1.6,0.7-2.1,1.3c-1,1.5-1.7,3.1-2.5,4.8c-0.7-0.4-1.2-0.6-1.8-1c0,0.4-0.2,0.8-0.1,1c1.4,5.1,1.1,6-3.2,8.7
			c-4.4,2.8-5.1,5.3-3.3,10.2c0.6,1.5,0.4,3.3,0.6,5.2c-2.6-0.5-3.3-2.4-3.4-4.1c-0.2-2.4-1.2-3.4-3.4-3.7c-1.6-0.2-3.2-0.9-4.8-0.8
			c-1.6,0.1-3.2,0.8-5.4,1.4c-2.1-1.5-9.2,0.5-9.6,4.1c-0.6,4.8-2.6,9.8,1.1,14.7c3,4,8.5,2.9,9.7-0.5c1-3.1,3-2.6,5.3-2.3
			c-0.9,3.2-1.8,6.3-2.8,9.9c2,0,3.7,0,5.3,0c2.6,0,3.5,1.4,3.1,3.9c-0.2,1.3-0.4,2.7-0.1,4c0.9,4,2,4.7,6.2,3.8
			c-0.5,1.1-0.9,2-1.4,3c-1.7-1.1-3.6-2.1-5.2-3.4c-1.2-1-2.2-2.3-3-3.6c-1.6-2.5-4.1-3.4-6.6-4.4c-1.9-0.8-3.7-2-5.4-3.3
			c-1.1-0.8-1.8-1.5-3.3-0.7c-0.8,0.4-2.1,0.5-3,0.1c-3.8-1.6-7.5-3.3-11.1-5.3c-0.9-0.5-1.7-2.1-1.6-3.1c0.3-2.3-0.9-3.9-2.2-5.5
			c-2.9-3.4-5.8-6.8-8.6-10.2c-0.5-0.6-0.5-1.6-0.9-2.3c-0.5-0.9-1.1-1.7-1.8-2.4c-0.2-0.2-1-0.2-1.3,0c-0.3,0.2-0.4,0.9-0.3,1.2
			c1.4,2.5,3,5,4.4,7.5c0.8,1.4,1.4,3,2.1,4.5c-0.3,0.2-0.6,0.4-0.9,0.6c-0.4-0.5-0.9-0.9-1.2-1.5c-0.3-0.6-0.3-1.6-0.7-2
			c-1.5-1.3-3.4-2.1-2.6-4.7c0.1-0.3-0.5-0.8-0.7-1.2c-1-1.5-2.1-3-2.9-4.6c-1.1-2.2-1.9-4.5-4.7-5.3c-0.8-0.2-1.6-1.1-2.1-1.9
			c-2.9-4.8-5.9-9.5-5.7-15.4c0-1,0.9-2.1,0.8-3.1c-0.1-2.7-0.4-5.4-0.6-8.3c0.3,0,1,0.2,1.4,0c0.5-0.4,1.2-1.4,1.1-1.5
			c-1.4-1.4-2.8-2.7-4.3-4c-0.2,0.2-0.4,0.4-0.6,0.6c1,1.1,2.1,2.2,3.3,3.4c-2.4,0.6-3.7-0.8-4.7-2.2c-0.3-0.4,0.1-1.4,0.2-2
			c-0.8-1.2-1.6-2.5-2.5-3.7c-0.8-1.1-1.8-2-2.6-3c-0.2-0.2-0.4-0.4-0.5-0.7c-1.9-4.3-4-8.4-7.4-11.7c-0.5-0.4-1.4-0.7-2-0.6
			c-1.8,0.3-3.2-0.2-4.5-1.4c-1.1-0.9-2.5-1.9-3.8-1.9c-3.2-0.1-6-1-8.7-2.5c-1.2-0.7-2.1-0.9-2.5,0.9c-0.1,0.6-1.1,1.3-1.8,1.4
			c-0.9,0.2-1.9-0.1-2.9-0.2c0.6-0.6,1.2-1.2,1.8-1.8c0.2-0.2,0.3-0.4,0.6-0.7c-1.8-1.7-2.8,0-3.6,1c-3.2,4.1-6.1,8.6-10.6,11.5
			c-0.8,0.5-1.8,0.5-2.9,0.5c2.4-1.9,5.3-3.3,5.1-7.1c-2.3,0-4.5,0-6.7,0c-0.6-3.6-0.7-3.6-4.1-2.9c-0.8-1.4-2.4-2.7-2.4-4.1
			c0-1.3,1.3-3.1,2.5-3.9c1.4-1,3.4-1.2,5.5-1.9c-0.3-1.1-0.3-2.5-0.9-3.1c-0.6-0.5-2-0.1-3,0.2c-2.2,0.7-4.2,1-5.6-1.5
			c-0.3-0.4-0.9-0.7-1.3-1C5.9,63.5,5.9,63.2,5.9,62.8z"/>
		<path class="st2" d="M161,307.2c-0.2-2-0.3-4-0.5-6c-0.2-0.1-0.4-0.1-0.7-0.2c-0.5,0.7-0.9,1.4-1.5,2c-0.5,0.5-1.1,0.9-1.7,1
			c-0.4,0-1-0.8-1.1-1.3c-0.1-3-2.3-5.3-1.9-8.6c0.2-1.5-0.7-3.3,0.1-5.2c0.3-0.6-0.9-1.7-1.4-2.8c2.8-0.8,3.7-2.9,3.6-5.5
			c0-1.7,0.9-3.5-1.3-4.9c-0.6-0.4,0-2.8,0.4-4.2c0.9-3.5,2.1-6.9,2.8-10.4c0.4-2.1,0.1-4.3,0.4-6.5c0.7-6.1,1.5-12.1,2.2-18.1
			c0.4-3.8-1.1-6.4-4.7-8.3c-2.1-1.1-3.9-3.5-5.2-5.6c-2.6-4.2-4.8-8.6-7-13c-0.4-0.8-0.8-2.3-0.4-2.8c1.3-1.7,0.6-3.6,0.9-5.3
			c0.2-1.3,0.6-2.8,1.5-3.7c4.4-4.9,4.8-7.6,1.5-13.5c-0.2-0.4-0.4-0.9-0.6-1.4c1.3,0.4,2.5,1.1,3.5,0.8c0.9-0.3,1.3-1.8,2-2.6
			c0.7-0.7,1.6-1.4,2.5-1.7c0.9-0.3,2,0.1,3-0.1c4.9-0.9,9,3.5,14.1,2.1c1-0.3,2.9,0.3,3,2.2c0,0.2,0.3,0.6,0.3,0.6
			c2.5-0.3,3.1,2,4.6,3.2c1.1,0.8,2.6,1.3,4,1.4c3.9,0.2,5.3,1.1,6.7,4.8c0.2,0.5,0.4,1,0.7,1.3c1.6,1.4,1.3,2.6-0.1,3.9
			c-0.4,0.3-0.4,1.1-0.6,1.7c1.2-0.2,2.1-0.7,2.7-0.4c0.4,0.2,0.5,1.3,0.8,2.2c0.3-0.3,0.8-0.8,1.3-0.9c1.1-0.3,2.9-0.8,3.2-0.3
			c2.2,2.9,5.5,2.5,8.5,3.4c2,0.6,3.8,1.9,5.6,2.9c0.5,0.3,0.9,0.8,1.4,1.1c2.6,1.3,3.4,3.2,2,5.8c-1.2,2.2-2.6,4.3-4.2,6
			c-1.3,1.4-1.9,2.7-1.8,4.6c0.1,4.6-0.9,9-3.5,12.9c-0.7,1-2.1,1.8-3.3,2.1c-3.3,0.9-6.3,2.2-8,5.2c-0.7,1.2-0.5,2.9-0.8,4.3
			c-0.1,0.7-0.3,1.6-0.7,2c-2.6,2.3-4.3,5.1-5.8,8.2c-1.6,3.5-3.2,3.6-7.4,2.1c-0.4-0.1-0.8-0.3-1.5-0.1c0.6,1.1,1.2,2.2,1.8,3.2
			c1.2,2,0.6,4.3-1.6,5c-1.9,0.6-3.9,0.9-6.1,1.4c0,0-0.3,0.4-0.2,0.8c0.3,2.6-0.8,3.5-3.3,3c-0.3-0.1-1.2,1.1-1.1,1.4
			c1.1,3.2-0.2,5.6-2.4,7.8c-1.9,1.8-1.9,2.6,0.3,4.1c1.2,0.8,1.1,1.4,0.3,2.4c-1.1,1.2-2.4,2.4-3.1,3.8c-0.7,1.3-0.7,2.9-1,4.3
			c-0.1,0.6-0.2,1.2-0.3,2.2c1.3,1.4,2.8,3.1,4.5,5c-0.5,0.4-1.1,0.8-1.8,1.3C163.3,307.2,162.1,307.2,161,307.2z"/>
		<path class="st2" d="M224.2,6.1c1.2,2.3,3,0.7,4.3,1.1c1.6,0.4,3.2,1,4.8,0.9c1.4-0.1,2.7-1.1,4-1.6c0.3,0.2,0.5,0.5,0.8,0.7
			c-0.7,1.3-1.3,2.6-2,3.9c0.4-0.1,0.8-0.2,1.2-0.4c1.8-0.6,3.2-3.1,5.7-1.2c0.4,0.3,1.9-0.4,2.7-1c1.9-1.4,3.8-0.8,5.7-0.3
			c0.4,0.1,0.7,0.6,1.1,0.9c-0.3,0.3-0.6,0.7-1,0.8c-1.7,0.8-4,1.1-5,2.4c-1.7,2.2-3.9,1.3-6.2,1.8c0.2,0.8,0.4,1.6,0.5,2.3
			c0.2,1.3,0.1,2.3-1.3,3.1c-1,0.6-1.5,2-2.3,3.1c1.6,1.3,3,2.4,4.5,3.6c-1.8,0.4-3.5,0.7-5.9,1.2c2.1,1.6,3.7,2.7,5.4,4
			c-1.3,1-2.2,1.7-3.3,2.5c1.4,0.6,2.2,0.9,3.1,1.2c-0.1,0.3-0.2,0.6-0.3,0.9c-1.4,0-2.8,0-4.2,0c-0.1,0.2-0.1,0.4-0.2,0.6
			c1,0.5,1.9,0.9,3,1.4c-2.3,1.8-4.6,0.5-7.1-0.1c0.6,2.3,4.5,1,3.9,4.7c-1.4-0.6-2.7-1.1-4.7-1.8c1.8,2.8,6.1,3,5.6,7.5
			c-1.9-0.9-3.7-1.7-5.8-2.6c-0.5,1.1-1.1,2.4-1.5,3.4c1.5,0.2,3.2,0.5,5.5,0.8c-3.9,3.3-7.3,5.5-11.8,5.4c-1.7,0-3.2,0.3-4.1,1.8
			c-2.1,3.6-5.4,5.1-9.3,5.8c-0.9,0.2-1.9,1-2.2,1.8c-1.5,3.8-2.8,7.6-4.2,11.4c-1,2.8-1.6,2.9-4,1c-0.7-0.6-1.9-0.5-2.7-0.9
			c-0.9-0.4-1.9-0.7-2.4-1.4c-2.6-4.3-5.3-8.6-7.5-13.1c-0.7-1.5,0.3-3.7,0.7-5.6c0.1-0.5,1-0.7,1.4-1.2c0.8-1.2,1.6-2.4,2-3.7
			c0.1-0.3-1.4-1.1-2.2-1.6c-0.5-0.3-1.1-0.5-1.6-0.8c-0.2,0.2-0.4,0.5-0.6,0.7c0.6,0.3,1.3,0.7,1.9,1c0,0.2,0,0.5,0,0.7
			c-0.8,0-1.7,0.3-2.4,0.1c-0.5-0.2-1-1.3-0.9-1.7c0.3-0.7,1-1.6,1.7-1.7c1.1-0.2,2.2,0.2,3.9-0.2c-1.2-1.1-2.3-2.2-3.7-3.5
			c-0.5,0.2-1.2,0.8-1.8,0.8c-0.5,0-1.5-1-1.4-1c1.6-2.3,0.1-4.4-0.8-6.2c-1.9-3.9-4.1-7.6-8.8-8.6c-1.7-0.3-3.4-0.3-5.1-0.3
			c-1.8,0-3.6,0.2-5.5,0.3c-0.3,0-0.7,0-1-0.2c-1-1-2-2-3-3c2-0.4,4.3-0.9,6.6-1.4c0-0.1,0.1-0.2,0.1-0.3c-3.1-0.5-6.2-1.1-9.4-1.6
			c0-0.4-0.1-0.8-0.1-1.2c2.7-1,5.3-2.5,8-2.9c2.8-0.4,3.6-1.8,4.1-4.2c-1.2-0.1-2.2-0.2-3.3-0.2c-0.1-0.2-0.3-0.4-0.4-0.6
			c1-0.7,1.8-1.5,2.9-2c1.4-0.6,3-0.8,4.5-1.2c0.5-0.1,1.2-0.2,1.3-0.5c2.2-4.3,6.7-3.3,10.2-4.3c0.8-0.2,2.1,1.1,3.2,1.7
			c0-0.1,0.2-0.7,0.4-1.4c1.5,0.6,3,1.1,5.1,1.9c-0.8-1.3-1.2-1.9-1.6-2.5c0.1-0.2,0.1-0.4,0.2-0.6c2.1,0.7,4.2,1.4,6.3,1.9
			c0.9,0.2,1.9,0.2,2.9,0.3c-0.1-1.2-0.1-2.3-0.3-3.5c-0.1-0.5-0.4-0.9-0.7-1.5c3.5,0,6.7,0,10,0c0.3,0,0.7,0,1-0.1
			c5.7-3,11.5-2.3,17.3-0.6c1.8,0.5,3.5,1.2,5.2,1.9c0.5,0.2,0.8,0.9,1.2,1.3c-0.5,0.3-1.1,0.8-1.6,0.8
			C230.2,5.8,227.4,5.9,224.2,6.1z"/>
		<path class="st2" d="M477.2,225.8c0.2-0.4,0.4-0.8,0.5-1.2c0.5-3.3,3.2-5.2,6.4-4.4c0.3,0.1,0.6,0.2,1,0.2c3,0.4,3.1,0.4,2,3.1
			c-0.8,1.8-0.3,2.7,1.4,3.5c1.8,1,3.5,2.2,5.3,3.4c5.1-2.3,2-7.6,3.9-11.2c0.4,0.3,0.7,0.5,0.8,0.7c1.6,3.7,3.3,7.4,4.8,11.1
			c0.8,1.9,1.5,3.5,4.1,3.1c0.6-0.1,1.6,0.3,2,0.8c1.7,2.2,3.3,4.4,4.9,6.7c0.7,0.9,1.7,1.8,1.9,2.8c0.3,1.9,0.4,3.9,0.1,5.8
			c-0.6,3.6,0,7.5-3.2,10.4c-2,1.8-3.5,4.1-5.2,6.1c-0.4,0.5-0.8,1.1-1.1,1.6c-1.1,1.7-2.4,2.3-4.4,1.5c-0.5-0.2-1.2-0.3-1.7-0.2
			c-3.4,0.9-5.5-0.2-7-3.4c-1.1-2.3-2.4-4.5-3.7-6.8c-0.8,0.9-1.7,1.9-2.8,3.1c-1.3-3.8-4.2-5.8-8.1-6.3c-0.4-0.1-0.9-0.2-1.2-0.1
			c-3.4,1.4-7.5,1.3-10.3,4.2c-0.4,0.4-1.5,0.8-2,0.6c-2.1-1-3.6,0.3-5.3,1.1c-1.1,0.5-2.5,0.9-3.6,0.7c-1.7-0.3-2.5-1.3-1.5-3.2
			c1.4-2.7-0.3-5.1-1.1-7.5c-0.7-2.1-2-4-1.1-6.4c0.2-0.6-0.6-1.5-0.8-2.3c-0.7-3.2,1.7-6.4,5.2-7.2c1.4-0.4,3-0.5,4.3-1.1
			c1.3-0.7,2.5-1.8,3.5-3c0.8-1.1,0.5-3.3,2.9-2.6c0.1,0,0.5-0.6,0.6-1c1.7-3.7,2.9-4.3,6.6-2.9c0.4,0.1,0.8,0.2,1.2,0.3
			C476.7,225.7,476.9,225.7,477.2,225.8z"/>
		<path class="st2" d="M135.5,12.4c0.3-0.8,0.5-1.5,0.8-2.4c-1.8,0.2-3.3,0.6-4.8,0.5c-0.7,0-1.9-1-1.9-1.5c0-0.7,0.8-1.9,1.5-2.1
			c1.9-0.6,4-1,6-1c1.7-0.1,3.4,0.4,5.2,0.7c0.5-2,2-2.7,4.2-2.8c3.5-0.2,6.9-0.7,10.4-0.9c1.8-0.1,4.2-0.7,5.5,0.1
			c3.5,2.3,8.2-1.3,11,3.3c-2.3,0.8-5.2,1.8-8,2.7c0.4,0.2,0.9,0.6,1.7,1.1c-1.8,0.9-3.4,1.7-5,2.6c-0.7,0.4-1.6,0.7-2.1,1.3
			c-1.8,2.5-4.4,2.6-7.1,2.8c-0.5,0-1.3,0.6-1.4,1c-0.1,0.8,0.3,1.6,0.8,2.5c-2.1,3.6-5.7,5-10.6,5.3c2.4,0.8,4.1,1.4,6.2,2.1
			c-2,1.2-3.3,2.3-5.3,0.8c-0.7-0.6-2.3-0.2-3.4-0.2c-2.1,0.2-4.2,0.6-6.4,0.7c-0.9,0-1.8-0.6-2.5-0.8c1.1-1.1,2.1-2.3,3.3-3.2
			c0.4-0.3,1.3-0.2,1.9-0.1c1.1,0.2,2.2,0.5,3.7,0.8c-0.5-1.9-4.1-0.9-2.1-3.6c-1.5,0.1-2.6,0.2-4.1,0.4c1.3-3.8,4.6-1.9,6.8-2.7
			c-1.3-1.4-2.5-2.8-3.7-4.2c1.3-0.7,1.3-0.7,7.2,0.8c-0.9-0.4-1.8-0.9-2.7-1.3c3-1.9,6.8-1.1,7.6-5.6
			C144,11.8,140.1,13.2,135.5,12.4z"/>
		<path class="st2" d="M136,38.4c-2.5,3.3-2.2,5.8,1.5,8.8c-0.3-1.1-0.3-1.8-0.6-2.3c-1.2-1.8-1.2-3.7,0.2-5.2
			c1.2-1.3,2.9-1.6,4.7-0.9c0.6,0.2,1.4,0,2.1,0.1c2,0.2,4,0.4,6.4,0.7c-1.5,1.6-1.5,1.6-6.5,0.7c-0.1,1.1-0.3,2.1-0.4,3.5
			c1.6-0.5,3.1-0.8,4.5-1.4c2.5-1,3.7-0.5,5.1,1.9c0.4,0.7,1.4,1.4,2.3,1.5c1.4,0.2,2.6,0.2,3.6,1.5c0.6,0.8,2,0.9,3.4,1.5
			c0,1.3-0.2,3.3,2.5,3.8c-0.6,0.6-1.2,1.1-1.9,1.8c3.7,2,7.2,4,11.1,6.2c-1.2,1.4-2.2,2.7-3.4,3.9c-0.3,0.2-1.3-0.1-1.8-0.4
			c-0.6-0.4-0.9-1.2-1.4-1.7c-1.1-1.3-2.4-1.5-3.3-0.1c-0.3,0.5,0.5,1.9,1.1,2.6c0.8,0.9,2.2,1.4,2.7,2.4c0.5,0.8,0.2,2.1,0.3,3.2
			c-0.9-0.1-1.8-0.1-2.6-0.4c-0.9-0.3-1.7-0.9-3.2-1.7c0.8,1.8,1.2,3,1.7,4.1c-3.2-0.1-5.4-1.8-7.3-4.1c-1.4-1.7-3.1-2.6-5.5-1.6
			c-0.9,0.3-2,0.1-3,0.1c-0.6-2.3,0.8-2.5,2.3-2.2c2.6,0.4,3.6-0.2,4-2.6c0.1-0.6,0.7-1.2,1.2-1.6c1.3-1,1.8-2,0.4-3.2
			c-2.8-2.5-5.4-5.3-8.6-7.2c-1.4-0.8-3.9,0.5-5.8,0.4c-2.9-0.2-5.7-0.7-8.6-1.2c-0.4-0.1-0.7-1.1-0.6-2c-2.9-0.4-3.7-2.2-3-4.9
			C130.3,39.1,132,38.2,136,38.4z"/>
		<path class="st2" d="M101.3,44.3c-0.5-1.2-0.9-2.4-1.6-4c1.5,0,2.8,0,4.3,0c0.6,4.1,1.5,8.4,7,10c-1.3,0.5-2.3,0.8-3.8,1.4
			c1,0.6,1.6,1,2.3,1.4c0,0.2-0.1,0.5-0.1,0.7c-1.4-0.1-2.8-0.2-4.2-0.3c-1.4-0.1-3.1-0.8-4.2-0.2c-4.3,2.2-8.2,1.4-12.1-0.9
			c-0.8-0.5-1.8-0.9-2.6-1.3c0-0.3,0-0.5,0-0.8c2.4-0.2,4.8-0.4,7.7-0.6c-1.2-2.2-3.2-1.3-4.6-1.4c-1.6-0.2-3.3,0-4.9,0
			c-0.1-0.2-0.1-0.4-0.2-0.6c0.9-0.5,1.8-1,3-1.6c-1.4-0.4-2.6-0.8-4.2-1.3c0.7-1.4,1.3-2.5,2-3.9c-2.1,0.1-3.6,1.1-4.3,3
			c-0.8,2-2.3,2.7-4.1,2.3c-1.4-0.4-2.7-1.6-3.8-2.6c-0.3-0.3,0.3-1.4,0.6-2.2c0.4-1.5,0.9-2.9,1.5-4.9c3.1-1.3,11.3,0.1,12.5,2.6
			c-0.3,0.2-0.6,0.5-1,0.7c-0.3,0.2-0.6,0.5-0.9,1c2-0.5,4.2-2,5.3,1.4c1.9-2.1,3-0.8,3.8,0.8c3-1.7,3-1.7,4.9,1.3
			c0.2,0.4,0.9,0.5,1.3,0.8C101.1,44.7,101.2,44.5,101.3,44.3z"/>
		<path class="st2" d="M481.2,203.6c2.1,0.3,3.8,0.6,5.8,0.9c3-2.7,2.9-2.3,7.5-0.8c4.2,1.4,7.9,3.2,10.9,6.6
			c-1.2,2.8,1.9,2.7,3.1,4c-1.5,1.5-3,1.5-4.3-0.1c-1.8-2.3-4.1-2.5-5.4-0.3c-1.2,2-2.3,1.2-3.7,0.6c-1.3-0.6-2.7-1-4.1-1.5
			c1-3.1,0.4-4.4-3.3-6c-2-0.8-3.9-1.6-5.9-2.4C481.7,204.6,481.7,204.4,481.2,203.6z"/>
		<path class="st2" d="M457.5,187.7c2.3,1.2,2.4,1.9,0.9,4.4c-0.3,0.4-0.4,1.2-0.2,1.6c1.8,3.2-0.1,5.5-1.5,8
			c-0.4,0.6-0.7,1.4-0.7,2.2c0,1.5-0.9,1.9-2.1,1.8c-1.3-0.2-2.6-0.6-4-1c-2.5-0.6-5.4-4-5.3-6.5c0-0.6,0.7-1.3,1.3-1.7
			c1.5-1.1,3.2-1.9,4.7-3C452.9,191.7,455,189.8,457.5,187.7z"/>
		<path class="st2" d="M350.3,220.4c0.8,5.3-0.1,9.7-1.5,14.2c-0.7,2.2-1.2,4.4-1.7,6.6c-0.6,2.7-2.8,4-4.9,2.7
			c-0.5-0.3-1.2-1-1.2-1.4c0.1-2.2,0.3-4.4,0.5-6.5c0.1-1.2,0.1-2.5,0.3-3.7c0.3-1.5,0.5-3.1,1.3-4.2c1-1.3,2.8-1.9,4-3.1
			C348.3,223.7,349.1,222.2,350.3,220.4z"/>
		<path class="st2" d="M380.8,28.6c-3,1-6,2.1-8.9,3.1c-3.7,1.2-6.7,3.4-9,6.5c-0.6,0.7-1.3,1.3-1.9,2c-2.6,2.6-2.6,2.6-0.5,5.9
			c0.3,0.5,0.6,1.1,1.2,2.3c-1.5-0.2-2.6-0.1-3.5-0.5c-1.3-0.6-1.6-2.8-3.7-2.3c-0.1,0-0.6-1.1-0.5-1.2c4.1-3.7,5-10.1,10.4-12.7
			c1.2-0.6,2.6-1,3.9-1.4c3.3-1,6.7-1.9,10-3.1C379.7,26.5,380.2,27,380.8,28.6z"/>
		<path class="st2" d="M135.8,17.9c-2.7,1.3-5.3,3.1-8.1,3.8c-1.4,0.4-3.3-1.1-5.3-1.9c1.3-0.9,2-1.4,2.5-1.8
			c-2.3-0.8-4.4-1.4-6.4-2c0-0.3,0.1-0.5,0.1-0.8c0.7-0.2,1.3-0.4,2.1-0.6c-1.2-0.8-2.3-1.4,0-2.5c3.9-1.9,3.8-2.1,7,0.7
			c0.8,0.7,2,1,3,1.6c0.8,0.5,1.7,1,2.4,1.6C133.9,16.4,134.8,17.1,135.8,17.9z"/>
		<path class="st2" d="M266.6,100.1c-1.9-1.6-2.3-3.1-0.2-4.9c1.3-1.2,0.6-2.2-0.9-3.1c-2.7-1.6-3.4-6.6-1.8-8.1
			c1.7,0.6,3,1.1,4.3,1.6c-0.6,2.8-0.7,2.8,1.6,6c1.3,1.8,0.7,5.2,4.2,5.1c-0.4,1.3-0.8,2.6-1.2,4.1c-2.4,0.4-5.2,0.9-8.7,1.5
			C265.1,101.3,265.8,100.7,266.6,100.1z"/>
		<path class="st2" d="M438.2,209.6c-1.7-1.6-3.6-3.1-4.9-4.9c-3.4-4.8-6.5-9.8-9.7-14.7c1.8-0.4,3.3,0.8,4.7,2.2
			c1.3,1.3,2.8,2.4,4.2,3.6c0.7,0.6,1.4,1.1,1.9,1.8c1.7,2.3,3.5,4.5,4.7,7c0.7,1.3,0.3,3.1,0.4,4.6
			C439.1,209.2,438.6,209.4,438.2,209.6z"/>
		<path class="st2" d="M118.9,28.4c3.1-1.6,7.9-0.3,9.6,1.8c0.7,0.8,1.8,1.7,2.9,1.8c2.2,0.2,4.5-0.1,6.7-0.1c1.5,0,3,0,4.6,0
			c1.5-0.1,2.1,0.9,1.6,2c-0.3,0.7-1.4,1.4-2.3,1.5c-2,0.3-4.1,0.3-6.1,0.2c-3.1-0.2-6.2-0.6-9.3-1.1c-0.5-0.1-1-1.3-1.1-2
			c-0.4-2.1-1.3-3.5-3.7-3.3C121,29.1,120.2,28.7,118.9,28.4z"/>
		<path class="st2" d="M289.4,15.8c2.6,0.8,5.3,1.5,7.9,2.3c0-0.4-0.1-1.2-0.2-2.9c5.1,2.3,8.5,6.1,13,8.6c-2.8,1.2-3.8,0.9-4.8-1.4
			c-1-2.3-1.6-2.4-3.4-0.8c-1,1-2,1.9-2.6,3.3c-1.3,3-2,2.9-4.6,0.3c1-0.6,2.1-1,3-1.7c0.4-0.3,0.8-1.3,0.6-1.7
			c-0.2-0.5-1-0.9-1.6-1.1c-0.5-0.2-1.3-0.2-1.7,0c-2.9,2.2-3.6,0.1-4.4-2.1c-0.2-0.7-0.9-1.2-1.4-1.8
			C289.2,16.4,289.3,16.1,289.4,15.8z"/>
		<path class="st2" d="M545.8,277.7c0.5,0.4,1.5,1,2.4,1.6c-3.5,3.9-6.9,7.8-10.5,11.5c-0.7,0.8-2.4,1.4-3.2,1.1
			c-1-0.4-2-1.8-2.3-2.9c-0.2-0.8,0.7-2.1,1.5-2.7c2.3-1.6,4.9-2.9,7.3-4.5C542.7,280.7,544,279.3,545.8,277.7z"/>
		<path class="st2" d="M238,63.3c2.6-0.5,5.3-1,8-1.4c1.7-0.3,2.7,0.6,3.2,2.1c0.5,1.5-0.4,2.6-1.7,3.1c-2.1,0.8-4.3,1.7-6.5,2.1
			c-2.1,0.4-3.4-1.1-4.4-2.9c-0.6-1.1-1.4-2.2-2.4-3.8c0.2-0.1,1.1-1.1,1.8-1C236.8,61.7,237.4,62.8,238,63.3z"/>
		<path class="st2" d="M98.9,31.9c-0.6-0.9-1-1.3-1-1.7c-0.1-0.8,0.1-1.5,0.2-2.3c0.5,0.4,1.1,0.9,1.6,1.3c0.7,0.5,1.5,1.6,2,1.5
			c2.4-0.8,2,0.8,2,2.3c-2.1,0.4-4.3,0.6-6.4,1.2c-2.1,0.6-3.9,2-6.7,1c1.5-0.6,2.5-1.1,4.2-1.8c-2-0.2-3.3-0.4-4.6-0.3
			c-1.1,0-2.2,0.3-3.4,0.5c0.3-1.7,0.5-2.8,0.8-4c2.5-0.7,4.7,0,6.6,1.5C95.5,32.1,97,32.4,98.9,31.9z"/>
		<path class="st2" d="M486.9,137.4c-0.3-1.6-1.5-2.1-3.4-1.5c-0.7,0.2-1.6,0.2-2.4,0.2c-0.1-0.3-0.2-0.6-0.3-0.9
			c1.3-0.4,2.6-0.9,3.9-1.1c1.5-0.1,3,0,3.5-1.9c0-0.2,0.2-0.5,0.4-0.5c4.1-1.4,5.6-4.5,5.7-8.6c2.4,0.7,2.9,1.7,2.1,3.7
			c-0.6,1.4-1.1,2.9-1.4,4.4c-0.4,2.7-2.3,3.5-4.5,4.2C489.3,135.9,488.2,136.7,486.9,137.4z"/>
		<path class="st2" d="M425.2,14.8c0.8,0.1,2.2,0.2,3.5,0.6c0.5,0.2,1,1.2,1,1.8c0,0.7-0.4,1.5-0.8,2.6c-2.3-0.4-4.8-0.5-6.8-1.4
			c-2.2-1-0.9-2.6,0.2-4c-1,0.3-2,0.6-3.1,0.9c-0.5-3.5-0.5-3.4,3.1-4.7c1.8-0.6,2.6,0.3,3.2,1.4C425.9,12.5,425.4,13.5,425.2,14.8z
			"/>
		<path class="st2" d="M550.7,279.5c-1.2-1.9-1.9-3.8-0.5-5.7c1.7-2.2,2.1-4.1,0.4-6.4c-0.4-0.6-0.4-1.6-0.5-2.4
			c0.2-0.1,0.5-0.2,0.7-0.4c0.5,0.7,1.1,1.3,1.6,2c1.2,1.9,1.9,4.1,4.3,5.2c1.8,0.8,0.3,2.4-0.4,3.1
			C554.6,276.6,552.6,278,550.7,279.5z"/>
		<path class="st2" d="M110.2,42.3c1-0.6,1.7-1,2.6-1.6c-0.5-0.7-1-1.3-1.7-2.2c2.2-0.1,4-2,6.1,0.1c-0.5,0.7-1,1.4-1.6,2.2
			c0.6,0.2,1.4,0.3,1.5,0.7c0.4,0.8,0.9,2.1,0.5,2.6c-1.2,1.7-3.6,1.6-5.2,0.1C111.9,43.6,111.2,43.1,110.2,42.3z"/>
		<path class="st2" d="M436.7,196c-2.5,0.1-5-1.8-5-4.5c-0.1-2.7-1.2-4.7-3-6.5c-0.5-0.5-0.7-1.2-0.9-1.9c0-0.1,0.9-0.8,1.1-0.7
			c0.6,0.4,1.3,0.9,1.4,1.5c0.5,1.8,1.1,3.2,3,4.1c1,0.5,1.6,2,2.1,3.2C435.9,192.7,436.2,194.3,436.7,196z"/>
		<path class="st2" d="M181.9,100.3c0.5,4.3,1.1,5.1,3.9,4.4c0.1,0.8,0.5,1.6,0.3,2.3c-0.2,0.7-1,1.8-1.5,1.8
			c-2.3,0-4.5-0.4-6.9-0.6C179.1,105.5,180.5,102.9,181.9,100.3z"/>
		<path class="st2" d="M255.9,99.2c0.5-3,0.5-6,3.5-7.6c0.6-0.3,1.5-0.5,2.2-0.3c0.3,0.1,0.5,1.1,0.6,1.7c0,0.5-0.3,1.1-0.4,1.6
			C261.4,98.3,260,99.5,255.9,99.2z"/>
		<path class="st2" d="M314,15.2c-2.1,3.5-6.9,3.4-12.3,0C303.1,13.8,310.6,13.8,314,15.2z"/>
		<path class="st2" d="M497,30.7c0.2,3.2,0.2,3.2-3.1,3.4c-1.2,0.1-2.5,0.2-3.6-0.3c-1.4-0.6-1.2-1.9-0.3-2.9
			c0.8-0.9,1.7-1.6,3.2-0.6C494,31,495.5,30.6,497,30.7z"/>
		<path class="st2" d="M135.6,63c2.1,1.5,4.3,2.9,6.4,4.4c-0.1,0.2-0.1,0.5-0.2,0.7c-1.9-0.7-3.3-0.4-4.2,1.5
			c-0.7,1.3-1.9,0.8-2.1-0.4c-0.4-1.9-0.4-3.9-0.6-5.9C135.1,63.2,135.4,63.1,135.6,63z"/>
		<path class="st2" d="M77.6,29.4c3.1-1.9,5.4-5.4,9.9-3.7c-0.8,1.4-0.4,4.1-3.3,2.3c-0.2-0.1-0.8,0.1-0.9,0.4
			C81.9,30.6,80,30.4,77.6,29.4z"/>
		<path class="st2" d="M497.2,114.7c1.3,0.9,3,1.9,4.6,2.9c-1.8,2.3-4.1,2.9-6.8,1.7C495.8,117.8,496.5,116.3,497.2,114.7z"/>
		<path class="st2" d="M113.5,23.3c-2.2-0.7-3.9-0.9-5.3-1.8c-1.2-0.8-1.9-2.2-2.7-3.2c2.7,0.1,5.5,0.7,7.7,3
			C113.6,21.7,113.4,22.7,113.5,23.3z"/>
		<path class="st2" d="M498.2,95.8c0.6,2.4,1.4,4.9,1.6,7.3c0.1,1-1.2,2.2-2.1,3.1c1.2-3.5-2.5-7.3-0.1-10.6
			C497.8,95.6,498,95.7,498.2,95.8z"/>
		<path class="st2" d="M438.4,21.1c-1.4,0.2-2.8,0.4-4.2,0.6c-1.4,0.2-2.7,0.5-4.1,0.8C432.4,17.9,434.6,17.4,438.4,21.1z"/>
		<path class="st2" d="M112.5,27.8c0.5,0.1,1.1,0.4,1.7,0.4c0.6,0.1,1.1,0,1.7,0c0.3,1,0.7,1.9,0.7,2.7c-0.1,0.8-0.5,1.8-1.1,2.2
			c-0.6,0.4-1.7,0.4-2.5,0.2c-0.3-0.1-0.2-1.4-0.3-2.1C112.6,30.1,112.5,29,112.5,27.8z"/>
		<path class="st2" d="M464.7,201.3c0,1.2,0,2,0,2.8c-2.7-0.2-1.9,2.3-2.5,3.8c-0.3,0-0.6-0.1-0.8-0.1c0-2.1-0.1-4.3,0.1-6.4
			C461.5,201.3,463.6,201.3,464.7,201.3z"/>
		<path class="st2" d="M464.2,174.3c-3.1-2-0.9-4.8-1.7-7.6c1.2,0.3,2.4,0.3,2.7,0.7c0.4,0.6,0,1.7-0.1,2.5
			C464.8,171.3,464.5,172.7,464.2,174.3z"/>
		<path class="st2" d="M471.2,183c1.8,2.3,0.2,4-1.3,5.9c-1-1.5-1.8-2.8-2.5-3.9C468.4,184.5,469.8,183.7,471.2,183z"/>
		<path class="st2" d="M501.9,276c1.2-0.3,2.3-0.5,3.6-0.8c0,1.6,0,3.1,0,4.6C501.6,280.9,502.7,277.6,501.9,276z"/>
		<path class="st2" d="M440.3,210.4c3.1,0.4,6.1,0.9,9.5,1.4c0.1,0.2,0.2,0.8,0.5,1.9c-3.6-0.8-6.9-1.6-10.1-2.4
			C440.2,211,440.2,210.7,440.3,210.4z"/>
		<path class="st2" d="M151.5,163.6c-3.1-1.7-6.2-3.3-9.2-5c3.1-0.3,6.2,1.3,9.6,4.2C151.8,163.1,151.6,163.4,151.5,163.6z"/>
		<path class="st2" d="M161.8,166.3c-1.5,0.1-3,0.3-4.5,0.3c-0.4,0-1-1-1.1-1.6c-0.1-0.3,0.9-1.2,1.2-1.1c1.6,0.3,3.1,0.8,4.6,1.2
			C161.9,165.5,161.9,165.9,161.8,166.3z"/>
		<path class="st2" d="M399.8,182.7c0.5,1.4,1,2.8,1.3,4.2c0.1,0.3-0.7,1-1.2,1.2c-0.4,0.1-1.4-0.3-1.4-0.6
			c-0.1-1.5-0.1-3.1-0.1-4.6C399,182.8,399.4,182.8,399.8,182.7z"/>
		<path class="st2" d="M534.9,41.7c0.1-2.9,1.5-3.8,3.5-3.2c0.4,0.1,0.6,1.2,0.9,1.8C537.8,40.7,536.3,41.2,534.9,41.7z"/>
		<path class="st2" d="M116.2,20.1c1,0.3,2.1,0.4,2.9,0.9c0.5,0.3,0.6,1.4,0.9,2.1c-0.8,0-1.8,0.3-2.4-0.1c-0.8-0.5-1.2-1.5-1.8-2.3
			C116,20.5,116.1,20.3,116.2,20.1z"/>
		<path class="st2" d="M118.7,33.4c1-0.5,1.9-1.3,2.9-1.4c0.4,0,1,1.3,1.5,2.1c-0.2,0.2-0.3,0.4-0.5,0.6c-1.2-0.1-2.4-0.1-3.6-0.2
			C118.9,34.1,118.8,33.7,118.7,33.4z"/>
		<path class="st2" d="M484.1,202.9c-1.1-0.4-2.2-0.8-3.4-1.2c0.2-0.6,0.5-1.1,0.7-1.7c1.1,0.5,2.2,1,3.4,1.5
			C484.5,202,484.3,202.5,484.1,202.9z"/>
		<path class="st2" d="M92,23.8c1.6-0.6,3.1-1.1,4.7-1.6C96,25.4,94.6,25.9,92,23.8z"/>
		<path class="st2" d="M510.6,203.4c-0.9,3.4-1.3,3.7-4.9,2.9C507.5,205.3,508.9,204.4,510.6,203.4z"/>
		<path class="st2" d="M479,141.9c-0.3-1.2-0.6-2.5-1.1-4.3c1,0.3,2.4,0.5,2.4,0.7c0.1,1.2-0.2,2.5-0.4,3.7
			C479.6,142,479.3,142,479,141.9z"/>
		<path class="st2" d="M152.1,58.1c-1.1,0-2,0-2.9,0c-0.1-0.2-0.3-0.4-0.4-0.7c0.9-0.7,1.9-1.3,3.3-2.4
			C152.1,56.7,152.1,57.4,152.1,58.1z"/>
		<path class="st2" d="M512.8,202.4c-0.9-1.4-1.5-2.5-2.3-3.8C513.6,198.9,514,199.6,512.8,202.4z"/>
		<path class="st2" d="M542.8,238.5c-1.1-0.6-2.2-1.2-3.7-2.1c0.7-0.4,1.3-0.9,1.5-0.7c1,0.5,1.9,1.3,2.8,1.9
			C543.2,237.9,543,238.2,542.8,238.5z"/>
	</g>
</g>
<path class="st3" d="M439.5,183.3c-0.2-0.1-0.3-0.3-0.3-0.6c0.7-2.1,0.3-3-2.2-4.2c-1.6-0.8-3.4-1.5-5.1-2.2
	c0.1-0.5,0.1-0.4,0.2-0.9l2.8,0.5c0.2,0,0.3-0.1,0.4-0.2c1.7-2.5,3.9-1.7,6.7-0.5c3.1,1.3,6.2,2.2,8.4,4.9c0.2,0.3,0.9,0.5,0.8,0.6
	c-0.6,1.9,0.7,2.6,2,3.4c0.3,0.2,0.3,0.6,0,0.8c-1.1,0.5-1.9,0.7-2.8-0.7c-1.4-2.1-3.6-2.2-4.8-0.2c-1,1.6-1.9,1.2-3.1,0.5
	C441.7,184.1,440.7,183.8,439.5,183.3z"/>
<path class="st3" d="M408.6,161.1c0.1-0.1,0.4-0.2,0.5-0.1c1.8,0.9,1.8,1.6,0.6,3.6c-0.3,0.4-0.4,1.2-0.2,1.6c1.4,2.7,0.1,4.8-1.4,7
	c-0.3,0.4-0.6,1-0.6,1.5c-0.1,1.7-0.6,2.6-2.4,1.5c-0.3-0.2-0.8-0.3-1.3-0.3c-3.4-0.3-5.3-1.9-6-5.3c-0.1-0.6,0.5-1.6,1.1-1.9
	C402.8,167,405.5,164,408.6,161.1z"/>
<path class="st3" d="M435.1,115.3c-0.8-2.1-3,0-4.5-0.5c0-0.5,0-0.4,0.1-0.9c1-0.3,2-0.6,3-0.6c1.3-0.1,2.3-0.2,2.9-1.5
	c0.1-0.2,0.3-0.6,0.5-0.6c3.2-1.2,4.7-3.7,5-7.1c0-0.3,0.4-0.5,0.7-0.4c1.7,0.9,1.8,2.2-0.1,4.8c-0.1,0.1-0.1,0.2-0.1,0.3
	c0.3,3.8-1.7,4.7-4,5.5c-0.9,0.3-1.8,0.8-2.8,1.3C435.4,115.6,435.2,115.5,435.1,115.3z"/>
<path class="st3" d="M444.3,96.4c0.1-0.3,0.4-0.4,0.7-0.2c0.5,0.3,0.9,0.7,1.5,1c0.5,0.3,1,0.6,1.6,0.9c0.3,0.1,0.3,0.5,0.1,0.7
	c-1.2,1.2-2.7,1.5-4.3,1.5c-1.1,0-1.3-0.7-0.7-1.7C443.6,98,443.9,97.2,444.3,96.4z"/>
<path class="st3" d="M444.4,79.7c0.1-0.4,0.8-0.4,0.9,0c0.6,2.3,1.1,4.2,1.4,6.1c0.1,0.4-0.3,0.9-0.8,1.3c-0.3,0.3-0.7,0.1-0.8-0.3
	C445,84.5,443.7,82.2,444.4,79.7z"/>
<path class="st3" d="M412.7,177c-0.7-4.3-0.5-4.5,2.3-3.8c0.3,0.1,0.4,0.4,0.3,0.7c-0.6,1.1-1.2,2.2-1.8,3.3
	C413.3,177.5,412.8,177.4,412.7,177z"/>
<path class="st3" d="M415.1,147.1c0,0.5-0.7,0.6-0.9,0.2c-0.7-1.6-1-3.9-0.4-4.6c0.3-0.3,1.2-0.5,1.3-0.3c0.4,0.5,0.8,1.2,0.7,1.8
	c0,0.7-0.6,1.4-0.8,2.2C415.1,146.6,415.1,146.9,415.1,147.1z"/>
<path class="st3" d="M418.6,158.1c0.6-0.3,1.3-0.8,2.2-1.2c0.2-0.1,0.5,0,0.6,0.2c1,1.6,0.1,2.7-0.9,4.1c-0.2,0.3-0.6,0.2-0.8-0.1
	c-0.5-0.9-0.9-1.6-1.2-2.3C418.3,158.5,418.4,158.3,418.6,158.1z"/>
<path class="st3" d="M396.7,181.5c1.6,0.2,3.1,0.4,4.7,0.6c0.3,0,0.5,0.4,0.8,0.8c0.1,0.1,0.1,0.3,0,0.4l-0.1,0.2
	c-0.1,0.1-0.3,0.2-0.4,0.2c-1.7-0.4-3.4-0.8-5.2-1.2C396.6,181.8,396.6,182.1,396.7,181.5z"/>
<path class="st3" d="M436.8,175.3c-2.2-0.6-4.3-1.2-6.5-1.8c-0.2-0.1-0.4-0.3-0.3-0.6l0.2-0.6c0.1-0.3,0.3-0.4,0.6-0.3
	c2.1,0.8,4.2,1.6,6.3,2.3C436.9,174.9,437,174.7,436.8,175.3z"/>
<path class="st3" d="M428.1,119.1c-0.2-0.7-0.3-1.3-0.4-1.9c-0.1-0.3,0.2-0.6,0.5-0.6c1.4,0.2,1.6,0.7,0.8,2.5
	C428.7,119.6,428.2,119.5,428.1,119.1z"/>
<g>
	<path class="st1" d="M407,180.3c-2.9,0-5.3-2.3-5.3-5.2l-0.2-126.3c0-2.9,2.3-5.3,5.2-5.3l31.9,0l0-10.5l-40.3,0.4
		c-3.7,0-6.7,3-6.7,6.7l0.8,152.2c0,3.7,3,6.7,6.7,6.7l39,0.2l0.1-18.9L407,180.3z"/>
	<path class="st1" d="M475.2,32.6l-36.7,0.4l0,11.7l28.8-0.9c2.9,0,5.3,2.3,5.3,5.2l-0.8,125.9c0,2.9-2.3,5.3-5.2,5.3l-28.5,0.1
		l-0.6,18.9l37.3,0.2c3.7,0,6.7-3,6.7-6.7l0.5-153.4C481.9,35.6,478.9,32.6,475.2,32.6z"/>
	<path class="st4" d="M401.4,48.8l0.2,126.3c0,2.9,2.4,5.2,5.3,5.2l31.1-0.1l0.4-136.9l-31.8,0.2C403.8,43.5,401.4,45.9,401.4,48.8z
		"/>
	<path class="st0" d="M466.6,180.1c2.9,0,5.2-2.4,5.2-5.3l0.8-126.4c0-2.9-2.4-5.2-5.3-5.2l-28.8,0.1L438,180.2L466.6,180.1z"/>
</g>
<circle class="st5" cx="438" cy="188.9" r="6.9"/>
<circle class="st6" cx="438.2" cy="38.5" r="2.8"/>
<g id="Sk4rYf.tif_6_">
	<g>
		<path class="st7" d="M447.4,134.5c0-6,4.9-10.9,10.9-10.9c6,0,10.9,4.8,10.9,10.9c0,6-4.8,10.9-10.9,10.8
			C452.2,145.3,447.4,140.5,447.4,134.5z M458.3,142.8c4.6,0,8.3-3.7,8.3-8.3c0-4.6-3.7-8.3-8.3-8.3c-4.6,0-8.3,3.7-8.3,8.3
			C450,139.1,453.7,142.7,458.3,142.8z"/>
		<path class="st7" d="M453.8,133.6c0,0,0.1,0.1,0.1,0.1c0.9,0.9,1.7,1.8,2.6,2.7c0.1,0.1,0.1,0.1,0.2,0c2-2,4-3.9,6-5.9
			c0,0,0,0,0.1-0.1c0.6,0.6,1.2,1.2,1.8,1.8c-2.7,2.6-5.3,5.2-8,7.9c-1.5-1.6-3.1-3.2-4.6-4.7C452.6,134.8,453.2,134.2,453.8,133.6z
			"/>
	</g>
</g>
<path class="st8" d="M418.1,141h-8.8c-2.2,0-4-1.8-4-4v-15.6c0-2.2,1.8-4,4-4h8.8c2.2,0,4,1.8,4,4v15.6
	C422,139.3,420.2,141,418.1,141z"/>
<path class="st9" d="M466.1,116.9h-19.9c-1.7,0-3.1-1.4-3.1-3.1V107c0-1.7,1.4-3.1,3.1-3.1h19.9c1.7,0,3.1,1.4,3.1,3.1v6.8
	C469.2,115.5,467.8,116.9,466.1,116.9z"/>
<g id="Sk4rYf.tif_5_">
	<g>
		<path class="st7" d="M447.4,161.9c0-6,4.9-10.9,10.9-10.9c6,0,10.9,4.8,10.9,10.9c0,6-4.8,10.9-10.9,10.8
			C452.2,172.7,447.4,167.9,447.4,161.9z M458.3,170.2c4.6,0,8.3-3.7,8.3-8.3c0-4.6-3.7-8.3-8.3-8.3c-4.6,0-8.3,3.7-8.3,8.3
			C450,166.5,453.7,170.2,458.3,170.2z"/>
		<path class="st7" d="M453.8,161c0,0,0.1,0.1,0.1,0.1c0.9,0.9,1.7,1.8,2.6,2.7c0.1,0.1,0.1,0.1,0.2,0c2-2,4-3.9,6-5.9
			c0,0,0,0,0.1-0.1c0.6,0.6,1.2,1.2,1.8,1.8c-2.7,2.6-5.3,5.2-8,7.9c-1.5-1.6-3.1-3.2-4.6-4.7C452.6,162.2,453.2,161.6,453.8,161z"
			/>
	</g>
</g>
<path class="st10" d="M467.7,101.1h-23.3c-0.4,0-0.7-0.3-0.7-0.7v-1.6c0-0.4,0.3-0.7,0.7-0.7h23.3c0.4,0,0.7,0.3,0.7,0.7v1.6
	C468.4,100.8,468.1,101.1,467.7,101.1z"/>
<path class="st8" d="M413.8,153.2c1-0.1,2,0.1,2.9,0.3c0.8,0.2,2.1,0.1,2.9-0.3c1.3-0.7,2.7-0.6,4.1-0.2c0.1,0,0.1,0.1,0.2,0.2
	c-0.1,0.1-0.2,0.2-0.3,0.2c-0.7,0.2-1.3,0.7-1.8,1.2c0,0-0.1,0.1-0.1,0.1c-0.6,0.7-0.6,1,0,1.7c0.9,1.1,1.4,2.3,1.4,3.7
	c0,1.7-0.7,3.1-1.9,4.3c-1.2,1.3-2.7,2-4.4,2.4c-2.6,0.7-5.1,0.5-7.5-0.5c-1.9-0.8-3.5-2-4.3-4.1c-0.8-2.1-0.5-4,0.9-5.7
	C407.9,154.2,410.7,153.3,413.8,153.2z"/>
<path class="st11" d="M461.3,94.1h-10.2c-0.8,0-1.6-0.4-2-1.2l-5.1-8.8c-0.4-0.7-0.4-1.6,0-2.3l5.1-8.8c0.4-0.7,1.2-1.2,2-1.2h10.2
	c0.8,0,1.6,0.4,2,1.2l5.1,8.8c0.4,0.7,0.4,1.6,0,2.3l-5.1,8.8C462.9,93.7,462.1,94.1,461.3,94.1z M452.1,92.3h8.1
	c0.8,0,1.6-0.4,2-1.2l4.1-7c0.4-0.7,0.4-1.6,0-2.3l-4.1-7c-0.4-0.7-1.2-1.2-2-1.2h-8.1c-0.8,0-1.6,0.4-2,1.2l-4.1,7
	c-0.4,0.7-0.4,1.6,0,2.3l4.1,7C450.5,91.9,451.3,92.3,452.1,92.3z"/>
<circle class="st12" cx="191.9" cy="208.8" r="5.2"/>
<circle class="st13" cx="191.9" cy="208.8" r="2"/>
<circle class="st12" cx="298.6" cy="193.6" r="5.2"/>
<circle class="st13" cx="298.6" cy="193.6" r="2"/>
<circle class="st12" cx="230.7" cy="45.3" r="5.2"/>
<circle class="st13" cx="230.7" cy="45.3" r="2"/>
<circle class="st12" cx="459.6" cy="237.6" r="5.2"/>
<circle class="st13" cx="459.6" cy="237.6" r="2"/>
<rect x="392" y="74.1" class="st1" width="8.7" height="68.5"/>
<path class="st14" d="M436,51.4c0.1,0.1,0.2,0.1,0.3,0.2c0.2,0.2,0.4,0.3,0.2,0.6c0,0,0,0.2,0.1,0.2c0.5,0.2,0.6,0.7,0.9,1.1
	c0.1,0.1,0.1,0.2,0.2,0.3c0.3,0.3,0.5,0.6,0.8,0.9c0.1,0.2,0.4,0.3,0.6,0.4c0.2,0.1,0.5,0.2,0.7,0.3c0.2,0.1,0.3,0.3,0.4,0.4
	c0.1,0.1,0.2,0.2,0.2,0.3c0.1,0.2,0.2,0.3,0.2,0.5c0.1,0.1,0.1,0.3,0.2,0.4c0,0,0.1,0.1,0.1,0.1c0,0.4,0.2,0.7,0.5,0.9
	c0.1,0.2,0.1,0.3-0.1,0.4c-0.1,0.1-0.2,0.2-0.3,0.3c-0.1,0.5-0.1,0.9-0.2,1.4c0,0.3,0.1,0.5,0.3,0.7c0.2,0.1,0.2,0.2,0.2,0.5
	c0,0.1-0.1,0.3-0.2,0.4c-0.3,0.1-0.3,0.3-0.3,0.6c0.1,0.3,0.2,0.7,0.3,1c0.1,0.2,0.2,0.4,0.3,0.6c0.1,0.2,0.1,0.3-0.1,0.5
	c-0.1,0.1-0.1,0.4-0.2,0.6c0,0.2-0.1,0.4-0.3,0.6c-0.2,0.1-0.4,0.4-0.3,0.7c0,0.1,0,0.3,0,0.4c0,0.2,0.1,0.6,0.2,0.7
	c0.4,0.5,0.3,1.2,0.4,1.7c-0.2,0.1-0.4,0.2-0.5,0.2c-0.1,0-0.2,0-0.2,0c-0.2-0.2-0.5-0.3-0.8-0.1c-0.1,0-0.3-0.1-0.4-0.1
	c0,0,0,0,0,0c-0.3,0.5-0.3,0.5-0.6,0c-0.1-0.2-0.2-0.4-0.4-0.6c0,0.2-0.1,0.4-0.1,0.6c0,0-0.1,0-0.1,0c-0.1-0.2-0.2-0.4-0.3-0.6
	c0,0-0.1,0-0.1,0c-0.1,0.2-0.1,0.4-0.2,0.5c-0.1,0.2-0.1,0.3,0.1,0.5c0.1,0.1,0.1,0.3,0.1,0.6c-0.2-0.1-0.4-0.2-0.5-0.3
	c0.1,0.4-0.3,0.2-0.4,0.3c0,0.2,0,0.3,0,0.4c-0.2,0.3-0.5,0.1-0.7,0.1c-0.1,0-0.2,0-0.3,0c0.1,0.1,0.1,0.2,0.2,0.3
	c0.1,0.1,0.2,0.2,0.1,0.3c-0.1,0.1-0.2,0.2-0.3,0.3c0.1,0.3,0.2,0.6-0.3,0.8c-0.1,0.4-0.7,0.4-0.7,0.9c0,0.1-0.2,0.1-0.3,0.2
	c0.5,0,0.6,0.2,0.4,0.6c-0.1-0.1-0.2-0.2-0.3-0.3c0,0-0.1,0-0.1,0.1c0.1,0.2,0.2,0.3,0.4,0.5c0.1,0.1,0.3,0.2,0.4,0.4
	c0,0,0,0.1-0.1,0.1c-0.1,0-0.2,0-0.3,0c0.1,0.1,0.1,0.1,0.2,0.1c0.2,0.1,0.2,0.2,0.1,0.3c-0.2,0.2-0.5,0.3-0.7,0.5
	c-0.3,0.2-0.5,0.5-0.7,0.8c-0.2,0.2-0.2,0.6-0.4,0.8c-0.1,0.2-0.3,0.4-0.5,0.4c-0.2,0.1-0.3,0.2-0.4,0.4c-0.1,0.2-0.2,0.3-0.5,0.3
	c-0.4-0.1-0.9,0.3-1,0.7c0,0.1-0.1,0.1-0.2,0.2c0-0.1-0.1-0.1-0.1-0.2c-0.1-0.1-0.1-0.3-0.2-0.4c-0.2,0.2,0.2,0.7-0.4,0.5
	c-0.2,0.4-0.4,0.7-0.7,1.1c-0.1-0.2-0.2-0.3-0.3-0.5c0,0,0,0-0.1,0c0,0.1,0.1,0.2,0.1,0.3c-0.1,0.1-0.2,0.1-0.3,0.1
	c-0.5,0.1-0.6,0.3-0.5,0.8c0,0.2-0.3,0.4-0.4,0.6c-0.1,0.1-0.3,0.2-0.5,0.2c0.1,0.4-0.3,0.3-0.5,0.4c0.1,0.1,0.2,0.2,0.3,0.3
	c-0.3,0.2-0.4,0.5-0.8,0.4c-0.1,0.2-0.1,0.4-0.4,0.1c0,0.1,0,0.3,0,0.4c-0.3,0-0.3-0.2-0.3-0.4c-0.1,0.5-0.1,0.6,0.3,1
	c-0.1,0.2-0.2,0.4-0.3,0.6c-0.1,0.2-0.1,0.4-0.3,0.5c-0.2,0.1-0.2,0.8,0,0.9c0.2,0.2,0.2,0.3,0,0.6c-0.1-0.2-0.2-0.3-0.3-0.5
	c-0.1,0.1-0.1,0.2-0.2,0.3c-0.3,0.1-0.2,0.3-0.2,0.5c0.1,0.2,0.3,0.4-0.2,0.4c0.1,0.2,0.2,0.3,0.3,0.4c-0.1,0.4-0.2,0.9-0.4,1.3
	c0,0.1,0,0.2,0.1,0.3c0.1,0.3,0.1,0.6-0.1,0.9c0.1,0.2,0.3,0.3,0.6,0.3c0.1,0,0.2,0.1,0.2,0.1c0,0.2,0,0.3,0,0.5c0,0,0.1,0,0.1,0
	c0,0,0-0.1,0.1-0.1c0.1-0.1,0.3-0.2,0.4-0.2c0.1,0,0.2,0.2,0.2,0.3c0.1,0.2,0.1,0.3,0.2,0.5c0.1,0.2,0.1,0.4,0.4,0.3
	c0-0.2,0-0.3,0.1-0.5c0,0,0.1,0,0.1,0c0.1,0.3,0.1,0.5,0.2,0.8c0,0-0.1,0-0.1,0c0.1,0.1,0.1,0.2,0.2,0.4c-0.2-0.1-0.3-0.1-0.5-0.1
	c0,0,0,0-0.1,0.1c0.1,0.1,0.2,0.2,0.4,0.3c0.3,0.1,0.5,0.3,0.5,0.6c0,0.2,0.2,0.3,0.3,0.5c0.1,0.1,0.1,0.2,0.1,0.3c0,0-0.1,0-0.1,0
	c-0.1-0.1-0.1-0.1-0.2-0.2c0,0.1-0.1,0.1-0.1,0.2c0.1,0.1,0.3,0.1,0.5,0.2c-0.2,0.1-0.2,0.2-0.3,0.2c-0.3,0-0.5,0-0.6,0.3
	c0,0.1-0.1,0.1-0.2,0.1c0.1,0,0.1,0.1,0.2,0.1c-0.1,0.1-0.2,0.2-0.3,0.2c-0.1,0-0.2,0.1-0.2,0.1c0,0.2,0.1,0.4,0.1,0.6
	c0,0.3-0.2,0.3-0.4,0.1c0,0-0.1,0-0.2-0.1c0,0.2,0,0.3,0,0.5c-0.5,0.1-0.9,0.4-1.1,1c-0.1-0.2-0.2-0.4-0.3-0.6
	c0,0.1-0.1,0.2-0.1,0.3c0,0-0.1-0.1-0.1-0.1c-0.1,0.4-0.7,0.8-1.2,0.7c0,0.3-0.3,0.5-0.8,0.4c0.1,0.1,0.1,0.2,0.2,0.3
	c0.1,0.1,0.1,0.2,0.2,0.3c-0.2,0.1-0.3,0.1-0.5,0.2c0.1,0.6,0.2,1.1-0.3,1.6c0,0.1,0.1,0.2,0.1,0.4c0,0-0.1,0-0.1,0.1
	c-0.1-0.1-0.2-0.2-0.4-0.4c0,0.2,0,0.3,0.1,0.4c0.3,0.6,0.3,0.6-0.1,1c0.2,0.5,0.2,0.5-0.2,0.8c-0.2,0.2-0.3,0.6-0.1,0.8
	c0,0.1,0.1,0.2,0,0.2c-0.1,0.2-0.2,0.3-0.3,0.5c-0.1,0.4-0.2,0.7-0.5,1c-0.3,0.3-0.3,0.7-0.5,1.1c-0.1,0.3-0.3,0.5-0.5,0.8
	c0,0,0,0,0,0c-0.2-0.2-0.5-0.4-0.9-0.4c-0.2,0-0.3,0-0.5,0c-0.3-0.1-0.6-0.1-0.9-0.2c0,0.2-0.1,0.4-0.1,0.6
	c-0.1-0.1-0.2-0.1-0.4-0.2c-0.1,0.1-0.4,0.3-0.5,0.4c-0.2,0.2-0.4,0.5-0.2,0.8c0.2,0.4,0.2,0.6-0.2,0.9c-0.1,0.1-0.3,0.1-0.3,0
	c-0.4-0.3-0.8-0.2-1.2-0.1c-0.5,0.2-1.1-0.2-1.1-0.7c0-0.1,0.1-0.1,0.1-0.2c0.3-0.1,0.2-0.3,0.1-0.6c-0.2-0.5-0.4-0.9-0.6-1.4
	c-0.1-0.2-0.1-0.4-0.2-0.7c0.3,0.1,0.5,0.2,0.7,0.3c0,0,0-0.1,0.1-0.1c-0.1-0.1-0.2-0.3-0.2-0.4c0-0.1-0.1-0.2-0.1-0.3
	c0.1,0,0.2,0,0.3-0.1c0,0,0.1,0,0.1,0.1c0.2-0.2,0.2-0.4,0.1-0.6c0,0-0.1-0.1-0.1-0.1c-0.4,0.1-0.3-0.3-0.4-0.5c0-0.1,0-0.3-0.1-0.4
	c-0.5-0.5-0.6-1.2-0.6-1.9c0-0.1,0-0.3,0-0.5c-0.1,0.2-0.1,0.3-0.2,0.4c-0.2-0.2-0.2-0.4-0.1-0.6c0.1-0.3-0.1-0.6-0.3-0.7
	c-0.1-0.3,0-0.5,0.1-0.7c0.2-0.4-0.1-0.8-0.5-0.9c0-0.1,0-0.2,0.1-0.3c0.2-0.2,0.2-0.2,0-0.4c-0.2-0.1-0.3-0.6-0.3-0.8
	c0.1-0.3,0.2-0.6,0-0.9c0-0.1,0.1-0.2,0.1-0.3c0-0.2,0.1-0.4,0-0.5c-0.2-0.4-0.1-0.5,0.3-0.7c0,0,0.1,0,0.2-0.1
	c0.1,0.3,0.1,0.6,0.2,0.9c0.2,0.1,0.3,0,0.4-0.2c0.3-0.6,0.5-1.3,0.4-2c0-0.3,0.1-0.6,0.3-0.8c0.2-0.2,0.2-0.3,0-0.7
	c0.2,0,0.4,0,0.5,0c0.1,0,0.2,0,0.3-0.1c0.4-0.3,0.8-0.6,0.8-1.2c0-0.2,0.1-0.4,0.1-0.5c0.2-0.2,0.2-0.5,0.1-0.7
	c-0.1-0.5-0.3-1.1-0.4-1.6c-0.1-0.3,0-0.5,0.3-0.4c0.5,0.1,0.6-0.2,0.8-0.6c0.3-0.5,0.2-1.1-0.3-1.4c-0.1-0.1-0.1-0.1-0.2-0.2
	c-0.4-0.3-0.5-0.9-0.4-1.3c0.1-0.5,0.3-0.9,0.4-1.4c0.1-0.4-0.1-0.8-0.1-1.1c-0.1-0.4-0.1-0.7,0-1.1c0-0.1,0-0.1,0-0.2
	c0-0.4,0-0.7,0.3-1c0,0,0-0.2,0-0.2c0-0.1,0-0.3-0.1-0.4c-0.2-0.5-0.1-0.9,0.3-1.3c0.1-0.1,0.2-0.2,0.1-0.3c-0.1-0.7,0.4-1,0.8-1.4
	c0.2-0.3,0.6-0.6,0.9-0.9c0.3-0.2,0.7-0.3,1.1-0.1c0.2,0.1,0.3,0.1,0.5,0.2c0.2,0.1,0.5,0.2,0.6,0.1c0.2-0.2,0.3-0.5,0.4-0.8
	c0.1-0.1,0.1-0.3,0.1-0.4c0-0.3,0.1-0.6-0.1-0.8c-0.3-0.4-0.4-1.1-0.1-1.5c0.3-0.4,0.6-0.8,0.8-1.2c0.1-0.1,0.2-0.3,0.2-0.4
	c0.4-0.7,0.6-1.5,0.7-2.3c0-0.1,0.1-0.3,0.1-0.4c0.3-0.5,0.2-1.1,0.1-1.6c0-0.4,0-0.5,0.5-0.4c0.6,0.1,1-0.2,1.4-0.4
	c0.1,0,0.1-0.2,0.1-0.3c0-0.1,0-0.2,0-0.3c-0.1-0.4,0-0.6,0.3-0.9c0.3-0.2,0.5-0.6,0.7-0.9c0.3-0.3,0.6-0.7,0.9-0.9
	c0.4-0.4,0.6-1.1,0.4-1.6c-0.1-0.1-0.1-0.3-0.2-0.4c-0.2-0.3-0.1-0.7,0.2-0.8c0.5-0.1,0.6-0.5,0.8-0.8c0-0.1,0.1-0.1,0.1-0.2
	c0.1-0.7,0.6-1.1,1.2-1.4c0,0,0.1,0,0.1,0c0.2-0.2,0.5-0.2,0.8,0l0.1,0.1c0.3,0.2,0.7,0.2,0.9-0.1c0.1-0.1,0.2-0.3,0.2-0.4
	c0.1-0.3,0-0.6,0-0.9c0-0.2,0-0.4,0-0.6c0-0.2,0.1-0.4,0.3-0.5c0.2-0.1,0.5-0.1,0.7,0.1c0.1,0.1,0.3,0.2,0.5,0.2
	c0.2,0.1,0.5,0.1,0.7,0.2c0.4,0.2,0.7,0.4,1.1,0.6c0.2,0.1,0.5,0.1,0.7-0.1l0.3-0.3c-0.2-0.2-0.3-0.3-0.4-0.4
	c0.8-0.8,1.4-1.6,0.6-2.7c0.2,0,0.4,0,0.6-0.1C435.7,51.4,435.8,51.4,436,51.4 M424.1,95.7c0-0.8-0.6-1-1.3-1.2
	c-0.2,0.1-0.4,0.1-0.5-0.2c-0.1,0.2-0.1,0.3-0.2,0.5c0.2,0,0.5-0.1,0.7,0c0.2,0.1,0.3,0.3,0.5,0.5c0,0,0,0,0.1,0c0-0.1,0-0.2,0-0.3
	c0.8,0,0.3,0.5,0.4,0.9c0.1-0.2,0.1-0.2,0.1-0.3C423.9,95.6,424,95.7,424.1,95.7"/>
<line class="st15" x1="192.9" y1="208.3" x2="422.3" y2="92.4"/>
<line class="st15" x1="299.5" y1="192.9" x2="422.3" y2="92.4"/>
<line class="st15" x1="231.8" y1="45.6" x2="422.3" y2="92.4"/>
<line class="st15" x1="459.3" y1="236.5" x2="422.3" y2="92.4"/>
<circle class="st16" cx="421.7" cy="92.6" r="2.6"/>
<path class="st8" d="M437.5,120.6c-0.3-0.2-0.6-0.3-0.9-0.4c-2-0.8-4.1-1-6.3-0.7c-1.6,0.2-3.2,0.6-4.5,1.6c-0.3,0.2-0.5,0.7-0.5,1
	c0,2.5,0,4.9,0,7.4c0,0.6,0.5,1.1,1.2,1.1c0.7,0,1-0.2,1.2-0.6c0-0.1,0-0.2,0-0.2v-6.1c0-0.1,0.1-0.2,0.2-0.2h0.1h0
	c0.1,0,0.2,0.1,0.2,0.2v6.2c0,2.9,0,5.8,0,8.6c0,0.3,0,0.6,0,0.9c0.1,0.8,0.7,1.2,1.4,1.2c1.4,0.1,2-0.5,2-1.9c0-2.4,0-4.8,0-7.2
	v-1.5c0-0.1,0.1-0.2,0.3-0.2c0.2,0,0.3,0.1,0.3,0.2v8.9c0,0,0,0,0,0c0.1,1.1,0.6,1.7,1.7,1.7c1.2,0,1.8-0.7,1.8-1.9
	c0-4.9,0-15.1,0-15.1v0c0-0.1,0.1-0.2,0.1-0.2c0,0,0,0,0.1,0c0,0,0,0,0,0c0,0,0,0,0,0h0.1c0.1,0,0.2,0.1,0.2,0.2v6.2
	c0,0.2,0.1,0.4,0.3,0.5c0.2,0.1,0.6,0.2,1,0.2c0.8,0,1.1-0.2,1.1-1c0-2.3-0.1-4.6,0-6.9C438.8,121.6,438.4,121.1,437.5,120.6z"/>
<path class="st8" d="M431.8,118.6c3,0.1,5.5-2.2,5.6-5c0.1-2.8-2.3-5.1-5.3-5.2c-2.9-0.1-5.4,2.2-5.5,5
	C426.5,116.1,428.9,118.5,431.8,118.6z"/>
<path class="st17" d="M443.2,146.3h-37c-0.4,0-0.8-0.4-0.8-0.8v-1.8c0-0.4,0.4-0.8,0.8-0.8h37c0.4,0,0.8,0.4,0.8,0.8v1.8
	C444,145.9,443.6,146.3,443.2,146.3z"/>
<path class="st16" d="M433.3,146.2H406c-0.4,0-0.8-0.4-0.8-0.8v-1.8c0-0.4,0.4-0.8,0.8-0.8h27.3c0.4,0,0.8,0.4,0.8,0.8v1.8
	C434.1,145.9,433.7,146.2,433.3,146.2z"/>
<path class="st17" d="M443.2,173.3h-37c-0.4,0-0.8-0.4-0.8-0.8v-1.8c0-0.4,0.4-0.8,0.8-0.8h37c0.4,0,0.8,0.4,0.8,0.8v1.8
	C444,173,443.6,173.3,443.2,173.3z"/>
<path class="st16" d="M437.4,173.4H406c-0.4,0-0.8-0.4-0.8-0.8v-1.8c0-0.4,0.4-0.8,0.8-0.8h31.3c0.4,0,0.8,0.4,0.8,0.8v1.8
	C438.2,173,437.8,173.4,437.4,173.4z"/>
<path class="st8" d="M425,166.8c0.5-0.3,1-0.5,1.4-0.7c0.6-0.4,1.1-0.9,1.3-1.5c0.1-0.3,0.1-0.5-0.1-0.7c-0.6-0.6-1.1-1.4-1.4-2.2
	c-0.5-1.5-0.4-3,0.4-4.4c0.8-1.6,2.1-2.6,3.7-3.4c2.2-1.1,4.6-1.3,7-0.8c2.6,0.5,4.8,1.6,6.2,3.9c1.2,1.9,1.1,4.3-0.2,6.1
	c-1.3,1.9-3.1,2.9-5.3,3.5c-2.3,0.6-4.6,0.5-6.8-0.3c-0.4-0.1-0.7-0.1-1,0.1c-1.5,1.1-3.1,1.2-4.8,0.7
	C425.3,167,425.2,166.9,425,166.8z"/>
<rect y="65.7" class="st18" width="1" height="1"/>
<rect x="436.4" y="41.2" class="st1" width="3" height="2.1"/>
<rect x="436.4" y="32.9" class="st1" width="3" height="2.8"/>
</svg>
