<?xml version="1.0" encoding="utf-8"?>
<!-- Generator: Adobe Illustrator 22.0.1, SVG Export Plug-In . SVG Version: 6.00 Build 0)  -->
<svg version="1.0" id="Lager_1" xmlns="http://www.w3.org/2000/svg" xmlns:xlink="http://www.w3.org/1999/xlink" x="0px" y="0px"
	 viewBox="0 0 559.1 263.8" style="enable-background:new 0 0 559.1 263.8;" xml:space="preserve">
<style type="text/css">
	.st0{fill:#FAB50E;}
	.st1{fill:#9CD2CA;}
	.st2{fill:none;stroke:#B7CCAD;stroke-width:0.25;stroke-linecap:round;stroke-linejoin:round;stroke-miterlimit:10;}
	.st3{fill:#F3EFED;}
	.st4{fill:#020203;}
	.st5{fill:#93CCC4;}
	.st6{fill:#7FB554;}
	.st7{opacity:0.25;}
	.st8{clip-path:url(#SVGID_2_);}
	.st9{clip-path:url(#SVGID_4_);fill:#010202;}
	.st10{clip-path:url(#SVGID_6_);}
	.st11{clip-path:url(#SVGID_8_);fill:#010202;}
	.st12{fill:#010202;}
	.st13{clip-path:url(#SVGID_10_);}
	.st14{clip-path:url(#SVGID_12_);fill:#010202;}
	.st15{clip-path:url(#SVGID_14_);}
	.st16{clip-path:url(#SVGID_16_);fill:#010202;}
	.st17{clip-path:url(#SVGID_18_);}
	.st18{clip-path:url(#SVGID_20_);fill:#010202;}
	.st19{clip-path:url(#SVGID_22_);}
	.st20{clip-path:url(#SVGID_24_);fill:#010202;}
	.st21{clip-path:url(#SVGID_26_);}
	.st22{clip-path:url(#SVGID_28_);fill:#010202;}
	.st23{clip-path:url(#SVGID_30_);}
	.st24{clip-path:url(#SVGID_32_);fill:#010202;}
	.st25{clip-path:url(#SVGID_34_);}
	.st26{clip-path:url(#SVGID_36_);fill:#010202;}
	.st27{fill:#FCE44C;}
</style>
<polygon class="st0" points="139.4,45.5 135,89 138.8,109.4 142,126.4 146.2,104.5 150.9,74.3 143.6,44.5 142,25.5 "/>
<circle class="st1" cx="440.8" cy="148.1" r="44.6"/>
<g>
	<polygon class="st2" points="450.4,100.4 529.7,133.7 503.7,100.1 	"/>
	<g>
		<line class="st2" x1="557.4" y1="133.8" x2="529.7" y2="133.7"/>
		<line class="st2" x1="503.7" y1="100.1" x2="557.4" y2="121.1"/>
		<line class="st2" x1="557.2" y1="111.2" x2="503.7" y2="100.1"/>
	</g>
	<polygon class="st2" points="469.5,133.7 450.4,100.4 395.9,100.2 	"/>
	<polygon class="st2" points="409.8,122.7 395.9,100.2 343.2,119.1 	"/>
	<polygon class="st2" points="288.6,153.8 289.7,142 229.3,136.3 	"/>
	<polygon class="st2" points="288.6,153.8 289.7,142 357.8,159.5 	"/>
	<polygon class="st2" points="427.3,152 409.8,119.7 349.9,130.1 	"/>
	<polygon class="st2" points="289.7,142 289.5,119 349.6,130.3 	"/>
	<polygon class="st2" points="503.7,100.1 482.4,82.5 432.5,89.4 	"/>
	<polygon class="st2" points="497,144.2 409.8,122.7 427.3,152 	"/>
	<g>
		<polygon class="st2" points="482.4,82.5 530.3,85.6 557.2,111.2 		"/>
	</g>
	<polyline class="st2" points="432.3,162.8 427.3,152 357.8,159.5 349.2,130.6 	"/>
	<g>
		<polygon class="st2" points="151.3,148.5 82.4,144.5 128,187.2 		"/>
	</g>
	<polygon class="st2" points="169,130.4 220.2,148.9 229.3,136.3 	"/>
	<polygon class="st2" points="182.3,109.5 229.3,136.3 236.3,118.7 	"/>
	<polygon class="st2" points="108.7,115.4 151.3,148.5 169,130.4 	"/>
	<polygon class="st2" points="108.7,115.4 83.1,144.5 47.4,115.1 	"/>
	<polygon class="st2" points="129,107.7 182.3,109.5 145.2,78 	"/>
	<polygon class="st2" points="48.5,85.7 75.5,107.7 97.1,78 	"/>
	<polyline class="st2" points="83.1,144.5 4.8,131.9 47.4,115.1 	"/>
	<polygon class="st2" points="26.3,50 48.5,85.7 71,50 	"/>
	<polygon class="st2" points="71,50 97.1,78 114,63.2 	"/>
	<line class="st2" x1="129" y1="107.7" x2="169" y2="130.4"/>
	<line class="st2" x1="182.3" y1="109.5" x2="169" y2="130.4"/>
	<g>
		<polyline class="st2" points="21.3,107.2 48.5,85.7 0.2,70.3 26.3,50 		"/>
		<line class="st2" x1="0.2" y1="70.3" x2="21.3" y2="107.2"/>
	</g>
	<polygon class="st2" points="30.7,6.3 49.9,22.5 68.6,11.6 	"/>
	<g>
		<polygon class="st2" points="0.7,25.3 49.9,22.5 30.7,6.3 		"/>
		<polyline class="st2" points="4.8,131.9 26.3,162.4 73,166.4 82.9,145.1 		"/>
		<path class="st2" d="M192.4,91.6c-1-0.8-33.6-27.8-33.6-27.8l43,21.5L192.4,91.6z"/>
	</g>
	<polygon class="st2" points="114,63.2 145.2,78 158.3,63.4 	"/>
	<polygon class="st2" points="129,107.7 97.1,78 145.2,78 	"/>
	<polygon class="st2" points="75.5,107.7 129,107.7 108.7,115.4 	"/>
	<polygon class="st2" points="21.7,107.2 47.4,115.1 75.5,107.7 	"/>
	<g>
		<polyline class="st2" points="47.4,115.1 0.4,116.9 21.3,107.2 0,100.1 		"/>
		<polygon class="st2" points="151.3,148.5 209.2,184.3 220.2,148.9 		"/>
		<polygon class="st2" points="220.9,148.7 288.6,153.8 286.6,192.2 		"/>
	</g>
	<line class="st2" x1="343.2" y1="119.1" x2="349.6" y2="130.3"/>
	<polygon class="st2" points="396.3,100.1 337.6,100.6 385.4,89.4 	"/>
	<polyline class="st2" points="376.9,82.2 329.3,73.4 369,52 377.1,82.3 	"/>
	<polygon class="st2" points="437.3,29.5 450,58.9 400,42.3 	"/>
	<polyline class="st2" points="450,58.9 490.3,35.1 437.3,29.5 	"/>
	<polyline class="st2" points="437.3,29.5 474.4,16.9 490.3,35.1 	"/>
	<g>
		<polygon class="st2" points="529.7,23.5 490.3,35.1 557.7,49.9 		"/>
	</g>
	<polygon class="st2" points="529.7,23.5 474.4,16.9 512.4,16.7 	"/>
	<g>
		<polyline class="st2" points="557.4,22.5 512.4,16.7 548.7,0 557.4,9.8 		"/>
	</g>
	<polygon class="st2" points="463.1,67.3 507.8,46.9 450,58.9 	"/>
	<polygon class="st2" points="420.6,82.5 463.1,67.3 482.4,82.5 	"/>
	<g>
		<polyline class="st2" points="557.4,74.5 507.8,46.9 530.3,85.6 557.4,85.9 		"/>
	</g>
	<line class="st2" x1="463.1" y1="67.3" x2="530.3" y2="85.6"/>
	<line class="st2" x1="490.3" y1="35.1" x2="507.8" y2="46.9"/>
	<polyline class="st2" points="463.1,67.3 410.2,52.7 420.6,82.5 	"/>
	<polygon class="st2" points="363.7,42 400,42.3 410.2,52.7 	"/>
	<polyline class="st2" points="363.7,42 369,52 409.4,52.4 	"/>
	<line class="st2" x1="289.7" y1="142" x2="236.3" y2="118.7"/>
	<polyline class="st2" points="329.3,73.4 249.5,73 208.8,69.3 178.3,47.8 141.8,47.8 104.6,21.4 68.6,11.6 89.3,36.9 49.9,22.5 
		71,50 89.5,36.9 	"/>
	<g>
		<polyline class="st2" points="0.5,25.6 26.3,50 49.9,22.5 		"/>
	</g>
	<polygon class="st2" points="241.2,101 192.4,91.6 236.3,118.7 	"/>
	<polyline class="st2" points="145.1,78 192.4,91.7 182.3,109.5 	"/>
	<polyline class="st2" points="245.4,86 201.8,85.3 209.6,70.2 169,58.3 178.3,47.8 	"/>
	<polyline class="st2" points="288.7,85.8 249.5,73 245.4,86 209.6,70.2 	"/>
	<line class="st2" x1="333.4" y1="85.4" x2="289.2" y2="73.3"/>
	<line class="st2" x1="329.6" y1="73.3" x2="333.4" y2="85.4"/>
	<polyline class="st2" points="385.4,89.4 333.4,85.4 377.1,82.3 	"/>
	<polyline class="st2" points="450.4,100.4 385.4,89.4 432.5,89.4 376.9,82.2 420.6,82.5 369,52 	"/>
	<line class="st2" x1="265.7" y1="66.2" x2="289.5" y2="73.3"/>
	<polyline class="st2" points="303.2,66 329.9,73.5 328.6,67.1 	"/>
	<polyline class="st2" points="215.8,44 249.5,73 251,66.2 	"/>
	<line class="st2" x1="215.8" y1="44" x2="251" y2="66.2"/>
	<line class="st2" x1="178.3" y1="47.8" x2="215.8" y2="44"/>
	<polyline class="st2" points="114.4,63.2 89.5,36.9 128.6,57.7 104.3,21.2 89.5,36.9 	"/>
	<line class="st2" x1="114" y1="63.2" x2="128.6" y2="57.7"/>
	<polyline class="st2" points="169,58.3 141.8,47.8 128,58.1 	"/>
	<line class="st2" x1="201.8" y1="85.3" x2="169" y2="58.3"/>
	<line class="st2" x1="158.3" y1="63.4" x2="169" y2="58.3"/>
	<polyline class="st2" points="169,58.3 128.6,57.7 158.3,63.4 	"/>
	<line class="st2" x1="201.8" y1="85.3" x2="241.2" y2="101"/>
	<polygon class="st2" points="343.2,119.1 236.3,118.7 245.4,86 333.4,85.4 	"/>
	<g>
		<line class="st2" x1="507.8" y1="46.9" x2="557.1" y2="49.7"/>
		<path class="st2" d="M557.4,34.5c-0.6-0.2-27.7-11-27.7-11l27.7,0.4"/>
		<line class="st2" x1="557.4" y1="94.9" x2="530.3" y2="85.6"/>
	</g>
	<line class="st2" x1="1.4" y1="50.1" x2="26.3" y2="50"/>
	<line class="st2" x1="377.1" y1="82.3" x2="385.4" y2="89.4"/>
	<line class="st2" x1="4.8" y1="131.9" x2="1.8" y2="138.1"/>
	<line class="st2" x1="1.8" y1="128.8" x2="4.8" y2="131.9"/>
	<line class="st2" x1="4.8" y1="131.9" x2="1.7" y2="132.2"/>
	<g>
		<line class="st2" x1="288.6" y1="153.8" x2="305.6" y2="165.5"/>
		<polyline class="st2" points="359.2,164.7 357.8,159.5 366.4,163.8 		"/>
		<line class="st2" x1="427.1" y1="152" x2="474.4" y2="165.6"/>
		<path class="st2" d="M497,144.2"/>
		<path class="st2" d="M557.4,179.8"/>
	</g>
	<line class="st2" x1="409.8" y1="122.7" x2="469.5" y2="133.7"/>
	<line class="st2" x1="469.3" y1="133.6" x2="497" y2="144.2"/>
	<g>
		<line class="st2" x1="557.4" y1="141.6" x2="529.7" y2="133.7"/>
		<line class="st2" x1="557.4" y1="149.5" x2="529.7" y2="133.7"/>
		<line class="st2" x1="559" y1="165.9" x2="496.5" y2="144.2"/>
	</g>
	<line class="st2" x1="363.7" y1="42" x2="328.6" y2="67.1"/>
	<line class="st2" x1="369" y1="52" x2="328.6" y2="67.1"/>
	<line class="st2" x1="469.3" y1="133.6" x2="529.7" y2="133.7"/>
	<g>
		<path class="st2" d="M269.6,88.2"/>
		<path class="st2" d="M304.3,121.8"/>
		<line class="st2" x1="239.7" y1="118.7" x2="237" y2="116"/>
	</g>
</g>
<line class="st2" x1="328.6" y1="67.1" x2="251" y2="66.2"/>
<path class="st3" d="M297.3,85.5c17.9-3.4,35.9-6.7,53.8-10.1c19.2-3.7,38.4-7.4,57.6-11.1c12.1-2.4,24.1-5.2,35.2-10.8
	c3.3-1.7,6.2-4.1,9-6.5c2.5-2.2,3.9-5.3,4.2-8.7c0.7-8.3,7.9-14.3,15.1-14.9c14.9-1.3,28.3,2.8,39.9,12.3
	c10.8,8.9,16.7,20.6,18.6,34.4c1.9,14.4-3,26.4-13.7,36.2c-7.1,6.4-15.4,10.2-24.6,12.3c-4.6,1-9.4,1.6-14.1,2.4
	c-1.9,0.3-77.8,3.6-79.6,3.7c-9.8,0.1-19.6,0.7-29.2,2.7c-4.1,0.9-8.2,1.9-11.6,4.6c-4.2,3.4-4.9,7.5-2.3,12.2
	c2.5,4.4,6.2,7.7,10.1,10.8c1.2,0.9,2.4,1.8,3.6,2.7c6.1,4.5,7.3,11,3.5,17.5c-2.1,3.6-5.2,6.1-8.5,8.5c-12,8.6-25.7,12.1-40.1,12.8
	c-11.8,0.6-23.7,0.9-35.5,0.8c-20.4-0.1-40.7-1.1-61-0.8c-14.2,0.2-28.4,1.6-42.6,2.9c-16.9,1.5-33.5,4.6-50.1,8
	c-16.9,3.5-33.5,8-49.9,13.5c-24.5,8.2-47.8,18.8-69.3,33.2c-3.8,2.5-7.4,5.3-11.2,7.9c-1,0.7-2.2,1.3-3.6,2.1
	c-0.1-1.1-0.2-1.7-0.2-2.4c0-40.5,0-80.9,0-121.4c0-1.7,0.6-2.3,2.1-2.8c17.6-5.4,35.5-9.4,53.7-11.6c9.1-1.1,18.3-1.8,27.5-2.5
	c6.3-0.4,12.6-0.9,18.9-0.7c12.2,0.4,24.3,1.2,36.4,1.9c0,0,6,0.7,7.8,0.9c12,1.1,24,2.7,36.1,3.4c8.2,0.5,16.3-0.6,24.1-3.4
	c4.2-1.5,5.7-4,5.2-8.4c-0.5-4.3-0.2-8.4,3-11.8c1.9-2,4.2-3.2,6.8-3.9c11.8-2.9,23.6-5.8,35.5-8.6L297.3,85.5z"/>
<g>
	<g>
		<path class="st4" d="M429.1,199.4c0,0,0.1,0,0.1,0s0.1,0,0.1,0H429.1z"/>
		<path class="st5" d="M437.1,103.3l1.7-0.1c0.2,0,0.4-0.1,0.6-0.2c-1.2,0-2.4,0.1-3.5,0.2l0.9,0.2
			C436.8,103.3,436.9,103.3,437.1,103.3"/>
		<path class="st5" d="M414.4,111.1c-2.8,1.9-5.3,4.2-7.6,6.7C409.3,115.2,411.9,113,414.4,111.1"/>
		<path class="st1" d="M423.7,183.7c1.3,0.2,2.3,1.5,3.1,3.1c25-6.9,33.2-26.4,34-28.4c-0.3-3.2-1-7.1-1.3-8.9
			c-0.1-0.6-0.5-1.2-1-1.5l-2-1.4c-0.4-0.2-0.8-0.4-1.2-0.4l-6.7-0.5c-0.6,0-1.2-0.3-1.6-0.7c-1.5-1.5-4.6-5.4-3.6-9.2
			c0,0,0-4.5,1.8-5.9c0.6-0.4,0.9-1.1,1-1.8c0.1-1.1,1.1-2.5,4.7-2.6c0.2,0,0.5,0,0.7-0.1c1-0.3,4.5-1.2,8.6,0.8
			c-0.7-1.6-1.4-3.1-2.2-4.6l-0.2,0c-0.5-0.1-0.8-0.6-0.6-1.1c0-0.1,0-0.2,0-0.2c-0.2-0.3-0.3-0.5-0.5-0.8c-0.1,0-0.2-0.1-0.3-0.1
			l-0.3,0c-0.2,0-0.4-0.1-0.6-0.3l-5.6-5.8c0,0-0.1-0.1-0.1-0.1c-0.6-0.5-7.7-1.8-7.5-3.1c0.1-0.5,2.7-1.4,6.2-1.6
			c-2.4-2.6-4.5-4.4-5.6-5.3c-0.7,0-1.5-0.1-2.2-0.1c0.3,0.2,0.6,0.3,0.9,0.2l0.5-0.1l0.4,1.1c0.1,0.4,0.1,0.8-0.1,1.1l-0.2,0.3
			c-0.2,0.4-0.6,0.6-1,0.7l-0.8,0.1c-0.4,0-0.7,0.2-0.9,0.5l-0.6,0.8l-0.8,0.4l-0.1,0.8c-0.1,0.4-0.3,0.8-0.6,1l0,0
			c-0.4,0.3-0.9,0.3-1.4,0l-0.4-0.2c-0.3-0.2-0.6-0.5-0.7-0.8l-0.4-1.4c0-0.1,0-0.1,0-0.2l-0.1-1.1c0-0.2-0.1-0.4-0.2-0.6l-0.4-0.5
			c-0.4-0.5-0.3-1.3,0.1-1.8c0,0,0,0,0,0c-1.1,0.2-2.2,0.4-3.3,0.6l0,0.5l1.8,0.3l-1.5,1.7l-1.1,2.7l-1.8-0.7l-2.4-0.9l-1.1,1.1
			l-2.3-0.2l-2.7,2.1c-3,1.7,0.7,5.1,0.7,5.1c1.6,0.5,2.6-1.4,2.6-1.4c0.2-2.3,2.1-3,2.1-3l1.5-1.7l1.9,1.2l1.3,0.1l-0.1,2.5
			l1.1,0.6c1.1,0.6-0.6,3.1-0.6,3.1l-3.5,0.2c0.1,1.6-1,3-2.5,3.3l-0.7,0.2l-3,1.4l-2.7,2.1c0.3,2-3.4,4.5-3.4,4.5
			c0.7,2.9-1.4,3.9-1.4,3.9c-1.4,0.4-3.1-2.6-3.1-2.6c-0.9-0.9-3.5-0.3-3.5-0.3c-5.1,2.5-1.5,7.4-1.5,7.4l1.3,0.3l0.8,1.9l-0.2,2.3
			l2.2,1.2l0.3,1.4c0.3-0.9,0.7-1.7,1.1-2.2c0.4-0.6,1.2-0.9,1.9-0.6l4.7,1.9c0.2,0.1,0.3,0.2,0.5,0.3l5.7,5
			c0.4,0.3,0.9,0.4,1.4,0.3c2.8-0.5,6.3,3.1,7,4.6c0.5,1.3-0.8,2.8-1.5,3.5c-0.3,0.3-0.4,0.6-0.5,0.9l-0.5,3.6
			c-0.1,0.7-0.6,1.2-1.3,1.4l-2.2,0.5c-0.6,0.1-1.1,0.7-1.2,1.3c-0.7,3.1-4.5,5-4.5,5s-1.1,4.7-0.7,7.6c0.2,1.4-1.3,2.3-2.4,1.6
			c-4.3-1.7-4.6-10-4.6-12.4c0-0.4,0.1-0.7,0.3-1c2-2.7-0.7-7.9-1.5-9.3c-0.1-0.2-0.3-0.4-0.5-0.5c-3.2-2.2-2.4-6.3-1.9-8l-1.7-2.7
			l-1.8-2l-1.1-2.3l-2.3-0.4c-2.7-1.1-2.1-4.7-2.1-4.7l0.5-3.6l-0.5-2.3c-2.4,5.5-3.8,11.6-3.8,18c0,17.5,10.1,32.7,24.7,40.1
			C419.1,184.3,423.7,183.7,423.7,183.7 M455.8,119.2c0,1.2-5.4,4-5.4,4c-3.8-1-5.7-4.2-5.7-4.2
			C446.6,116.2,455.8,119.2,455.8,119.2 M412.9,139.5l-1-0.4l0.6-0.8l0.6-0.1l0.5,0.8L412.9,139.5z M411.3,136.4l-1.8-0.7l0.9-0.4
			l3.8,0.7l-0.6,1.1L411.3,136.4z M415,139.4l-0.8-0.4l0.6-1l1.5-0.3l0.3,1.1L415,139.4z M419.5,139.3l-1.6-0.5l-0.4-0.8l1.1-0.4
			l1.3,0.7L419.5,139.3z"/>
		<path class="st6" d="M460.2,126.1c-4.1-2.1-7.5-1.2-8.6-0.8c-0.2,0.1-0.5,0.1-0.7,0.1c-3.6,0.1-4.5,1.5-4.7,2.6
			c-0.1,0.7-0.4,1.3-1,1.8c-1.8,1.4-1.8,5.9-1.8,5.9c-1,3.8,2.1,7.7,3.6,9.2c0.4,0.4,1,0.7,1.6,0.7l6.7,0.5c0.4,0,0.8,0.2,1.2,0.4
			l2,1.4c0.5,0.4,0.9,0.9,1,1.5c0.3,1.8,1.1,5.7,1.3,8.9c0-0.1,0.1-0.2,0.1-0.2C465.4,145.9,463.8,135,460.2,126.1"/>
		<path class="st6" d="M450.3,123.2c0,0,5.4-2.7,5.4-4c0,0-9.1-3-11.1-0.2C444.7,119,446.5,122.2,450.3,123.2"/>
		<path class="st6" d="M457.2,120.4c-0.2,0.5,0.1,1,0.6,1.1l0.2,0c-0.3-0.5-0.5-0.9-0.8-1.4C457.2,120.2,457.2,120.3,457.2,120.4"/>
		<path class="st6" d="M442.3,110c-0.2,1.2,6.9,2.6,7.5,3.1c0,0,0.1,0.1,0.1,0.1l5.6,5.8c0.2,0.2,0.4,0.3,0.6,0.3l0.3,0
			c0.1,0,0.2,0,0.3,0.1c-2.6-4.5-5.6-8.2-8.2-11C445,108.5,442.4,109.5,442.3,110"/>
		<path class="st6" d="M423.7,183.7c0,0-4.6,0.6-3.6,4.4c0.1,0,0.1,0.1,0.2,0.1c2.3-0.4,4.4-0.8,6.5-1.4
			C426.1,185.2,425,183.8,423.7,183.7"/>
		<path class="st6" d="M424.3,149.1c-0.5,0.1-1,0-1.4-0.3l-5.7-5c-0.1-0.1-0.3-0.2-0.5-0.3l-4.7-1.9c-0.7-0.3-1.5,0-1.9,0.6
			c-0.4,0.5-0.8,1.3-1.1,2.2l0.3,1l2.3,1.9l-0.5,2.1l-2.2,0.3l-0.4-1.4l-0.2-0.3c-0.5,1.7-1.4,5.8,1.9,8c0.2,0.1,0.4,0.3,0.5,0.5
			c0.8,1.4,3.5,6.6,1.5,9.3c-0.2,0.3-0.3,0.6-0.3,1c0,2.4,0.3,10.8,4.6,12.4c1.2,0.7,2.6-0.2,2.4-1.6c-0.4-3,0.7-7.6,0.7-7.6
			s3.7-2,4.5-5c0.2-0.6,0.6-1.1,1.2-1.3l2.2-0.5c0.7-0.1,1.2-0.7,1.3-1.4l0.5-3.6c0-0.4,0.2-0.7,0.5-0.9c0.7-0.7,2.1-2.2,1.5-3.5
			C430.6,152.1,427.1,148.5,424.3,149.1"/>
		<path class="st6" d="M408.5,146.9c0-1,0.2-1.8,0.5-2.6l-0.3-1.4l-2.2-1.2l0.2-2.3l-0.8-1.9l-1.3-0.3c0,0-3.7-5,1.5-7.4
			c0,0,2.7-0.6,3.5,0.3c0,0,1.7,3,3.1,2.6c0,0,2.1-1,1.4-3.9c0,0,3.6-2.5,3.4-4.5l2.7-2.1l3-1.4l0.7-0.2c1.5-0.3,2.6-1.7,2.5-3.3
			l3.5-0.2c0,0,1.6-2.5,0.6-3.1l-1.1-0.6l0.1-2.5l-1.3-0.1l-1.9-1.2l-1.5,1.7c0,0-1.9,0.8-2.1,3c0,0-1,1.9-2.6,1.4
			c0,0-3.7-3.5-0.7-5.1l2.7-2.1l2.3,0.2l1.1-1.1l2.4,0.9l1.8,0.7l1.1-2.6l1.5-1.7l-1.8-0.3l0-0.5c-5.6,1.2-10.9,3.5-15.5,6.6
			c-0.1,0-0.1,0.1-0.2,0.1c-0.2,0.1-0.4,0.3-0.6,0.4c-2.5,1.8-5.1,4.1-7.6,6.7c-3.2,3.6-5.8,7.6-7.8,12l0.5,2.3l-0.5,3.6
			c0,0-0.5,3.6,2.1,4.7l2.3,0.4l1.1,2.3l1.8,2l1.7,2.7c0.1-0.2,0.1-0.4,0.2-0.6C408.4,147.2,408.5,147,408.5,146.9"/>
		<path class="st6" d="M408.4,147.4c0,0.1-0.1,0.3-0.2,0.6l0.2,0.3l0.4,1.4l2.2-0.3l0.5-2.1l-2.3-1.9l-0.3-1
			c-0.3,0.8-0.5,1.6-0.5,2.6C408.5,147,408.4,147.2,408.4,147.4"/>
		<path class="st6" d="M433.8,105.2l0.4,0.5c0.1,0.2,0.2,0.4,0.2,0.6l0.1,1.1c0,0.1,0,0.1,0,0.2l0.4,1.4c0.1,0.4,0.3,0.7,0.7,0.8
			l0.4,0.2c0.4,0.2,1,0.2,1.4,0l0,0c0.3-0.2,0.6-0.6,0.6-1l0.1-0.8l0.8-0.4l0.6-0.8c0.2-0.3,0.5-0.5,0.9-0.5l0.8-0.1
			c0.4-0.1,0.8-0.3,1-0.7l0.2-0.3c0.2-0.3,0.2-0.7,0.1-1.1l-0.4-1.1l-0.5,0.1c-0.3,0-0.7,0-0.9-0.2c-0.1,0-0.3,0-0.4,0
			c-0.3,0-0.6,0-1,0c-0.2,0.1-0.4,0.2-0.6,0.2l-1.7,0.1c-0.1,0-0.2,0-0.3,0l-0.9-0.2c-0.6,0.1-1.2,0.1-1.8,0.2c0,0,0,0,0,0
			C433.5,103.9,433.4,104.6,433.8,105.2"/>
		<polygon class="st6" points="410.4,135.3 409.5,135.7 411.3,136.4 413.7,137.1 414.3,136 		"/>
		<polygon class="st6" points="417.5,137.9 417.9,138.8 419.5,139.3 419.9,138.2 418.6,137.5 		"/>
		<polygon class="st6" points="414.7,138 414.1,139 415,139.4 416.5,138.7 416.2,137.6 		"/>
		<polygon class="st6" points="412.5,138.3 411.8,139.1 412.9,139.5 413.6,139 413.1,138.2 		"/>
		<path class="st5" d="M476.7,124l2,0.3c-0.8-1.2-1.6-2.4-2.4-3.6l-0.2,2.3C475.9,123.6,476.2,124,476.7,124"/>
		<g class="st7">
			<g>
				<defs>
					<rect id="SVGID_1_" x="476" y="120.8" width="2.7" height="3.6"/>
				</defs>
				<clipPath id="SVGID_2_">
					<use xlink:href="#SVGID_1_"  style="overflow:visible;"/>
				</clipPath>
				<g class="st8">
					<defs>
						<rect id="SVGID_3_" x="476" y="120.8" width="2.7" height="3.6"/>
					</defs>
					<clipPath id="SVGID_4_">
						<use xlink:href="#SVGID_3_"  style="overflow:visible;"/>
					</clipPath>
					<path class="st9" d="M476.7,124l2,0.3c-0.8-1.2-1.6-2.4-2.4-3.6l-0.2,2.3C475.9,123.6,476.2,124,476.7,124"/>
				</g>
			</g>
		</g>
		<path class="st5" d="M456.8,119.3c0.2,0.3,0.3,0.5,0.5,0.8C457.3,119.8,457.1,119.5,456.8,119.3"/>
		<g class="st7">
			<g>
				<defs>
					<rect id="SVGID_5_" x="456.8" y="119.3" width="0.5" height="0.8"/>
				</defs>
				<clipPath id="SVGID_6_">
					<use xlink:href="#SVGID_5_"  style="overflow:visible;"/>
				</clipPath>
				<g class="st10">
					<defs>
						<rect id="SVGID_7_" x="456.8" y="119.3" width="0.5" height="0.8"/>
					</defs>
					<clipPath id="SVGID_8_">
						<use xlink:href="#SVGID_7_"  style="overflow:visible;"/>
					</clipPath>
					<path class="st11" d="M456.8,119.3c0.2,0.3,0.3,0.5,0.5,0.8C457.3,119.8,457.1,119.5,456.8,119.3"/>
				</g>
			</g>
		</g>
		<path class="st5" d="M483,135.5c0,0.8-0.4,5.4-3.3,4.9c-0.2,0-0.3-0.1-0.4-0.2c-1.1-1.1-7-7.3-6.1-11.7c0-0.2,0-0.4-0.1-0.6
			c-0.4-0.7-1.6-2.6-3.1-3.3c-0.2-0.1-0.4-0.2-0.5-0.4l-0.4-1c-0.2-0.6-1-0.7-1.4-0.2l-0.8,0.8c-0.3,0.4-0.9,0.4-1.3,0
			c-0.3-0.3-0.6-0.7-0.8-0.8c-0.3-0.1-2.2,0.6-3.2,1c-0.4,0.1-0.8,0-1-0.3l-0.8-1.3c-0.1-0.2-0.3-0.3-0.5-0.4l-1.3-0.3
			c0.8,1.5,1.5,3,2.2,4.6c0.3,0.1,0.5,0.3,0.8,0.4c0.2,0.1,0.3,0.2,0.5,0.2c0.9,0.3,3.6,1.1,5.1,1.4c0.5,0.1,1,0,1.5-0.2
			c1.1-0.5,3.3-1,4,1.9c0,0,3.6,10.2,5.9,11.2c0.6,0.2,0.8,0.3,0.8,0.4c-0.9,0.9-2.3,0.9-2.5,2.1l-1.6,11.5c0,0.1,0,0.3,0,0.4
			c0,1.3,0.2,8.7-1.3,8.7c0,0-2.7,2.9-4.7,4.5c-1,0.8-2.4,0.7-3.2-0.2c-1.8-1.7-4.6-5-4.6-7.9c0-0.7,0-1.5-0.1-2.3
			c-0.8,2-9,21.5-34,28.4c0.8,1.8,1.3,3.8,1.4,4.5c3.2,0.9,6.5,1.4,10,1.6c7.6-6,21-4.6,21-4.6c-0.5,0.5-1.1,0.9-1.7,1.2
			c16.3-6.8,27.7-22.8,27.7-41.5c0-4.6-0.7-9.1-2-13.3c-0.1,0.2-0.1,0.4-0.2,0.6C483,135.3,483,135.4,483,135.5 M475.8,166.1
			l-1.1-1.8l1-3l1.3-6.4c1.9-0.5,1.5,3.1,1.5,3.1C479,160.1,475.8,166.1,475.8,166.1"/>
		<g class="st7">
			<g>
				<g>
					<path class="st12" d="M483,135.5c0,0.8-0.4,5.4-3.3,4.9c-0.2,0-0.3-0.1-0.4-0.2c-1.1-1.1-7-7.3-6.1-11.7c0-0.2,0-0.4-0.1-0.6
						c-0.4-0.7-1.6-2.6-3.1-3.3c-0.2-0.1-0.4-0.2-0.5-0.4l-0.4-1c-0.2-0.6-1-0.7-1.4-0.2l-0.8,0.8c-0.3,0.4-0.9,0.4-1.3,0
						c-0.3-0.3-0.6-0.7-0.8-0.8c-0.3-0.1-2.2,0.6-3.2,1c-0.4,0.1-0.8,0-1-0.3l-0.8-1.3c-0.1-0.2-0.3-0.3-0.5-0.4l-1.3-0.3
						c0.8,1.5,1.5,3,2.2,4.6c0.3,0.1,0.5,0.3,0.8,0.4c0.2,0.1,0.3,0.2,0.5,0.2c0.9,0.3,3.6,1.1,5.1,1.4c0.5,0.1,1,0,1.5-0.2
						c1.1-0.5,3.3-1,4,1.9c0,0,3.6,10.2,5.9,11.2c0.6,0.2,0.8,0.3,0.8,0.4c-0.9,0.9-2.3,0.9-2.5,2.1l-1.6,11.5c0,0.1,0,0.3,0,0.4
						c0,1.3,0.2,8.7-1.3,8.7c0,0-2.7,2.9-4.7,4.5c-1,0.8-2.4,0.7-3.2-0.2c-1.8-1.7-4.6-5-4.6-7.9c0-0.7,0-1.5-0.1-2.3
						c-0.8,2-9,21.5-34,28.4c0.8,1.8,1.3,3.8,1.4,4.5c3.2,0.9,6.5,1.4,10,1.6c7.6-6,21-4.6,21-4.6c-0.5,0.5-1.1,0.9-1.7,1.2
						c16.3-6.8,27.7-22.8,27.7-41.5c0-4.6-0.7-9.1-2-13.3c-0.1,0.2-0.1,0.4-0.2,0.6C483,135.3,483,135.4,483,135.5 M475.8,166.1
						l-1.1-1.8l1-3l1.3-6.4c1.9-0.5,1.5,3.1,1.5,3.1C479,160.1,475.8,166.1,475.8,166.1"/>
				</g>
			</g>
		</g>
		<path class="st5" d="M448.5,108.4c0.1,0,0.3,0,0.4,0c1.8-0.1,3.9-0.8,5.8,0.4l6.6,3.6c0.4,0.2,0.8,0.1,1-0.2
			c0.5-0.6,1.2-1.5,2-2.1c-1.1-0.7-2.2-1.3-3.3-1.9c0,0.2-0.1,0.5-0.2,0.7c-0.3,0.4-0.6,0.8-0.8,1.1c-0.7,0.8-2.1,0.5-2.4-0.5
			c-0.1-0.4-0.3-0.7-0.7-0.8l-1.8-1c-0.6-0.3-0.9-1-0.6-1.7l0.1-0.2c0-0.1,0.1-0.1,0.1-0.2c-3.7-1.3-7.7-2-11.8-2.3
			C444,103.9,446.1,105.7,448.5,108.4"/>
		<g class="st7">
			<g>
				<defs>
					<rect id="SVGID_9_" x="443" y="103" width="21.4" height="9.4"/>
				</defs>
				<clipPath id="SVGID_10_">
					<use xlink:href="#SVGID_9_"  style="overflow:visible;"/>
				</clipPath>
				<g class="st13">
					<defs>
						<rect id="SVGID_11_" x="443" y="103" width="21.4" height="9.4"/>
					</defs>
					<clipPath id="SVGID_12_">
						<use xlink:href="#SVGID_11_"  style="overflow:visible;"/>
					</clipPath>
					<path class="st14" d="M448.5,108.4c0.1,0,0.3,0,0.4,0c1.8-0.1,3.9-0.8,5.8,0.4l6.6,3.6c0.4,0.2,0.8,0.1,1-0.2
						c0.5-0.6,1.2-1.5,2-2.1c-1.1-0.7-2.2-1.3-3.3-1.9c0,0.2-0.1,0.5-0.2,0.7c-0.3,0.4-0.6,0.8-0.8,1.1c-0.7,0.8-2.1,0.5-2.4-0.5
						c-0.1-0.4-0.3-0.7-0.7-0.8l-1.8-1c-0.6-0.3-0.9-1-0.6-1.7l0.1-0.2c0-0.1,0.1-0.1,0.1-0.2c-3.7-1.3-7.7-2-11.8-2.3
						C444,103.9,446.1,105.7,448.5,108.4"/>
				</g>
			</g>
		</g>
		<path class="st6" d="M465.4,168.6c0.9,0.9,2.3,1,3.2,0.2c2-1.6,4.7-4.5,4.7-4.5c1.5,0,1.4-7.4,1.3-8.7c0-0.1,0-0.3,0-0.4l1.6-11.5
			c0.2-1.2,1.6-1.2,2.5-2.1c0,0-0.2-0.1-0.8-0.4c-2.3-1-5.9-11.2-5.9-11.2c-0.7-3-3-2.4-4-1.9c-0.5,0.2-1,0.3-1.5,0.2
			c-1.5-0.3-4.3-1.2-5.1-1.4c-0.2-0.1-0.3-0.1-0.5-0.2c-0.3-0.2-0.5-0.3-0.8-0.4c3.7,8.9,5.2,19.8,0.6,32c0,0,0,0.1-0.1,0.2
			c0.1,0.8,0.1,1.6,0.1,2.3C460.9,163.6,463.7,166.8,465.4,168.6"/>
		<g class="st7">
			<g>
				<defs>
					<rect id="SVGID_13_" x="460.2" y="126.1" width="18.6" height="43.1"/>
				</defs>
				<clipPath id="SVGID_14_">
					<use xlink:href="#SVGID_13_"  style="overflow:visible;"/>
				</clipPath>
				<g class="st15">
					<defs>
						<rect id="SVGID_15_" x="460.2" y="126.1" width="18.6" height="43.1"/>
					</defs>
					<clipPath id="SVGID_16_">
						<use xlink:href="#SVGID_15_"  style="overflow:visible;"/>
					</clipPath>
					<path class="st16" d="M465.4,168.6c0.9,0.9,2.3,1,3.2,0.2c2-1.6,4.7-4.5,4.7-4.5c1.5,0,1.4-7.4,1.3-8.7c0-0.1,0-0.3,0-0.4
						l1.6-11.5c0.2-1.2,1.6-1.2,2.5-2.1c0,0-0.2-0.1-0.8-0.4c-2.3-1-5.9-11.2-5.9-11.2c-0.7-3-3-2.4-4-1.9c-0.5,0.2-1,0.3-1.5,0.2
						c-1.5-0.3-4.3-1.2-5.1-1.4c-0.2-0.1-0.3-0.1-0.5-0.2c-0.3-0.2-0.5-0.3-0.8-0.4c3.7,8.9,5.2,19.8,0.6,32c0,0,0,0.1-0.1,0.2
						c0.1,0.8,0.1,1.6,0.1,2.3C460.9,163.6,463.7,166.8,465.4,168.6"/>
				</g>
			</g>
		</g>
		<path class="st6" d="M438.2,192.8c0.7,0,1.4,0.1,2.1,0.1c6.1,0,11.9-1.2,17.3-3.4c0.6-0.4,1.1-0.8,1.7-1.2
			C459.2,188.1,445.8,186.8,438.2,192.8"/>
		<g class="st7">
			<g>
				<defs>
					<rect id="SVGID_17_" x="438.2" y="188" width="21" height="4.8"/>
				</defs>
				<clipPath id="SVGID_18_">
					<use xlink:href="#SVGID_17_"  style="overflow:visible;"/>
				</clipPath>
				<g class="st17">
					<defs>
						<rect id="SVGID_19_" x="438.2" y="188" width="21" height="4.8"/>
					</defs>
					<clipPath id="SVGID_20_">
						<use xlink:href="#SVGID_19_"  style="overflow:visible;"/>
					</clipPath>
					<path class="st18" d="M438.2,192.8c0.7,0,1.4,0.1,2.1,0.1c6.1,0,11.9-1.2,17.3-3.4c0.6-0.4,1.1-0.8,1.7-1.2
						C459.2,188.1,445.8,186.8,438.2,192.8"/>
				</g>
			</g>
		</g>
		<path class="st6" d="M454.6,105.7c-0.2,0.6,0,1.4,0.6,1.7l1.8,1c0.3,0.2,0.6,0.5,0.7,0.8c0.3,1.1,1.6,1.3,2.4,0.5
			c0.2-0.3,0.5-0.6,0.8-1.1c0.1-0.2,0.2-0.4,0.2-0.7c-2-1.1-4.1-2-6.3-2.7c0,0.1-0.1,0.1-0.1,0.2L454.6,105.7z"/>
		<g class="st7">
			<g>
				<defs>
					<rect id="SVGID_21_" x="454.5" y="105.3" width="6.6" height="4.9"/>
				</defs>
				<clipPath id="SVGID_22_">
					<use xlink:href="#SVGID_21_"  style="overflow:visible;"/>
				</clipPath>
				<g class="st19">
					<defs>
						<rect id="SVGID_23_" x="454.5" y="105.3" width="6.6" height="4.9"/>
					</defs>
					<clipPath id="SVGID_24_">
						<use xlink:href="#SVGID_23_"  style="overflow:visible;"/>
					</clipPath>
					<path class="st20" d="M454.6,105.7c-0.2,0.6,0,1.4,0.6,1.7l1.8,1c0.3,0.2,0.6,0.5,0.7,0.8c0.3,1.1,1.6,1.3,2.4,0.5
						c0.2-0.3,0.5-0.6,0.8-1.1c0.1-0.2,0.2-0.4,0.2-0.7c-2-1.1-4.1-2-6.3-2.7c0,0.1-0.1,0.1-0.1,0.2L454.6,105.7z"/>
				</g>
			</g>
		</g>
		<path class="st6" d="M462.4,112.1c-0.2,0.3-0.7,0.4-1,0.2l-6.6-3.6c-1.9-1.2-4-0.5-5.8-0.4c-0.1,0-0.3,0-0.4,0
			c2.6,2.8,5.6,6.5,8.2,11c0.3,0.1,0.5,0.5,0.5,0.8c0.3,0.5,0.5,0.9,0.8,1.4l1.3,0.3c0.2,0,0.4,0.2,0.5,0.4l0.8,1.3
			c0.2,0.3,0.6,0.5,1,0.3c1-0.4,2.9-1.1,3.2-1c0.2,0.1,0.5,0.4,0.8,0.8c0.3,0.4,0.9,0.4,1.3,0l0.8-0.8c0.4-0.4,1.1-0.3,1.4,0.2
			l0.4,1c0.1,0.2,0.3,0.4,0.5,0.4c1.5,0.7,2.7,2.6,3.1,3.3c0.1,0.2,0.1,0.4,0.1,0.6c-0.9,4.5,5,10.6,6.1,11.7
			c0.1,0.1,0.3,0.2,0.4,0.2c2.9,0.5,3.3-4,3.3-4.9c0-0.1,0-0.2,0.1-0.3c0.1-0.2,0.1-0.4,0.2-0.6c-1.1-3.6-2.7-7.1-4.6-10.2l-2-0.3
			c-0.4-0.1-0.7-0.5-0.7-0.9l0.2-2.3c-3.2-4.3-7.2-8-11.8-10.9C463.6,110.5,462.8,111.5,462.4,112.1"/>
		<g class="st7">
			<g>
				<defs>
					<rect id="SVGID_25_" x="448.5" y="108.1" width="34.7" height="32.3"/>
				</defs>
				<clipPath id="SVGID_26_">
					<use xlink:href="#SVGID_25_"  style="overflow:visible;"/>
				</clipPath>
				<g class="st21">
					<defs>
						<rect id="SVGID_27_" x="448.5" y="108.1" width="34.7" height="32.3"/>
					</defs>
					<clipPath id="SVGID_28_">
						<use xlink:href="#SVGID_27_"  style="overflow:visible;"/>
					</clipPath>
					<path class="st22" d="M462.4,112.1c-0.2,0.3-0.7,0.4-1,0.2l-6.6-3.6c-1.9-1.2-4-0.5-5.8-0.4c-0.1,0-0.3,0-0.4,0
						c2.6,2.8,5.6,6.5,8.2,11c0.3,0.1,0.5,0.5,0.5,0.8c0.3,0.5,0.5,0.9,0.8,1.4l1.3,0.3c0.2,0,0.4,0.2,0.5,0.4l0.8,1.3
						c0.2,0.3,0.6,0.5,1,0.3c1-0.4,2.9-1.1,3.2-1c0.2,0.1,0.5,0.4,0.8,0.8c0.3,0.4,0.9,0.4,1.3,0l0.8-0.8c0.4-0.4,1.1-0.3,1.4,0.2
						l0.4,1c0.1,0.2,0.3,0.4,0.5,0.4c1.5,0.7,2.7,2.6,3.1,3.3c0.1,0.2,0.1,0.4,0.1,0.6c-0.9,4.5,5,10.6,6.1,11.7
						c0.1,0.1,0.3,0.2,0.4,0.2c2.9,0.5,3.3-4,3.3-4.9c0-0.1,0-0.2,0.1-0.3c0.1-0.2,0.1-0.4,0.2-0.6c-1.1-3.6-2.7-7.1-4.6-10.2
						l-2-0.3c-0.4-0.1-0.7-0.5-0.7-0.9l0.2-2.3c-3.2-4.3-7.2-8-11.8-10.9C463.6,110.5,462.8,111.5,462.4,112.1"/>
				</g>
			</g>
		</g>
		<path class="st6" d="M477,154.9l-1.3,6.4l-1,3l1.1,1.8c0,0,3.2-6,2.6-8.1C478.5,158,478.9,154.4,477,154.9"/>
		<g class="st7">
			<g>
				<defs>
					<rect id="SVGID_29_" x="474.7" y="154.9" width="3.8" height="11.2"/>
				</defs>
				<clipPath id="SVGID_30_">
					<use xlink:href="#SVGID_29_"  style="overflow:visible;"/>
				</clipPath>
				<g class="st23">
					<defs>
						<rect id="SVGID_31_" x="474.7" y="154.9" width="3.8" height="11.2"/>
					</defs>
					<clipPath id="SVGID_32_">
						<use xlink:href="#SVGID_31_"  style="overflow:visible;"/>
					</clipPath>
					<path class="st24" d="M477,154.9l-1.3,6.4l-1,3l1.1,1.8c0,0,3.2-6,2.6-8.1C478.5,158,478.9,154.4,477,154.9"/>
				</g>
			</g>
		</g>
		<path class="st6" d="M426.8,186.7c-2,0.6-4.2,1-6.5,1.4c2.5,1.3,5.2,2.3,7.9,3.1C428.1,190.5,427.6,188.5,426.8,186.7"/>
		<g class="st7">
			<g>
				<defs>
					<rect id="SVGID_33_" x="420.3" y="186.7" width="7.9" height="4.5"/>
				</defs>
				<clipPath id="SVGID_34_">
					<use xlink:href="#SVGID_33_"  style="overflow:visible;"/>
				</clipPath>
				<g class="st25">
					<defs>
						<rect id="SVGID_35_" x="420.3" y="186.7" width="7.9" height="4.5"/>
					</defs>
					<clipPath id="SVGID_36_">
						<use xlink:href="#SVGID_35_"  style="overflow:visible;"/>
					</clipPath>
					<path class="st26" d="M426.8,186.7c-2,0.6-4.2,1-6.5,1.4c2.5,1.3,5.2,2.3,7.9,3.1C428.1,190.5,427.6,188.5,426.8,186.7"/>
				</g>
			</g>
		</g>
	</g>
	<rect x="408.3" y="144.3" class="st6" width="6.5" height="7.7"/>
</g>
<path class="st0" d="M298,113.9c-1-0.5-2.1-1.1-3.2-1.5c-7-2.8-14.3-3.6-21.7-2.6c-5.6,0.8-11.2,2-15.6,5.9c-1,0.9-1.9,2.5-1.9,3.8
	c-0.2,9-0.1,18-0.1,27c0,2.3,1.9,4.2,4.2,4.1c2.4,0,3.6-0.7,4.1-2.2c0.1-0.3,0.1-0.6,0.1-0.8v-22.4c0-0.4,0.3-0.7,0.7-0.7h0.2h0.1
	c0.4,0,0.7,0.3,0.7,0.7v22.9c0,10.6,0,21.1,0,31.7c0,1.1,0,2.2,0.2,3.3c0.5,2.8,2.3,4.3,5,4.5c4.7,0.3,7.1-2,7.1-6.8
	c0-8.7,0-17.5,0-26.2v-5.4c0-0.5,0.5-0.9,1.1-0.9s1.1,0.4,1.1,0.9v32.5c0,0,0,0.1,0,0.1c0.2,4.1,2.2,6.2,6,6.1
	c4.1-0.1,6.2-2.5,6.2-6.9c0-17.8,0-55.5,0-55.5v-0.1c0-0.3,0.2-0.6,0.5-0.7c0.1,0,0.1,0,0.2,0c0,0,0,0,0,0s0,0,0,0h0.3
	c0.4,0,0.7,0.3,0.7,0.7V148c0,0.8,0.3,1.5,1,2c0.8,0.5,1.9,0.8,3.5,0.7c2.9-0.1,3.7-0.9,3.7-3.8c0-8.5-0.2-17,0.1-25.4
	C302.7,117.6,301.1,115.5,298,113.9z"/>
<path class="st0" d="M278.4,106.6c10.4,0.3,19.1-8,19.4-18.5c0.3-10.4-7.9-18.9-18.4-19.2c-10.2-0.3-18.8,8-19.1,18.4
	C260,97.4,268.3,106.2,278.4,106.6z"/>
<g>
	<path class="st0" d="M140.3,21.1v-3.9l2.9,3.1v-2.9h0.4v3.9l-2.9-3.1v2.9H140.3z"/>
</g>
<g>
	<path class="st0" d="M142.4,132.2c-0.1-0.1-0.1-0.2-0.2-0.3c-0.1-0.1-0.2-0.1-0.4-0.1c-0.4,0-0.6,0.2-0.6,0.6c0,0.1,0,0.2,0.1,0.3
		c0.1,0.1,0.3,0.2,0.4,0.2l0.4,0.2c0.2,0.1,0.4,0.2,0.6,0.4c0.2,0.2,0.3,0.4,0.3,0.7c0,0.7-0.5,1.2-1.2,1.2c-0.2,0-0.6-0.1-0.8-0.3
		c-0.2-0.2-0.3-0.4-0.3-0.7l0.4-0.1c0,0.2,0.1,0.4,0.2,0.5c0.2,0.2,0.3,0.2,0.5,0.2c0.5,0,0.8-0.4,0.8-0.7c0-0.2-0.1-0.3-0.2-0.4
		c-0.1-0.1-0.3-0.2-0.4-0.3l-0.3-0.2c-0.1-0.1-0.3-0.1-0.5-0.3c-0.2-0.2-0.3-0.3-0.3-0.6c0-0.6,0.4-1,1.1-1c0.2,0,0.4,0,0.6,0.2
		c0.2,0.1,0.3,0.3,0.4,0.4L142.4,132.2z"/>
</g>
<g>
	<path class="st0" d="M199.2,75.7h-1.5v1.1h1.5v0.4h-1.5v1.5h1.5V79h-1.9v-3.7h1.9V75.7z"/>
</g>
<g>
	<path class="st0" d="M83.2,74.5l1,2.8l1.2-3l1.1,3l1.1-2.8h0.5l-1.6,3.9l-1.1-3l-1.2,3l-1.4-3.9H83.2z"/>
</g>
<polyline class="st0" points="142,126.4 131.2,102.6 111.5,105.6 115.9,87.4 91.7,76.6 115.9,65.8 111.5,46.6 131.2,50.5 142,25.5 
	"/>
<polyline class="st0" points="142,126.4 152.8,102.6 172.5,105.6 168,87.4 192.3,76.6 168,65.8 172.5,46.6 152.8,50.5 142,25.5 "/>
<polygon class="st27" points="130.2,56.4 130.7,56.4 153.5,56.4 153.8,56.4 165.4,76.6 153.8,96.8 153.5,96.8 130.7,96.8 
	130.2,96.8 118.6,76.6 "/>
</svg>
